<svg xmlns="http://www.w3.org/2000/svg" width="119" height="48" fill="none" viewBox="0 0 119 48"><mask id="a" fill="#fff"><path d="M0 24C0 10.745 10.745 0 24 0h71c13.255 0 24 10.745 24 24s-10.745 24-24 24H24C10.745 48 0 37.255 0 24"/></mask><path fill="#ABEAAB" d="M0 24C0 10.745 10.745 0 24 0h71c13.255 0 24 10.745 24 24s-10.745 24-24 24H24C10.745 48 0 37.255 0 24"/><path fill="#7DB16A" d="M24 0v2h71v-4H24zm71 48v-2H24v4h71zm-71 0v-2C11.85 46 2 36.15 2 24h-4c0 14.36 11.64 26 26 26zm95-24h-2c0 12.15-9.85 22-22 22v4c14.359 0 26-11.64 26-26zM95 0v2c12.15 0 22 9.85 22 22h4c0-14.36-11.641-26-26-26zM24 0v-2C9.64-2-2 9.64-2 24h4C2 11.85 11.85 2 24 2z" mask="url(#a)"/><g clip-path="url(#b)"><path fill="#60A060" fill-rule="evenodd" d="M39.78 26.743c-.716-4.933-3.246-8.802-6.707-11.01l2.03-5.015a1.71 1.71 0 0 0-.248-1.697 1.4 1.4 0 0 0-.436-.351 1.24 1.24 0 0 0-1.053-.04 1.46 1.46 0 0 0-.77.809l-2.042 5.045a13 13 0 0 0-4.507-.796 13 13 0 0 0-4.507.796l-2.042-5.045a1.6 1.6 0 0 0-.313-.49 1.4 1.4 0 0 0-.457-.319 1.24 1.24 0 0 0-1.053.04 1.4 1.4 0 0 0-.437.351c-.123.149-.22.323-.283.513a1.72 1.72 0 0 0 .035 1.184l2.03 5.016c-3.46 2.207-5.992 6.076-6.706 11.01-.239 1.645-.327 3.413.196 5.017.597 1.836 1.816 2.972 3.246 3.61 1.287.577 2.828.79 4.414.893 1.628.107 3.604.111 5.877.111s4.248-.004 5.875-.111c1.586-.104 3.128-.318 4.415-.891 1.432-.64 2.65-1.774 3.246-3.61.524-1.609.436-3.374.197-5.02m-24.749.497c-.863 5.96 1.836 6.041 11.016 6.041s11.878-.078 11.016-6.04c-.918-6.335-5.508-10.46-11.016-10.46s-10.098 4.125-11.016 10.46m15.606 2.432c-.365 0-.716-.163-.974-.453a1.65 1.65 0 0 1-.403-1.094v-3.094c0-.41.145-.803.403-1.093s.609-.454.974-.454.715.163.973.453c.259.29.404.684.404 1.094v3.094c0 .41-.145.804-.404 1.094-.258.29-.608.453-.973.453M20.08 28.125c0 .41.145.804.403 1.094.259.29.609.453.974.453s.715-.163.974-.453a1.65 1.65 0 0 0 .403-1.094v-3.094c0-.41-.145-.803-.403-1.093a1.3 1.3 0 0 0-.974-.454c-.365 0-.715.163-.974.453a1.65 1.65 0 0 0-.403 1.094z" clip-rule="evenodd"/></g><g clip-path="url(#c)"><path fill="#61A161" d="m56.408 18.604 4.32 8.928q.272.545.272.816 0 .575-.928 1.04-.544.272-.864.272a.9.9 0 0 1-.512-.144 1.1 1.1 0 0 1-.288-.304l-.24-.48-.832-1.728h-4.432l-.832 1.728a5 5 0 0 1-.256.464q-.08.144-.288.304-.192.144-.512.144-.304 0-.848-.272-.928-.448-.928-1.024 0-.271.272-.816l4.32-8.944q.175-.368.528-.592.367-.224.768-.224.864 0 1.28.832m-1.296 3.84-1.056 2.192h2.128zm11.45-1.376q1.6 0 2.656 1.232 1.072 1.216 1.072 2.976v2.816q0 .368-.032.56-.015.175-.128.4-.224.432-1.248.432-1.135 0-1.312-.592-.096-.271-.096-.816V25.26q0-.656-.384-1.024-.367-.368-1.008-.368-.624 0-1.024.384-.384.384-.384 1.008v2.832q0 .368-.032.56-.015.175-.144.4-.207.432-1.232.432-1.008 0-1.232-.432a1.8 1.8 0 0 1-.144-.416 7 7 0 0 1-.016-.56v-5.664q0-.352.016-.528.033-.192.16-.416.225-.4 1.232-.4.977 0 1.2.368.16.272.16.656.064-.112.288-.32.225-.208.432-.336a2.1 2.1 0 0 1 1.2-.368m10.664-3.504a.7.7 0 0 1 .431-.336q.305-.096.8-.096.513 0 .817.096t.415.336q.129.24.145.432.03.176.031.544v9.552q0 .368-.031.56-.017.175-.145.4-.24.432-1.36.432-1.103 0-1.231-.784-.672.768-1.873.768-1.44 0-2.623-1.248-1.185-1.264-1.184-2.928 0-1.68 1.183-2.944 1.2-1.264 2.624-1.264 1.185 0 1.84.8v-3.36q0-.368.017-.544.03-.192.144-.416m-2.593 8.688q.417.432 1.008.432.592 0 .977-.432.4-.432.4-.944 0-.528-.385-.976-.367-.448-1.007-.448t-1.025.448a1.4 1.4 0 0 0-.383.96q0 .528.415.96m12.235-5.088q.304.096.496.336.208.225.208.736 0 .512-.304 1.12t-.88.608q-.288 0-.56-.128-.256-.128-.688-.128t-.816.304q-.368.304-.368.736v3.36q0 .368-.032.56a1.1 1.1 0 0 1-.144.416q-.24.416-1.248.416-.768 0-1.104-.272-.256-.225-.288-.688v-6.08q0-.368.016-.544.032-.192.144-.416.224-.432 1.248-.432.96 0 1.2.368.176.256.176.528.08-.112.224-.272.16-.16.656-.432t.864-.272q.385 0 .64.048.255.032.56.128m.86 4.128q0-1.92 1.344-3.168t3.072-1.248 3.056 1.248q1.328 1.232 1.328 3.152 0 1.328-.688 2.368-.689 1.025-1.68 1.52a4.55 4.55 0 0 1-2.032.48q-1.055 0-2.048-.512-.992-.528-1.68-1.536a4.1 4.1 0 0 1-.672-2.304m3.344 1.152q.512.384 1.04.384t1.056-.4.528-1.184-.496-1.168a1.7 1.7 0 0 0-1.072-.384q-.576 0-1.072.4t-.496 1.184q0 .768.512 1.168m6.49-3.968q0-.368.016-.544.032-.192.144-.432.224-.416 1.248-.416.768 0 1.088.272.271.225.288.688.016.16.016.464v5.6q0 .368-.032.56a1.2 1.2 0 0 1-.144.416q-.209.416-1.232.416-1.008 0-1.232-.432a1.8 1.8 0 0 1-.144-.416 7 7 0 0 1-.016-.56zm2.624-2.96q-.113.224-.416.32-.304.096-.816.096-.495 0-.8-.096a.7.7 0 0 1-.432-.336 1.8 1.8 0 0 1-.144-.416 7 7 0 0 1-.016-.56q0-.368.016-.544.032-.192.144-.416.224-.432 1.248-.432 1.008 0 1.216.432.127.24.144.432.032.176.032.544t-.032.56a1.2 1.2 0 0 1-.144.416m7.102-1.952a.7.7 0 0 1 .432-.336q.304-.096.8-.096.511 0 .816.096t.416.336q.127.24.144.432.032.176.032.544v9.552q0 .368-.032.56-.016.175-.144.4-.24.432-1.36.432-1.104 0-1.232-.784-.672.768-1.872.768-1.44 0-2.624-1.248-1.184-1.264-1.184-2.928 0-1.68 1.184-2.944 1.2-1.264 2.624-1.264 1.184 0 1.84.8v-3.36q0-.368.016-.544.031-.192.144-.416m-2.592 8.688q.416.432 1.008.432t.976-.432q.4-.432.4-.944 0-.528-.384-.976-.368-.448-1.008-.448t-1.024.448a1.4 1.4 0 0 0-.384.96q0 .528.416.96"/></g><defs><clipPath id="b"><path fill="#fff" d="M8 0h33v48H8z"/></clipPath><clipPath id="c"><path fill="#fff" d="M49 14.5h62v19H49z"/></clipPath></defs></svg>