<svg xmlns="http://www.w3.org/2000/svg" width="103" height="48" fill="none" viewBox="0 0 103 48"><mask id="a" fill="#fff"><path d="M0 24C0 10.745 10.745 0 24 0h55c13.255 0 24 10.745 24 24S92.255 48 79 48H24C10.745 48 0 37.255 0 24"/></mask><path fill="#F6F6F6" d="M0 24C0 10.745 10.745 0 24 0h55c13.255 0 24 10.745 24 24S92.255 48 79 48H24C10.745 48 0 37.255 0 24"/><path fill="#9E9E9E" d="M24 0v2h55v-4H24zm55 48v-2H24v4h55zm-55 0v-2C11.85 46 2 36.15 2 24h-4c0 14.36 11.64 26 26 26zm79-24h-2c0 12.15-9.85 22-22 22v4c14.36 0 26-11.64 26-26zM79 0v2c12.15 0 22 9.85 22 22h4C105 9.64 93.36-2 79-2zM24 0v-2C9.64-2-2 9.64-2 24h4C2 11.85 11.85 2 24 2z" mask="url(#a)"/><g clip-path="url(#b)"><path fill="#373B3F" d="M32.402 37.196c-1.732 1.633-3.624 1.375-5.444.602-1.927-.79-3.695-.825-5.728 0-2.546 1.065-3.89.756-5.41-.602-8.627-8.644-7.354-21.808 2.44-22.29 2.386.121 4.048 1.273 5.445 1.376 2.086-.413 4.084-1.598 6.31-1.444 2.67.206 4.686 1.238 6.011 3.094-5.515 3.213-4.207 10.276.849 12.253-1.008 2.577-2.316 5.138-4.49 7.028zm-8.874-22.392c-.265-3.833 2.935-6.995 6.612-7.304.512 4.434-4.137 7.733-6.612 7.304"/></g><g clip-path="url(#c)"><path fill="#373B3F" d="m56.408 18.604 4.32 8.928q.272.545.272.816 0 .575-.928 1.04-.544.272-.864.272a.9.9 0 0 1-.512-.144 1.1 1.1 0 0 1-.288-.304l-.24-.48-.832-1.728h-4.432l-.832 1.728a5 5 0 0 1-.256.464q-.08.144-.288.304-.192.144-.512.144-.304 0-.848-.272-.928-.448-.928-1.024 0-.271.272-.816l4.32-8.944q.175-.368.528-.592.367-.224.768-.224.864 0 1.28.832m-1.296 3.84-1.056 2.192h2.128zm6.762 9.344v-9.344q0-.368.016-.544.033-.175.144-.4.225-.432 1.072-.432t1.136.224q.304.209.352.624.609-.832 1.904-.832 1.313 0 2.48 1.232t1.168 2.864q0 1.632-1.168 2.864-1.152 1.232-2.464 1.232-1.311 0-1.904-.736v3.232q0 .368-.032.544-.015.175-.144.4a.64.64 0 0 1-.4.336q-.288.096-.784.096-.495 0-.8-.096a.72.72 0 0 1-.416-.32 1.5 1.5 0 0 1-.144-.4 7 7 0 0 1-.016-.544m3.168-7.536q-.368.432-.368.944t.368.944q.384.416.96.416.593 0 .992-.416.417-.416.416-.944 0-.528-.384-.944-.384-.432-1.008-.432-.607 0-.976.432m6.145 7.536v-9.344q0-.368.016-.544.032-.175.144-.4.225-.432 1.072-.432t1.136.224q.303.209.352.624.608-.832 1.904-.832 1.311 0 2.48 1.232 1.168 1.232 1.168 2.864t-1.168 2.864q-1.153 1.232-2.464 1.232-1.313 0-1.904-.736v3.232q0 .368-.032.544-.016.175-.144.4a.64.64 0 0 1-.4.336q-.288.096-.784.096-.495 0-.8-.096a.72.72 0 0 1-.416-.32 1.5 1.5 0 0 1-.144-.4 7 7 0 0 1-.016-.544m3.168-7.536q-.368.432-.368.944t.368.944q.384.416.96.416.592 0 .992-.416.416-.416.416-.944t-.384-.944q-.384-.432-1.008-.432-.608 0-.976.432m6.144-5.744q0-.368.016-.544.033-.192.144-.432.225-.432 1.248-.432.976 0 1.216.432.129.24.144.432.032.192.032.56v7.408q0 .576.096.736.096.144.416.144.336 0 .448.032.113.015.272.128.32.208.32 1.136 0 1.008-.32 1.232-.415.288-1.984.096-1.231-.16-1.6-.816-.448-.785-.448-2.496zm13.207 5.776q0 .975-.496 1.456-.48.465-1.072.464h-3.793q0 .449.529.752a2.1 2.1 0 0 0 1.056.304q.927 0 1.455-.192l.176-.064q.385-.176.64-.176.513 0 .88.72.21.432.209.736 0 1.425-3.409 1.424-1.183 0-2.112-.4-.911-.416-1.424-1.088-1.007-1.296-1.007-2.896 0-2.016 1.296-3.216 1.311-1.215 3.263-1.216 2.225 0 3.264 1.568.544.832.544 1.824m-3.377.464q.609 0 .609-.512a.71.71 0 0 0-.288-.592q-.273-.224-.8-.224-.513 0-1.024.432-.512.416-.512.896z"/></g><defs><clipPath id="b"><path fill="#fff" d="M8 0h33v48H8z"/></clipPath><clipPath id="c"><path fill="#fff" d="M49 14.5h46v19H49z"/></clipPath></defs></svg>