<svg xmlns="http://www.w3.org/2000/svg" width="220" height="48" fill="none" viewBox="0 0 220 48"><mask id="a" fill="#fff"><path d="M0 24C0 10.745 10.745 0 24 0h172c13.255 0 24 10.745 24 24s-10.745 24-24 24H24C10.745 48 0 37.255 0 24"/></mask><path fill="#B1E7FF" d="M0 24C0 10.745 10.745 0 24 0h172c13.255 0 24 10.745 24 24s-10.745 24-24 24H24C10.745 48 0 37.255 0 24"/><path fill="#818CFE" d="M24 0v2h172v-4H24zm172 48v-2H24v4h172zM24 48v-2C11.85 46 2 36.15 2 24h-4c0 14.36 11.64 26 26 26zm196-24h-2c0 12.15-9.85 22-22 22v4c14.359 0 26-11.64 26-26zM196 0v2c12.15 0 22 9.85 22 22h4c0-14.36-11.641-26-26-26zM24 0v-2C9.64-2-2 9.64-2 24h4C2 11.85 11.85 2 24 2z" mask="url(#a)"/><g clip-path="url(#b)"><path fill="#A4D5FF" d="m17.006 47.643.015-.003q.015.003.02.024l.02.557-.004.023-.015.02-.128.097-.015.005-.018-.005-.129-.096-.012-.017-.006-.027.02-.559.006-.013q.009-.012.03-.008l.087.047.017.006.025-.006zm.324-.148.017-.002q.018.004.024.028l.042.802-.005.019q-.012.016-.035.01l-.248-.12-.01-.01-.006-.016-.023-.562.004-.014.013-.013zm-.883-.003a.02.02 0 0 1 .018.003l.227.12.012.013.004.016-.022.562-.004.014-.012.01-.248.122-.019.003q-.02-.008-.02-.032l.041-.802.008-.018a.03.03 0 0 1 .015-.011"/><path stroke="#188BED" stroke-width="1.333" d="m17.006 47.643.015-.003q.015.003.02.024l.02.557-.004.023-.015.02-.128.097-.015.005-.018-.005-.129-.096-.012-.017-.006-.027.02-.559.006-.013q.009-.012.03-.008l.087.047.017.006.025-.006zm.324-.148.017-.002q.018.004.024.028l.042.802-.005.019q-.012.016-.035.01l-.248-.12-.01-.01-.006-.016-.023-.562.004-.014.013-.013zm-.883-.003a.02.02 0 0 1 .018.003l.227.12.012.013.004.016-.022.562-.004.014-.012.01-.248.122-.019.003q-.02-.008-.02-.032l.041-.802.008-.018a.03.03 0 0 1 .015-.011Z"/><path fill="#5C78D3" d="M20.775 16.128c.737-2.285 3.72-2.354 4.595-.207l.074.209.995 3.082a5.3 5.3 0 0 0 1.081 1.897c.484.543 1.073.97 1.726 1.252l.268.106 2.911 1.053c2.159.78 2.224 3.939.198 4.865l-.198.078-2.91 1.054a4.9 4.9 0 0 0-1.793 1.145 5.25 5.25 0 0 0-1.183 1.828l-.1.282-.994 3.084c-.738 2.285-3.72 2.355-4.594.209l-.076-.21-.994-3.082a5.3 5.3 0 0 0-1.081-1.897 4.9 4.9 0 0 0-1.727-1.253l-.266-.106-2.911-1.052c-2.16-.781-2.226-3.94-.198-4.864l.198-.081 2.91-1.053a4.9 4.9 0 0 0 1.792-1.145 5.2 5.2 0 0 0 1.183-1.828l.1-.282zm12.203-4.503c.23 0 .457.069.652.198.196.13.354.314.455.533l.06.153.431 1.34 1.267.457c.231.084.434.238.583.443s.236.453.251.71c.016.259-.041.516-.164.74a1.26 1.26 0 0 1-.524.517l-.146.063-1.265.457-.432 1.341c-.079.245-.224.46-.418.617s-.428.25-.672.266a1.2 1.2 0 0 1-.697-.174 1.3 1.3 0 0 1-.489-.556l-.06-.153-.43-1.34-1.268-.457a1.24 1.24 0 0 1-.582-.442 1.37 1.37 0 0 1-.088-1.45c.123-.224.305-.404.525-.518l.145-.062 1.266-.457.432-1.342c.083-.258.24-.482.45-.64s.46-.244.718-.244"/></g><g clip-path="url(#c)"><path fill="#5C78D3" d="m56.408 18.604 4.32 8.928q.272.545.272.816 0 .575-.928 1.04-.544.272-.864.272a.9.9 0 0 1-.512-.144 1.1 1.1 0 0 1-.288-.304l-.24-.48-.832-1.728h-4.432l-.832 1.728a5 5 0 0 1-.256.464q-.08.144-.288.304-.192.144-.512.144-.304 0-.848-.272-.928-.448-.928-1.024 0-.271.272-.816l4.32-8.944q.175-.368.528-.592.367-.224.768-.224.864 0 1.28.832m-1.296 3.84-1.056 2.192h2.128zm12.49-1.28q.304.096.496.336.208.225.208.736 0 .512-.304 1.12-.303.608-.88.608-.287 0-.56-.128-.256-.128-.688-.128t-.816.304q-.368.304-.368.736v3.36q0 .368-.032.56a1.1 1.1 0 0 1-.144.416q-.24.416-1.248.416-.768 0-1.104-.272-.255-.225-.288-.688v-6.08q0-.368.016-.544.033-.192.144-.416.225-.432 1.248-.432.96 0 1.2.368.177.256.176.528.08-.112.224-.272.16-.16.656-.432t.864-.272q.385 0 .64.048.257.032.56.128m6.48 2.736-1.04-.064v2.208q0 .432.129.624.144.192.512.192.384 0 .576.032.207.016.432.144.368.208.368 1.072 0 1.008-.448 1.232-.24.113-.432.144-.177.016-.528.016-1.664 0-2.528-.752t-.864-2.544v-2.368a4 4 0 0 1-.656.048.76.76 0 0 1-.592-.272q-.225-.271-.224-.928 0-.656.08-.944.08-.305.224-.432a.98.98 0 0 1 .64-.208l.528.064v-1.648q0-.368.016-.544.032-.176.16-.384.208-.4 1.232-.4 1.088 0 1.296.592.08.256.08.816v1.568q.704-.064 1.056-.064.367 0 .544.032.192.016.432.144.416.209.416 1.232 0 1.008-.432 1.232-.24.113-.432.144-.176.015-.544.016m2.292-1.424q0-.368.016-.544.033-.192.144-.432.225-.416 1.248-.416.768 0 1.088.272.273.225.288.688.016.16.016.464v5.6q0 .368-.032.56a1.1 1.1 0 0 1-.144.416q-.207.416-1.232.416-1.007 0-1.232-.432a1.8 1.8 0 0 1-.144-.416 7 7 0 0 1-.016-.56zm2.624-2.96q-.111.224-.416.32-.303.096-.816.096-.495 0-.8-.096a.7.7 0 0 1-.432-.336 1.8 1.8 0 0 1-.144-.416 7 7 0 0 1-.016-.56q0-.368.016-.544.033-.192.144-.416.225-.432 1.248-.432 1.008 0 1.216.432.129.24.144.432.032.176.032.544t-.032.56a1.1 1.1 0 0 1-.144.416m6.382 1.568q1.105 0 1.297.608.095.305.095.8t-.112.8a.72.72 0 0 1-.32.416q-.336.192-.975.192l-1.024-.064v4.288q0 .608-.16.912a.73.73 0 0 1-.465.384q-.303.096-.8.096-.495 0-.8-.096a.8.8 0 0 1-.415-.336 1.5 1.5 0 0 1-.16-.432 7 7 0 0 1-.016-.56v-4.24h-.577q-.416-.032-.591-.192-.305-.304-.305-1.168 0-1.312.944-1.312h.529v-.848q0-1.232.88-2.224.88-1.008 2.543-1.008.369 0 .545.032.192.016.431.144.432.209.432 1.232 0 .768-.271 1.104-.225.256-.704.288h-.448q-.593 0-.593.4v.88zm2.337 1.392q0-.368.016-.544.031-.192.143-.432.225-.416 1.248-.416.769 0 1.089.272.27.225.288.688.015.16.015.464v5.6q0 .368-.032.56a1.1 1.1 0 0 1-.143.416q-.21.416-1.232.416-1.008 0-1.233-.432a1.8 1.8 0 0 1-.144-.416 7 7 0 0 1-.016-.56zm2.624-2.96q-.113.224-.416.32-.304.096-.816.096-.497 0-.8-.096a.7.7 0 0 1-.433-.336 1.8 1.8 0 0 1-.144-.416 7 7 0 0 1-.016-.56q0-.368.017-.544.031-.192.143-.416.225-.432 1.248-.432 1.008 0 1.217.432.127.24.144.432.03.176.031.544 0 .368-.032.56a1.1 1.1 0 0 1-.143.416m4.095 5.776q0 .672.448 1.056.449.368.944.368.513 0 .944-.288.448-.304.72-.304.48 0 1.168.848.368.465.368.832 0 .608-.88 1.136-.912.64-2.24.64-1.488 0-2.864-1.072-.655-.512-1.072-1.36a4.3 4.3 0 0 1-.416-1.888q0-1.04.416-1.872.417-.848 1.072-1.36 1.329-1.056 2.832-1.056.609 0 1.184.176.576.16.848.32l.256.16q.288.192.448.304.416.32.416.736 0 .4-.336.912-.576.88-1.104.88-.303 0-.864-.352-.288-.272-.832-.272-.528 0-.992.384-.465.384-.464 1.072m5.626-2.816q0-.368.016-.544.032-.192.144-.432.224-.416 1.248-.416.768 0 1.088.272.271.225.288.688.016.16.016.464v5.6q0 .368-.032.56a1.2 1.2 0 0 1-.144.416q-.208.416-1.232.416-1.008 0-1.232-.432a1.7 1.7 0 0 1-.144-.416 7 7 0 0 1-.016-.56zm2.624-2.96q-.112.224-.416.32-.305.096-.816.096-.496 0-.8-.096a.7.7 0 0 1-.432-.336 1.7 1.7 0 0 1-.144-.416 7 7 0 0 1-.016-.56q0-.368.016-.544.032-.192.144-.416.224-.432 1.248-.432 1.008 0 1.216.432.127.24.144.432.032.176.032.544t-.032.56a1.2 1.2 0 0 1-.144.416m6.926 2.448q.096-.896 1.264-.896.624 0 .928.096t.416.336q.127.24.144.432.032.176.032.544v5.6q0 .368-.032.56a1.3 1.3 0 0 1-.128.416q-.223.416-1.104.416-.864 0-1.168-.208-.288-.225-.336-.64-.592.848-1.984.848-1.376 0-2.56-1.264t-1.184-2.928q0-1.68 1.184-2.928 1.2-1.264 2.624-1.264.544 0 .992.192.449.192.624.368.175.16.288.32m-2.912 3.328q0 .528.416.96.415.416 1.008.416.592 0 .976-.432.4-.432.4-.944 0-.528-.384-.976-.367-.448-1.008-.448-.624 0-1.024.448-.384.448-.384.976m6.971-6.784q0-.368.016-.544a1.8 1.8 0 0 1 .144-.432q.225-.432 1.248-.432.976 0 1.216.432.129.24.144.432.032.192.032.56v7.408q0 .576.096.736.096.144.416.144.337 0 .448.032a.7.7 0 0 1 .272.128q.32.208.32 1.136 0 1.008-.32 1.232-.415.288-1.984.096-1.231-.16-1.6-.816-.447-.785-.448-2.496zm9.282.672q0-.368.016-.544.031-.192.16-.432.223-.432 1.248-.432 1.12 0 1.328.592.08.272.08.832v8.896q0 .384-.032.56a1.2 1.2 0 0 1-.144.416q-.225.432-1.248.432-1.12 0-1.312-.608-.096-.256-.096-.816zm8.797 1.888q1.6 0 2.656 1.232 1.072 1.216 1.072 2.976v2.816q0 .368-.032.56-.016.175-.128.4-.224.432-1.248.432-1.136 0-1.312-.592-.096-.271-.096-.816V25.26q0-.656-.384-1.024-.368-.368-1.008-.368-.624 0-1.024.384-.384.384-.384 1.008v2.832q0 .368-.032.56-.016.175-.144.4-.208.432-1.232.432-1.008 0-1.232-.432a1.7 1.7 0 0 1-.144-.416 7 7 0 0 1-.016-.56v-5.664q0-.352.016-.528.032-.192.16-.416.224-.4 1.232-.4.977 0 1.2.368.16.272.16.656.064-.112.288-.32a3 3 0 0 1 .432-.336 2.1 2.1 0 0 1 1.2-.368m9.755 2.832-1.04-.064v2.208q0 .432.128.624.144.192.512.192.384 0 .576.032.207.016.432.144.368.208.368 1.072 0 1.008-.448 1.232-.24.113-.432.144-.177.016-.528.016-1.665 0-2.528-.752-.864-.752-.864-2.544v-2.368a4 4 0 0 1-.656.048.76.76 0 0 1-.592-.272q-.225-.271-.224-.928 0-.656.08-.944.08-.305.224-.432a.98.98 0 0 1 .64-.208l.528.064v-1.648q0-.368.016-.544.031-.176.16-.384.207-.4 1.232-.4 1.088 0 1.296.592.08.256.08.816v1.568q.703-.064 1.056-.064.367 0 .544.032.192.016.432.144.416.209.416 1.232 0 1.008-.432 1.232-.24.113-.432.144-.177.015-.544.016m10.107.384q0 .975-.496 1.456-.48.465-1.072.464h-3.792q0 .449.528.752a2.1 2.1 0 0 0 1.056.304q.928 0 1.456-.192l.176-.064q.384-.176.64-.176.511 0 .88.72.207.432.208.736 0 1.425-3.408 1.424-1.185 0-2.112-.4-.912-.416-1.424-1.088-1.008-1.296-1.008-2.896 0-2.016 1.296-3.216 1.311-1.215 3.264-1.216 2.223 0 3.264 1.568a3.27 3.27 0 0 1 .544 1.824m-3.376.464q.608 0 .608-.512a.71.71 0 0 0-.288-.592q-.273-.224-.8-.224-.513 0-1.024.432-.513.416-.512.896zm7.364 1.92q.528 0 .784.272.255.272.256 1.12 0 .848-.272 1.136-.273.272-.784.272-1.617 0-2.272-.768-.656-.785-.656-2.592v-7.632q0-.368.016-.544.031-.192.144-.432.224-.416 1.248-.416.976 0 1.216.448.128.224.144.416.032.176.032.544v7.68q0 .495.144.496m4.176-.496q0 .304.128.4t.656.096.88.272.352 1.12-.384 1.136q-.369.272-1.04.272-3.392 0-3.392-3.36l-.016-7.632q0-.368.016-.544.031-.192.16-.432.24-.416 1.248-.416.976 0 1.216.448.176.352.176.96zm2.895-3.696q0-.368.016-.544a1.8 1.8 0 0 1 .144-.432q.225-.416 1.248-.416.768 0 1.088.272.273.225.288.688.016.16.016.464v5.6q0 .368-.032.56-.015.176-.144.416-.207.416-1.232.416-1.007 0-1.232-.432a1.8 1.8 0 0 1-.144-.416 7 7 0 0 1-.016-.56zm2.624-2.96q-.111.224-.416.32-.303.096-.816.096-.495 0-.8-.096a.7.7 0 0 1-.432-.336 1.8 1.8 0 0 1-.144-.416 8 8 0 0 1-.016-.56q0-.368.016-.544.033-.192.144-.416.225-.432 1.248-.432 1.008 0 1.216.432.129.24.144.432.032.176.032.544t-.032.56q-.015.176-.144.416m6.798 8.928q-.607.8-1.936.8t-2.496-1.216q-1.152-1.232-1.152-2.864t1.168-2.864 2.56-1.232q.545 0 .992.208.449.192.608.368.177.16.272.304.048-.448.32-.672.288-.24.912-.24t.912.096a.64.64 0 0 1 .4.336q.129.225.144.4.032.176.032.544v6.624q0 1.84-1.28 2.96-1.28 1.136-2.88 1.136-1.216 0-2.32-.592t-1.104-1.072q0-.624.48-1.104.305-.336.464-.464a.67.67 0 0 1 .4-.128q.224 0 .464.192.768.592 1.664.592.609 0 .992-.48.384-.48.384-1.152zm-2.848-3.264q0 .511.4.928.417.416.992.416.592 0 .976-.416.384-.432.384-.928 0-.512-.368-.944-.368-.448-.992-.448t-1.008.432a1.4 1.4 0 0 0-.384.96m14.992-.896q0 .975-.496 1.456-.48.465-1.072.464h-3.792q0 .449.528.752a2.1 2.1 0 0 0 1.056.304q.928 0 1.456-.192l.176-.064q.384-.176.64-.176.511 0 .88.72.207.432.208.736 0 1.425-3.408 1.424-1.185 0-2.112-.4-.912-.416-1.424-1.088-1.008-1.296-1.008-2.896 0-2.016 1.296-3.216 1.311-1.215 3.264-1.216 2.223 0 3.264 1.568a3.27 3.27 0 0 1 .544 1.824m-3.376.464q.608 0 .608-.512a.71.71 0 0 0-.288-.592q-.272-.224-.8-.224-.513 0-1.024.432-.513.416-.512.896zm9.108-3.68q1.6 0 2.656 1.232 1.072 1.216 1.072 2.976v2.816q0 .368-.032.56a1.2 1.2 0 0 1-.128.4q-.225.432-1.248.432-1.137 0-1.312-.592-.096-.271-.096-.816V25.26q0-.656-.384-1.024-.369-.368-1.008-.368-.625 0-1.024.384-.384.384-.384 1.008v2.832q0 .368-.032.56-.016.175-.144.4-.209.432-1.232.432-1.008 0-1.232-.432a1.7 1.7 0 0 1-.144-.416 7 7 0 0 1-.016-.56v-5.664q0-.352.016-.528.031-.192.16-.416.224-.4 1.232-.4.975 0 1.2.368.16.272.16.656.063-.112.288-.32a3 3 0 0 1 .432-.336 2.1 2.1 0 0 1 1.2-.368m7.655 4.224q0 .672.448 1.056.447.368.944.368.512 0 .944-.288.447-.304.72-.304.48 0 1.168.848.368.465.368.832 0 .608-.88 1.136-.912.64-2.24.64-1.488 0-2.864-1.072-.657-.512-1.072-1.36a4.3 4.3 0 0 1-.416-1.888q0-1.04.416-1.872.415-.848 1.072-1.36 1.328-1.056 2.832-1.056.608 0 1.184.176.575.16.848.32l.256.16q.288.192.448.304.416.32.416.736 0 .4-.336.912-.576.88-1.104.88-.305 0-.864-.352-.289-.272-.832-.272-.528 0-.992.384-.465.384-.464 1.072m13.519-1.008q0 .975-.496 1.456-.48.465-1.072.464h-3.792q0 .449.528.752a2.1 2.1 0 0 0 1.056.304q.928 0 1.456-.192l.176-.064q.384-.176.64-.176.512 0 .88.72.208.432.208.736 0 1.425-3.408 1.424-1.183 0-2.112-.4-.912-.416-1.424-1.088-1.008-1.296-1.008-2.896 0-2.016 1.296-3.216 1.312-1.215 3.264-1.216 2.225 0 3.264 1.568.544.832.544 1.824m-3.376.464q.608 0 .608-.512a.71.71 0 0 0-.288-.592q-.272-.224-.8-.224-.512 0-1.024.432-.512.416-.512.896z"/></g><defs><clipPath id="b"><path fill="#fff" d="M8 0h33v48H8z"/></clipPath><clipPath id="c"><path fill="#fff" d="M49 14.5h163v19H49z"/></clipPath></defs></svg>