<svg xmlns="http://www.w3.org/2000/svg" width="131" height="48" fill="none" viewBox="0 0 131 48"><mask id="a" fill="#fff"><path d="M0 24C0 10.745 10.745 0 24 0h83c13.255 0 24 10.745 24 24s-10.745 24-24 24H24C10.745 48 0 37.255 0 24"/></mask><path fill="#D9D9D9" d="M0 24C0 10.745 10.745 0 24 0h83c13.255 0 24 10.745 24 24s-10.745 24-24 24H24C10.745 48 0 37.255 0 24"/><path fill="#84888B" d="M24 0v2h83v-4H24zm83 48v-2H24v4h83zm-83 0v-2C11.85 46 2 36.15 2 24h-4c0 14.36 11.64 26 26 26zm107-24h-2c0 12.15-9.85 22-22 22v4c14.359 0 26-11.64 26-26zM107 0v2c12.15 0 22 9.85 22 22h4c0-14.36-11.641-26-26-26zM24 0v-2C9.64-2-2 9.64-2 24h4C2 11.85 11.85 2 24 2z" mask="url(#a)"/><g clip-path="url(#b)"><path fill="#83979E" stroke="#546E75" stroke-miterlimit="10" stroke-width="1.333" d="M20.592 13.513h-2.605c.03-1.199.24-2.538.42-3.42.089-.528.448-.775.867-.775.39 0 .78.282.899.81.21.988.42 2.468.42 3.385Z"/><path fill="#83979E" stroke="#546E75" stroke-miterlimit="10" stroke-width="2" d="M26.671 13.513h-3.474c.041-.987.287-2.431.573-3.418.122-.458.572-.81 1.144-.775.531 0 1.021.317 1.144.775.286.987.572 2.431.613 3.418Z"/><path fill="#8EA0A6" stroke="#546E75" stroke-miterlimit="10" stroke-width="1.684" d="M31.882 13.513h-2.606c.03-.916.21-2.396.42-3.382.12-.529.449-.846.868-.81.42 0 .808.246.928.81.18.95.39 2.43.39 3.382Zm-2.606 20.135h2.606c-.03.936-.18 2.254-.39 3.398-.21.936-1.377 1.144-1.767.104-.21-.971-.419-2.496-.449-3.502Zm-6.079 0h3.474c-.04.936-.245 2.254-.531 3.398-.286.936-1.88 1.144-2.37.104-.287-.971-.573-2.496-.573-3.502Zm-5.21 0h2.605c-.03.977-.21 2.268-.39 3.384-.239.942-1.377 1.186-1.766.07-.21-.942-.42-2.477-.45-3.454Z"/><path fill="#83979E" stroke="#546E75" stroke-miterlimit="10" stroke-width="1.684" d="M15.382 16.03c-.927.039-2.41.234-3.448.507-1.149.273-1.223 1.912-.037 2.263 1.112.234 2.558.547 3.485.586zm0 5.873c-.9.077-2.289.27-3.451.578-1.05.232-1.276 1.813-.113 2.16.938.232 2.663.502 3.564.618zm0 5.033a22.6 22.6 0 0 0-3.358.523c-1.207.223-1.358 1.939-.151 2.274 1.245.261 2.565.522 3.509.56zM34.487 16.03c.911.039 2.369.273 3.462.546 1.13.273 1.203 1.912.037 2.224-1.094.273-2.588.547-3.5.586zm0 5.873c.894.077 2.273.27 3.429.54 1.08.27 1.304 1.813.112 2.237-.932.231-2.647.501-3.541.579zm0 5.033c.886.075 2.067.224 3.432.523 1.182.26 1.219 1.939.074 2.274-1.218.261-2.583.522-3.506.56z"/><path fill="#85989E" d="M32.605 33.648H17.264c-.995 0-1.882-.799-1.882-1.94V15.53c0-1.028.852-2.017 1.882-2.017h15.34c.96 0 1.883.837 1.883 2.017v16.177c0 1.028-.781 1.941-1.882 1.941"/><path fill="#90A4AA" d="M30.74 30.292H19.128c-.62 0-1.141-.507-1.141-1.115V17.213c0-.609.522-1.183 1.141-1.183h11.58c.652 0 1.174.54 1.174 1.183v11.93c0 .642-.522 1.15-1.142 1.15"/><path stroke="#546E75" stroke-miterlimit="10" stroke-width="1.68" d="M32.605 33.648H17.264c-.995 0-1.882-.799-1.882-1.94V15.53c0-1.028.852-2.017 1.882-2.017h15.34c.96 0 1.883.837 1.883 2.017v16.177c0 1.028-.781 1.941-1.882 1.941Z"/><path fill="#0F272D" d="M22.329 22.742c0 .872-.885 1.677-2.15 1.677-1.096 0-2.192-.67-2.192-1.678 0-.805.843-1.677 2.192-1.677 1.096 0 2.15.738 2.15 1.677"/><path fill="#fff" d="M21.252 21.43c.433.419.162 1.064-.542 1.254-.975.228-1.68-.266-1.842-.684-.163-.721 1.3-1.367 2.384-.57"/><path fill="#0F272D" d="M31.724 22.105c.487.904-.163 2.177-1.826 2.31-1.3.068-2.436-.736-2.354-1.841 0-.737.892-1.574 2.11-1.507.933.034 1.705.47 2.07 1.038"/><path fill="#fff" d="M30.078 21.58c.227.542-.15 1.16-.756 1.16-.718.039-1.171-.85-.755-1.314.378-.542 1.247-.464 1.511.154"/><path stroke="#0F272D" stroke-linecap="round" stroke-linejoin="round" stroke-miterlimit="10" stroke-width="1.5" d="M26.671 25.259c-.635 1.076-2.753 1.147-3.474.035"/></g><g clip-path="url(#c)"><path fill="#5F6062" d="m56.408 18.604 4.32 8.928q.272.545.272.816 0 .575-.928 1.04-.544.272-.864.272a.9.9 0 0 1-.512-.144 1.1 1.1 0 0 1-.288-.304l-.24-.48-.832-1.728h-4.432l-.832 1.728a5 5 0 0 1-.256.464q-.08.144-.288.304-.192.144-.512.144-.304 0-.848-.272-.928-.448-.928-1.024 0-.271.272-.816l4.32-8.944q.175-.368.528-.592.367-.224.768-.224.864 0 1.28.832m-1.296 3.84-1.056 2.192h2.128zm6.592 6.304q-.304-.192-.304-.608t.608-1.264q.176-.272.56-.272.4 0 1.072.4.672.384 1.216.384.976 0 .976-.384 0-.304-1.072-.448-1.008-.144-2-.752-.464-.287-.768-.896-.304-.624-.304-1.472 0-2.528 3.472-2.528 1.136 0 2.336.544.56.256.56.64 0 .383-.352.944t-.72.56q-.192 0-.72-.24a2.6 2.6 0 0 0-1.12-.24q-.944 0-.944.352 0 .48 1.088.624a6 6 0 0 1 2.048.608q.464.224.768.784.32.544.32 1.376 0 .833-.32 1.424-.304.576-.864.864-1.024.495-2.576.496-1.535 0-2.96-.896m7.828 0q-.304-.192-.304-.608t.608-1.264q.177-.272.56-.272.4 0 1.072.4.672.384 1.216.384.976 0 .976-.384 0-.304-1.072-.448-1.007-.144-2-.752-.464-.287-.768-.896-.303-.624-.304-1.472 0-2.528 3.472-2.528 1.136 0 2.336.544.56.256.56.64 0 .383-.352.944-.351.56-.72.56-.192 0-.72-.24a2.6 2.6 0 0 0-1.12-.24q-.945 0-.944.352 0 .48 1.088.624a6 6 0 0 1 2.048.608q.465.224.768.784.32.544.32 1.376 0 .833-.32 1.424-.304.576-.864.864-1.024.495-2.576.496-1.536 0-2.96-.896m15.892-4.464q0 .975-.496 1.456-.48.465-1.072.464h-3.792q0 .449.528.752a2.1 2.1 0 0 0 1.056.304q.928 0 1.456-.192l.176-.064q.385-.176.64-.176.513 0 .88.72.208.432.208.736 0 1.425-3.408 1.424-1.184 0-2.112-.4-.911-.416-1.424-1.088-1.008-1.296-1.008-2.896 0-2.016 1.296-3.216 1.312-1.215 3.264-1.216 2.224 0 3.264 1.568.544.832.544 1.824m-3.376.464q.609 0 .608-.512a.71.71 0 0 0-.288-.592q-.272-.224-.8-.224-.511 0-1.024.432-.512.416-.512.896zm7.172-2.56q.752-1.136 1.808-1.136 1.632 0 2.432 1.392.176-.24.416-.496.256-.272.8-.576.544-.32 1.12-.32 1.28 0 2.144.992.864.975.864 3.248v2.8q0 .368-.032.56-.016.176-.144.416-.208.432-1.232.432-1.007 0-1.232-.448a1.8 1.8 0 0 1-.144-.416 7 7 0 0 1-.016-.56v-2.8q0-1.392-.992-1.392-.56 0-.768.368-.192.368-.192 1.04v2.8q0 .384-.032.56-.015.176-.144.416-.224.432-1.248.432-1.007 0-1.232-.448a1.8 1.8 0 0 1-.144-.416 7 7 0 0 1-.016-.56v-2.8q0-1.392-.992-1.392-.96 0-.96 1.392v2.832q0 .368-.032.56-.015.176-.144.416-.24.416-1.248.416-1.007 0-1.232-.432a1.8 1.8 0 0 1-.144-.416 7 7 0 0 1-.016-.56V22.46q0-.368.016-.544.033-.192.16-.416.24-.432 1.136-.432t1.168.288.272.832m15.482-1.104q1.423 0 2.608 1.264 1.2 1.264 1.2 2.944 0 1.664-1.184 2.928-1.185 1.248-2.544 1.248-1.36 0-1.936-.768-.129.784-1.376.784-1.008 0-1.232-.432a1.7 1.7 0 0 1-.144-.416 7 7 0 0 1-.016-.56v-9.552q0-.368.016-.544.031-.192.144-.416.224-.432 1.248-.432 1.008 0 1.216.432.127.24.144.432.032.176.032.544v3.328q.639-.784 1.824-.784m-1.408 5.168q.4.432.992.432.591 0 1.008-.432.416-.432.416-.96t-.384-.96q-.385-.448-1.024-.448-.64 0-1.024.448a1.5 1.5 0 0 0-.368.976q0 .512.384.944m6.252-7.744q0-.368.016-.544a1.8 1.8 0 0 1 .144-.432q.225-.432 1.248-.432.976 0 1.216.432.129.24.144.432.032.192.032.56v7.408q0 .576.096.736.096.144.416.144.337 0 .448.032a.7.7 0 0 1 .272.128q.32.208.32 1.136 0 1.008-.32 1.232-.415.288-1.984.096-1.231-.16-1.6-.816-.447-.785-.448-2.496zm12.278 2.656q.944.416.944 1.008 0 .288-.128.544-.128.255-.128.272l-4.192 9.376q-.128.304-.224.464a.9.9 0 0 1-.272.304.78.78 0 0 1-.48.144q-.288 0-.848-.24-.944-.416-.944-.992 0-.384 1.536-3.664l-3.184-5.36q-.32-.528-.32-.784 0-.512.864-1.024.543-.32.848-.32a.9.9 0 0 1 .496.128.8.8 0 0 1 .272.272q.096.127.88 1.488.8 1.344 1.52 2.512.08-.256.864-1.968.784-1.728.832-1.84.063-.112.192-.272a.68.68 0 0 1 .576-.272q.384 0 .896.224"/></g><defs><clipPath id="b"><path fill="#fff" d="M8 0h33v48H8z"/></clipPath><clipPath id="c"><path fill="#fff" d="M49 14.5h74v19H49z"/></clipPath></defs></svg>