<svg xmlns="http://www.w3.org/2000/svg" width="101" height="48" fill="none" viewBox="0 0 101 48"><mask id="a" fill="#fff"><path d="M0 24C0 10.745 10.745 0 24 0h53c13.255 0 24 10.745 24 24S90.255 48 77 48H24C10.745 48 0 37.255 0 24"/></mask><path fill="#F9F9F9" d="M0 24C0 10.745 10.745 0 24 0h53c13.255 0 24 10.745 24 24S90.255 48 77 48H24C10.745 48 0 37.255 0 24"/><path fill="#CECECE" d="M24 0v2h53v-4H24zm53 48v-2H24v4h53zm-53 0v-2C11.85 46 2 36.15 2 24h-4c0 14.36 11.64 26 26 26zm77-24h-2c0 12.15-9.85 22-22 22v4c14.36 0 26-11.64 26-26zM77 0v2c12.15 0 22 9.85 22 22h4C103 9.64 91.36-2 77-2zM24 0v-2C9.64-2-2 9.64-2 24h4C2 11.85 11.85 2 24 2z" mask="url(#a)"/><g clip-path="url(#b)"><path fill="#E9E9E9" stroke="#CECECE" stroke-width="1.333" d="M28.829 9.336c.324.326.49.766.82 1.644l4.711 12.524c.95 2.525-1.637 5.143-4.286 4.627-1.112-.217-2.081-.975-2.47-2.04L23.53 14.957a.5.5 0 0 0-.22-.257.7.7 0 0 0-.368-.099.7.7 0 0 0-.367.1.5.5 0 0 0-.22.257L18.34 26.07c-.388 1.073-1.363 1.837-2.483 2.055-2.655.515-5.248-2.113-4.291-4.643l4.727-12.506c.332-.877.498-1.316.822-1.642.287-.287.66-.51 1.082-.647.478-.156 1.047-.156 2.181-.156h5.187c1.135 0 1.703 0 2.183.157.423.137.795.36 1.081.648Z"/><path fill="#fff" d="M30.413 30.917c-1.334 1.005-3.998 1.69-7.066 1.69-3.764 0-6.92-1.032-7.758-2.42-.299.796-.366 1.706-.366 2.288 0 0-.197 2.853 2.059 4.838 0-.245.055-.487.161-.714s.263-.432.46-.605.43-.31.688-.404.533-.142.811-.142c2.008 0 2.006 1.54 2.005 2.792v.11c0 1.9 1.318 3.526 3.193 4.212a3.44 3.44 0 0 1-.438-1.676c0-1.812 1.207-2.485 2.612-3.27 1.117-.622 2.358-1.315 3.213-2.704a4.57 4.57 0 0 0 .427-3.995"/><path fill="#CECECE" d="M30.688 32.475c0-.79-.936-1.098-1.67-.804-1.445.578-3.452.936-5.67.936-2.35 0-4.464-.402-5.924-1.042-.863-.378-2.2-.033-2.2.91 0 0-.166 2.39 1.535 4.317.19.215.562.067.684-.193.107-.226.263-.432.46-.605s.43-.31.688-.404.533-.142.811-.142c2.008 0 2.006 1.54 2.005 2.792v.11c0 1.328.645 2.523 1.673 3.356.47.381 1.081-.215 1.082-.82 0-1.812 1.207-2.485 2.612-3.27 1.117-.622 2.358-1.315 3.213-2.704a4.6 4.6 0 0 0 .7-2.437"/></g><g clip-path="url(#c)"><path fill="#8D8D8D" d="m56.408 18.604 4.32 8.928q.272.545.272.816 0 .575-.928 1.04-.544.272-.864.272a.9.9 0 0 1-.512-.144 1.1 1.1 0 0 1-.288-.304l-.24-.48-.832-1.728h-4.432l-.832 1.728a5 5 0 0 1-.256.464q-.08.144-.288.304-.192.144-.512.144-.304 0-.848-.272-.928-.448-.928-1.024 0-.271.272-.816l4.32-8.944q.175-.368.528-.592.367-.224.768-.224.864 0 1.28.832m-1.296 3.84-1.056 2.192h2.128zm6.592 6.304q-.304-.192-.304-.608t.608-1.264q.176-.272.56-.272.4 0 1.072.4.672.384 1.216.384.976 0 .976-.384 0-.304-1.072-.448-1.008-.144-2-.752-.464-.287-.768-.896-.304-.624-.304-1.472 0-2.528 3.472-2.528 1.136 0 2.336.544.56.256.56.64 0 .383-.352.944t-.72.56q-.192 0-.72-.24a2.6 2.6 0 0 0-1.12-.24q-.944 0-.944.352 0 .48 1.088.624a6 6 0 0 1 2.048.608q.464.224.768.784.32.544.32 1.376 0 .833-.32 1.424-.304.576-.864.864-1.024.495-2.576.496-1.535 0-2.96-.896m12.41-4.848-1.04-.064v2.208q0 .432.128.624.144.192.512.192.384 0 .576.032.208.016.432.144.368.208.368 1.072 0 1.008-.448 1.232-.24.113-.432.144a6 6 0 0 1-.528.016q-1.664 0-2.528-.752t-.864-2.544v-2.368a4 4 0 0 1-.656.048.76.76 0 0 1-.592-.272q-.225-.271-.224-.928 0-.656.08-.944.08-.305.224-.432a.98.98 0 0 1 .64-.208l.528.064v-1.648q0-.368.016-.544.033-.176.16-.384.209-.4 1.232-.4 1.089 0 1.296.592.08.256.08.816v1.568q.705-.064 1.056-.064.369 0 .544.032.192.016.432.144.417.209.416 1.232 0 1.008-.432 1.232-.24.113-.432.144-.176.015-.544.016m8.02-2.736q.303.096.496.336.207.225.208.736 0 .512-.304 1.12t-.88.608q-.288 0-.56-.128-.256-.128-.688-.128t-.816.304q-.368.304-.368.736v3.36q0 .368-.032.56-.016.176-.144.416-.24.416-1.248.416-.768 0-1.104-.272-.257-.225-.288-.688v-6.08q0-.368.016-.544.032-.192.144-.416.223-.432 1.248-.432.96 0 1.2.368a.92.92 0 0 1 .176.528q.08-.112.224-.272.16-.16.656-.432.495-.272.864-.272.384 0 .64.048.255.032.56.128m.86 4.128q0-1.92 1.344-3.168t3.072-1.248 3.056 1.248q1.328 1.232 1.328 3.152 0 1.328-.688 2.368-.688 1.025-1.68 1.52a4.55 4.55 0 0 1-2.032.48q-1.056 0-2.048-.512-.993-.528-1.68-1.536a4.1 4.1 0 0 1-.672-2.304m3.344 1.152q.512.384 1.04.384t1.056-.4.528-1.184-.496-1.168a1.72 1.72 0 0 0-1.072-.384q-.576 0-1.072.4t-.496 1.184q0 .768.512 1.168"/></g><defs><clipPath id="b"><path fill="#fff" d="M8 0h33v48H8z"/></clipPath><clipPath id="c"><path fill="#fff" d="M49 14.5h44v19H49z"/></clipPath></defs></svg>