<svg xmlns="http://www.w3.org/2000/svg" width="93" height="48" fill="none" viewBox="0 0 93 48"><mask id="a" fill="#fff"><path d="M0 24C0 10.745 10.745 0 24 0h45c13.255 0 24 10.745 24 24S82.255 48 69 48H24C10.745 48 0 37.255 0 24"/></mask><path fill="#FFFCF4" d="M0 24C0 10.745 10.745 0 24 0h45c13.255 0 24 10.745 24 24S82.255 48 69 48H24C10.745 48 0 37.255 0 24"/><path fill="#F0CE8E" d="M24 0v2h45v-4H24zm45 48v-2H24v4h45zm-45 0v-2C11.85 46 2 36.15 2 24h-4c0 14.36 11.64 26 26 26zm69-24h-2c0 12.15-9.85 22-22 22v4c14.36 0 26-11.64 26-26zM69 0v2c12.15 0 22 9.85 22 22h4C95 9.64 83.36-2 69-2zM24 0v-2C9.64-2-2 9.64-2 24h4C2 11.85 11.85 2 24 2z" mask="url(#a)"/><g clip-path="url(#b)"><path fill="#FFA035" stroke="#FFA035" stroke-width="1.333" d="M16.726 22.486c0 .388.031.698.108.962.078.186.186.435.325.714.062.062.078.155.078.233 0 .109-.062.202-.202.31l-.65.435a.5.5 0 0 1-.262.093c-.109 0-.202-.062-.31-.155a3.6 3.6 0 0 1-.371-.481 11 11 0 0 1-.31-.606c-.804.947-1.81 1.428-3.032 1.428-.866 0-1.547-.248-2.057-.745-.496-.496-.759-1.164-.759-2.002 0-.854.31-1.552.929-2.11.634-.528 1.47-.808 2.522-.808.355 0 .68.031 1.098.093.356.047.774.125 1.176.218v-.745c0-.792-.155-1.304-.48-1.661-.34-.326-.882-.466-1.67-.466-.372 0-.743.047-1.115.125a6.7 6.7 0 0 0-1.114.356c-.17.063-.309.11-.356.125-.077.03-.123.03-.17.03-.139 0-.216-.092-.216-.31v-.512c0-.155.015-.28.077-.357q.07-.116.279-.186c.37-.217.789-.372 1.3-.497a6.2 6.2 0 0 1 1.608-.202q1.834 0 2.692.839c.573.558.851 1.412.851 2.545v3.337zm-4.177 1.583c.34 0 .68-.062 1.052-.186.371-.124.696-.357.974-.668.17-.201.295-.419.387-.667 0-.248.078-.543.078-.9v-.42c-.31-.108-.62-.108-.96-.186a11 11 0 0 0-.959-.062c-.696 0-1.191.14-1.531.42s-.495.667-.495 1.179c0 .497.108.87.37 1.102.248.264.604.388 1.084.388Zm8.261 1.102a.9.9 0 0 1-.433-.093 2 2 0 0 1-.185-.404l-2.414-7.977c-.062-.233-.093-.342-.093-.42 0-.17.078-.263.248-.263h1.005c.202 0 .34.03.403.108.092.063.154.202.216.404l1.718 6.829 1.609-6.829c.046-.202.108-.341.2-.404a.64.64 0 0 1 .387-.108h.851c.186 0 .325.03.403.108.077.063.154.202.2.404l1.64 6.922 1.764-6.922c.062-.202.14-.341.201-.404a.7.7 0 0 1 .403-.108h.959c.17 0 .263.093.263.264 0 .046-.015.108-.031.186 0 0-.03.124-.062.233l-2.49 7.977c-.063.218-.124.326-.233.404-.062.062-.2.108-.371.108h-.882c-.201 0-.294-.03-.418-.108a.7.7 0 0 1-.185-.404l-1.594-6.658-1.593 6.643q-.07.302-.186.419a.77.77 0 0 1-.418.093zm13.228.28c-.51 0-1.083-.063-1.593-.187s-.913-.264-1.176-.404a.77.77 0 0 1-.325-.294.6.6 0 0 1-.062-.28v-.527c0-.218.077-.31.232-.31h.186c.062 0 .155.077.263.123.34.155.727.28 1.13.357.417.078.835.125 1.221.125.65 0 1.16-.11 1.501-.342.356-.264.542-.559.542-.978 0-.295-.109-.528-.279-.73-.185-.186-.541-.372-1.036-.527l-1.501-.466c-.743-.248-1.3-.59-1.64-1.055a2.46 2.46 0 0 1-.51-1.505c0-.435.092-.808.278-1.133.186-.342.433-.621.712-.854a3.8 3.8 0 0 1 1.098-.528 4.4 4.4 0 0 1 1.3-.186q.324 0 .696.047c.216.03.433.077.65.108.216.062.402.109.587.17.186.063.31.125.434.187.139.078.247.155.31.248a.6.6 0 0 1 .092.342v.497q0 .325-.232.325c-.077 0-.217-.046-.402-.124-.573-.264-1.238-.403-1.965-.403-.588 0-1.021.093-1.377.295-.31.186-.48.496-.48.915a.96.96 0 0 0 .31.73c.2.202.588.388 1.13.574l1.469.466c.742.217 1.269.559 1.593.993q.465.629.464 1.444c0 .434-.092.838-.263 1.195a2.7 2.7 0 0 1-.773.9c-.294.264-.68.45-1.114.59-.433.14-.96.201-1.47.201Zm1.934 5.028c-3.388 2.499-8.308 3.834-12.5 3.834-5.957 0-11.295-2.204-15.332-5.852-.325-.295-.031-.683.355-.45 4.363 2.53 9.732 4.067 15.301 4.067 3.76 0 7.89-.777 11.681-2.422.573-.232 1.052.404.495.823Zm1.423-1.599c-.448-.574-2.877-.279-3.976-.155-.325.047-.37-.248-.077-.466 1.934-1.35 5.121-.93 5.477-.512.371.466-.093 3.663-1.903 5.184-.294.233-.557.109-.433-.17.417-1.056 1.33-3.353.913-3.88Z"/></g><g clip-path="url(#c)"><path fill="#FFA135" d="m56.408 18.604 4.32 8.928q.272.545.272.816 0 .575-.928 1.04-.544.272-.864.272a.9.9 0 0 1-.512-.144 1.1 1.1 0 0 1-.288-.304l-.24-.48-.832-1.728h-4.432l-.832 1.728a5 5 0 0 1-.256.464q-.08.144-.288.304-.192.144-.512.144-.304 0-.848-.272-.928-.448-.928-1.024 0-.271.272-.816l4.32-8.944q.175-.368.528-.592.367-.224.768-.224.864 0 1.28.832m-1.296 3.84-1.056 2.192h2.128zm18.794-4.608q1.072.384 1.072 1.024 0 .208-.192.784l-3.072 8.88a2 2 0 0 1-.112.272q-.08.16-.432.432-.336.256-.816.256a1.35 1.35 0 0 1-.816-.256q-.336-.272-.448-.528l-1.872-5.52-1.808 5.344a1.4 1.4 0 0 1-.144.272q-.112.176-.256.32a1.2 1.2 0 0 1-.88.368q-.512 0-.848-.24-.32-.24-.432-.48l-.112-.24-3.088-8.88q-.176-.528-.176-.784 0-.64 1.072-1.008.465-.16.832-.16.384 0 .576.256.209.256.368.784l1.76 5.344 1.744-5.264q.225-.672.816-.928.257-.112.656-.112.417 0 .768.272.352.255.448.512l1.84 5.552 1.76-5.376q.129-.368.208-.544a.9.9 0 0 1 .288-.336.85.85 0 0 1 .544-.176q.32 0 .752.16m2.129 10.016q-.417-.511-.416-.912 0-.416.688-1.088.4-.384.848-.384t1.248.8q.224.272.64.528.416.24.768.24 1.488 0 1.488-1.216 0-.368-.416-.608-.4-.255-1.008-.368a9 9 0 0 1-1.312-.352 9 9 0 0 1-1.312-.592q-.609-.336-1.024-1.056-.4-.735-.4-1.76 0-1.408 1.04-2.448 1.055-1.056 2.864-1.056.96 0 1.744.256.8.24 1.104.496l.4.304q.495.464.496.784 0 .32-.384.88-.544.8-1.12.8-.337 0-.832-.32a2 2 0 0 1-.192-.16 2 2 0 0 0-.24-.208q-.336-.208-.864-.208-.513 0-.864.256-.336.24-.336.688 0 .432.4.704.415.272 1.024.368.608.096 1.328.304.72.192 1.328.48t1.008 1.008q.416.704.416 1.744t-.416 1.84q-.417.784-1.088 1.216-1.296.848-2.768.848-.752 0-1.424-.176-.671-.192-1.088-.464-.849-.512-1.184-.992z"/></g><defs><clipPath id="b"><path fill="#fff" d="M8 0h33v48H8z"/></clipPath><clipPath id="c"><path fill="#fff" d="M49 14.5h36v19H49z"/></clipPath></defs></svg>