<svg xmlns="http://www.w3.org/2000/svg" width="105" height="48" fill="none" viewBox="0 0 105 48"><mask id="a" fill="#fff"><path d="M0 24C0 10.745 10.745 0 24 0h57c13.255 0 24 10.745 24 24S94.255 48 81 48H24C10.745 48 0 37.255 0 24"/></mask><path fill="#F2FAFF" d="M0 24C0 10.745 10.745 0 24 0h57c13.255 0 24 10.745 24 24S94.255 48 81 48H24C10.745 48 0 37.255 0 24"/><path fill="#5EB3E3" d="M24 0v2h57v-4H24zm57 48v-2H24v4h57zm-57 0v-2C11.85 46 2 36.15 2 24h-4c0 14.36 11.64 26 26 26zm81-24h-2c0 12.15-9.85 22-22 22v4c14.36 0 26-11.64 26-26zM81 0v2c12.15 0 22 9.85 22 22h4C107 9.64 95.36-2 81-2zM24 0v-2C9.64-2-2 9.64-2 24h4C2 11.85 11.85 2 24 2z" mask="url(#a)"/><g clip-path="url(#b)"><path fill="#0089D6" stroke="#188BED" stroke-width="1.333" d="M25.431 10.415a.9.9 0 0 0 .007-.626.95.95 0 0 0-.406-.492 1.03 1.03 0 0 0-1.232.13l-7.92 7.543a.9.9 0 0 0-.21.296L9.73 30.465a.9.9 0 0 0 .084.89c.09.13.213.238.357.311.145.074.306.113.47.113h5.94c.203 0 .402-.06.568-.171a.95.95 0 0 0 .362-.451zm3.93 3.06a.96.96 0 0 0-.374-.409 1.03 1.03 0 0 0-1.092.024.95.95 0 0 0-.355.425l-3.96 9.428a.9.9 0 0 0 .129.916l5.116 6.496-10.577 3.357a.98.98 0 0 0-.537.405.9.9 0 0 0-.131.641.93.93 0 0 0 .337.568c.18.145.408.225.644.224h19.8c.165 0 .328-.04.473-.115a1 1 0 0 0 .358-.318.91.91 0 0 0 .07-.9z"/></g><g clip-path="url(#c)"><path fill="#0089D6" d="m56.408 18.604 4.32 8.928q.272.545.272.816 0 .575-.928 1.04-.544.272-.864.272a.9.9 0 0 1-.512-.144 1.1 1.1 0 0 1-.288-.304l-.24-.48-.832-1.728h-4.432l-.832 1.728a5 5 0 0 1-.256.464q-.08.144-.288.304-.192.144-.512.144-.304 0-.848-.272-.928-.448-.928-1.024 0-.271.272-.816l4.32-8.944q.175-.368.528-.592.367-.224.768-.224.864 0 1.28.832m-1.296 3.84-1.056 2.192h2.128zm10.97 4.24h2.736q.64 0 .912.16.288.16.384.464t.096.8q0 .495-.096.8a.7.7 0 0 1-.336.432q-.24.113-.432.144-.175.016-.544.016h-5.776q-.56 0-.976-.416a1.35 1.35 0 0 1-.416-.992q0-.577.416-.976.417-.416 1.28-1.184.864-.768 1.568-1.376.705-.624.768-.688H63.41q-.912 0-1.152-.304-.272-.352-.272-.928t.08-.848q.081-.287.192-.416a.7.7 0 0 1 .32-.224q.273-.08.832-.08h5.2q.56 0 .976.4.417.4.416 1.008 0 .593-.48 1.056-.48.465-3.44 3.152m8.911 2.784q-1.616 0-2.688-1.216-1.056-1.232-1.056-2.992v-2.8q0-.384.016-.56a1.8 1.8 0 0 1 .144-.416q.225-.432 1.248-.432 1.12 0 1.312.608.096.256.096.816v2.8q0 .656.368 1.024.384.368 1.008.368.64 0 1.024-.384.4-.384.4-1.008v-2.832q0-.368.016-.544.033-.192.16-.432.209-.416 1.232-.416 1.008 0 1.232.432.113.24.128.432.033.176.032.544v5.664q0 .352-.032.544-.015.175-.144.4-.24.416-1.232.416-.975 0-1.2-.384-.16-.272-.16-.656a1.6 1.6 0 0 1-.288.32q-.224.208-.432.352a2.14 2.14 0 0 1-1.184.352m11.688-8.304q.303.096.496.336.207.225.207.736 0 .512-.303 1.12-.304.608-.88.608-.289 0-.56-.128-.256-.128-.689-.128-.431 0-.816.304-.367.304-.367.736v3.36q0 .368-.032.56a1.1 1.1 0 0 1-.144.416q-.24.416-1.249.416-.767 0-1.103-.272-.257-.225-.288-.688v-6.08q0-.368.016-.544.03-.192.144-.416.223-.432 1.248-.432.96 0 1.2.368.175.256.175.528.081-.112.224-.272.16-.16.657-.432.495-.272.864-.272.384 0 .64.048.255.032.56.128m9.228 3.12q0 .975-.496 1.456-.48.465-1.072.464h-3.792q0 .449.528.752a2.1 2.1 0 0 0 1.056.304q.928 0 1.456-.192l.176-.064q.384-.176.64-.176.511 0 .88.72.208.432.208.736 0 1.425-3.408 1.424-1.185 0-2.112-.4-.912-.416-1.424-1.088-1.008-1.296-1.008-2.896 0-2.016 1.296-3.216 1.311-1.215 3.264-1.216 2.223 0 3.264 1.568.544.832.544 1.824m-3.376.464q.608 0 .608-.512a.71.71 0 0 0-.288-.592q-.272-.224-.8-.224-.513 0-1.024.432-.512.416-.512.896z"/></g><defs><clipPath id="b"><path fill="#fff" d="M8 0h33v48H8z"/></clipPath><clipPath id="c"><path fill="#fff" d="M49 14.5h48v19H49z"/></clipPath></defs></svg>