<svg xmlns="http://www.w3.org/2000/svg" width="95" height="48" fill="none" viewBox="0 0 95 48"><mask id="a" fill="#fff"><path d="M0 24C0 10.745 10.745 0 24 0h47c13.255 0 24 10.745 24 24S84.255 48 71 48H24C10.745 48 0 37.255 0 24"/></mask><path fill="#C9D0C8" d="M0 24C0 10.745 10.745 0 24 0h47c13.255 0 24 10.745 24 24S84.255 48 71 48H24C10.745 48 0 37.255 0 24"/><path fill="#868F85" d="M24 0v2h47v-4H24zm47 48v-2H24v4h47zm-47 0v-2C11.85 46 2 36.15 2 24h-4c0 14.36 11.64 26 26 26zm71-24h-2c0 12.15-9.85 22-22 22v4c14.36 0 26-11.64 26-26zM71 0v2c12.15 0 22 9.85 22 22h4C97 9.64 85.36-2 71-2zM24 0v-2C9.64-2-2 9.64-2 24h4C2 11.85 11.85 2 24 2z" mask="url(#a)"/><g clip-path="url(#b)"><path fill="#54605E" stroke="#5C645B" stroke-width="1.333" d="M38.738 11.625H12.536c-.683 0-1.184.65-1.184 1.3v22.924c0 .743.5 1.3 1.184 1.3h26.248c.684 0 1.185-.557 1.185-1.3V12.924c0-.65-.593-1.299-1.23-1.299Z"/><path fill="#C9D0C8" d="M39.969 12.753c0-.524-.593-1.128-1.23-1.128H12.535c-.683 0-1.184.524-1.184 1.128v2.74h28.617z"/><path fill="#EB5454" d="M13.227 12.398c-.58.057-1.102.565-1.102 1.13 0 .622.522 1.186 1.16 1.186.696.057 1.16-.451 1.16-1.13 0-.677-.522-1.186-1.218-1.186"/><path fill="#F4CE4D" d="M16.324 12.398c-.553 0-1.105.565-1.105 1.13 0 .622.497 1.186 1.105 1.186.607.057 1.215-.451 1.215-1.13 0-.677-.552-1.186-1.215-1.186"/><path fill="#30C157" d="M19.446 12.398c-.594 0-1.134.553-1.134 1.16.054.608.486 1.16 1.134 1.16s1.187-.496 1.187-1.16c0-.662-.486-1.16-1.187-1.16"/><path fill="#EAF3F6" d="m19.441 20.734-3.617-2.008c-.445-.261-1.002-.13-1.224.175-.278.305-.111.786.222.96l2.56 1.484-2.56 1.397c-.39.218-.5.611-.222.96.278.262.723.393 1.168.218l3.673-1.964c.5-.262.612-.873 0-1.222"/><path fill="#F0F6F7" d="M25.22 23.227h-4.54c-.493 0-.985.843-.766 1.617.11.351.438.633.766.703h4.542c.492 0 .875-.492.82-1.195-.054-.633-.437-1.125-.82-1.125"/></g><g clip-path="url(#c)"><path fill="#5C645B" d="M57.992 23.212q.944 1.12.944 2.512-.032 1.6-1.104 2.688-1.056 1.072-2.576 1.072h-4.208q-1.12 0-1.312-.608-.096-.272-.096-.832v-8.88q0-.384.016-.56.032-.176.16-.416.224-.432 1.248-.432h4.032q1.472 0 2.464 1.024 1.04 1.04 1.04 2.496 0 1.056-.608 1.936m-1.888 2.352q0-.384-.096-.608a.54.54 0 0 0-.288-.32q-.32-.128-.896-.128t-.864-.224-.288-.912q0-.705.288-.928.304-.224.992-.224.64 0 .768-.336.048-.176.048-.576t-.272-.56q-.256-.16-.784-.16h-2.24v6.064h2.624q1.008 0 1.008-1.088m9.352-3.6q.096-.896 1.264-.896.624 0 .928.096.303.096.416.336.127.24.144.432.032.176.032.544v5.6q0 .368-.032.56-.016.176-.128.416-.225.416-1.104.416-.864 0-1.168-.208-.288-.225-.336-.64-.592.848-1.984.848-1.376 0-2.56-1.264t-1.184-2.928q0-1.68 1.184-2.928 1.2-1.264 2.624-1.264.543 0 .992.192.447.192.624.368.175.16.288.32m-2.912 3.328q0 .528.416.96.415.416 1.008.416.591 0 .976-.432.4-.432.4-.944 0-.528-.384-.976-.369-.448-1.008-.448-.624 0-1.024.448-.384.448-.384.976m7.035 3.456q-.304-.192-.304-.608t.608-1.264q.176-.272.56-.272.4 0 1.072.4.672.384 1.216.384.976 0 .976-.384 0-.304-1.072-.448-1.008-.144-2-.752-.464-.287-.768-.896-.304-.624-.304-1.472 0-2.528 3.472-2.528 1.136 0 2.336.544.56.256.56.64 0 .383-.352.944t-.72.56q-.192 0-.72-.24a2.6 2.6 0 0 0-1.12-.24q-.944 0-.944.352 0 .48 1.088.624a6 6 0 0 1 2.048.608q.464.224.768.784.32.544.32 1.376 0 .833-.32 1.424-.304.576-.864.864-1.024.495-2.576.496-1.535 0-2.96-.896M82.015 21.1q1.6 0 2.656 1.216 1.072 1.216 1.072 2.976v2.816q0 .368-.032.56-.015.176-.144.416-.208.416-1.232.416-.975 0-1.216-.416a1.5 1.5 0 0 1-.16-.432 8 8 0 0 1-.016-.576v-2.8q0-.656-.368-1.024t-.944-.368q-.56 0-.992.352-.432.336-.496.768v3.104q0 .368-.032.56-.016.176-.144.416-.208.416-1.232.416-1.007 0-1.232-.432a1.8 1.8 0 0 1-.144-.416 7 7 0 0 1-.016-.56v-9.568q0-.368.016-.544.033-.192.144-.416.225-.432 1.248-.432 1.009 0 1.216.432.127.24.144.432.032.176.032.544v3.536q.8-.975 1.872-.976"/></g><defs><clipPath id="b"><path fill="#fff" d="M8 0h33v48H8z"/></clipPath><clipPath id="c"><path fill="#fff" d="M49 14.5h38v19H49z"/></clipPath></defs></svg>