<svg xmlns="http://www.w3.org/2000/svg" width="134" height="48" fill="none" viewBox="0 0 134 48"><mask id="a" fill="#fff"><path d="M0 24C0 10.745 10.745 0 24 0h86c13.255 0 24 10.745 24 24s-10.745 24-24 24H24C10.745 48 0 37.255 0 24"/></mask><path fill="#D9A7FF" d="M0 24C0 10.745 10.745 0 24 0h86c13.255 0 24 10.745 24 24s-10.745 24-24 24H24C10.745 48 0 37.255 0 24"/><path fill="#842BE3" d="M24 0v2h86v-4H24zm86 48v-2H24v4h86zm-86 0v-2C11.85 46 2 36.15 2 24h-4c0 14.36 11.64 26 26 26zm110-24h-2c0 12.15-9.85 22-22 22v4c14.359 0 26-11.64 26-26zM110 0v2c12.15 0 22 9.85 22 22h4c0-14.36-11.641-26-26-26zM24 0v-2C9.64-2-2 9.64-2 24h4C2 11.85 11.85 2 24 2z" mask="url(#a)"/><g fill="#D9A7FF" stroke="#762FAC" stroke-linecap="round" stroke-linejoin="round" clip-path="url(#b)"><path stroke-width="1.333" d="M14.167 23.094a2.8 2.8 0 0 1-2.042.906c.766 0 1.5.326 2.042.906a3.2 3.2 0 0 1 .845 2.188v6.187c0 .82.305 1.608.846 2.188.542.58 1.276.906 2.042.906h17.325c.766 0 1.5-.326 2.042-.906a3.2 3.2 0 0 0 .845-2.188v-6.187c0-.82.305-1.608.846-2.188A2.8 2.8 0 0 1 41 24c-.766 0-1.5-.326-2.042-.906a3.2 3.2 0 0 1-.846-2.188V14.72a3.2 3.2 0 0 0-.845-2.188 2.8 2.8 0 0 0-2.042-.906H17.9c-.766 0-1.5.326-2.042.906a3.2 3.2 0 0 0-.846 2.188v6.187a3.2 3.2 0 0 1-.845 2.188"/><path stroke-width="2" d="M22.231 30.188V17.813h5.053c.766 0 1.5.325 2.042.906a3.2 3.2 0 0 1 .846 2.187 3.2 3.2 0 0 1-.846 2.188 2.8 2.8 0 0 1-2.042.906h-5.053 5.775c.766 0 1.5.326 2.042.906a3.2 3.2 0 0 1 .846 2.188 3.2 3.2 0 0 1-.846 2.187 2.8 2.8 0 0 1-2.042.907z"/></g><g clip-path="url(#c)"><path fill="#762FAC" d="M57.992 23.212q.944 1.12.944 2.512-.032 1.6-1.104 2.688-1.056 1.072-2.576 1.072h-4.208q-1.12 0-1.312-.608-.096-.272-.096-.832v-8.88q0-.384.016-.56.032-.176.16-.416.224-.432 1.248-.432h4.032q1.472 0 2.464 1.024 1.04 1.04 1.04 2.496 0 1.056-.608 1.936m-1.888 2.352q0-.384-.096-.608a.54.54 0 0 0-.288-.32q-.32-.128-.896-.128t-.864-.224-.288-.912q0-.705.288-.928.304-.224.992-.224.64 0 .768-.336.048-.176.048-.576t-.272-.56q-.256-.16-.784-.16h-2.24v6.064h2.624q1.008 0 1.008-1.088m3.64-.272q0-1.92 1.344-3.168t3.072-1.248 3.056 1.248q1.328 1.232 1.328 3.152 0 1.328-.688 2.368-.688 1.025-1.68 1.52a4.55 4.55 0 0 1-2.032.48q-1.056 0-2.048-.512-.993-.528-1.68-1.536a4.1 4.1 0 0 1-.672-2.304m3.344 1.152q.512.384 1.04.384t1.056-.4.528-1.184-.496-1.168a1.72 1.72 0 0 0-1.072-.384q-.576 0-1.072.4-.495.4-.496 1.184 0 .768.512 1.168m6.25-1.152q0-1.92 1.344-3.168 1.343-1.248 3.072-1.248 1.727 0 3.055 1.248 1.329 1.232 1.329 3.152 0 1.328-.689 2.368-.687 1.025-1.68 1.52a4.55 4.55 0 0 1-2.032.48q-1.055 0-2.047-.512-.993-.528-1.68-1.536a4.1 4.1 0 0 1-.672-2.304m3.344 1.152q.511.384 1.04.384.528 0 1.056-.4.527-.4.527-1.184t-.496-1.168a1.72 1.72 0 0 0-1.072-.384q-.574 0-1.072.4-.495.4-.496 1.184 0 .768.513 1.168m11.15-2.544-1.04-.064v2.208q0 .432.129.624.144.192.512.192.384 0 .576.032.207.016.432.144.368.208.368 1.072 0 1.008-.448 1.232-.24.113-.432.144-.177.016-.528.016-1.664 0-2.528-.752t-.864-2.544v-2.368a4 4 0 0 1-.656.048.76.76 0 0 1-.592-.272q-.225-.271-.224-.928 0-.656.08-.944.08-.305.224-.432a.98.98 0 0 1 .64-.208l.528.064v-1.648q0-.368.016-.544.032-.176.16-.384.208-.4 1.232-.4 1.088 0 1.296.592.08.256.08.816v1.568q.704-.064 1.056-.064.367 0 .544.032.192.016.432.144.416.209.416 1.232 0 1.008-.432 1.232-.24.113-.432.144-.176.015-.544.016m2.356 4.848q-.304-.192-.304-.608t.608-1.264q.176-.272.56-.272.4 0 1.072.4.672.384 1.216.384.976 0 .976-.384 0-.304-1.072-.448-1.007-.144-2-.752-.463-.287-.768-.896-.303-.624-.304-1.472 0-2.528 3.472-2.528 1.136 0 2.336.544.56.256.56.64 0 .383-.352.944-.351.56-.72.56-.192 0-.72-.24a2.6 2.6 0 0 0-1.12-.24q-.944 0-.944.352 0 .48 1.088.624a6 6 0 0 1 2.048.608q.465.224.768.784.32.544.32 1.376 0 .833-.32 1.424-.303.576-.864.864-1.023.495-2.576.496-1.535 0-2.96-.896m12.41-4.848-1.04-.064v2.208q0 .432.128.624.144.192.512.192.385 0 .577.032.207.016.431.144.368.208.368 1.072 0 1.008-.448 1.232-.24.113-.431.144a6 6 0 0 1-.528.016q-1.665 0-2.529-.752t-.864-2.544v-2.368a4 4 0 0 1-.656.048.76.76 0 0 1-.591-.272q-.225-.271-.225-.928 0-.656.08-.944.08-.305.224-.432a.98.98 0 0 1 .64-.208l.529.064v-1.648q0-.368.015-.544.033-.176.16-.384.21-.4 1.233-.4 1.088 0 1.295.592.08.256.08.816v1.568q.705-.064 1.056-.064.369 0 .544.032.193.016.433.144.416.209.416 1.232 0 1.008-.433 1.232-.24.113-.431.144a7 7 0 0 1-.544.016m8.02-2.736q.304.096.496.336.208.225.208.736 0 .512-.304 1.12t-.88.608a1.3 1.3 0 0 1-.56-.128q-.256-.128-.688-.128t-.816.304q-.368.304-.368.736v3.36q0 .368-.032.56a1.2 1.2 0 0 1-.144.416q-.24.416-1.248.416-.768 0-1.104-.272-.257-.225-.288-.688v-6.08q0-.368.016-.544.031-.192.144-.416.223-.432 1.248-.432.96 0 1.2.368.176.256.176.528.08-.112.224-.272.16-.16.656-.432t.864-.272q.384 0 .64.048.256.032.56.128m6.572.8q.096-.896 1.264-.896.624 0 .928.096t.416.336q.127.24.144.432.032.176.032.544v5.6q0 .368-.032.56a1.3 1.3 0 0 1-.128.416q-.224.416-1.104.416-.864 0-1.168-.208-.288-.225-.336-.64-.592.848-1.984.848-1.376 0-2.56-1.264t-1.184-2.928q0-1.68 1.184-2.928 1.2-1.264 2.624-1.264.544 0 .992.192.449.192.624.368.175.16.288.32m-2.912 3.328q0 .528.416.96.415.416 1.008.416.592 0 .976-.432.4-.432.4-.944 0-.528-.384-.976-.368-.448-1.008-.448-.624 0-1.024.448-.384.448-.384.976m6.971 6.496v-9.344q0-.368.016-.544.033-.175.144-.4.225-.432 1.072-.432.849 0 1.136.224.304.209.352.624.609-.832 1.904-.832 1.313 0 2.48 1.232t1.168 2.864q0 1.632-1.168 2.864-1.152 1.232-2.464 1.232-1.311 0-1.904-.736v3.232q0 .368-.032.544a1 1 0 0 1-.144.4.64.64 0 0 1-.4.336q-.288.096-.784.096-.495 0-.8-.096a.72.72 0 0 1-.416-.32 1.6 1.6 0 0 1-.144-.4 7 7 0 0 1-.016-.544m3.168-7.536q-.368.432-.368.944t.368.944q.384.416.96.416.593 0 .992-.416.417-.416.416-.944 0-.528-.384-.944-.384-.432-1.008-.432-.607 0-.976.432"/></g><defs><clipPath id="b"><path fill="#fff" d="M8 0h33v48H8z"/></clipPath><clipPath id="c"><path fill="#fff" d="M49 14.5h77v19H49z"/></clipPath></defs></svg>