<svg xmlns="http://www.w3.org/2000/svg" width="87" height="48" fill="none" viewBox="0 0 87 48"><mask id="a" fill="#fff"><path d="M0 24C0 10.745 10.745 0 24 0h39c13.255 0 24 10.745 24 24S76.255 48 63 48H24C10.745 48 0 37.255 0 24"/></mask><path fill="#FDDEFF" d="M0 24C0 10.745 10.745 0 24 0h39c13.255 0 24 10.745 24 24S76.255 48 63 48H24C10.745 48 0 37.255 0 24"/><path fill="#EEA9FF" d="M24 0v2h39v-4H24zm39 48v-2H24v4h39zm-39 0v-2C11.85 46 2 36.15 2 24h-4c0 14.36 11.64 26 26 26zm63-24h-2c0 12.15-9.85 22-22 22v4c14.36 0 26-11.64 26-26zM63 0v2c12.15 0 22 9.85 22 22h4C89 9.64 77.36-2 63-2zM24 0v-2C9.64-2-2 9.64-2 24h4C2 11.85 11.85 2 24 2z" mask="url(#a)"/><g fill="#F355E8" clip-path="url(#b)"><path stroke="#F355E8" stroke-width="1.333" d="M19.38 17.397c-.107.066-.03.198.123.165 1.306-.363 3.089-1.45 2.336-3.658-.03-.12-.261-.088-.261.022 0 1.329-.784 2.592-2.197 3.47Zm3.073-3.46c.969 1.12 1.199 2.493.63 3.745-.046.1.123.176.216.1.845-.78 1.598-2.33-.63-3.999-.108-.077-.292.044-.216.132zm1.076-.055c1.506.758 2.474 1.955 2.658 3.273 0 .055.046.099.108.099.061 0 .123-.022.138-.077.353-.966.154-2.625-2.796-3.482-.154-.044-.262.11-.123.176zm-7.175 3.075c1.398.066 3.657-.406 4.333-2.625.03-.11-.185-.153-.262-.055-.395.598-.962 1.13-1.663 1.562a7.7 7.7 0 0 1-2.408.943c-.139.033-.139.175 0 .175Z"/><path d="M35.674 19.456s-.124-.137-.202-.199c-.061-.06-.123-.137-.2-.199-.062-.06-.124-.137-.202-.198-.062-.061-.123-.138-.2-.2-.063-.06-.124-.137-.202-.198-.062-.061-.124-.138-.201-.184l-.093-.091a13.8 13.8 0 0 0-3.48-2.6c-1.454-.765-2.553-1.438-3.527-2.035-.418-.26-.805-.505-1.207-.719-1.284-.75-2.305-1.208-3.48-1.208-1.176 0-2.351.535-3.728 1.346-.449.26-.913.55-1.408.841a57 57 0 0 1-3.078 1.79C10.413 17.774 8 21.383 8 25.253c0 2.845 1.3 5.445 3.434 7.464l.155.153 1.175 1.163c2.692 2.676 6.838 4.404 11.494 4.404 8.105 0 14.68-5.215 14.68-11.609 0-2.737-1.192-5.322-3.295-7.357zM22.71 35.914c-7.564 0-13.706-4.788-13.706-10.661 0-3.518 2.228-6.806 5.956-8.795 1.176-.627 2.227-1.27 3.14-1.82.48-.29.944-.581 1.392-.826 1.269-.734 2.29-1.208 3.233-1.208s1.81.382 3.001 1.086c.356.214.743.459 1.176.719.943.566 2.088 1.3 3.573 2.08 3.728 1.988 5.956 5.277 5.956 8.795 0 5.888-6.142 10.66-13.706 10.66z"/><path d="M25.993 27.041h-4.93a.6.6 0 0 0-.254.046.6.6 0 0 0-.205.143.44.44 0 0 0-.11.362c.19.725.632 1.378 1.248 1.856.49.42 1.106.681 1.786.74a3.1 3.1 0 0 0 1.77-.74 3.5 3.5 0 0 0 1.249-1.856.39.39 0 0 0-.095-.362.6.6 0 0 0-.208-.138.7.7 0 0 0-.25-.05m-2.465 2.712a2.6 2.6 0 0 1-1.454-.638l-.095-.087c.411-.479 1.027-.754 1.691-.769.6.015 1.17.232 1.596.624a2 2 0 0 1-.268.246c-.395.348-.917.58-1.454.638zm-4.963-7.801a2.4 2.4 0 0 0-.875.124 2.2 2.2 0 0 0-.752.43 2 2 0 0 0-.507.665 1.88 1.88 0 0 0-.006 1.593c.116.252.287.48.503.669.215.19.47.337.749.434s.576.14.874.129a2.3 2.3 0 0 0 1.496-.62 1.94 1.94 0 0 0 .616-1.396 1.94 1.94 0 0 0-.606-1.4 2.3 2.3 0 0 0-1.492-.628m-.695 2.146c-.458 0-.822-.348-.822-.754 0-.42.38-.768.838-.754q.165 0 .317.06.15.06.267.168a.8.8 0 0 1 .178.249.7.7 0 0 1-.006.582.8.8 0 0 1-.183.245.8.8 0 0 1-.27.163.9.9 0 0 1-.319.055zm10.636-2.146c-1.217 0-2.212.884-2.228 2v.015c0 1.117.98 2.016 2.18 2.016 1.218 0 2.214-.885 2.23-2.001.015-1.117-.965-2.03-2.182-2.044zm-.71 2.146c-.46 0-.823-.348-.823-.754 0-.42.38-.768.838-.754q.165 0 .317.06.151.06.267.168a.8.8 0 0 1 .178.249.7.7 0 0 1-.006.582.8.8 0 0 1-.183.245.8.8 0 0 1-.27.163.9.9 0 0 1-.319.055z"/></g><g clip-path="url(#c)"><path fill="#F355E8" d="M57.992 23.212q.944 1.12.944 2.512-.032 1.6-1.104 2.688-1.056 1.072-2.576 1.072h-4.208q-1.12 0-1.312-.608-.096-.272-.096-.832v-8.88q0-.384.016-.56.032-.176.16-.416.224-.432 1.248-.432h4.032q1.472 0 2.464 1.024 1.04 1.04 1.04 2.496 0 1.056-.608 1.936m-1.888 2.352q0-.384-.096-.608a.54.54 0 0 0-.288-.32q-.32-.128-.896-.128t-.864-.224-.288-.912q0-.705.288-.928.304-.224.992-.224.64 0 .768-.336.048-.176.048-.576t-.272-.56q-.256-.16-.784-.16h-2.24v6.064h2.624q1.008 0 1.008-1.088m7.624 3.904q-1.617 0-2.688-1.216-1.056-1.232-1.056-2.992v-2.8q0-.384.016-.56a1.8 1.8 0 0 1 .144-.416q.224-.432 1.248-.432 1.12 0 1.312.608.096.256.096.816v2.8q0 .656.368 1.024.384.368 1.008.368.64 0 1.024-.384.4-.384.4-1.008v-2.832q0-.368.016-.544.031-.192.16-.432.208-.416 1.232-.416 1.007 0 1.232.432.111.24.128.432.032.176.032.544v5.664q0 .352-.032.544-.016.175-.144.4-.24.416-1.232.416-.975 0-1.2-.384-.16-.272-.16-.656a1.6 1.6 0 0 1-.288.32q-.225.208-.432.352a2.14 2.14 0 0 1-1.184.352m10.647-8.4q1.6 0 2.656 1.232 1.072 1.216 1.072 2.976v2.816q0 .368-.032.56-.015.175-.128.4-.225.432-1.248.432-1.136 0-1.312-.592-.096-.271-.096-.816V25.26q0-.656-.384-1.024-.369-.368-1.008-.368-.624 0-1.024.384-.384.384-.384 1.008v2.832q0 .368-.032.56-.016.175-.144.4-.209.432-1.232.432-1.008 0-1.232-.432a1.8 1.8 0 0 1-.144-.416 7 7 0 0 1-.016-.56v-5.664q0-.352.016-.528.032-.192.16-.416.225-.4 1.232-.4.975 0 1.2.368.16.272.16.656.064-.112.288-.32t.432-.336a2.1 2.1 0 0 1 1.2-.368"/></g><defs><clipPath id="b"><path fill="#fff" d="M8 0h33v48H8z"/></clipPath><clipPath id="c"><path fill="#fff" d="M49 14.5h30v19H49z"/></clipPath></defs></svg>