<svg xmlns="http://www.w3.org/2000/svg" width="112" height="48" fill="none" viewBox="0 0 112 48"><mask id="a" fill="#fff"><path d="M0 24C0 10.745 10.745 0 24 0h64c13.255 0 24 10.745 24 24s-10.745 24-24 24H24C10.745 48 0 37.255 0 24"/></mask><path fill="#FFD1A6" d="M0 24C0 10.745 10.745 0 24 0h64c13.255 0 24 10.745 24 24s-10.745 24-24 24H24C10.745 48 0 37.255 0 24"/><path fill="#E29862" d="M24 0v2h64v-4H24zm64 48v-2H24v4h64zm-64 0v-2C11.85 46 2 36.15 2 24h-4c0 14.36 11.64 26 26 26zm88-24h-2c0 12.15-9.85 22-22 22v4c14.359 0 26-11.64 26-26zM88 0v2c12.15 0 22 9.85 22 22h4c0-14.36-11.641-26-26-26zM24 0v-2C9.64-2-2 9.64-2 24h4C2 11.85 11.85 2 24 2z" mask="url(#a)"/><g fill="#FF7043" clip-path="url(#b)"><path d="m38.728 20.64 1.088.619v.462l-.311 1.08-13.182 3.087-1.239-3.065z"/><path d="m33.798 11.565 1.517.316.404.495.384 1.182-.16.756L27.1 26.35l-2.949-2.932 8.155-10.65z"/><path d="m26.17 9.685.93-.619.775.31.775 1.082-2.125 12.701-1.443-.974-.62-1.7 1.088-9.567z"/><path d="m16.223 9.888.954-1.215.624-.142 1.24.18.61.477 4.45 9.815 1.607 4.662-1.883 1.041-7.174-12.957z"/><path d="m11.594 16.63-.311-1.238.932-1.078 1.084.155h.31l6.513 4.784 2.016 1.542 2.79 2.16-1.55 2.624-1.396-1.08-.93-.927-8.992-6.326z"/><path d="m9.733 24.653-.702-.773v-.685l.702-.24 7.909.465 7.75.616-.25 1.536-14.787-.764z"/><path d="M14.384 32.685h-1.55l-.617-.707v-.844l2.634-1.852 10.701-6.779 1.082 1.84z"/><path d="m17.33 36.998-.621.155-.928-.464.155-.773 9.148-12.034 1.239 1.697-6.82 8.949z"/><path d="m25.084 38.54-.466.62-.93.309-.776-.619-.466-.928 2.327-12.496 1.397.155z"/><path d="M32.99 35.147v1.233l-.155.464-.62.309-1.085-.146-7.451-11.04 2.955-2.24 2.48 4.475.233 1.62z"/><path d="m36.559 33.295.155.771-.466.617-.466-.155-2.636-1.852-4.03-3.549-3.102-2.16.93-2.93 1.55.925.933 1.697z"/><path d="m34.543 25.424 3.876.31.93.618.62.924v.667l-1.705.723-8.684-2.161-3.566-.155.93-3.24 2.48 1.852z"/></g><g clip-path="url(#c)"><path fill="#F47E50" d="m56.968 26.428.288-.208q.544-.32.768-.32.496 0 1.072.896.352.56.352.896a.76.76 0 0 1-.224.56q-.208.225-.496.4t-.56.336q-.255.16-1.072.416a5.3 5.3 0 0 1-1.584.256 6.4 6.4 0 0 1-1.536-.192 7 7 0 0 1-1.6-.672 7 7 0 0 1-1.472-1.152q-.656-.688-1.088-1.744a6.4 6.4 0 0 1-.416-2.32q0-1.248.416-2.256.416-1.024 1.056-1.68a6.1 6.1 0 0 1 1.488-1.12q1.568-.864 3.152-.864.752 0 1.52.24.784.224 1.184.464l.384.224q.288.175.448.288.416.336.416.768 0 .415-.336.88-.624.864-1.12.864-.288 0-.816-.352-.672-.544-1.792-.544-1.04 0-2.048.72-.48.352-.8.992t-.32 1.456q0 .8.32 1.44t.816 1.008q.976.704 2.032.704.495 0 .928-.128.448-.127.64-.256m3.531-7.92q0-.368.016-.544.033-.192.144-.432.225-.432 1.248-.432.976 0 1.216.432.129.24.144.432.032.192.032.56v7.408q0 .576.096.736.096.144.416.144.336 0 .448.032.113.015.272.128.32.208.32 1.136 0 1.008-.32 1.232-.415.288-1.984.096-1.231-.16-1.6-.816-.448-.785-.448-2.496zm10.707 3.456q.096-.896 1.264-.896.624 0 .928.096.303.096.416.336.127.24.144.432.032.176.032.544v5.6q0 .368-.032.56-.016.176-.128.416-.225.416-1.104.416-.864 0-1.168-.208-.288-.225-.336-.64-.592.848-1.984.848-1.376 0-2.56-1.264t-1.184-2.928q0-1.68 1.184-2.928 1.2-1.264 2.624-1.264.543 0 .992.192.447.192.624.368.175.16.288.32m-2.912 3.328q0 .528.416.96.416.416 1.008.416.591 0 .976-.432.4-.432.4-.944 0-.528-.384-.976-.369-.448-1.008-.448-.624 0-1.024.448-.384.448-.384.976m10.715 4.176q-1.616 0-2.688-1.216-1.056-1.232-1.056-2.992v-2.8q0-.384.016-.56a1.8 1.8 0 0 1 .144-.416q.224-.432 1.248-.432 1.12 0 1.312.608.096.256.096.816v2.8q0 .656.368 1.024.384.368 1.008.368.64 0 1.024-.384.4-.384.4-1.008v-2.832q0-.368.016-.544.032-.192.16-.432.209-.416 1.232-.416 1.008 0 1.232.432.112.24.128.432.032.176.032.544v5.664q0 .352-.032.544-.016.175-.144.4-.24.416-1.232.416-.975 0-1.2-.384-.16-.272-.16-.656a1.6 1.6 0 0 1-.288.32q-.224.208-.432.352a2.14 2.14 0 0 1-1.184.352m11.607-11.904a.7.7 0 0 1 .432-.336q.305-.096.8-.096.512 0 .816.096t.416.336q.127.24.144.432.032.176.032.544v9.552q0 .368-.032.56-.016.175-.144.4-.24.432-1.36.432-1.104 0-1.232-.784-.672.768-1.872.768-1.44 0-2.624-1.248-1.184-1.264-1.184-2.928 0-1.68 1.184-2.944 1.2-1.264 2.624-1.264 1.185 0 1.84.8v-3.36q0-.368.016-.544.033-.192.144-.416m-2.592 8.688q.417.432 1.008.432.592 0 .976-.432.4-.432.4-.944 0-.528-.384-.976-.368-.448-1.008-.448t-1.024.448a1.4 1.4 0 0 0-.384.96q0 .528.416.96m14.635-1.968q0 .975-.496 1.456-.48.465-1.072.464h-3.792q0 .449.528.752a2.1 2.1 0 0 0 1.056.304q.928 0 1.456-.192l.176-.064q.384-.176.64-.176.511 0 .88.72.208.432.208.736 0 1.425-3.408 1.424-1.185 0-2.112-.4-.912-.416-1.424-1.088-1.008-1.296-1.008-2.896 0-2.016 1.296-3.216 1.311-1.215 3.264-1.216 2.223 0 3.264 1.568a3.27 3.27 0 0 1 .544 1.824m-3.376.464q.608 0 .608-.512a.71.71 0 0 0-.288-.592q-.272-.224-.8-.224-.513 0-1.024.432-.512.416-.512.896z"/></g><defs><clipPath id="b"><path fill="#fff" d="M8 0h33v48H8z"/></clipPath><clipPath id="c"><path fill="#fff" d="M49 14.5h55v19H49z"/></clipPath></defs></svg>