<svg xmlns="http://www.w3.org/2000/svg" width="113" height="48" fill="none" viewBox="0 0 113 48"><mask id="a" fill="#fff"><path d="M0 24C0 10.745 10.745 0 24 0h65c13.255 0 24 10.745 24 24s-10.745 24-24 24H24C10.745 48 0 37.255 0 24"/></mask><path fill="#C1D5D4" d="M0 24C0 10.745 10.745 0 24 0h65c13.255 0 24 10.745 24 24s-10.745 24-24 24H24C10.745 48 0 37.255 0 24"/><path fill="#6A8C8D" d="M24 0v2h65v-4H24zm65 48v-2H24v4h65zm-65 0v-2C11.85 46 2 36.15 2 24h-4c0 14.36 11.64 26 26 26zm89-24h-2c0 12.15-9.85 22-22 22v4c14.359 0 26-11.64 26-26zM89 0v2c12.15 0 22 9.85 22 22h4c0-14.36-11.641-26-26-26zM24 0v-2C9.64-2-2 9.64-2 24h4C2 11.85 11.85 2 24 2z" mask="url(#a)"/><g clip-path="url(#b)"><path fill="#90A9AD" stroke="#5E7A7E" stroke-width="1.333" d="M24.21 25.35c-.106-.372-.617-.412-.773-.058-.58 1.314-1.223 2.912-1.456 3.936a6 6 0 0 0-.135 1.318.84.84 0 0 0 .616.808 7.7 7.7 0 0 0 2.04.28 7.7 7.7 0 0 0 1.704-.195c.318-.073.407-.474.201-.728-.906-1.155-1.457-2.782-2.196-5.36Zm-3.08-6.837c-.56-.534-1.436-.486-1.987.057A7.64 7.64 0 0 0 16.87 24a7.64 7.64 0 0 0 1.138 4.002c.748 1.211 2.473.675 3.103-.602.51-1.034 1.161-2.227 1.943-3.781a1.9 1.9 0 0 0 .077-1.556l-.055-.138c-.489-1.225-1.193-2.645-1.82-3.288zm10.02 14.242a17 17 0 0 1-1.766-.301 2.7 2.7 0 0 0-1.582.104 9.173 9.173 0 0 1-10.459-14.293c.424-.528.197-1.352-.48-1.354-2.69.024-5.53 1.514-6.713 5.537-.111.585-.085 1.027-.085 1.552 0 7.973 6.465 14.438 14.438 14.438 3.453 0 6.62-1.214 9.103-3.236 1.064-.867.142-2.381-1.23-2.377q-.654 0-1.226-.07Zm-2.712-2.797c.343.167.756.069 1.045-.18a7.64 7.64 0 0 0 2.652-5.78 7.645 7.645 0 0 0-7.634-7.632c-1.158 0-1.58 1.387-1.067 2.426.723 1.468 1.21 3.19 1.687 5.017l.002.007c.017.055.245.8.622 1.777.393 1.013.95 2.268 1.556 3.182.4.614.839 1.054 1.137 1.183ZM24.501 9.563a14.4 14.4 0 0 0-8.836 3.02c-.719.557.167 1.85 1.075 1.86 1.677.004 2.997.524 3.63.88.28.162.62.197.924.084a9.173 9.173 0 0 1 10.514 14.14c-.317.416-.082 1.056.441 1.053 1.598 0 3.328-.352 4.623-1.441.846-.712 1.553-1.754 1.945-3.317q.12-.906.12-1.842c0-7.973-6.461-14.437-14.436-14.437Z"/></g><g clip-path="url(#c)"><path fill="#5D7A82" d="m56.968 26.428.288-.208q.544-.32.768-.32.496 0 1.072.896.352.56.352.896a.76.76 0 0 1-.224.56q-.208.225-.496.4t-.56.336q-.255.16-1.072.416a5.3 5.3 0 0 1-1.584.256 6.4 6.4 0 0 1-1.536-.192 7 7 0 0 1-1.6-.672 7 7 0 0 1-1.472-1.152q-.656-.688-1.088-1.744a6.4 6.4 0 0 1-.416-2.32q0-1.248.416-2.256.416-1.024 1.056-1.68a6.1 6.1 0 0 1 1.488-1.12q1.568-.864 3.152-.864.752 0 1.52.24.784.224 1.184.464l.384.224q.288.175.448.288.416.336.416.768 0 .415-.336.88-.624.864-1.12.864-.288 0-.816-.352-.672-.544-1.792-.544-1.04 0-2.048.72-.48.352-.8.992t-.32 1.456q0 .8.32 1.44t.816 1.008q.976.704 2.032.704.495 0 .928-.128.448-.127.64-.256m3.531-7.92q0-.368.016-.544.033-.192.144-.432.225-.432 1.248-.432.976 0 1.216.432.129.24.144.432.032.192.032.56v7.408q0 .576.096.736.096.144.416.144.336 0 .448.032.113.015.272.128.32.208.32 1.136 0 1.008-.32 1.232-.415.288-1.984.096-1.231-.16-1.6-.816-.448-.785-.448-2.496zm4.995 6.784q0-1.92 1.344-3.168t3.072-1.248 3.056 1.248q1.328 1.232 1.328 3.152 0 1.328-.688 2.368-.688 1.025-1.68 1.52a4.55 4.55 0 0 1-2.032.48q-1.056 0-2.048-.512-.993-.528-1.68-1.536a4.1 4.1 0 0 1-.672-2.304m3.344 1.152q.512.384 1.04.384t1.056-.4.528-1.184-.496-1.168a1.72 1.72 0 0 0-1.072-.384q-.576 0-1.072.4t-.496 1.184q0 .768.512 1.168m8.634-6.624q-.288.08-.784.08t-.785-.096a.72.72 0 0 1-.416-.32 1.8 1.8 0 0 1-.143-.416 7 7 0 0 1-.016-.56q0-.368.016-.544.03-.175.144-.4.224-.416 1.231-.416.96 0 1.2.416.112.208.129.384.03.175.031.528v.096q0 .352-.031.528-.017.175-.145.4-.128.224-.431.32m-1.552 1.296q.303-.096.8-.096.495 0 .784.096a.64.64 0 0 1 .4.336q.127.224.144.416.03.176.031.544v6.592q0 1.872-1.295 2.992-1.297 1.12-2.849 1.12a3.3 3.3 0 0 1-.544-.032 1.2 1.2 0 0 1-.4-.128q-.415-.225-.415-1.168 0-.944.352-1.184.336-.24.928-.24.576 0 1.023-.32.449-.32.448-1.152V22.3q0-.56.145-.816a.8.8 0 0 1 .448-.368m7.183 8.352q-1.617 0-2.688-1.216-1.056-1.232-1.056-2.992v-2.8q0-.384.016-.56a1.8 1.8 0 0 1 .144-.416q.224-.432 1.248-.432 1.12 0 1.312.608.096.256.096.816v2.8q0 .656.368 1.024.384.368 1.008.368.64 0 1.024-.384.4-.384.4-1.008v-2.832q0-.368.016-.544.031-.192.16-.432.208-.416 1.232-.416 1.007 0 1.232.432.111.24.128.432.032.176.032.544v5.664q0 .352-.032.544-.016.175-.144.4-.24.416-1.232.416-.975 0-1.2-.384-.16-.272-.16-.656a1.6 1.6 0 0 1-.288.32q-.225.208-.432.352a2.14 2.14 0 0 1-1.184.352m11.687-8.304q.304.096.496.336.208.225.208.736 0 .512-.304 1.12t-.88.608q-.288 0-.56-.128-.256-.128-.688-.128t-.816.304q-.368.304-.368.736v3.36q0 .368-.032.56a1.1 1.1 0 0 1-.144.416q-.24.416-1.248.416-.768 0-1.104-.272-.256-.225-.288-.688v-6.08q0-.368.016-.544.032-.192.144-.416.224-.432 1.248-.432.96 0 1.2.368.176.256.176.528.08-.112.224-.272.16-.16.656-.432.495-.272.864-.272.385 0 .64.048.255.032.56.128m9.228 3.12q0 .975-.496 1.456-.48.465-1.072.464h-3.792q0 .449.528.752a2.1 2.1 0 0 0 1.056.304q.928 0 1.456-.192l.176-.064q.384-.176.64-.176.512 0 .88.72.208.432.208.736 0 1.425-3.408 1.424-1.184 0-2.112-.4-.912-.416-1.424-1.088-1.008-1.296-1.008-2.896 0-2.016 1.296-3.216 1.313-1.215 3.264-1.216 2.225 0 3.264 1.568.544.832.544 1.824m-3.376.464q.608 0 .608-.512a.71.71 0 0 0-.288-.592q-.272-.224-.8-.224-.512 0-1.024.432-.512.416-.512.896z"/></g><defs><clipPath id="b"><path fill="#fff" d="M8 0h33v48H8z"/></clipPath><clipPath id="c"><path fill="#fff" d="M49 14.5h56v19H49z"/></clipPath></defs></svg>