<svg xmlns="http://www.w3.org/2000/svg" width="85" height="48" fill="none" viewBox="0 0 85 48"><mask id="a" fill="#fff"><path d="M0 24C0 10.745 10.745 0 24 0h37c13.255 0 24 10.745 24 24S74.255 48 61 48H24C10.745 48 0 37.255 0 24"/></mask><path fill="#94CEDE" d="M0 24C0 10.745 10.745 0 24 0h37c13.255 0 24 10.745 24 24S74.255 48 61 48H24C10.745 48 0 37.255 0 24"/><path fill="#5D91BD" d="M24 0v2h37v-4H24zm37 48v-2H24v4h37zm-37 0v-2C11.85 46 2 36.15 2 24h-4c0 14.36 11.64 26 26 26zm61-24h-2c0 12.15-9.85 22-22 22v4c14.36 0 26-11.64 26-26zM61 0v2c12.15 0 22 9.85 22 22h4C87 9.64 75.36-2 61-2zM24 0v-2C9.64-2-2 9.64-2 24h4C2 11.85 11.85 2 24 2z" mask="url(#a)"/><g clip-path="url(#b)"><path fill="#3687DD" d="M36.538 15.75c-.21-.398-.5-.746-.82-.948L24.634 7.803c-.64-.404-1.685-.404-2.324 0l-11.087 6.999c-.639.403-1.16 1.393-1.16 2.2v13.997c0 .404.13.853.34 1.251.21.4.5.747.82.95l11.085 6.998c.638.403 1.684.403 2.323 0l11.085-6.999c.319-.202.61-.55.82-.949s.339-.847.339-1.25V17.001c.004-.404-.126-.853-.337-1.251M23.469 33.778c-4.928 0-8.938-4.387-8.938-9.777s4.01-9.776 8.94-9.776a8.4 8.4 0 0 1 4.466 1.313c1.358.857 2.487 2.09 3.274 3.573l-3.868 2.447a4.7 4.7 0 0 0-1.637-1.789 4.2 4.2 0 0 0-2.235-.658c-1.186 0-2.323.516-3.162 1.433C19.471 21.46 19 22.703 19 24c.001 1.297.473 2.539 1.31 3.455.839.917 1.975 1.432 3.16 1.434a4.2 4.2 0 0 0 2.235-.658 4.7 4.7 0 0 0 1.638-1.787l3.87 2.447c-.788 1.483-1.917 2.715-3.276 3.572a8.4 8.4 0 0 1-4.467 1.314m8.94-9.233h-.993v1.086h-.994v-1.086h-.993v-1.087h.993v-1.086h.994v1.086h.993zm3.724 0h-.993v1.086h-.993v-1.086h-.994v-1.087h.994v-1.086h.993v1.086h.993z"/><path fill="#fff" d="M23.47 33.777c-4.93 0-8.939-4.387-8.939-9.777s4.01-9.776 8.94-9.776a8.4 8.4 0 0 1 4.466 1.313c1.358.857 2.487 2.09 3.274 3.573l-3.868 2.447a4.7 4.7 0 0 0-1.637-1.789 4.2 4.2 0 0 0-2.235-.658c-1.186 0-2.323.516-3.162 1.433C19.471 21.46 19 22.703 19 24c.001 1.297.473 2.539 1.31 3.455.839.917 1.975 1.432 3.16 1.434a4.2 4.2 0 0 0 2.235-.658 4.7 4.7 0 0 0 1.638-1.787l3.87 2.447c-.788 1.483-1.917 2.715-3.276 3.572a8.4 8.4 0 0 1-4.467 1.314"/><path stroke="#1564AC" stroke-width="1.2" d="M36.538 15.75c-.21-.398-.5-.746-.82-.948L24.634 7.803c-.64-.404-1.685-.404-2.324 0l-11.087 6.999c-.639.403-1.16 1.393-1.16 2.2v13.997c0 .404.13.853.34 1.251.21.4.5.747.82.95l11.085 6.998c.638.403 1.684.403 2.323 0l11.085-6.999c.319-.202.61-.55.82-.949s.339-.847.339-1.25V17.001c.004-.404-.126-.853-.337-1.251ZM23.469 33.778c-4.928 0-8.938-4.387-8.938-9.777s4.01-9.776 8.94-9.776a8.4 8.4 0 0 1 4.466 1.313c1.358.857 2.487 2.09 3.274 3.573l-3.868 2.447a4.7 4.7 0 0 0-1.637-1.789 4.2 4.2 0 0 0-2.235-.658c-1.186 0-2.323.516-3.162 1.433C19.471 21.46 19 22.703 19 24c.001 1.297.473 2.539 1.31 3.455.839.917 1.975 1.432 3.16 1.434a4.2 4.2 0 0 0 2.235-.658 4.7 4.7 0 0 0 1.638-1.787l3.87 2.447c-.788 1.483-1.917 2.715-3.276 3.572a8.4 8.4 0 0 1-4.467 1.314Zm8.94-9.233h-.993v1.086h-.994v-1.086h-.993v-1.087h.993v-1.086h.994v1.086h.993zm3.724 0h-.993v1.086h-.993v-1.086h-.994v-1.087h.994v-1.086h.993v1.086h.993z"/><path stroke="#1564AC" stroke-width="1.2" d="M23.47 33.777c-4.93 0-8.939-4.387-8.939-9.777s4.01-9.776 8.94-9.776a8.4 8.4 0 0 1 4.466 1.313c1.358.857 2.487 2.09 3.274 3.573l-3.868 2.447a4.7 4.7 0 0 0-1.637-1.789 4.2 4.2 0 0 0-2.235-.658c-1.186 0-2.323.516-3.162 1.433C19.471 21.46 19 22.703 19 24c.001 1.297.473 2.539 1.31 3.455.839.917 1.975 1.432 3.16 1.434a4.2 4.2 0 0 0 2.235-.658 4.7 4.7 0 0 0 1.638-1.787l3.87 2.447c-.788 1.483-1.917 2.715-3.276 3.572a8.4 8.4 0 0 1-4.467 1.314Z"/></g><g clip-path="url(#c)"><path fill="#226EB3" d="m56.968 26.428.288-.208q.544-.32.768-.32.496 0 1.072.896.352.56.352.896a.76.76 0 0 1-.224.56q-.208.225-.496.4t-.56.336q-.255.16-1.072.416a5.3 5.3 0 0 1-1.584.256 6.4 6.4 0 0 1-1.536-.192 7 7 0 0 1-1.6-.672 7 7 0 0 1-1.472-1.152q-.656-.688-1.088-1.744a6.4 6.4 0 0 1-.416-2.32q0-1.248.416-2.256.416-1.024 1.056-1.68a6.1 6.1 0 0 1 1.488-1.12q1.568-.864 3.152-.864.752 0 1.52.24.784.224 1.184.464l.384.224q.288.175.448.288.416.336.416.768 0 .415-.336.88-.624.864-1.12.864-.288 0-.816-.352-.672-.544-1.792-.544-1.04 0-2.048.72-.48.352-.8.992t-.32 1.456q0 .8.32 1.44t.816 1.008q.976.704 2.032.704.495 0 .928-.128.448-.127.64-.256m8.38-2.576h1.295q.561 0 .816.144.257.128.336.4.096.272.096.736 0 .448-.08.72t-.272.384q-.288.144-.816.144h-1.376v1.296q0 .56-.144.816a.7.7 0 0 1-.4.352q-.271.08-.736.08a2.6 2.6 0 0 1-.72-.08.66.66 0 0 1-.384-.304q-.144-.304-.144-.88v-1.28h-1.392q-.528 0-.768-.128a.64.64 0 0 1-.32-.4 2.8 2.8 0 0 1-.08-.736q0-.449.08-.72.096-.288.32-.4.304-.144.88-.144h1.28v-1.296q0-.56.128-.816a.63.63 0 0 1 .4-.336q.289-.096.736-.096.449 0 .72.096.288.08.4.288.144.304.144.88zm8.437 0h1.296q.56 0 .816.144.255.128.336.4.096.272.096.736 0 .448-.08.72t-.272.384q-.288.144-.816.144h-1.376v1.296q0 .56-.144.816a.7.7 0 0 1-.4.352q-.272.08-.736.08a2.6 2.6 0 0 1-.72-.08.66.66 0 0 1-.384-.304q-.144-.304-.144-.88v-1.28h-1.392q-.528 0-.768-.128a.64.64 0 0 1-.32-.4 2.8 2.8 0 0 1-.08-.736q0-.449.08-.72.096-.288.32-.4.304-.144.88-.144h1.28v-1.296q0-.56.128-.816a.63.63 0 0 1 .4-.336q.288-.096.736-.096t.72.096q.288.08.4.288.144.304.144.88z"/></g><defs><clipPath id="b"><path fill="#fff" d="M8 0h33v48H8z"/></clipPath><clipPath id="c"><path fill="#fff" d="M49 14.5h28v19H49z"/></clipPath></defs></svg>