<svg xmlns="http://www.w3.org/2000/svg" width="89" height="48" fill="none" viewBox="0 0 89 48"><mask id="a" fill="#fff"><path d="M0 24C0 10.745 10.745 0 24 0h41c13.255 0 24 10.745 24 24S78.255 48 65 48H24C10.745 48 0 37.255 0 24"/></mask><path fill="#CBCEF0" d="M0 24C0 10.745 10.745 0 24 0h41c13.255 0 24 10.745 24 24S78.255 48 65 48H24C10.745 48 0 37.255 0 24"/><path fill="#787CB5" d="M24 0v2h41v-4H24zm41 48v-2H24v4h41zm-41 0v-2C11.85 46 2 36.15 2 24h-4c0 14.36 11.64 26 26 26zm65-24h-2c0 12.15-9.85 22-22 22v4c14.36 0 26-11.64 26-26zM65 0v2c12.15 0 22 9.85 22 22h4C91 9.64 79.36-2 65-2zM24 0v-2C9.64-2-2 9.64-2 24h4C2 11.85 11.85 2 24 2z" mask="url(#a)"/><g clip-path="url(#b)"><path fill="#5D63E5" d="M40.59 20.903c-.899-1.564-3.08-2.977-4.19-3.577-.019-.021-.038-.021-.057-.021-.861-1.093-2.086-2.12-3.406-2.635-1.378-.535-2.87-.707-4.286-.685h-2.373c-.784-.857-1.78-1.692-3.31-1.735-1.397 0-2.45.685-3.483 1.8-1.76.085-3.042.406-4.21 1.327-1.74 1.37-2.525 3.555-2.525 5.868v11.48c0 1.585.957 2.978 2.41 3.02 1.13.043 2.201-.77 2.316-2.591.172-1.756.096-4.177.65-5.29.154-.236.345-.364.613-.364.823 0 .938 1.07.938 2.655v2.7c.019.963.268 1.734.937 2.398.804.792 1.512.964 2.526.985.593 0 1.148.022 1.684-.107 1.148-.278 2.181-1.114 2.2-2.742.02-.428.02-.92.02-1.52h2.047c-.038.792-.038 1.435.057 1.928.268 1.177 1.34 2.184 2.602 2.377.46.086 1.206.086 1.742.064 1.703-.043 2.774-1.135 2.985-2.699.153-1.285-.153-4.476.65-6.746.44-1.242.9-2.635.88-4.327-.019-.75-.114-1.478-.267-2.484.535.214 1.205.964 1.588 1.563.268.386.478.664.823.664.497.022.803-.664.44-1.306"/></g><g clip-path="url(#c)"><path fill="#5D63E5" d="M58.296 20.14a4.2 4.2 0 0 1 .416 1.888 4.2 4.2 0 0 1-.416 1.888q-.416.832-1.072 1.328-1.328 1.024-2.752 1.024h-2v1.808q0 .368-.032.56a1.1 1.1 0 0 1-.144.416q-.224.432-1.248.432-1.12 0-1.312-.592-.096-.272-.096-.832v-8.88q0-.368.016-.544.032-.192.16-.432.224-.432 1.248-.432h3.424q1.408 0 2.736 1.024.656.496 1.072 1.344m-3.808 3.296q.48 0 .944-.352.464-.353.464-1.056t-.464-1.056q-.465-.368-.96-.368h-2v2.832zm12.51-5.232a.7.7 0 0 1 .431-.336q.305-.096.768-.096.465 0 .736.08.272.08.416.192t.224.32q.08.272.08.832v8.88q0 .368-.032.56a1.1 1.1 0 0 1-.144.416q-.223.432-1.248.432-1.12 0-1.312-.592-.096-.272-.096-.832v-3.248h-4.24v3.264q0 .368-.032.56a1.1 1.1 0 0 1-.144.416q-.223.432-1.248.432-1.12 0-1.312-.592-.096-.272-.096-.832v-8.88q0-.368.016-.544.033-.192.16-.432.225-.432 1.248-.432 1.12 0 1.328.592.08.272.08.832v3.264h4.24v-3.28q0-.368.016-.544.033-.192.16-.432m12.595 1.936a4.2 4.2 0 0 1 .416 1.888 4.2 4.2 0 0 1-.416 1.888q-.417.832-1.072 1.328-1.329 1.024-2.752 1.024h-2v1.808q0 .368-.032.56a1.1 1.1 0 0 1-.144.416q-.225.432-1.248.432-1.12 0-1.312-.592-.096-.272-.096-.832v-8.88q0-.368.016-.544.032-.192.16-.432.224-.432 1.248-.432h3.424q1.408 0 2.736 1.024.655.496 1.072 1.344m-3.808 3.296q.48 0 .944-.352.464-.353.464-1.056t-.464-1.056q-.465-.368-.96-.368h-2v2.832z"/></g><defs><clipPath id="b"><path fill="#fff" d="M8 0h33v48H8z"/></clipPath><clipPath id="c"><path fill="#fff" d="M49 14.5h32v19H49z"/></clipPath></defs></svg>