<svg xmlns="http://www.w3.org/2000/svg" width="97" height="48" fill="none" viewBox="0 0 97 48"><mask id="a" fill="#fff"><path d="M0 24C0 10.745 10.745 0 24 0h49c13.255 0 24 10.745 24 24S86.255 48 73 48H24C10.745 48 0 37.255 0 24"/></mask><path fill="#A3CFEC" d="M0 24C0 10.745 10.745 0 24 0h49c13.255 0 24 10.745 24 24S86.255 48 73 48H24C10.745 48 0 37.255 0 24"/><path fill="#6294BD" d="M24 0v2h49v-4H24zm49 48v-2H24v4h49zm-49 0v-2C11.85 46 2 36.15 2 24h-4c0 14.36 11.64 26 26 26zm73-24h-2c0 12.15-9.85 22-22 22v4c14.36 0 26-11.64 26-26zM73 0v2c12.15 0 22 9.85 22 22h4C99 9.64 87.36-2 73-2zM24 0v-2C9.64-2-2 9.64-2 24h4C2 11.85 11.85 2 24 2z" mask="url(#a)"/><g clip-path="url(#b)"><path fill="#000" d="M31.695 7.727H29.59l2.19 2.148v1.022h-4.51V9.7h2.189l-2.19-2.147V6.529h4.426zm-5.32 0H24.27l2.19 2.148v1.022h-4.51V9.7h2.189l-2.19-2.147V6.529h4.426zm-5.267.05h-2.272V9.65h2.272v1.247H17.22V6.53h3.887z"/><path fill="#52A1CB" d="m13.782 40.016-2.385-26.207h26.206L35.216 40.01l-10.732 2.915z"/><path fill="#5CAAD1" d="m24.5 40.015 8.25-2.356 1.941-22.394H24.5z"/><path fill="#fff" d="M24.5 24.998h4.61l.318-3.451H24.5v-3.37h8.735l-.083.904-.856 9.287H24.5z"/><path fill="#EBEBEB" d="m24.5 33.558-.015.004-3.696-1.024-.237-2.714h-3.331l.465 5.344 6.799 1.935.015-.005z"/><path fill="#fff" d="m28.518 28.368-.392 4.364-3.626.98v3.39l6.665-1.85.049-.551.565-6.333z"/><path fill="#EBEBEB" d="M24.5 18.177v3.37h-7.019l-.059-.758-.132-1.709-.07-.903zm-.01 6.82v3.37h-3.195l-.059-.757-.132-1.708-.07-.904z"/></g><g clip-path="url(#c)"><path fill="#447FAB" d="m56.968 26.428.288-.208q.544-.32.768-.32.496 0 1.072.896.352.56.352.896a.76.76 0 0 1-.224.56q-.208.225-.496.4t-.56.336q-.255.16-1.072.416a5.3 5.3 0 0 1-1.584.256 6.4 6.4 0 0 1-1.536-.192 7 7 0 0 1-1.6-.672 7 7 0 0 1-1.472-1.152q-.656-.688-1.088-1.744a6.4 6.4 0 0 1-.416-2.32q0-1.248.416-2.256.416-1.024 1.056-1.68a6.1 6.1 0 0 1 1.488-1.12q1.568-.864 3.152-.864.752 0 1.52.24.784.224 1.184.464l.384.224q.288.175.448.288.416.336.416.768 0 .415-.336.88-.624.864-1.12.864-.288 0-.816-.352-.672-.544-1.792-.544-1.04 0-2.048.72-.48.352-.8.992t-.32 1.456q0 .8.32 1.44t.816 1.008q.976.704 2.032.704.495 0 .928-.128.448-.127.64-.256m3.707 1.424q-.416-.511-.416-.912 0-.416.688-1.088.4-.384.848-.384.449 0 1.248.8.225.272.64.528.417.24.768.24 1.488 0 1.488-1.216 0-.368-.416-.608-.399-.255-1.008-.368a9 9 0 0 1-1.312-.352 9 9 0 0 1-1.312-.592q-.607-.336-1.024-1.056-.4-.735-.4-1.76 0-1.408 1.04-2.448 1.056-1.056 2.864-1.056.96 0 1.744.256.801.24 1.104.496l.4.304q.496.464.496.784t-.384.88q-.543.8-1.12.8-.336 0-.832-.32a2 2 0 0 1-.192-.16 2 2 0 0 0-.24-.208q-.336-.208-.864-.208-.511 0-.864.256-.336.24-.336.688 0 .432.4.704.417.272 1.024.368.608.096 1.328.304.72.192 1.328.48t1.008 1.008q.416.704.416 1.744t-.416 1.84q-.416.784-1.088 1.216-1.296.848-2.768.848-.752 0-1.424-.176-.671-.192-1.088-.464-.848-.512-1.184-.992zm9.329 0q-.417-.511-.416-.912 0-.416.688-1.088.4-.384.848-.384t1.248.8q.223.272.64.528.416.24.767.24 1.49 0 1.489-1.216-.001-.368-.416-.608-.4-.255-1.008-.368a9 9 0 0 1-1.312-.352 9 9 0 0 1-1.312-.592q-.608-.336-1.025-1.056-.4-.735-.4-1.76 0-1.408 1.04-2.448 1.058-1.056 2.865-1.056.96 0 1.743.256.8.24 1.105.496l.4.304q.495.464.496.784 0 .32-.385.88-.543.8-1.12.8-.335 0-.831-.32a2 2 0 0 1-.193-.16 2 2 0 0 0-.24-.208q-.335-.208-.864-.208-.51 0-.864.256-.335.24-.335.688 0 .432.4.704.415.272 1.023.368.609.096 1.329.304.72.192 1.328.48.607.288 1.008 1.008.415.704.415 1.744t-.415 1.84q-.417.784-1.088 1.216-1.296.848-2.768.848-.752 0-1.424-.176-.672-.192-1.088-.464-.849-.512-1.184-.992zm13.344-10.256q1.968 0 3.104 1.12t1.136 2.528q0 1.392-1.248 2.016v.112q.16.08.464.352.32.255.512.512.528.672.528 1.536 0 1.712-1.28 2.832-1.281 1.104-3.216 1.104-1.92 0-3.2-1.12-.48-.432-.848-1.136a3 3 0 0 1-.176-.416l-.032-.16q-.176-.528-.176-.864 0-.928 1.568-.928.64 0 .848.16.271.208.48.832.16.512.88.768.303.096.672.096.847 0 1.248-.336.4-.352.4-.784t-.4-.752a1.36 1.36 0 0 0-.928-.336q-.528 0-.72-.032a1.3 1.3 0 0 1-.416-.16q-.432-.209-.432-1.232 0-1.12.592-1.328.271-.08.832-.08 1.215 0 1.216-.624 0-.336-.32-.64t-.896-.304q-.56 0-.896.192t-.416.384l-.096.192q-.369.8-1.056.8-.4 0-.88-.288-.8-.465-.8-1.072 0-.255.368-1.088.064-.144.352-.496.287-.368.656-.64.384-.272 1.056-.496a4.9 4.9 0 0 1 1.52-.224"/></g><defs><clipPath id="b"><path fill="#fff" d="M8 0h33v48H8z"/></clipPath><clipPath id="c"><path fill="#fff" d="M49 14.5h40v19H49z"/></clipPath></defs></svg>