<svg xmlns="http://www.w3.org/2000/svg" width="93" height="48" fill="none" viewBox="0 0 93 48"><mask id="a" fill="#fff"><path d="M0 24C0 10.745 10.745 0 24 0h45c13.255 0 24 10.745 24 24S82.255 48 69 48H24C10.745 48 0 37.255 0 24"/></mask><path fill="#ACCDD9" d="M0 24C0 10.745 10.745 0 24 0h45c13.255 0 24 10.745 24 24S82.255 48 69 48H24C10.745 48 0 37.255 0 24"/><path fill="#3A6C7A" d="M24 0v2h45v-4H24zm45 48v-2H24v4h45zm-45 0v-2C11.85 46 2 36.15 2 24h-4c0 14.36 11.64 26 26 26zm69-24h-2c0 12.15-9.85 22-22 22v4c14.36 0 26-11.64 26-26zM69 0v2c12.15 0 22 9.85 22 22h4C95 9.64 83.36-2 69-2zM24 0v-2C9.64-2-2 9.64-2 24h4C2 11.85 11.85 2 24 2z" mask="url(#a)"/><g stroke-linecap="round" stroke-linejoin="round" clip-path="url(#b)"><path fill="#165E89" stroke="#02589B" stroke-width="1.333" d="M22.42 39.469h10.53v-7.02h7.019V21.92L27.497 9.38c-.655-.68-1.872-1.1-2.738-.68L14.23 13.73 9.2 24.26c-.422.865 0 2.059.701 2.737z"/><path stroke="#358DC8" stroke-width="2" d="M31.78 13.73H14.23v17.55m0-17.55 18.72 18.72"/></g><g clip-path="url(#c)"><path fill="#226077" d="m51.064 17.756 2.96.016q2.32 0 4.08 1.68 1.76 1.665 1.76 4.112 0 2.431-1.728 4.176-1.712 1.744-4.16 1.744h-2.928q-.975 0-1.216-.4-.192-.336-.192-1.024v-8.896q0-.384.016-.56.032-.176.16-.416.224-.432 1.248-.432m2.96 8.896q1.152 0 2.08-.848.928-.864.928-2.16t-.912-2.16q-.896-.88-2.112-.88h-1.536v6.048zm12.354-4.688q.096-.896 1.264-.896.624 0 .928.096.303.096.416.336.127.24.144.432.032.176.032.544v5.6q0 .368-.032.56-.017.176-.128.416-.225.416-1.104.416-.864 0-1.168-.208-.288-.225-.336-.64-.592.848-1.984.848-1.377 0-2.56-1.264t-1.184-2.928q0-1.68 1.184-2.928 1.2-1.264 2.624-1.264.543 0 .992.192.447.192.624.368.176.16.288.32m-2.912 3.328q0 .528.416.96.416.416 1.008.416.591 0 .976-.432.4-.432.4-.944 0-.528-.384-.976-.369-.448-1.008-.448-.624 0-1.024.448-.384.448-.384.976m12.699-4.128q.304.096.496.336.208.225.208.736 0 .512-.304 1.12t-.88.608q-.288 0-.56-.128-.256-.128-.688-.128t-.816.304q-.368.304-.368.736v3.36q0 .368-.032.56a1.1 1.1 0 0 1-.144.416q-.24.416-1.248.416-.768 0-1.104-.272-.256-.225-.288-.688v-6.08q0-.368.016-.544.032-.192.144-.416.224-.432 1.248-.432.96 0 1.2.368.176.256.176.528.08-.112.224-.272.16-.16.656-.432.495-.272.864-.272.385 0 .64.048.255.032.56.128m6.48 2.736-1.04-.064v2.208q0 .432.128.624.144.192.512.192.384 0 .576.032.209.016.432.144.368.208.368 1.072 0 1.008-.448 1.232-.24.113-.432.144-.175.016-.528.016-1.664 0-2.528-.752t-.864-2.544v-2.368a4 4 0 0 1-.656.048.76.76 0 0 1-.592-.272q-.224-.271-.224-.928 0-.656.08-.944.08-.305.224-.432a.98.98 0 0 1 .64-.208l.528.064v-1.648q0-.368.016-.544.033-.176.16-.384.209-.4 1.232-.4 1.089 0 1.296.592.08.256.08.816v1.568q.705-.064 1.056-.064.369 0 .544.032.192.016.432.144.416.209.416 1.232 0 1.008-.432 1.232-.24.113-.432.144-.175.015-.544.016"/></g><defs><clipPath id="b"><path fill="#fff" d="M8 0h33v48H8z"/></clipPath><clipPath id="c"><path fill="#fff" d="M49 14.5h36v19H49z"/></clipPath></defs></svg>