<svg xmlns="http://www.w3.org/2000/svg" width="157" height="48" fill="none" viewBox="0 0 157 48"><mask id="a" fill="#fff"><path d="M0 24C0 10.745 10.745 0 24 0h109c13.255 0 24 10.745 24 24s-10.745 24-24 24H24C10.745 48 0 37.255 0 24"/></mask><path fill="#9DC4FF" d="M0 24C0 10.745 10.745 0 24 0h109c13.255 0 24 10.745 24 24s-10.745 24-24 24H24C10.745 48 0 37.255 0 24"/><path fill="#6386F8" d="M24 0v2h109v-4H24zm109 48v-2H24v4h109zM24 48v-2C11.85 46 2 36.15 2 24h-4c0 14.36 11.64 26 26 26zm133-24h-2c0 12.15-9.85 22-22 22v4c14.359 0 26-11.64 26-26zM133 0v2c12.15 0 22 9.85 22 22h4c0-14.36-11.641-26-26-26zM24 0v-2C9.64-2-2 9.64-2 24h4C2 11.85 11.85 2 24 2z" mask="url(#a)"/><g clip-path="url(#b)"><path stroke="#2962EF" stroke-width="2" d="M22.322 30.669c.3.564-.088 1.319-.723 1.241a31 31 0 0 1-.979-.136 15 15 0 0 1-2.99-.78q-1.431-.537-2.437-1.403-1.005-.865-1.005-2.085V24.67q0 1.02.735 1.802.735.78 1.843 1.304 1.107.524 2.437.851.603.149 1.172.258c.792.154 1.436.726 1.782 1.455q.078.165.165.329Zm-.646-5.87c-.212.761-.904 1.353-1.679 1.194a22 22 0 0 1-1.002-.231 11.6 11.6 0 0 1-2.344-.865q-1.067-.537-1.766-1.29a2.5 2.5 0 0 1-.697-1.773v-2.836q0 1.079.812 1.872.813.795 2.011 1.348t2.604.85q.604.129 1.164.222c.673.113 1.08.85.897 1.509ZM23.47 20.7q-3.841 0-6.562-1.333-2.72-1.334-2.72-3.204.002-1.872 2.72-3.205 2.72-1.333 6.562-1.333 3.867 0 6.574 1.333t2.707 3.205-2.707 3.204T23.47 20.7Zm10.69 12.743a1.07 1.07 0 0 1-1.58 0l-1.104-1.213c-.513-.565-1.355-.647-2.077-.398a3.9 3.9 0 0 1-1.289.212q-1.933 0-3.286-1.489-1.354-1.488-1.354-3.616-.001-2.128 1.354-3.615t3.286-1.49 3.288 1.49 1.353 3.615q0 .738-.193 1.418c-.23.813-.149 1.723.42 2.348l1.182 1.3c.37.408.37 1.03 0 1.438Zm-4.22-4.49q.75-.823.749-2.014 0-1.19-.748-2.014-.748-.822-1.83-.822-1.084 0-1.831.822-.748.823-.748 2.014t.748 2.014 1.83.822 1.83-.822Z"/></g><g clip-path="url(#c)"><path fill="#1854ED" d="m51.064 17.756 2.96.016q2.32 0 4.08 1.68 1.76 1.665 1.76 4.112 0 2.431-1.728 4.176-1.712 1.744-4.16 1.744h-2.928q-.975 0-1.216-.4-.192-.336-.192-1.024v-8.896q0-.384.016-.56.032-.176.16-.416.224-.432 1.248-.432m2.96 8.896q1.152 0 2.08-.848.928-.864.928-2.16t-.912-2.16q-.896-.88-2.112-.88h-1.536v6.048zm12.354-4.688q.096-.896 1.264-.896.624 0 .928.096.303.096.416.336.127.24.144.432.032.176.032.544v5.6q0 .368-.032.56-.017.176-.128.416-.225.416-1.104.416-.864 0-1.168-.208-.288-.225-.336-.64-.592.848-1.984.848-1.377 0-2.56-1.264t-1.184-2.928q0-1.68 1.184-2.928 1.2-1.264 2.624-1.264.543 0 .992.192.447.192.624.368.176.16.288.32m-2.912 3.328q0 .528.416.96.416.416 1.008.416.591 0 .976-.432.4-.432.4-.944 0-.528-.384-.976-.369-.448-1.008-.448-.624 0-1.024.448-.384.448-.384.976M75.333 23.9l-1.04-.064v2.208q0 .432.128.624.144.192.512.192.384 0 .576.032.207.016.432.144.368.208.368 1.072 0 1.008-.448 1.232-.24.113-.432.144-.177.016-.528.016-1.664 0-2.528-.752t-.864-2.544v-2.368a4 4 0 0 1-.656.048.76.76 0 0 1-.592-.272q-.225-.271-.224-.928 0-.656.08-.944.08-.305.224-.432a.98.98 0 0 1 .64-.208l.528.064v-1.648q0-.368.016-.544.032-.176.16-.384.208-.4 1.232-.4 1.088 0 1.296.592.08.256.08.816v1.568q.704-.064 1.056-.064.367 0 .544.032.192.016.432.144.416.209.416 1.232 0 1.008-.432 1.232-.24.113-.432.144-.176.015-.544.016m7.763-1.936q.097-.896 1.264-.896.624 0 .928.096t.416.336q.129.24.144.432.032.176.032.544v5.6q0 .368-.032.56-.015.176-.128.416-.223.416-1.104.416-.864 0-1.168-.208-.288-.225-.336-.64-.591.848-1.984.848-1.375 0-2.56-1.264-1.184-1.264-1.184-2.928 0-1.68 1.184-2.928 1.2-1.264 2.624-1.264.545 0 .992.192.449.192.624.368.177.16.288.32m-2.912 3.328q0 .528.416.96.417.416 1.008.416.592 0 .976-.432.4-.432.4-.944 0-.528-.384-.976-.367-.448-1.008-.448-.624 0-1.024.448-.384.448-.384.976m11.195 2.56q-.416-.511-.416-.912 0-.416.688-1.088.4-.384.848-.384t1.248.8q.223.272.64.528.416.24.767.24 1.49 0 1.489-1.216-.001-.368-.416-.608-.4-.255-1.008-.368a9 9 0 0 1-1.312-.352 9 9 0 0 1-1.312-.592q-.608-.336-1.025-1.056-.4-.735-.4-1.76 0-1.408 1.04-2.448 1.058-1.056 2.865-1.056.96 0 1.743.256.8.24 1.105.496l.4.304q.496.464.496.784t-.385.88q-.543.8-1.12.8-.335 0-.831-.32a2 2 0 0 1-.193-.16 2 2 0 0 0-.24-.208q-.335-.208-.864-.208-.51 0-.864.256-.335.24-.335.688 0 .432.4.704.415.272 1.023.368.609.096 1.329.304.72.192 1.328.48.607.288 1.008 1.008.415.704.415 1.744t-.415 1.84q-.417.784-1.088 1.216-1.296.848-2.768.848-.752 0-1.424-.176-.672-.192-1.088-.464-.849-.512-1.184-.992zm11.792-2.56q0 .672.448 1.056.447.368.944.368.512 0 .944-.288.447-.304.72-.304.48 0 1.168.848.368.465.368.832 0 .608-.88 1.136-.912.64-2.24.64-1.488 0-2.864-1.072-.657-.512-1.072-1.36a4.3 4.3 0 0 1-.416-1.888q0-1.04.416-1.872.415-.848 1.072-1.36 1.328-1.056 2.832-1.056.608 0 1.184.176.575.16.848.32l.256.16q.288.192.448.304.416.32.416.736 0 .4-.336.912-.576.88-1.104.88-.305 0-.864-.352-.288-.272-.832-.272-.528 0-.992.384t-.464 1.072m5.625-2.816q0-.368.016-.544a1.8 1.8 0 0 1 .144-.432q.225-.416 1.248-.416.768 0 1.088.272.273.225.288.688.016.16.016.464v5.6q0 .368-.032.56-.015.176-.144.416-.207.416-1.232.416-1.007 0-1.232-.432a1.8 1.8 0 0 1-.144-.416 7 7 0 0 1-.016-.56zm2.624-2.96q-.111.224-.416.32-.303.096-.816.096-.495 0-.8-.096a.7.7 0 0 1-.432-.336 1.8 1.8 0 0 1-.144-.416 8 8 0 0 1-.016-.56q0-.368.016-.544.033-.192.144-.416.225-.432 1.248-.432 1.009 0 1.216.432.129.24.144.432.032.176.032.544t-.032.56q-.015.176-.144.416m9.582 4.768q0 .975-.496 1.456-.48.465-1.072.464h-3.792q0 .449.528.752a2.1 2.1 0 0 0 1.056.304q.928 0 1.456-.192l.176-.064q.385-.176.64-.176.513 0 .88.72.208.432.208.736 0 1.425-3.408 1.424-1.184 0-2.112-.4-.911-.416-1.424-1.088-1.008-1.296-1.008-2.896 0-2.016 1.296-3.216 1.312-1.215 3.264-1.216 2.224 0 3.264 1.568.544.832.544 1.824m-3.376.464q.608 0 .608-.512a.71.71 0 0 0-.288-.592q-.272-.224-.8-.224-.511 0-1.024.432-.512.416-.512.896zm9.108-3.68q1.6 0 2.656 1.232 1.072 1.216 1.072 2.976v2.816q0 .368-.032.56-.015.175-.128.4-.224.432-1.248.432-1.135 0-1.312-.592-.096-.271-.096-.816V25.26q0-.656-.384-1.024-.368-.368-1.008-.368-.624 0-1.024.384-.384.384-.384 1.008v2.832q0 .368-.032.56a1 1 0 0 1-.144.4q-.207.432-1.232.432-1.007 0-1.232-.432a1.8 1.8 0 0 1-.144-.416 8 8 0 0 1-.016-.56v-5.664q0-.352.016-.528.033-.192.16-.416.225-.4 1.232-.4.976 0 1.2.368.16.272.16.656.065-.112.288-.32.225-.208.432-.336a2.1 2.1 0 0 1 1.2-.368m7.655 4.224q0 .672.448 1.056.449.368.944.368.512 0 .944-.288.448-.304.72-.304.48 0 1.168.848.368.465.368.832 0 .608-.88 1.136-.911.64-2.24.64-1.487 0-2.864-1.072-.655-.512-1.072-1.36a4.3 4.3 0 0 1-.416-1.888q0-1.04.416-1.872.417-.848 1.072-1.36 1.329-1.056 2.832-1.056.608 0 1.184.176.576.16.848.32l.256.16q.289.192.448.304.416.32.416.736 0 .4-.336.912-.576.88-1.104.88-.303 0-.864-.352-.288-.272-.832-.272-.528 0-.992.384t-.464 1.072m13.52-1.008q0 .975-.496 1.456-.48.465-1.072.464h-3.792q0 .449.528.752a2.1 2.1 0 0 0 1.056.304q.928 0 1.456-.192l.176-.064q.384-.176.64-.176.511 0 .88.72.208.432.208.736 0 1.425-3.408 1.424-1.185 0-2.112-.4-.912-.416-1.424-1.088-1.008-1.296-1.008-2.896 0-2.016 1.296-3.216 1.311-1.215 3.264-1.216 2.223 0 3.264 1.568a3.27 3.27 0 0 1 .544 1.824m-3.376.464q.608 0 .608-.512a.71.71 0 0 0-.288-.592q-.272-.224-.8-.224-.513 0-1.024.432-.513.416-.512.896z"/></g><defs><clipPath id="b"><path fill="#fff" d="M8 0h33v48H8z"/></clipPath><clipPath id="c"><path fill="#fff" d="M49 14.5h100v19H49z"/></clipPath></defs></svg>