<svg xmlns="http://www.w3.org/2000/svg" width="97" height="48" fill="none" viewBox="0 0 97 48"><mask id="a" fill="#fff"><path d="M0 24C0 10.745 10.745 0 24 0h49c13.255 0 24 10.745 24 24S86.255 48 73 48H24C10.745 48 0 37.255 0 24"/></mask><path fill="#ADA5A5" d="M0 24C0 10.745 10.745 0 24 0h49c13.255 0 24 10.745 24 24S86.255 48 73 48H24C10.745 48 0 37.255 0 24"/><path fill="#787D82" d="M24 0v2h49v-4H24zm49 48v-2H24v4h49zm-49 0v-2C11.85 46 2 36.15 2 24h-4c0 14.36 11.64 26 26 26zm73-24h-2c0 12.15-9.85 22-22 22v4c14.36 0 26-11.64 26-26zM73 0v2c12.15 0 22 9.85 22 22h4C99 9.64 87.36-2 73-2zM24 0v-2C9.64-2-2 9.64-2 24h4C2 11.85 11.85 2 24 2z" mask="url(#a)"/><g clip-path="url(#b)"><path fill="#C3B8B8" d="M24.5 38.85a14.85 14.85 0 1 1 0-29.7 14.85 14.85 0 0 1 0 29.7"/><path stroke="#3A3E41" stroke-width="1.333" d="M24.5 38.85a14.85 14.85 0 1 1 0-29.7 14.85 14.85 0 0 1 0 29.7Zm0 0V28.243h-3.182a5.304 5.304 0 0 1 0-10.607h3.594a7.414 7.414 0 0 1 7.403 7.003l.67 12.09m-9.546-8.486h.81a3.84 3.84 0 0 0 3.433-2.122M17.075 21.88h2.122m2.12 0h2.122"/></g><g clip-path="url(#c)"><path fill="#3A3E41" d="m51.064 17.756 2.96.016q2.32 0 4.08 1.68 1.76 1.665 1.76 4.112 0 2.431-1.728 4.176-1.712 1.744-4.16 1.744h-2.928q-.975 0-1.216-.4-.192-.336-.192-1.024v-8.896q0-.384.016-.56.032-.176.16-.416.224-.432 1.248-.432m2.96 8.896q1.152 0 2.08-.848.928-.864.928-2.16t-.912-2.16q-.896-.88-2.112-.88h-1.536v6.048zm15.01-2.368q0 .975-.496 1.456-.48.465-1.072.464h-3.792q0 .449.528.752a2.1 2.1 0 0 0 1.056.304q.927 0 1.456-.192l.176-.064q.384-.176.64-.176.511 0 .88.72.208.432.208.736 0 1.425-3.408 1.424-1.185 0-2.112-.4-.912-.416-1.424-1.088-1.008-1.296-1.008-2.896 0-2.016 1.296-3.216 1.311-1.215 3.264-1.216 2.223 0 3.264 1.568.543.832.544 1.824m-3.376.464q.608 0 .608-.512a.71.71 0 0 0-.288-.592q-.272-.224-.8-.224-.513 0-1.024.432-.512.416-.512.896zm9.108-3.68q1.599 0 2.655 1.232 1.072 1.216 1.072 2.976v2.816q0 .368-.031.56-.017.175-.129.4-.224.432-1.248.432-1.136 0-1.311-.592-.096-.271-.097-.816V25.26q0-.656-.384-1.024-.367-.368-1.008-.368-.623 0-1.023.384-.385.384-.385 1.008v2.832q0 .368-.031.56-.017.175-.145.4-.208.432-1.231.432-1.008 0-1.233-.432a1.8 1.8 0 0 1-.143-.416 7 7 0 0 1-.016-.56v-5.664q0-.352.016-.528.03-.192.16-.416.224-.4 1.231-.4.977 0 1.2.368.16.272.16.656.065-.112.288-.32.225-.208.433-.336a2.1 2.1 0 0 1 1.2-.368m4.775 4.224q0-1.92 1.344-3.168t3.072-1.248 3.056 1.248q1.328 1.232 1.328 3.152 0 1.328-.688 2.368-.689 1.025-1.68 1.52a4.55 4.55 0 0 1-2.032.48q-1.056 0-2.048-.512-.993-.528-1.68-1.536a4.1 4.1 0 0 1-.672-2.304m3.344 1.152q.512.384 1.04.384t1.056-.4.528-1.184-.496-1.168a1.7 1.7 0 0 0-1.072-.384q-.577 0-1.072.4t-.496 1.184q0 .768.512 1.168"/></g><defs><clipPath id="b"><path fill="#fff" d="M8 0h33v48H8z"/></clipPath><clipPath id="c"><path fill="#fff" d="M49 14.5h40v19H49z"/></clipPath></defs></svg>