<svg xmlns="http://www.w3.org/2000/svg" width="111" height="48" fill="none" viewBox="0 0 111 48"><mask id="a" fill="#fff"><path d="M0 24C0 10.745 10.745 0 24 0h63c13.255 0 24 10.745 24 24s-10.745 24-24 24H24C10.745 48 0 37.255 0 24"/></mask><path fill="#9CDBDD" d="M0 24C0 10.745 10.745 0 24 0h63c13.255 0 24 10.745 24 24s-10.745 24-24 24H24C10.745 48 0 37.255 0 24"/><path fill="#279CFF" d="M24 0v2h63v-4H24zm63 48v-2H24v4h63zm-63 0v-2C11.85 46 2 36.15 2 24h-4c0 14.36 11.64 26 26 26zm87-24h-2c0 12.15-9.85 22-22 22v4c14.359 0 26-11.64 26-26zM87 0v2c12.15 0 22 9.85 22 22h4c0-14.36-11.641-26-26-26zM24 0v-2C9.64-2-2 9.64-2 24h4C2 11.85 11.85 2 24 2z" mask="url(#a)"/><g clip-path="url(#b)"><mask id="c" width="33" height="34" x="8" y="7" maskUnits="userSpaceOnUse" style="mask-type:luminance"><path fill="#fff" stroke="#fff" stroke-width="1.333" d="M9.031 8.531H39.97V39.47H9.03z"/></mask><g mask="url(#c)"><path fill="#1461A3" fill-rule="evenodd" d="M19.666 8.531a2.42 2.42 0 0 0-2.417 2.417v3.867h-3.867a2.42 2.42 0 0 0-2.417 2.417v4.606l-.116.11.116.118v.004l-.12-.116-.004.002-.006.008-.011.012-.027.027a5 5 0 0 0-.462.586c-.245.37-.45.767-.613 1.18-.393.985-.69 2.32-.69 4.098v.018a9.48 9.48 0 0 0 2.813 6.69c1.893 1.871 4.582 2.96 7.821 2.96 4.005 0 7.319-1.14 9.875-3.165 1.928-1.528 3.312-3.473 4.244-5.58a10.3 10.3 0 0 0 1.914-.296c1.584-.422 3.053-1.375 3.964-3.197a2.9 2.9 0 0 0 .157-2.216c-.62-1.86-2.166-3.163-4.005-3.629-.464-1.837-1.769-3.384-3.629-4.004a2.9 2.9 0 0 0-2.216.156c-2.111 1.056-2.904 3.061-3.225 4.504q-.108.494-.172.992h-.14V10.948a2.42 2.42 0 0 0-2.416-2.417zM23.533 21.1v-3.384H20.15V21.1zm-6.284 0v-3.384h-3.384V21.1zm-4.35 2.9s-.967.967-.967 3.867c.019 3.36 2.598 6.768 7.734 6.768 6.864 0 10.635-3.867 12.085-8.701 2.417 0 4.35 0 5.317-1.934a2.65 2.65 0 0 0-1.266-1.462c-.84-.458-1.96-.549-3.084.012.56-1.122.47-2.245.011-3.084a2.65 2.65 0 0 0-1.461-1.267c-1.934.967-1.934 3.867-1.934 5.801zm7.25-9.185h3.384v-3.383H20.15zm-2.9 11.119a1.45 1.45 0 0 1 1.45 1.45v1.933a1.45 1.45 0 0 1-2.9 0v-1.933a1.45 1.45 0 0 1 1.45-1.45" clip-rule="evenodd"/></g></g><g clip-path="url(#d)"><path fill="#1461A3" d="m51.064 17.756 2.96.016q2.32 0 4.08 1.68 1.76 1.665 1.76 4.112 0 2.431-1.728 4.176-1.712 1.744-4.16 1.744h-2.928q-.975 0-1.216-.4-.192-.336-.192-1.024v-8.896q0-.384.016-.56.032-.176.16-.416.224-.432 1.248-.432m2.96 8.896q1.152 0 2.08-.848.928-.864.928-2.16t-.912-2.16q-.896-.88-2.112-.88h-1.536v6.048zm6.642-1.36q0-1.92 1.344-3.168t3.072-1.248 3.056 1.248q1.328 1.232 1.328 3.152 0 1.328-.688 2.368-.689 1.025-1.68 1.52a4.55 4.55 0 0 1-2.032.48q-1.056 0-2.048-.512-.993-.528-1.68-1.536a4.1 4.1 0 0 1-.672-2.304m3.344 1.152q.512.384 1.04.384t1.056-.4.528-1.184-.496-1.168a1.7 1.7 0 0 0-1.072-.384q-.577 0-1.072.4t-.496 1.184q0 .768.512 1.168m9.13-1.152q0 .672.447 1.056.449.368.944.368.513 0 .944-.288.449-.304.72-.304.48 0 1.168.848.368.465.368.832 0 .608-.88 1.136-.912.64-2.24.64-1.487 0-2.864-1.072-.655-.512-1.072-1.36a4.3 4.3 0 0 1-.416-1.888q0-1.04.416-1.872.417-.848 1.072-1.36 1.329-1.056 2.832-1.056.608 0 1.184.176.576.16.848.32l.256.16q.288.192.448.304.416.32.416.736 0 .4-.336.912-.576.88-1.104.88-.303 0-.864-.352-.288-.272-.832-.272-.528 0-.992.384t-.464 1.072m10.585-.016 2.128 1.76q.4.336.496.512.112.176.112.336 0 .384-.496 1.04-.544.672-.96.672-.352 0-.976-.464l-.16-.112a21 21 0 0 1-1.136-1.056q-.768-.768-1.168-1.088v1.232q0 .368-.032.56a1.1 1.1 0 0 1-.144.416q-.209.416-1.232.416-1.008 0-1.232-.432a1.8 1.8 0 0 1-.144-.416 7 7 0 0 1-.016-.56v-9.584q0-.368.016-.544.032-.192.144-.432.224-.432 1.248-.432.768 0 1.088.272.272.224.288.704.016.144.016.448v5.072q.288-.24.864-.816.592-.576.88-.816l.192-.128q.56-.432.96-.432t.912.656q.528.64.528 1.008t-.592.864zm11.262-.992q0 .975-.496 1.456-.48.465-1.072.464h-3.792q0 .449.528.752a2.1 2.1 0 0 0 1.056.304q.927 0 1.456-.192l.176-.064q.385-.176.64-.176.511 0 .88.72.208.432.208.736 0 1.425-3.408 1.424-1.185 0-2.112-.4-.912-.416-1.424-1.088-1.008-1.296-1.008-2.896 0-2.016 1.296-3.216 1.311-1.215 3.264-1.216 2.223 0 3.264 1.568.543.832.544 1.824m-3.376.464q.608 0 .608-.512a.71.71 0 0 0-.288-.592q-.273-.224-.8-.224-.513 0-1.024.432-.513.416-.512.896zm10.148-3.584q.303.096.496.336.208.225.208.736 0 .512-.304 1.12t-.88.608a1.3 1.3 0 0 1-.56-.128q-.256-.128-.688-.128t-.816.304q-.369.304-.368.736v3.36q0 .368-.032.56-.016.176-.144.416-.24.416-1.248.416-.768 0-1.104-.272-.257-.225-.288-.688v-6.08q0-.368.016-.544.032-.192.144-.416.223-.432 1.248-.432.96 0 1.2.368a.92.92 0 0 1 .176.528q.08-.112.224-.272.16-.16.656-.432.495-.272.864-.272.384 0 .64.048.255.032.56.128"/></g><defs><clipPath id="b"><path fill="#fff" d="M8 0h33v48H8z"/></clipPath><clipPath id="d"><path fill="#fff" d="M49 14.5h54v19H49z"/></clipPath></defs></svg>