<svg xmlns="http://www.w3.org/2000/svg" width="133" height="48" fill="none" viewBox="0 0 133 48"><mask id="a" fill="#fff"><path d="M0 24C0 10.745 10.745 0 24 0h85c13.255 0 24 10.745 24 24s-10.745 24-24 24H24C10.745 48 0 37.255 0 24"/></mask><path fill="#D5D0FA" d="M0 24C0 10.745 10.745 0 24 0h85c13.255 0 24 10.745 24 24s-10.745 24-24 24H24C10.745 48 0 37.255 0 24"/><path fill="#67679C" d="M24 0v2h85v-4H24zm85 48v-2H24v4h85zm-85 0v-2C11.85 46 2 36.15 2 24h-4c0 14.36 11.64 26 26 26zm109-24h-2c0 12.15-9.85 22-22 22v4c14.359 0 26-11.64 26-26zM109 0v2c12.15 0 22 9.85 22 22h4c0-14.36-11.641-26-26-26zM24 0v-2C9.64-2-2 9.64-2 24h4C2 11.85 11.85 2 24 2z" mask="url(#a)"/><g clip-path="url(#b)"><path fill="#49487E" d="M22.87 31.694v-.002l-4.955-2.583c-1.315-.686-2.63.916-1.702 2.073l5.095 6.345a2 2 0 0 0 3.118.001l5.101-6.346c.93-1.156-.385-2.758-1.7-2.073l-4.957 2.583zm1.815-20.74a2 2 0 0 0-3.304 0L13.556 22.43a2 2 0 0 0 .726 2.9l7.825 4.088a2 2 0 0 0 1.852 0l7.827-4.084a2 2 0 0 0 .727-2.9z"/></g><g clip-path="url(#c)"><path fill="#323171" d="M52.472 26.668H57.4q.368 0 .544.032.192.016.432.144.432.224.432 1.248 0 1.12-.592 1.312-.272.096-.832.096h-6.336q-1.12 0-1.312-.608-.096-.256-.096-.816V19.18q0-.816.304-1.104.305-.304 1.152-.304H57.4q.368 0 .544.032.192.016.432.144.432.224.432 1.248 0 1.12-.592 1.312-.272.096-.832.096h-4.912v1.616h3.168q.368 0 .544.032.192.016.432.144.432.224.432 1.248 0 1.12-.608 1.312-.272.096-.832.096h-3.136zm11.86-2.768-1.04-.064v2.208q0 .432.129.624.144.192.512.192.384 0 .576.032.207.016.432.144.368.208.368 1.072 0 1.008-.448 1.232-.24.113-.432.144-.177.016-.528.016-1.664 0-2.528-.752t-.864-2.544v-2.368a4 4 0 0 1-.656.048.76.76 0 0 1-.592-.272q-.224-.271-.224-.928 0-.656.08-.944.08-.305.224-.432a.98.98 0 0 1 .64-.208l.528.064v-1.648q0-.368.016-.544.032-.176.16-.384.209-.4 1.232-.4 1.088 0 1.296.592.08.256.08.816v1.568q.704-.064 1.056-.064.367 0 .544.032.192.016.432.144.416.209.416 1.232 0 1.008-.432 1.232-.24.113-.432.144-.176.015-.544.016m6.964-2.8q1.6 0 2.656 1.216 1.072 1.216 1.072 2.976v2.816q0 .368-.032.56a1.1 1.1 0 0 1-.144.416q-.207.416-1.232.416-.976 0-1.216-.416a1.4 1.4 0 0 1-.16-.432 8 8 0 0 1-.016-.576v-2.8q0-.656-.368-1.024t-.944-.368q-.56 0-.992.352-.432.336-.496.768v3.104q0 .368-.032.56a1.1 1.1 0 0 1-.144.416q-.207.416-1.232.416-1.007 0-1.232-.432a1.8 1.8 0 0 1-.144-.416 7 7 0 0 1-.016-.56v-9.568q0-.368.016-.544.033-.192.144-.416.225-.432 1.248-.432 1.008 0 1.216.432.129.24.144.432.032.176.032.544v3.536q.801-.975 1.872-.976m13.144 3.184q0 .975-.496 1.456-.48.465-1.072.464H79.08q0 .449.528.752a2.1 2.1 0 0 0 1.056.304q.927 0 1.456-.192l.176-.064q.385-.176.64-.176.511 0 .88.72.208.432.208.736 0 1.425-3.408 1.424-1.184 0-2.112-.4-.912-.416-1.424-1.088-1.008-1.296-1.008-2.896 0-2.016 1.296-3.216 1.312-1.215 3.264-1.216 2.224 0 3.264 1.568.543.832.544 1.824m-3.376.464q.608 0 .608-.512a.71.71 0 0 0-.288-.592q-.272-.224-.8-.224-.512 0-1.024.432-.512.416-.512.896zm10.148-3.584q.303.096.496.336.208.225.208.736 0 .512-.304 1.12t-.88.608q-.288 0-.56-.128-.255-.128-.688-.128t-.816.304q-.368.304-.368.736v3.36q0 .368-.032.56a1.1 1.1 0 0 1-.144.416q-.24.416-1.248.416-.768 0-1.104-.272-.256-.225-.288-.688v-6.08q0-.368.016-.544.032-.192.144-.416.224-.432 1.248-.432.96 0 1.2.368.176.256.176.528.08-.112.224-.272.16-.16.656-.432.495-.272.864-.272.385 0 .64.048.255.032.56.128m9.228 3.12q0 .975-.496 1.456-.48.465-1.072.464H95.08q0 .449.528.752a2.1 2.1 0 0 0 1.056.304q.927 0 1.456-.192l.176-.064q.385-.176.64-.176.511 0 .88.72.208.432.208.736 0 1.425-3.408 1.424-1.184 0-2.112-.4-.912-.416-1.424-1.088-1.008-1.296-1.008-2.896 0-2.016 1.296-3.216 1.312-1.215 3.264-1.216 2.224 0 3.264 1.568.544.832.544 1.824m-3.376.464q.608 0 .608-.512a.71.71 0 0 0-.288-.592q-.272-.224-.8-.224-.512 0-1.024.432-.512.416-.512.896zm8.164 4.72q-1.617 0-2.688-1.216-1.056-1.232-1.056-2.992v-2.8q0-.384.016-.56.031-.176.144-.416.224-.432 1.248-.432 1.12 0 1.312.608.096.256.096.816v2.8q0 .656.368 1.024.384.368 1.008.368.64 0 1.024-.384.4-.384.4-1.008v-2.832q0-.368.016-.544.031-.192.16-.432.207-.416 1.232-.416 1.007 0 1.232.432.111.24.128.432.032.176.032.544v5.664q0 .352-.032.544-.016.175-.144.4-.24.416-1.232.416-.977 0-1.2-.384-.16-.272-.16-.656a1.7 1.7 0 0 1-.288.32 4 4 0 0 1-.432.352 2.14 2.14 0 0 1-1.184.352m8.711-7.28q.752-1.136 1.808-1.136 1.632 0 2.432 1.392.176-.24.416-.496.256-.272.8-.576.544-.32 1.12-.32 1.28 0 2.144.992.864.975.864 3.248v2.8q0 .368-.032.56a1.2 1.2 0 0 1-.144.416q-.208.432-1.232.432-1.008 0-1.232-.448a1.7 1.7 0 0 1-.144-.416 7 7 0 0 1-.016-.56v-2.8q0-1.392-.992-1.392-.56 0-.768.368-.192.368-.192 1.04v2.8q0 .384-.032.56a1.2 1.2 0 0 1-.144.416q-.224.432-1.248.432-1.008 0-1.232-.448a1.7 1.7 0 0 1-.144-.416 7 7 0 0 1-.016-.56v-2.8q0-1.392-.992-1.392-.96 0-.96 1.392v2.832q0 .368-.032.56a1.2 1.2 0 0 1-.144.416q-.24.416-1.248.416t-1.232-.432a1.7 1.7 0 0 1-.144-.416 7 7 0 0 1-.016-.56V22.46q0-.368.016-.544.032-.192.16-.416.24-.432 1.136-.432t1.168.288.272.832"/></g><defs><clipPath id="b"><path fill="#fff" d="M8 0h33v48H8z"/></clipPath><clipPath id="c"><path fill="#fff" d="M49 14.5h76v19H49z"/></clipPath></defs></svg>