<svg xmlns="http://www.w3.org/2000/svg" width="123" height="48" fill="none" viewBox="0 0 123 48"><mask id="a" fill="#fff"><path d="M0 24C0 10.745 10.745 0 24 0h75c13.255 0 24 10.745 24 24s-10.745 24-24 24H24C10.745 48 0 37.255 0 24"/></mask><path fill="#FFDC8F" d="M0 24C0 10.745 10.745 0 24 0h75c13.255 0 24 10.745 24 24s-10.745 24-24 24H24C10.745 48 0 37.255 0 24"/><path fill="#C4756D" d="M24 0v2h75v-4H24zm75 48v-2H24v4h75zm-75 0v-2C11.85 46 2 36.15 2 24h-4c0 14.36 11.64 26 26 26zm99-24h-2c0 12.15-9.85 22-22 22v4c14.359 0 26-11.64 26-26zM99 0v2c12.15 0 22 9.85 22 22h4c0-14.36-11.641-26-26-26zM24 0v-2C9.64-2-2 9.64-2 24h4C2 11.85 11.85 2 24 2z" mask="url(#a)"/><g clip-path="url(#b)"><path fill="#FF9100" stroke="#FF9100" stroke-width="1.333" d="M21.338 37.283c-.327.17-.314.662.041.761.988.277 2.03.442 3.11.477a13 13 0 0 0 4.565-.666c.344-.116.338-.59.005-.733a17.4 17.4 0 0 1-4.087-2.459.425.425 0 0 0-.605.078 9 9 0 0 1-3.03 2.542Z"/><path fill="#FFC400" d="M23.313 35.121c.75-.712.569-1.882-.15-2.625-2.887-2.985-4.572-6.929-4.407-11.202a.55.55 0 0 0-.44-.575 10.6 10.6 0 0 0-3.75-.021 1.66 1.66 0 0 0-1.18.854 10.5 10.5 0 0 0-1.253 4.577c-.182 4.706 2.81 8.847 7.24 10.743.44.188.938.187 1.371-.014a9.6 9.6 0 0 0 2.57-1.737"/><path fill="#FF9100" d="M24.495 34.377a9.3 9.3 0 0 0 1.374-4.565c.152-4.414-2.778-8.211-6.833-9.271q-.016.255-.025.51a17.4 17.4 0 0 0 5.484 13.326"/><path fill="#DD2C00" d="M25.394 9.472c-2.314 1.75-4.141 4.056-5.247 6.712a15.4 15.4 0 0 0-.942 3.2c-.171.958.498 1.817 1.387 2.211 3.214 1.424 5.387 4.553 5.255 8.113a8.2 8.2 0 0 1-.57 2.712c-.368.931-.251 2.05.567 2.627a17.4 17.4 0 0 0 3.24 1.8 1.74 1.74 0 0 0 1.477-.049c3.631-1.873 6.152-5.452 6.307-9.638.107-2.89-1.07-5.466-2.733-7.64-1.756-2.3-8.74-10.048-8.74-10.048"/></g><g clip-path="url(#c)"><path fill="#CF5C1E" d="M57.4 17.772q.368 0 .544.032.192.016.416.144.24.128.336.432.096.305.096.816 0 .512-.096.816a.7.7 0 0 1-.336.432q-.24.113-.432.144-.176.016-.56.016h-4.896v1.616h3.152q.384 0 .56.032.192.016.432.144.416.24.416 1.264 0 1.12-.608 1.328-.256.08-.816.08h-3.136v3.024q0 .384-.032.56a1.1 1.1 0 0 1-.144.416q-.224.432-1.248.432-1.12 0-1.312-.608-.096-.256-.096-.816V19.18q0-.816.304-1.104.305-.304 1.152-.304zm2.115 4.704q0-.368.016-.544.032-.192.144-.432.224-.416 1.248-.416.768 0 1.088.272.271.225.288.688.015.16.016.464v5.6q0 .368-.032.56a1.1 1.1 0 0 1-.144.416q-.209.416-1.232.416-1.008 0-1.232-.432a1.8 1.8 0 0 1-.144-.416 7 7 0 0 1-.016-.56zm2.624-2.96q-.112.224-.416.32t-.816.096q-.495 0-.8-.096a.7.7 0 0 1-.432-.336 1.8 1.8 0 0 1-.144-.416 7 7 0 0 1-.016-.56q0-.368.016-.544.032-.192.144-.416.224-.432 1.248-.432 1.008 0 1.216.432.128.24.144.432.032.176.032.544t-.032.56a1.1 1.1 0 0 1-.144.416m7.182 1.648q.304.096.496.336.208.225.208.736 0 .512-.304 1.12t-.88.608q-.287 0-.56-.128-.256-.128-.688-.128t-.816.304q-.368.304-.368.736v3.36q0 .368-.032.56-.015.176-.144.416-.24.416-1.248.416-.768 0-1.104-.272-.256-.225-.288-.688v-6.08q0-.368.016-.544.032-.192.144-.416.225-.432 1.248-.432.96 0 1.2.368a.92.92 0 0 1 .176.528q.08-.112.224-.272.16-.16.656-.432t.864-.272q.385 0 .64.048.256.032.56.128m9.228 3.12q0 .975-.496 1.456-.48.465-1.072.464H73.19q0 .449.528.752a2.1 2.1 0 0 0 1.056.304q.928 0 1.456-.192l.176-.064q.385-.176.64-.176.513 0 .88.72.208.432.208.736 0 1.425-3.408 1.424-1.184 0-2.112-.4-.911-.416-1.424-1.088-1.008-1.296-1.008-2.896 0-2.016 1.296-3.216 1.312-1.215 3.264-1.216 2.224 0 3.264 1.568.544.832.544 1.824m-3.376.464q.609 0 .608-.512a.71.71 0 0 0-.288-.592q-.272-.224-.8-.224-.511 0-1.024.432-.512.416-.512.896zm9.044-3.664q1.425 0 2.608 1.264 1.2 1.264 1.2 2.944 0 1.664-1.184 2.928-1.184 1.248-2.544 1.248t-1.936-.768q-.128.784-1.376.784-1.007 0-1.232-.432a1.8 1.8 0 0 1-.144-.416 7 7 0 0 1-.016-.56v-9.552q0-.368.016-.544.033-.192.144-.416.225-.432 1.248-.432 1.009 0 1.216.432.127.24.144.432.032.176.032.544v3.328q.64-.784 1.824-.784m-1.408 5.168q.4.432.992.432t1.008-.432.416-.96-.384-.96q-.384-.448-1.024-.448t-1.024.448a1.5 1.5 0 0 0-.368.976q0 .512.384.944m11.725-4.288q.096-.896 1.264-.896.624 0 .928.096t.416.336q.127.24.144.432.032.176.032.544v5.6q0 .368-.032.56-.015.176-.128.416-.224.416-1.104.416-.864 0-1.168-.208-.288-.225-.336-.64-.592.848-1.984.848-1.376 0-2.56-1.264t-1.184-2.928q0-1.68 1.184-2.928 1.2-1.264 2.624-1.264.544 0 .992.192.449.192.624.368.175.16.288.32m-2.912 3.328q0 .528.416.96.416.416 1.008.416.591 0 .976-.432.4-.432.4-.944 0-.528-.384-.976-.368-.448-1.008-.448-.624 0-1.024.448-.384.448-.384.976m7.035 3.456q-.304-.192-.304-.608t.608-1.264q.177-.272.56-.272.4 0 1.072.4.672.384 1.216.384.976 0 .976-.384 0-.304-1.072-.448-1.008-.144-2-.752-.464-.287-.768-.896-.304-.624-.304-1.472 0-2.528 3.472-2.528 1.136 0 2.336.544.56.256.56.64 0 .383-.352.944-.353.56-.72.56-.192 0-.72-.24a2.6 2.6 0 0 0-1.12-.24q-.944 0-.944.352 0 .48 1.088.624a6 6 0 0 1 2.048.608q.463.224.768.784.32.544.32 1.376 0 .833-.32 1.424a2 2 0 0 1-.864.864q-1.024.495-2.576.496-1.535 0-2.96-.896m15.892-4.464q0 .975-.496 1.456-.48.465-1.072.464h-3.792q0 .449.528.752a2.1 2.1 0 0 0 1.056.304q.928 0 1.456-.192l.176-.064q.385-.176.64-.176.513 0 .88.72.208.432.208.736 0 1.425-3.408 1.424-1.183 0-2.112-.4-.911-.416-1.424-1.088-1.008-1.296-1.008-2.896 0-2.016 1.296-3.216 1.313-1.215 3.264-1.216 2.225 0 3.264 1.568.544.832.544 1.824m-3.376.464q.609 0 .608-.512a.71.71 0 0 0-.288-.592q-.272-.224-.8-.224-.511 0-1.024.432-.512.416-.512.896z"/></g><defs><clipPath id="b"><rect width="33" height="48" x="8" fill="#fff" rx="8"/></clipPath><clipPath id="c"><path fill="#fff" d="M49 14.5h66v19H49z"/></clipPath></defs></svg>