<svg xmlns="http://www.w3.org/2000/svg" width="112" height="48" fill="none" viewBox="0 0 112 48"><mask id="a" fill="#fff"><path d="M0 24C0 10.745 10.745 0 24 0h64c13.255 0 24 10.745 24 24s-10.745 24-24 24H24C10.745 48 0 37.255 0 24"/></mask><path fill="#72D5FF" d="M0 24C0 10.745 10.745 0 24 0h64c13.255 0 24 10.745 24 24s-10.745 24-24 24H24C10.745 48 0 37.255 0 24"/><path fill="#45A9FF" d="M24 0v2h64v-4H24zm64 48v-2H24v4h64zm-64 0v-2C11.85 46 2 36.15 2 24h-4c0 14.36 11.64 26 26 26zm88-24h-2c0 12.15-9.85 22-22 22v4c14.359 0 26-11.64 26-26zM88 0v2c12.15 0 22 9.85 22 22h4c0-14.36-11.641-26-26-26zM24 0v-2C9.64-2-2 9.64-2 24h4C2 11.85 11.85 2 24 2z" mask="url(#a)"/><g clip-path="url(#b)"><path fill="#47C5FB" stroke="#2081D2" stroke-width="1.333" d="M29.468 6.974c-.997 0-1.955.387-2.673 1.079l-13.93 13.435a3.85 3.85 0 1 0 5.347 5.544l13.93-13.435c2.494-2.406.791-6.623-2.674-6.623Zm-.107 15.94a3.9 3.9 0 0 0-2.704 1.092l-5.58 5.382a3.894 3.894 0 0 0 5.408 5.606l2.813-2.713 2.767-2.669c2.521-2.432.8-6.697-2.704-6.697Z"/><path fill="#188BED" stroke="#1974C2" d="M26.83 34.588c-1.68 1.456-1.653 4.084.026 5.54.664.575 1.52.898 2.399.898 3.375 0 4.915-4.21 2.37-6.425a3.66 3.66 0 0 0-4.795-.013Z"/><path fill="#00B5F8" d="m18.526 31.64 5.087-5.937 5.154 5.992-5.078 5.926z"/><path fill="url(#c)" fill-opacity=".8" d="m23.647 37.621 4.658-1.542.462-3.566z"/></g><g clip-path="url(#d)"><path fill="#00569E" d="M57.4 17.772q.368 0 .544.032.192.016.416.144.24.128.336.432.096.305.096.816 0 .512-.096.816a.7.7 0 0 1-.336.432q-.24.113-.432.144-.176.016-.56.016h-4.896v1.616h3.152q.384 0 .56.032.192.016.432.144.416.24.416 1.264 0 1.12-.608 1.328-.256.08-.816.08h-3.136v3.024q0 .384-.032.56a1.1 1.1 0 0 1-.144.416q-.224.432-1.248.432-1.12 0-1.312-.608-.096-.256-.096-.816V19.18q0-.816.304-1.104.305-.304 1.152-.304zm2.428.736q0-.368.015-.544.033-.192.144-.432.225-.432 1.249-.432.975 0 1.216.432.128.24.144.432.031.192.032.56v7.408q0 .576.096.736.096.144.416.144.336 0 .447.032.113.015.272.128.32.208.32 1.136 0 1.008-.32 1.232-.415.288-1.983.096-1.233-.16-1.6-.816-.45-.785-.449-2.496zm8.822 10.96q-1.617 0-2.688-1.216-1.056-1.232-1.056-2.992v-2.8q0-.384.016-.56.032-.176.144-.416.223-.432 1.248-.432 1.12 0 1.312.608.096.256.096.816v2.8q0 .656.368 1.024.384.368 1.008.368.64 0 1.024-.384.4-.384.4-1.008v-2.832q0-.368.016-.544.031-.192.16-.432.207-.416 1.232-.416 1.007 0 1.232.432.111.24.128.432.032.176.032.544v5.664q0 .352-.032.544-.016.175-.144.4-.24.416-1.232.416-.976 0-1.2-.384-.16-.272-.16-.656a1.6 1.6 0 0 1-.288.32q-.225.208-.432.352a2.14 2.14 0 0 1-1.184.352M85.025 23.9l-1.04-.064v2.208q0 .432.128.624.144.192.512.192.384 0 .576.032.207.016.416.144.384.208.384 1.072 0 1.008-.448 1.232-.24.113-.432.144-.177.016-.528.016-1.6 0-2.496-.832-.897-.832-.896-2.464v-2.368q-.768.064-1.28.064l-1.456-.064v2.208q0 .432.128.624.144.192.512.192.384 0 .576.032.207.016.432.144.368.208.368 1.072 0 1.008-.448 1.232-.24.113-.432.144-.177.016-.528.016-1.6 0-2.496-.832-.897-.832-.896-2.464v-2.368a4.5 4.5 0 0 1-.672.048.74.74 0 0 1-.576-.272q-.225-.271-.224-.928 0-.656.08-.944.08-.305.224-.432a.98.98 0 0 1 .64-.208l.528.064v-1.648q0-.368.016-.544.031-.176.16-.384.208-.4 1.232-.4 1.087 0 1.296.592.08.256.08.816v1.52q.752-.015 1.424-.016l1.312.016v-1.6q0-.368.016-.544.032-.176.144-.384.224-.4 1.248-.4 1.088 0 1.28.592.096.256.096.816v1.568q.704-.064 1.056-.064.367 0 .544.032.192.016.416.144.432.209.432 1.232 0 1.008-.432 1.232-.24.113-.432.144-.177.015-.544.016m10.415.384q0 .975-.496 1.456-.48.465-1.072.464H90.08q0 .449.528.752a2.1 2.1 0 0 0 1.056.304q.927 0 1.456-.192l.176-.064q.385-.176.64-.176.511 0 .88.72.208.432.208.736 0 1.425-3.408 1.424-1.184 0-2.112-.4-.912-.416-1.424-1.088-1.008-1.296-1.008-2.896 0-2.016 1.296-3.216 1.312-1.215 3.264-1.216 2.224 0 3.264 1.568.544.832.544 1.824m-3.376.464q.608 0 .608-.512a.71.71 0 0 0-.288-.592q-.272-.224-.8-.224-.512 0-1.024.432-.512.416-.512.896zm10.148-3.584q.303.096.496.336.208.225.208.736 0 .512-.304 1.12t-.88.608a1.3 1.3 0 0 1-.56-.128q-.256-.128-.688-.128t-.816.304q-.368.304-.368.736v3.36q0 .368-.032.56a1.1 1.1 0 0 1-.144.416q-.24.416-1.248.416-.768 0-1.104-.272-.256-.225-.288-.688v-6.08q0-.368.016-.544.032-.192.144-.416.224-.432 1.248-.432.96 0 1.2.368.176.256.176.528.08-.112.224-.272.16-.16.656-.432.495-.272.864-.272.384 0 .64.048.255.032.56.128"/></g><defs><clipPath id="b"><path fill="#fff" d="M8 0h33v48H8z"/></clipPath><clipPath id="d"><path fill="#fff" d="M49 14.5h55v19H49z"/></clipPath><linearGradient id="c" x1="23.849" x2="27.531" y1="33.892" y2="35.222" gradientUnits="userSpaceOnUse"><stop/><stop offset="1" stop-opacity="0"/></linearGradient></defs></svg>