<svg xmlns="http://www.w3.org/2000/svg" width="111" height="48" fill="none" viewBox="0 0 111 48"><mask id="a" fill="#fff"><path d="M0 24C0 10.745 10.745 0 24 0h63c13.255 0 24 10.745 24 24s-10.745 24-24 24H24C10.745 48 0 37.255 0 24"/></mask><path fill="#AFB3BC" d="M0 24C0 10.745 10.745 0 24 0h63c13.255 0 24 10.745 24 24s-10.745 24-24 24H24C10.745 48 0 37.255 0 24"/><path fill="#79808A" d="M24 0v2h63v-4H24zm63 48v-2H24v4h63zm-63 0v-2C11.85 46 2 36.15 2 24h-4c0 14.36 11.64 26 26 26zm87-24h-2c0 12.15-9.85 22-22 22v4c14.359 0 26-11.64 26-26zM87 0v2c12.15 0 22 9.85 22 22h4c0-14.36-11.641-26-26-26zM24 0v-2C9.64-2-2 9.64-2 24h4C2 11.85 11.85 2 24 2z" mask="url(#a)"/><g clip-path="url(#b)"><path fill="#383B45" d="M14.767 33.328c-.46-.294-.856-.67-1.319-1.2q-.36-.424-.715-.852c-.71-.846-1.157-1.237-1.619-1.398a1.6 1.6 0 0 1-.527-.289 1.5 1.5 0 0 1-.37-.463 1.42 1.42 0 0 1 .25-1.64c.138-.144.306-.26.492-.342a1.6 1.6 0 0 1 1.19-.034c1.153.397 1.934 1.081 2.986 2.336-.144-.172.521.628.664.793.291.334.506.537.675.644.313.202.901.288 1.763.206a6.6 6.6 0 0 1 .31-1.61c-4.551-1.069-7.128-3.884-7.128-9.41 0-1.824.568-3.465 1.623-4.842-.335-1.315-.284-2.905.463-4.696.085-.202.215-.384.382-.532a1.55 1.55 0 0 1 .584-.324 2 2 0 0 1 .319-.069c1.231-.182 2.97.25 5.237 1.612a18.7 18.7 0 0 1 4.12-.453c1.399 0 2.79.153 4.116.453 2.265-1.372 4.009-1.805 5.248-1.612q.195.03.334.074a1.52 1.52 0 0 1 .944.853c.747 1.789.798 3.377.464 4.692 1.06 1.377 1.622 3.009 1.622 4.845 0 5.526-2.567 8.333-7.118 9.402.191.61.291 1.292.291 2.03a391 391 0 0 1-.018 3.996c.344.072.652.255.872.52.22.264.338.593.335.93a1.44 1.44 0 0 1-.353.926c-.225.26-.536.438-.882.504-1.748.334-3.042-.783-3.042-2.243l.003-.658.007-1.037c.008-1.04.013-1.967.013-2.938 0-1.025-.283-1.694-.654-2.002-1.013-.838-.5-2.433.83-2.576 4.548-.49 6.65-2.18 6.65-6.854 0-1.405-.48-2.566-1.401-3.537a1.45 1.45 0 0 1-.375-.73 1.4 1.4 0 0 1 .087-.809c.254-.609.362-1.407.145-2.374l-.015.005c-.753.204-1.702.647-2.85 1.396a1.6 1.6 0 0 1-1.277.198 15.3 15.3 0 0 0-3.974-.513c-1.365 0-2.718.173-3.975.515a1.6 1.6 0 0 1-1.271-.197c-1.155-.746-2.107-1.188-2.868-1.394-.22.961-.11 1.757.143 2.364.107.257.136.537.085.809a1.45 1.45 0 0 1-.375.729c-.916.963-1.4 2.144-1.4 3.536 0 4.666 2.102 6.367 6.628 6.855 1.326.143 1.843 1.732.835 2.571-.296.248-.66 1.077-.66 2.007v4.634c0 1.449-1.278 2.537-3.005 2.247a1.55 1.55 0 0 1-.899-.491 1.44 1.44 0 0 1-.369-.927c-.007-.341.11-.674.33-.941.22-.268.53-.454.877-.527V34.04c-1.396.09-2.547-.13-3.457-.713"/><path stroke="#7A818B" stroke-width="1.333" d="M14.767 33.328c-.46-.294-.856-.67-1.319-1.2q-.36-.424-.715-.852c-.71-.846-1.157-1.237-1.619-1.398a1.6 1.6 0 0 1-.527-.289 1.5 1.5 0 0 1-.37-.463 1.42 1.42 0 0 1 .25-1.64c.138-.144.306-.26.492-.342a1.6 1.6 0 0 1 1.19-.034c1.153.397 1.934 1.081 2.986 2.336-.144-.172.521.628.664.793.291.334.506.537.675.644.313.202.901.288 1.763.206a6.6 6.6 0 0 1 .31-1.61c-4.551-1.069-7.128-3.884-7.128-9.41 0-1.824.568-3.465 1.623-4.842-.335-1.315-.284-2.905.463-4.696.085-.202.215-.384.382-.532a1.55 1.55 0 0 1 .584-.324 2 2 0 0 1 .319-.069c1.231-.182 2.97.25 5.237 1.612a18.7 18.7 0 0 1 4.12-.453c1.399 0 2.79.153 4.116.453 2.265-1.372 4.009-1.805 5.248-1.612q.195.03.334.074a1.52 1.52 0 0 1 .944.853c.747 1.789.798 3.377.464 4.692 1.06 1.377 1.622 3.009 1.622 4.845 0 5.526-2.567 8.333-7.118 9.402.191.61.291 1.292.291 2.03a391 391 0 0 1-.018 3.996c.344.072.652.255.872.52.22.264.338.593.335.93a1.44 1.44 0 0 1-.353.926c-.225.26-.536.438-.882.504-1.748.334-3.042-.783-3.042-2.243l.003-.658.007-1.037c.008-1.04.013-1.967.013-2.938 0-1.025-.283-1.694-.654-2.002-1.013-.838-.5-2.433.83-2.576 4.548-.49 6.65-2.18 6.65-6.854 0-1.405-.48-2.566-1.401-3.537a1.45 1.45 0 0 1-.375-.73 1.4 1.4 0 0 1 .087-.809c.254-.609.362-1.407.145-2.374l-.015.005c-.753.204-1.702.647-2.85 1.396a1.6 1.6 0 0 1-1.277.198 15.3 15.3 0 0 0-3.974-.513c-1.365 0-2.718.173-3.975.515a1.6 1.6 0 0 1-1.271-.197c-1.155-.746-2.107-1.188-2.868-1.394-.22.961-.11 1.757.143 2.364.107.257.136.537.085.809a1.45 1.45 0 0 1-.375.729c-.916.963-1.4 2.144-1.4 3.536 0 4.666 2.102 6.367 6.628 6.855 1.326.143 1.843 1.732.835 2.571-.296.248-.66 1.077-.66 2.007v4.634c0 1.449-1.278 2.537-3.005 2.247a1.55 1.55 0 0 1-.899-.491 1.44 1.44 0 0 1-.369-.927c-.007-.341.11-.674.33-.941.22-.268.53-.454.877-.527V34.04c-1.396.09-2.547-.13-3.457-.713"/></g><g clip-path="url(#c)"><path fill="#383B45" d="M55.752 22.428h2.816q.864.031 1.056.448.16.304.16.896v3.52q0 .512-.448.976-1.344 1.392-4.032 1.392-2.384 0-4.144-1.792-1.76-1.808-1.76-4.352t1.792-4.24q1.792-1.712 4.224-1.712 1.888 0 3.568 1.248.432.32.432.72 0 .384-.368.896-.624.848-1.136.848-.304 0-.976-.432-.672-.448-1.6-.448-1.215 0-2.16.864-.945.848-.944 2.24 0 1.376.96 2.352.96.96 2.176.96a4.2 4.2 0 0 0 1.584-.288V24.78h-1.264q-.495 0-.704-.128a.6.6 0 0 1-.272-.368 3 3 0 0 1-.064-.672q0-.432.064-.688.08-.255.272-.352.288-.144.768-.144m5.31.048q0-.368.016-.544.032-.192.144-.432.224-.416 1.248-.416.768 0 1.088.272.271.225.288.688.016.16.016.464v5.6q0 .368-.032.56a1.1 1.1 0 0 1-.144.416q-.209.416-1.232.416-1.008 0-1.232-.432a1.8 1.8 0 0 1-.144-.416 7 7 0 0 1-.016-.56zm2.624-2.96q-.113.224-.416.32-.305.096-.816.096-.496 0-.8-.096a.7.7 0 0 1-.432-.336 1.8 1.8 0 0 1-.144-.416 7 7 0 0 1-.016-.56q0-.368.016-.544.032-.192.144-.416.224-.432 1.248-.432 1.008 0 1.216.432.128.24.144.432.032.176.032.544t-.032.56a1.1 1.1 0 0 1-.144.416m6.35 4.384-1.04-.064v2.208q0 .432.128.624.144.192.512.192.384 0 .576.032.209.016.432.144.368.208.368 1.072 0 1.008-.448 1.232-.24.113-.432.144a6 6 0 0 1-.528.016q-1.664 0-2.528-.752t-.864-2.544v-2.368a4 4 0 0 1-.656.048.76.76 0 0 1-.592-.272q-.225-.271-.224-.928 0-.656.08-.944.08-.305.224-.432a.98.98 0 0 1 .64-.208l.528.064v-1.648q0-.368.016-.544.032-.176.16-.384.209-.4 1.232-.4 1.088 0 1.296.592.08.256.08.816v1.568q.704-.064 1.056-.064.368 0 .544.032.192.016.432.144.416.209.416 1.232 0 1.008-.432 1.232-.24.113-.432.144a7 7 0 0 1-.544.016m9.54-5.696a.7.7 0 0 1 .431-.336q.305-.096.768-.096.465 0 .736.08.272.08.416.192t.224.32q.08.272.08.832v8.88q0 .368-.031.56a1.1 1.1 0 0 1-.145.416q-.224.432-1.248.432-1.119 0-1.311-.592-.096-.272-.096-.832v-3.248h-4.24v3.264q0 .368-.032.56a1.1 1.1 0 0 1-.144.416q-.225.432-1.248.432-1.12 0-1.312-.592-.097-.272-.097-.832v-8.88q0-.368.017-.544.03-.192.16-.432.224-.432 1.247-.432 1.12 0 1.328.592.08.272.08.832v3.264h4.24v-3.28q0-.368.016-.544.033-.192.16-.432m7.683 11.264q-1.616 0-2.688-1.216-1.056-1.232-1.056-2.992v-2.8q0-.384.016-.56a1.8 1.8 0 0 1 .144-.416q.224-.432 1.248-.432 1.12 0 1.312.608.096.256.096.816v2.8q0 .656.368 1.024.384.368 1.008.368.64 0 1.024-.384.4-.384.4-1.008v-2.832q0-.368.016-.544.032-.192.16-.432.209-.416 1.232-.416 1.008 0 1.232.432.112.24.128.432.032.176.032.544v5.664q0 .352-.032.544-.016.175-.144.4-.24.416-1.232.416-.975 0-1.2-.384-.16-.272-.16-.656a1.6 1.6 0 0 1-.288.32q-.224.208-.432.352a2.14 2.14 0 0 1-1.184.352m10.583-8.384q1.425 0 2.608 1.264 1.2 1.264 1.2 2.944 0 1.664-1.184 2.928-1.184 1.248-2.544 1.248t-1.936-.768q-.128.784-1.376.784-1.007 0-1.232-.432a1.8 1.8 0 0 1-.144-.416 7 7 0 0 1-.016-.56v-9.552q0-.368.016-.544.033-.192.144-.416.225-.432 1.248-.432 1.009 0 1.216.432.127.24.144.432.032.176.032.544v3.328q.64-.784 1.824-.784m-1.408 5.168q.4.432.992.432t1.008-.432.416-.96-.384-.96q-.384-.448-1.024-.448t-1.024.448a1.5 1.5 0 0 0-.368.976q0 .512.384.944"/></g><defs><clipPath id="b"><path fill="#fff" d="M8 0h33v48H8z"/></clipPath><clipPath id="c"><path fill="#fff" d="M49 14.5h54v19H49z"/></clipPath></defs></svg>