<svg xmlns="http://www.w3.org/2000/svg" width="109" height="48" fill="none" viewBox="0 0 109 48"><mask id="a" fill="#fff"><path d="M0 24C0 10.745 10.745 0 24 0h61c13.255 0 24 10.745 24 24S98.255 48 85 48H24C10.745 48 0 37.255 0 24"/></mask><path fill="#F8DDDC" d="M0 24C0 10.745 10.745 0 24 0h61c13.255 0 24 10.745 24 24S98.255 48 85 48H24C10.745 48 0 37.255 0 24"/><path fill="#BD9597" d="M24 0v2h61v-4H24zm61 48v-2H24v4h61zm-61 0v-2C11.85 46 2 36.15 2 24h-4c0 14.36 11.64 26 26 26zm85-24h-2c0 12.15-9.85 22-22 22v4c14.36 0 26-11.64 26-26zM85 0v2c12.15 0 22 9.85 22 22h4C111 9.64 99.36-2 85-2zM24 0v-2C9.64-2-2 9.64-2 24h4C2 11.85 11.85 2 24 2z" mask="url(#a)"/><g clip-path="url(#b)"><path fill="#FED9A8" stroke="#E6B091" stroke-width="1.333" d="M37.728 24.61 33.84 12.816c-.336-1-1.734-1.028-2.07-.029l-2.6 7.34h-8.894l-2.657-7.311c-.335-1-1.734-1-2.07 0L11.804 24.61c-.475 1.485.056 3.227 1.231 4.198l11.466 8.31c.168.142.392.142.531.028l11.355-8.11c1.09-.885 1.79-2.799 1.342-4.426Z"/><path fill="#E6B091" d="M14.105 22.022c1.976 1.838 3.75 4.522 5.017 6.418 1.622 2.392 4.282 6.389 5.423 8.635.101.204.43.204.532 0 1.774-3.121 6.208-9.54 7.627-11.552.633-.875 1.596-2.16 2.686-3.297l-2.382-9.394c-.304-1.02-1.57-1.05-1.875-.029l-2.357 7.498h-8.058l-2.407-7.469c-.304-1.02-1.57-1.02-1.85 0z"/><path fill="#AF7144" d="M24.734 37.655a1 1 0 0 1-.555-.17l-11.37-8.3c-1.304-.99-1.997-2.889-1.526-4.73L15 12.416c.222-.708.832-1.19 1.637-1.218.693 0 1.303.425 1.553 1.077l2.662 6.77h7.738l2.551-6.685c.25-.652.832-1.133 1.553-1.133.721-.029 1.387.453 1.637 1.133l3.827 11.727c.554 1.671-.056 3.739-1.47 4.957L25.26 37.457a.72.72 0 0 1-.527.198m-8.126-25.154a.4.4 0 0 0-.388.312l-3.772 11.642c-.36 1.133.055 2.634 1.026 3.37l11.26 8.3 11.065-7.874c.943-.737 1.609-2.181 1.193-3.598l-3.91-11.868c-.111-.34-.583-.425-.721-.029l-2.802 7.308a.47.47 0 0 1-.443.369h-8.82a.56.56 0 0 1-.499-.369l-2.8-7.308a.405.405 0 0 0-.39-.255"/></g><g clip-path="url(#c)"><path fill="#543230" d="M55.752 22.428h2.816q.864.031 1.056.448.16.304.16.896v3.52q0 .512-.448.976-1.344 1.392-4.032 1.392-2.384 0-4.144-1.792-1.76-1.808-1.76-4.352t1.792-4.24q1.792-1.712 4.224-1.712 1.888 0 3.568 1.248.432.32.432.72 0 .384-.368.896-.624.848-1.136.848-.304 0-.976-.432-.672-.448-1.6-.448-1.215 0-2.16.864-.945.848-.944 2.24 0 1.376.96 2.352.96.96 2.176.96a4.2 4.2 0 0 0 1.584-.288V24.78h-1.264q-.495 0-.704-.128a.6.6 0 0 1-.272-.368 3 3 0 0 1-.064-.672q0-.432.064-.688.08-.255.272-.352.288-.144.768-.144m5.31.048q0-.368.016-.544.032-.192.144-.432.224-.416 1.248-.416.768 0 1.088.272.271.225.288.688.016.16.016.464v5.6q0 .368-.032.56a1.1 1.1 0 0 1-.144.416q-.209.416-1.232.416-1.008 0-1.232-.432a1.8 1.8 0 0 1-.144-.416 7 7 0 0 1-.016-.56zm2.624-2.96q-.113.224-.416.32-.305.096-.816.096-.496 0-.8-.096a.7.7 0 0 1-.432-.336 1.8 1.8 0 0 1-.144-.416 7 7 0 0 1-.016-.56q0-.368.016-.544.032-.192.144-.416.224-.432 1.248-.432 1.008 0 1.216.432.128.24.144.432.032.176.032.544t-.032.56a1.1 1.1 0 0 1-.144.416m6.35 4.384-1.04-.064v2.208q0 .432.128.624.144.192.512.192.384 0 .576.032.209.016.432.144.368.208.368 1.072 0 1.008-.448 1.232-.24.113-.432.144a6 6 0 0 1-.528.016q-1.664 0-2.528-.752t-.864-2.544v-2.368a4 4 0 0 1-.656.048.76.76 0 0 1-.592-.272q-.225-.271-.224-.928 0-.656.08-.944.08-.305.224-.432a.98.98 0 0 1 .64-.208l.528.064v-1.648q0-.368.016-.544.032-.176.16-.384.209-.4 1.232-.4 1.088 0 1.296.592.08.256.08.816v1.568q.704-.064 1.056-.064.368 0 .544.032.192.016.432.144.416.209.416 1.232 0 1.008-.432 1.232-.24.113-.432.144a7 7 0 0 1-.544.016m5.123 3.232h4.352q.53 0 .769.128a.58.58 0 0 1 .32.368q.08.256.08.688 0 .415-.08.672-.08.256-.272.352-.304.16-.832.16h-5.76q-1.12 0-1.312-.608-.097-.256-.097-.816V19.18q0-.368.017-.544.03-.192.16-.432.224-.432 1.247-.432 1.12 0 1.328.592.08.272.08.832zm12.031-5.168q.096-.896 1.264-.896.625 0 .928.096t.416.336q.127.24.144.432.032.176.032.544v5.6q0 .368-.032.56-.015.176-.128.416-.224.416-1.104.416-.864 0-1.168-.208-.288-.225-.336-.64-.592.848-1.984.848-1.375 0-2.56-1.264-1.184-1.264-1.184-2.928 0-1.68 1.184-2.928 1.2-1.264 2.624-1.264.545 0 .992.192.449.192.624.368.176.16.288.32m-2.912 3.328q0 .528.416.96.417.416 1.008.416.592 0 .976-.432.4-.432.4-.944 0-.528-.384-.976-.368-.448-1.008-.448-.624 0-1.024.448-.384.448-.384.976m11.595-4.208q1.425 0 2.608 1.264 1.2 1.264 1.2 2.944 0 1.664-1.184 2.928-1.184 1.248-2.544 1.248t-1.936-.768q-.128.784-1.376.784-1.007 0-1.232-.432a1.8 1.8 0 0 1-.144-.416 7 7 0 0 1-.016-.56v-9.552q0-.368.016-.544.033-.192.144-.416.225-.432 1.248-.432 1.008 0 1.216.432.129.24.144.432.032.176.032.544v3.328q.64-.784 1.824-.784m-1.408 5.168q.4.432.992.432.593 0 1.008-.432.417-.432.416-.96 0-.528-.384-.96-.384-.448-1.024-.448t-1.024.448a1.5 1.5 0 0 0-.368.976q0 .512.384.944"/></g><defs><clipPath id="b"><path fill="#fff" d="M8 0h33v48H8z"/></clipPath><clipPath id="c"><path fill="#fff" d="M49 14.5h52v19H49z"/></clipPath></defs></svg>