<svg xmlns="http://www.w3.org/2000/svg" width="79" height="48" fill="none" viewBox="0 0 79 48"><mask id="a" fill="#fff"><path d="M0 24C0 10.745 10.745 0 24 0h31c13.255 0 24 10.745 24 24S68.255 48 55 48H24C10.745 48 0 37.255 0 24"/></mask><path fill="#B9F1EE" d="M0 24C0 10.745 10.745 0 24 0h31c13.255 0 24 10.745 24 24S68.255 48 55 48H24C10.745 48 0 37.255 0 24"/><path fill="#67BFC1" d="M24 0v2h31v-4H24zm31 48v-2H24v4h31zm-31 0v-2C11.85 46 2 36.15 2 24h-4c0 14.36 11.64 26 26 26zm55-24h-2c0 12.15-9.85 22-22 22v4c14.36 0 26-11.64 26-26zM55 0v2c12.15 0 22 9.85 22 22h4C81 9.64 69.36-2 55-2zM24 0v-2C9.64-2-2 9.64-2 24h4C2 11.85 11.85 2 24 2z" mask="url(#a)"/><g clip-path="url(#b)"><path fill="#A4D5FF" stroke="#46A8B1" stroke-width="2" d="m37.647 23.985-1.05-.875v-3.799c0-.995-.062-2.02-.217-3.075.711-.633 1.453-1.478 1.453-2.774-.031-1.568-1.39-2.985-3.121-3.046-.618-.03-1.205.09-2.008.422-1.638-1.055-3.615-1.598-5.994-1.688h-.742c-2.008 0-4.326.362-6.117 1.357l-.557.301c-.556-.24-1.112-.392-1.792-.361-1.637.03-3.275 1.326-3.275 3.015 0 1.266.618 2.08 1.36 2.774a20.6 20.6 0 0 0-.216 3.075v3.74l-1.051.783c-.556.452-1.205 1.116-1.205 2.11 0 1.147.834 2.142 2.225 2.323.03 1.809.34 4.251 1.792 6.422-.31.482-.557 1.025-.557 1.658.031 1.267.99 2.443 2.565 2.443h.093c1.02 0 1.792-.392 2.657-1.116v-.03c.03-.03.03-.06.061-.06 1.02.18 2.132.361 3.986.361 1.638 0 2.75-.15 4.079-.482.834.784 1.668 1.387 2.75 1.387h.092c1.36 0 2.44-.935 2.472-2.382 0-.633-.185-1.146-.556-1.719 1.05-1.447 1.823-3.377 1.823-6.513.772-.09 1.328-.361 1.668-.753.402-.453.618-.965.587-1.599-.03-.814-.494-1.417-1.205-1.9Z"/><path fill="#94E5E8" d="M34.73 24.076a.4.4 0 0 1-.12-.307v-4.48c0-1.136-.09-2.302-.302-3.621-.03-.184.03-.307.181-.4.786-.644 1.24-1.073 1.24-1.84 0-.737-.666-1.474-1.482-1.474-.302 0-.574.093-.846.246l-.696.338c-.15.06-.332.06-.453-.031-1.39-1.043-2.782-1.81-6.289-1.872-1.602 0-3.81.276-5.32 1.228l-.908.644c-.12.061-.272.092-.393 0-.483-.246-1.028-.553-1.602-.553-.756 0-1.572.584-1.572 1.473.06 1.044 1.118 1.566 1.39 1.872.121.123.091.277.091.43a20.3 20.3 0 0 0-.332 3.56v4.541c0 .123-.06.215-.152.307-.483.43-.967.767-1.602 1.228-.453.368-.605.705-.333 1.104.333.4.907.46 1.754-.092.181-.122.333-.122.333.092v2.394c.15 3.314 1.118 4.603 2.055 5.8.152.153.091.43 0 .521-.362.522-.816 1.105-.786 1.565.03.369.303.614.666.614.695 0 1.118-.43 1.965-1.166.181-.184.332-.215.574-.154 1.119.277 2.48.522 4.626.522 1.088-.03 2.358-.215 3.749-.583.211-.03.363 0 .483.123.726.644 1.27 1.258 1.996 1.258.453.03.725-.307.695-.736-.03-.43-.393-.86-.786-1.412-.09-.123-.12-.307.06-.522 1.029-1.227 1.936-2.547 1.996-5.83v-2.394c0-.184.06-.337.302-.153.847.49 1.421.552 1.814.153.212-.245.272-.706-.332-1.104-.333-.307-1.18-.86-1.663-1.29"/></g><g clip-path="url(#c)"><path fill="#1997A9" d="M55.752 22.428h2.816q.864.031 1.056.448.16.304.16.896v3.52q0 .512-.448.976-1.344 1.392-4.032 1.392-2.384 0-4.144-1.792-1.76-1.808-1.76-4.352t1.792-4.24q1.792-1.712 4.224-1.712 1.888 0 3.568 1.248.432.32.432.72 0 .384-.368.896-.624.848-1.136.848-.304 0-.976-.432-.672-.448-1.6-.448-1.215 0-2.16.864-.945.848-.944 2.24 0 1.376.96 2.352.96.96 2.176.96a4.2 4.2 0 0 0 1.584-.288V24.78h-1.264q-.495 0-.704-.128a.6.6 0 0 1-.272-.368 3 3 0 0 1-.064-.672q0-.432.064-.688.08-.255.272-.352.288-.144.768-.144m5.07 2.864q0-1.92 1.344-3.168t3.072-1.248 3.056 1.248q1.328 1.232 1.328 3.152 0 1.328-.688 2.368-.689 1.025-1.68 1.52a4.55 4.55 0 0 1-2.032.48q-1.056 0-2.048-.512-.992-.528-1.68-1.536a4.1 4.1 0 0 1-.672-2.304m3.344 1.152q.512.384 1.04.384t1.056-.4.528-1.184-.496-1.168a1.72 1.72 0 0 0-1.072-.384q-.576 0-1.072.4-.495.4-.496 1.184 0 .768.512 1.168"/></g><defs><clipPath id="b"><path fill="#fff" d="M8 0h33v48H8z"/></clipPath><clipPath id="c"><path fill="#fff" d="M49 14.5h22v19H49z"/></clipPath></defs></svg>