<svg xmlns="http://www.w3.org/2000/svg" width="113" height="48" fill="none" viewBox="0 0 113 48"><mask id="a" fill="#fff"><path d="M0 24C0 10.745 10.745 0 24 0h65c13.255 0 24 10.745 24 24s-10.745 24-24 24H24C10.745 48 0 37.255 0 24"/></mask><path fill="#C8BCC8" d="M0 24C0 10.745 10.745 0 24 0h65c13.255 0 24 10.745 24 24s-10.745 24-24 24H24C10.745 48 0 37.255 0 24"/><path fill="#7E6B81" d="M24 0v2h65v-4H24zm65 48v-2H24v4h65zm-65 0v-2C11.85 46 2 36.15 2 24h-4c0 14.36 11.64 26 26 26zm89-24h-2c0 12.15-9.85 22-22 22v4c14.359 0 26-11.64 26-26zM89 0v2c12.15 0 22 9.85 22 22h4c0-14.36-11.641-26-26-26zM24 0v-2C9.64-2-2 9.64-2 24h4C2 11.85 11.85 2 24 2z" mask="url(#a)"/><g clip-path="url(#b)"><path fill="#83708D" d="m24.5 25.547-5.156 10.828H24.5l3.197-6.324 3.135 6.324h5.218L24.5 14.719h-5.156zm-10.312 0L9.03 36.375h5.156l5.157-10.828-5.157-10.828H9.032z"/><path stroke="#46344A" stroke-linecap="round" stroke-linejoin="round" stroke-width="1.333" d="M33.781 16.884h6.188m-3.094 6.497h3.094M19.344 36.375 24.5 25.547l-5.156-10.828H24.5l11.55 21.656h-5.218l-3.135-6.324-3.197 6.324zm-10.313 0 5.156-10.828-5.156-10.828h5.156l5.157 10.828-5.157 10.828z"/></g><g clip-path="url(#c)"><path fill="#64526A" d="M56.888 18.204a.7.7 0 0 1 .432-.336q.305-.096.768-.096.465 0 .736.08.272.08.416.192t.224.32q.08.272.08.832v8.88q0 .368-.032.56a1.1 1.1 0 0 1-.144.416q-.224.432-1.248.432-1.12 0-1.312-.592-.096-.272-.096-.832v-3.248h-4.24v3.264q0 .368-.032.56a1.1 1.1 0 0 1-.144.416q-.224.432-1.248.432-1.12 0-1.312-.592-.096-.272-.096-.832v-8.88q0-.368.016-.544.032-.192.16-.432.224-.432 1.248-.432 1.12 0 1.328.592.08.272.08.832v3.264h4.24v-3.28q0-.368.016-.544.032-.192.16-.432m9.411 3.76q.096-.896 1.264-.896.624 0 .928.096t.416.336q.129.24.145.432.03.176.031.544v5.6q0 .368-.031.56-.017.176-.129.416-.224.416-1.103.416-.864 0-1.168-.208-.288-.225-.337-.64-.591.848-1.983.848-1.377 0-2.56-1.264t-1.184-2.928q0-1.68 1.184-2.928 1.2-1.264 2.624-1.264.543 0 .992.192.447.192.623.368.177.16.288.32m-2.912 3.328q.001.528.416.96.417.416 1.008.416.592 0 .976-.432.4-.432.4-.944 0-.528-.383-.976-.369-.448-1.008-.448-.625 0-1.025.448-.383.448-.383.976m7.036 3.456q-.304-.192-.304-.608t.608-1.264q.176-.272.56-.272.4 0 1.072.4.672.384 1.216.384.976 0 .976-.384 0-.304-1.072-.448-1.008-.144-2-.752-.465-.287-.768-.896-.304-.624-.304-1.472 0-2.528 3.472-2.528 1.136 0 2.336.544.56.256.56.64 0 .383-.352.944t-.72.56q-.192 0-.72-.24a2.6 2.6 0 0 0-1.12-.24q-.944 0-.944.352 0 .48 1.088.624a6 6 0 0 1 2.048.608q.464.224.768.784.32.544.32 1.376 0 .833-.32 1.424-.304.576-.864.864-1.025.495-2.576.496-1.535 0-2.96-.896m12.724-3.472 2.128 1.76q.4.336.496.512a.63.63 0 0 1 .112.336q0 .384-.496 1.04-.544.672-.96.672-.352 0-.976-.464l-.16-.112a21 21 0 0 1-1.136-1.056q-.768-.768-1.168-1.088v1.232q0 .368-.032.56a1.1 1.1 0 0 1-.144.416q-.209.416-1.232.416-1.008 0-1.232-.432a1.8 1.8 0 0 1-.144-.416 7 7 0 0 1-.016-.56v-9.584q0-.368.016-.544.032-.192.144-.432.224-.432 1.248-.432.767 0 1.088.272.271.224.288.704.016.144.016.448v5.072q.288-.24.864-.816.592-.576.88-.816l.192-.128q.56-.432.96-.432t.912.656q.528.64.528 1.008t-.592.864zm11.262-.992q0 .975-.496 1.456-.48.465-1.072.464H89.05q0 .449.528.752a2.1 2.1 0 0 0 1.056.304q.928 0 1.456-.192l.176-.064q.384-.176.64-.176.511 0 .88.72.208.432.208.736 0 1.425-3.408 1.424-1.185 0-2.112-.4-.912-.416-1.424-1.088-1.008-1.296-1.008-2.896 0-2.016 1.296-3.216 1.311-1.215 3.264-1.216 2.223 0 3.264 1.568.544.832.544 1.824m-3.376.464q.608 0 .608-.512a.71.71 0 0 0-.288-.592q-.272-.224-.8-.224-.513 0-1.024.432-.512.416-.512.896zm7.364 1.92q.528 0 .783.272.256.272.256 1.12t-.272 1.136q-.27.272-.784.272-1.615 0-2.271-.768-.656-.785-.656-2.592v-7.632q0-.368.016-.544.03-.192.144-.432.223-.416 1.248-.416.975 0 1.215.448.129.224.145.416.03.176.031.544v7.68q0 .495.145.496m4.176-.496q0 .304.128.4t.656.096.88.272.352 1.12-.384 1.136q-.368.272-1.04.272-3.393 0-3.393-3.36l-.016-7.632q0-.368.016-.544.033-.192.16-.432.241-.416 1.249-.416.976 0 1.216.448.176.352.176.96z"/></g><defs><clipPath id="b"><path fill="#fff" d="M8 0h33v48H8z"/></clipPath><clipPath id="c"><path fill="#fff" d="M49 14.5h56v19H49z"/></clipPath></defs></svg>