<svg xmlns="http://www.w3.org/2000/svg" width="112" height="48" fill="none" viewBox="0 0 112 48"><mask id="a" fill="#fff"><path d="M0 24C0 10.745 10.745 0 24 0h64c13.255 0 24 10.745 24 24s-10.745 24-24 24H24C10.745 48 0 37.255 0 24"/></mask><path fill="#F8AD90" d="M0 24C0 10.745 10.745 0 24 0h64c13.255 0 24 10.745 24 24s-10.745 24-24 24H24C10.745 48 0 37.255 0 24"/><path fill="#C17961" d="M24 0v2h64v-4H24zm64 48v-2H24v4h64zm-64 0v-2C11.85 46 2 36.15 2 24h-4c0 14.36 11.64 26 26 26zm88-24h-2c0 12.15-9.85 22-22 22v4c14.359 0 26-11.64 26-26zM88 0v2c12.15 0 22 9.85 22 22h4c0-14.36-11.641-26-26-26zM24 0v-2C9.64-2-2 9.64-2 24h4C2 11.85 11.85 2 24 2z" mask="url(#a)"/><g clip-path="url(#b)"><path fill="#DE5531" stroke="#E86A37" stroke-width="1.333" d="m36.558 13.212-2.082 22.842-9.355 2.541-9.33-2.537-2.08-22.846z"/><path fill="#E86A37" d="m25.135 36.057 7.192-1.933 1.692-18.373h-8.884z"/><path fill="#EBEBEB" d="M20.838 20.978h4.297v-2.69h-7.616l.073.722.746 7.412h6.797v-2.69h-4.02zm.685 6.788h-3.049l.425 4.223 6.222 1.53.014-.004v-2.798l-.014.003-3.382-.809z"/><path fill="#000" d="M16.25 8.136h1.386v1.257h1.268V8.136h1.386v3.807h-1.386v-1.275h-1.268v1.275H16.25zm5.862 1.262h-1.22V8.136h3.827v1.262H23.5v2.545h-1.387zm3.214-1.262h1.445l.89 1.338.887-1.338h1.446v3.807h-1.38v-1.887l-.954 1.354h-.023l-.955-1.354v1.887h-1.356zm5.358 0h1.386v2.549h1.95v1.258h-3.336z"/><path fill="#fff" d="M25.135 26.422h3.743l-.353 3.489-3.39.81v2.798l6.232-1.529.046-.454.714-7.081.074-.722h-7.066zm0-5.45v.006h7.343l.06-.604.14-1.364.072-.721h-7.615z"/></g><g clip-path="url(#c)"><path fill="#BA462A" d="M56.888 18.204a.7.7 0 0 1 .432-.336q.305-.096.768-.096.465 0 .736.08.272.08.416.192t.224.32q.08.272.08.832v8.88q0 .368-.032.56a1.1 1.1 0 0 1-.144.416q-.224.432-1.248.432-1.12 0-1.312-.592-.096-.272-.096-.832v-3.248h-4.24v3.264q0 .368-.032.56a1.1 1.1 0 0 1-.144.416q-.224.432-1.248.432-1.12 0-1.312-.592-.096-.272-.096-.832v-8.88q0-.368.016-.544.032-.192.16-.432.224-.432 1.248-.432 1.12 0 1.328.592.08.272.08.832v3.264h4.24v-3.28q0-.368.016-.544.032-.192.16-.432m4.708-.448h8.896q.51 0 .751.128a.58.58 0 0 1 .32.368q.08.256.08.672t-.08.672a.55.55 0 0 1-.272.336q-.287.144-.816.144H67.42v8.048q0 .368-.032.544a1.1 1.1 0 0 1-.145.416q-.111.224-.415.32-.305.096-.8.096-.497 0-.8-.096a.72.72 0 0 1-.416-.32 1.8 1.8 0 0 1-.144-.416 7 7 0 0 1-.017-.56v-8.032H61.58q-.513 0-.752-.112a.64.64 0 0 1-.32-.384 2.3 2.3 0 0 1-.08-.672q0-.416.08-.656.08-.256.271-.352.288-.144.816-.144m23.399.464q.127.24.144.432.032.192.032.56v8.88q0 1.104-.608 1.296a2.6 2.6 0 0 1-.768.096q-.465 0-.736-.08a1.3 1.3 0 0 1-.416-.192.7.7 0 0 1-.224-.32q-.08-.272-.08-.832V22.7q-.4.496-1.168 1.584a74 74 0 0 1-1.264 1.728q-.08.096-.4.288a1.3 1.3 0 0 1-.672.176q-.353 0-.656-.16a1.6 1.6 0 0 1-.416-.336l-.128-.176a60 60 0 0 1-1.264-1.696 75 75 0 0 0-1.024-1.408v5.392q0 .368-.032.56-.016.175-.144.4-.24.432-1.248.432-.976 0-1.216-.432a1.3 1.3 0 0 1-.16-.416 8 8 0 0 1-.016-.576v-8.88q0-.368.016-.544.031-.192.16-.432.24-.416 1.248-.416.432 0 .736.112.32.096.416.208l.096.096 3.632 4.768q2.72-3.6 3.632-4.752.272-.432 1.28-.432 1.023 0 1.248.432m4.29 8.912h4.352q.528 0 .767.128a.58.58 0 0 1 .32.368q.08.256.08.688 0 .415-.08.672-.08.256-.272.352-.304.16-.831.16h-5.76q-1.12 0-1.312-.608-.097-.256-.097-.816V19.18q0-.368.017-.544.03-.192.16-.432.224-.432 1.247-.432 1.12 0 1.328.592.08.272.08.832zm8.414-9.392 2.432.016h1.504q.384 0 .56.032.176.016.416.144.432.224.432 1.28 0 .96-.4 1.168a1.3 1.3 0 0 1-.4.16q-.16.016-.512.016h-2.8q-.032.192-.16 1.216a3.5 3.5 0 0 1 .56-.032q1.52 0 2.736 1.152 1.216 1.135 1.216 2.8 0 1.648-1.152 2.848-1.152 1.185-2.864 1.184-1.488 0-2.688-.752a2.5 2.5 0 0 1-.4-.304l-.128-.112q-.608-.528-.608-.96t.592-1.04q.48-.528.928-.528t1.072.512q.288.336.992.336.72 0 1.056-.304.352-.304.352-.832 0-.544-.384-.848a1.25 1.25 0 0 0-.848-.32q-.48 0-.768.288-.432.368-.88.368-.432 0-1.008-.304-.56-.305-.736-.48a.6.6 0 0 1-.176-.4q0-.208.32-2.576t.336-2.464.112-.336a2.4 2.4 0 0 1 .224-.432q.144-.192.416-.336.287-.16.656-.16"/></g><defs><clipPath id="b"><path fill="#fff" d="M8 0h33v48H8z"/></clipPath><clipPath id="c"><path fill="#fff" d="M49 14.5h55v19H49z"/></clipPath></defs></svg>