<svg xmlns="http://www.w3.org/2000/svg" width="160" height="48" fill="none" viewBox="0 0 160 48"><mask id="a" fill="#fff"><path d="M0 24C0 10.745 10.745 0 24 0h112c13.255 0 24 10.745 24 24s-10.745 24-24 24H24C10.745 48 0 37.255 0 24"/></mask><path fill="#FFFCB3" d="M0 24C0 10.745 10.745 0 24 0h112c13.255 0 24 10.745 24 24s-10.745 24-24 24H24C10.745 48 0 37.255 0 24"/><path fill="#FFF692" d="M24 0v2h112v-4H24zm112 48v-2H24v4h112zM24 48v-2C11.85 46 2 36.15 2 24h-4c0 14.36 11.64 26 26 26zm136-24h-2c0 12.15-9.85 22-22 22v4c14.359 0 26-11.64 26-26zM136 0v2c12.15 0 22 9.85 22 22h4c0-14.36-11.641-26-26-26zM24 0v-2C9.64-2-2 9.64-2 24h4C2 11.85 11.85 2 24 2z" mask="url(#a)"/><g fill="#FFD050" clip-path="url(#b)"><path stroke="#FFD050" stroke-width="1.333" d="M13.775 24c0-3.028.912-5.701 2.669-7.608 1.745-1.896 4.4-3.117 8.055-3.117s6.31 1.221 8.055 3.117c1.756 1.907 2.669 4.58 2.669 7.607q0 .522-.036 1.027c.272.147.496.368.649.637.345.04.657.19.902.41q.135-1.017.135-2.073c0-3.35-1.012-6.453-3.105-8.726-2.104-2.284-5.223-3.649-9.268-3.649s-7.167 1.365-9.27 3.65c-2.094 2.272-3.105 5.374-3.105 8.725q0 1.057.134 2.073a1.65 1.65 0 0 1 .905-.41 1.65 1.65 0 0 1 .646-.636A15 15 0 0 1 13.775 24Zm7.976 10.468a3.94 3.94 0 0 1-1.535 1.317c1.284.385 2.714.59 4.283.59s2.999-.206 4.285-.59a3.94 3.94 0 0 1-1.535-1.317c-.906.175-1.827.262-2.75.257-.988 0-1.904-.09-2.748-.258Z"/><path d="m17.808 21.805-.073.05a1.65 1.65 0 0 0-.567 1.867 1.65 1.65 0 1 1 .64-1.918m14.025 1.919a1.65 1.65 0 0 0-.64-1.918 1.65 1.65 0 1 1 .64 1.918m-12.82-5.157a1.33 1.33 0 0 0-.302.642.826.826 0 0 1-1.62-.315c.073-.376.255-.951.707-1.443.476-.519 1.188-.875 2.165-.875.986 0 1.701.373 2.174.893.45.493.636 1.066.702 1.442a.825.825 0 0 1-1.626.282 1.3 1.3 0 0 0-.296-.613c-.154-.17-.425-.354-.954-.354-.539 0-.802.18-.95.341m9.076 0a1.34 1.34 0 0 0-.304.642.825.825 0 0 1-1.62-.315c.073-.376.257-.951.708-1.443.476-.519 1.188-.875 2.165-.875.986 0 1.7.373 2.174.893.45.493.636 1.066.702 1.442a.825.825 0 0 1-1.626.282 1.3 1.3 0 0 0-.296-.613c-.154-.17-.425-.354-.954-.354-.539 0-.801.18-.949.341m-9.859 3.95a.825.825 0 0 1 1.155.165c.246.327 1.644 1.732 5.115 1.732s4.87-1.405 5.115-1.732a.825.825 0 1 1 1.32.99c-.579.772-2.481 2.393-6.435 2.393s-5.855-1.62-6.435-2.393a.826.826 0 0 1 .165-1.155m16.987 4.076a.825.825 0 0 0-1.36-.736l-3.103 2.716-.066-.033c0-.341.032-.65.06-.929.074-.732.126-1.248-.472-1.546-1.104-.552-1.61 1.29-1.95 3.088-.077.409-.263.788-.471 1.148-1.098 1.9-.055 3.807.771 4.427 1.476 1.107 2.887.825 4.125 0 .749-.5 2.174-1.502 3.24-2.259a.921.921 0 0 0-.946-1.57l-.104.052 1.638-1.365a.824.824 0 0 0-.645-1.45l.241-.207a.825.825 0 0 0-.956-1.337m-21.435 0a.824.824 0 0 1 1.36-.735l3.105 2.716.065-.033c0-.341-.032-.65-.06-.929-.074-.732-.126-1.248.472-1.546 1.104-.552 1.61 1.29 1.95 3.088.077.409.264.788.472 1.148 1.097 1.9.054 3.807-.772 4.427-1.477 1.107-2.887.825-4.125 0-.749-.5-2.174-1.502-3.24-2.259a.92.92 0 0 1 .946-1.57l.104.053-1.638-1.365a.825.825 0 0 1 .645-1.45l-.241-.207a.825.825 0 0 1 .957-1.337"/></g><g clip-path="url(#c)"><path fill="#FFD050" d="M56.888 18.204a.7.7 0 0 1 .432-.336q.305-.096.768-.096.465 0 .736.08.272.08.416.192t.224.32q.08.272.08.832v8.88q0 .368-.032.56a1.1 1.1 0 0 1-.144.416q-.224.432-1.248.432-1.12 0-1.312-.592-.096-.272-.096-.832v-3.248h-4.24v3.264q0 .368-.032.56a1.1 1.1 0 0 1-.144.416q-.224.432-1.248.432-1.12 0-1.312-.592-.096-.272-.096-.832v-8.88q0-.368.016-.544.032-.192.16-.432.224-.432 1.248-.432 1.12 0 1.328.592.08.272.08.832v3.264h4.24v-3.28q0-.368.016-.544.032-.192.16-.432m7.684 11.264q-1.617 0-2.689-1.216-1.056-1.232-1.056-2.992v-2.8q0-.384.017-.56a1.8 1.8 0 0 1 .143-.416q.225-.432 1.249-.432 1.12 0 1.312.608.095.256.096.816v2.8q0 .656.367 1.024.385.368 1.008.368.64 0 1.024-.384.4-.384.4-1.008v-2.832q0-.368.017-.544.03-.192.16-.432.208-.416 1.231-.416 1.008 0 1.233.432.112.24.127.432.033.176.032.544v5.664q0 .352-.031.544-.017.175-.145.4-.24.416-1.231.416-.976 0-1.2-.384-.16-.272-.16-.656a1.6 1.6 0 0 1-.288.32q-.225.208-.433.352a2.14 2.14 0 0 1-1.183.352m11.303-1.024q-.609.8-1.936.8-1.329 0-2.496-1.216-1.152-1.232-1.152-2.864t1.168-2.864 2.56-1.232q.543 0 .992.208.447.192.608.368.176.16.272.304.048-.448.32-.672.288-.24.912-.24t.912.096a.64.64 0 0 1 .4.336q.127.225.144.4.032.176.032.544v6.624q0 1.84-1.28 2.96-1.281 1.136-2.88 1.136-1.216 0-2.32-.592t-1.104-1.072q0-.624.48-1.104a5 5 0 0 1 .464-.464.66.66 0 0 1 .4-.128q.224 0 .464.192.767.592 1.664.592.608 0 .992-.48t.384-1.152zm-2.848-3.264q0 .511.4.928.416.416.992.416.591 0 .976-.416.384-.432.384-.928 0-.512-.368-.944-.368-.448-.992-.448t-1.008.432a1.4 1.4 0 0 0-.384.96m12.207 3.264q-.607.8-1.936.8t-2.496-1.216q-1.152-1.232-1.152-2.864t1.168-2.864 2.56-1.232q.544 0 .992.208.448.192.608.368.176.16.272.304.048-.448.32-.672.288-.24.912-.24t.912.096a.64.64 0 0 1 .4.336q.127.225.144.4.032.176.032.544v6.624q0 1.84-1.28 2.96-1.28 1.136-2.88 1.136-1.216 0-2.32-.592t-1.104-1.072q0-.624.48-1.104.304-.336.464-.464a.66.66 0 0 1 .4-.128q.225 0 .464.192.768.592 1.664.592.608 0 .992-.48t.384-1.152zm-2.848-3.264q0 .511.4.928.416.416.992.416.592 0 .976-.416.384-.432.384-.928 0-.512-.368-.944-.368-.448-.992-.448t-1.008.432a1.4 1.4 0 0 0-.384.96m6.863-2.704q0-.368.016-.544.033-.192.144-.432.225-.416 1.248-.416.768 0 1.088.272.273.225.288.688.016.16.016.464v5.6q0 .368-.032.56a1.1 1.1 0 0 1-.144.416q-.207.416-1.232.416-1.007 0-1.232-.432a1.8 1.8 0 0 1-.144-.416 7 7 0 0 1-.016-.56zm2.624-2.96q-.111.224-.416.32-.303.096-.816.096-.495 0-.8-.096a.7.7 0 0 1-.432-.336 1.8 1.8 0 0 1-.144-.416 7 7 0 0 1-.016-.56q0-.368.016-.544.033-.192.144-.416.225-.432 1.248-.432 1.008 0 1.216.432.129.24.144.432.032.176.032.544t-.032.56a1.1 1.1 0 0 1-.144.416m6.142 1.552q1.6 0 2.657 1.232 1.072 1.216 1.072 2.976v2.816q0 .368-.032.56a1.2 1.2 0 0 1-.128.4q-.225.432-1.248.432-1.137 0-1.312-.592-.097-.271-.097-.816V25.26q0-.656-.384-1.024-.367-.368-1.008-.368-.623 0-1.023.384-.385.384-.385 1.008v2.832q0 .368-.031.56-.017.175-.145.4-.208.432-1.231.432-1.008 0-1.233-.432a1.8 1.8 0 0 1-.143-.416 7 7 0 0 1-.016-.56v-5.664q0-.352.016-.528.03-.192.16-.416.224-.4 1.231-.4.977 0 1.2.368.16.272.16.656.065-.112.288-.32.225-.208.433-.336a2.1 2.1 0 0 1 1.2-.368m10.36 7.376q-.609.8-1.936.8-1.329 0-2.496-1.216-1.152-1.232-1.152-2.864t1.168-2.864 2.56-1.232q.543 0 .992.208.447.192.608.368.176.16.272.304.047-.448.32-.672.288-.24.912-.24t.912.096a.64.64 0 0 1 .4.336q.127.225.144.4.032.176.032.544v6.624q0 1.84-1.28 2.96-1.281 1.136-2.88 1.136a4.84 4.84 0 0 1-2.32-.592q-1.104-.592-1.104-1.072 0-.624.48-1.104.303-.336.464-.464a.66.66 0 0 1 .4-.128q.224 0 .464.192.767.592 1.664.592.608 0 .992-.48t.384-1.152zm-2.848-3.264q0 .511.4.928.416.416.992.416.592 0 .976-.416.384-.432.384-.928 0-.512-.368-.944-.368-.448-.992-.448t-1.008.432a1.4 1.4 0 0 0-.384.96m18.67-7.408q.368 0 .544.032.192.016.416.144.24.128.336.432.096.305.096.816 0 .512-.096.816a.7.7 0 0 1-.336.432q-.24.113-.432.144a7 7 0 0 1-.56.016h-4.896v1.616h3.152q.384 0 .56.032.192.016.432.144.416.24.416 1.264 0 1.12-.608 1.328-.257.08-.816.08h-3.136v3.024q0 .384-.032.56a1.2 1.2 0 0 1-.144.416q-.224.432-1.248.432-1.12 0-1.312-.608-.096-.256-.096-.816V19.18q0-.816.304-1.104.305-.304 1.152-.304zm6.462 4.192q.096-.896 1.264-.896.624 0 .928.096t.416.336q.128.24.144.432.032.176.032.544v5.6q0 .368-.032.56a1.3 1.3 0 0 1-.128.416q-.224.416-1.104.416-.864 0-1.168-.208-.288-.225-.336-.64-.592.848-1.984.848-1.376 0-2.56-1.264t-1.184-2.928q0-1.68 1.184-2.928 1.2-1.264 2.624-1.264.544 0 .992.192.449.192.624.368.175.16.288.32m-2.912 3.328q0 .528.416.96.416.416 1.008.416t.976-.432q.4-.432.4-.944 0-.528-.384-.976-.367-.448-1.008-.448-.624 0-1.024.448-.384.448-.384.976m9.611 0q0 .672.448 1.056.448.368.944.368.512 0 .944-.288.448-.304.72-.304.48 0 1.168.848.368.465.368.832 0 .608-.88 1.136-.912.64-2.24.64-1.488 0-2.864-1.072-.656-.512-1.072-1.36a4.3 4.3 0 0 1-.416-1.888q0-1.04.416-1.872.416-.848 1.072-1.36 1.327-1.056 2.832-1.056.608 0 1.184.176.576.16.848.32l.256.16q.288.192.448.304.416.32.416.736 0 .4-.336.912-.576.88-1.104.88-.305 0-.864-.352-.288-.272-.832-.272-.528 0-.992.384t-.464 1.072m13.519-1.008q0 .975-.496 1.456-.48.465-1.072.464h-3.792q0 .449.528.752a2.1 2.1 0 0 0 1.056.304q.928 0 1.456-.192l.176-.064q.385-.176.64-.176.513 0 .88.72.208.432.208.736 0 1.425-3.408 1.424-1.183 0-2.112-.4-.912-.416-1.424-1.088-1.008-1.296-1.008-2.896 0-2.016 1.296-3.216 1.313-1.215 3.264-1.216 2.225 0 3.264 1.568.544.832.544 1.824m-3.376.464q.608 0 .608-.512a.71.71 0 0 0-.288-.592q-.272-.224-.8-.224-.511 0-1.024.432-.512.416-.512.896z"/></g><defs><clipPath id="b"><path fill="#fff" d="M8 0h33v48H8z"/></clipPath><clipPath id="c"><path fill="#fff" d="M49 14.5h103v19H49z"/></clipPath></defs></svg>