<svg xmlns="http://www.w3.org/2000/svg" width="95" height="48" fill="none" viewBox="0 0 95 48"><mask id="a" fill="#fff"><path d="M0 24C0 10.745 10.745 0 24 0h47c13.255 0 24 10.745 24 24S84.255 48 71 48H24C10.745 48 0 37.255 0 24"/></mask><path fill="#E3C7A0" d="M0 24C0 10.745 10.745 0 24 0h47c13.255 0 24 10.745 24 24S84.255 48 71 48H24C10.745 48 0 37.255 0 24"/><path fill="#AE8862" d="M24 0v2h47v-4H24zm47 48v-2H24v4h47zm-47 0v-2C11.85 46 2 36.15 2 24h-4c0 14.36 11.64 26 26 26zm71-24h-2c0 12.15-9.85 22-22 22v4c14.36 0 26-11.64 26-26zM71 0v2c12.15 0 22 9.85 22 22h4C97 9.64 85.36-2 71-2zM24 0v-2C9.64-2-2 9.64-2 24h4C2 11.85 11.85 2 24 2z" mask="url(#a)"/><g clip-path="url(#b)"><path fill="#7E4B35" d="M22.235 20.407c.55-.448.678-1.228.359-1.862-.594-1.177-.844-2.088-.91-2.793-.08-.856.1-1.537.457-2.192.385-.708.965-1.366 1.7-2.144.449-.472.97-1.003 1.466-1.586.462-.543.374-1.341-.147-1.828-.64-.599-1.676-.495-2.273.148-.289.311-.585.613-.876.92-.728.768-1.566 1.682-2.171 2.795a7.2 7.2 0 0 0-.866 4.23c.115 1.22.508 2.51 1.198 3.91.383.777 1.39.95 2.063.402m2.663-5.582c.25-.701.668-1.404 1.27-2.15.569-.702 1.637-.613 2.173.114.434.59.36 1.398-.108 1.96-.498.601-.721 1.018-.82 1.295-.142.396-.048.79.047 1.183.115.47.304 1.252.292 2.095a6.5 6.5 0 0 1-.433 2.203c-.3.809-1.31 1.001-1.992.472-.56-.434-.68-1.204-.458-1.877.124-.373.154-.646.157-.85.007-.468-.098-.73-.268-1.521-.164-.758-.285-1.739.14-2.924m-8.081 7.294c.244-.19.51-.344.788-.474.747-.35 1.252-1.11 1.085-1.918-.183-.892-1.093-1.457-1.926-1.091a7 7 0 0 0-1.292.721c-.695.5-1.573 1.393-1.573 2.762 0 .805.325 1.497.79 2.046.36.426.572.974.573 1.532 0 1.307.403 2.442 1.12 3.348.25.316.356.715.296 1.114-.077.514-.419.985-.918 1.13-.749.219-1.463.495-2.089.83-.588.313-1.169.714-1.621 1.23-.456.522-.877 1.274-.877 2.24 0 .676.258 1.223.51 1.6.257.383.589.711.932.989.69.556 1.614 1.06 2.67 1.483 2.124.852 5 1.474 8.154 1.474 4.535 0 7.719-.609 9.8-1.24.79-.233 1.567-.53 2.322-.889.287-.139.573-.286.84-.47a6 6 0 0 0-.176-.356c-.128-.25-3.404-1.434-3.673-1.352-1.838.557-4.788 1.137-9.112 1.137-2.868 0-5.443-.567-7.265-1.299a10 10 0 0 1-1.382-.656c-.405-.242-.403-.79.015-1.011a8.8 8.8 0 0 1 1.767-.677c.701-.194 1.417.117 1.993.561q.13.1.266.194c1.315.89 3.124 1.304 5.287 1.304 1.785 0 3.078-.21 3.95-.434.485-.124.973-.265 1.42-.52.003-.002-.512-1.218-.868-2.06-.184-.434-.684-.63-1.141-.515-.666.173-1.758.36-3.361.36-1.926 0-3.184-.38-3.913-.874-.628-.425-.03-1.044.717-.916.798.138 1.668.205 2.6.205 1.994 0 3.432-.227 4.4-.47.526-.132 1.056-.285 1.546-.55.016-.009-.435-1.102-.781-1.935-.213-.51-.802-.736-1.342-.614-.763.192-2.007.4-3.824.4-2.185 0-3.639-.419-4.5-.988-.686-.453-.081-1.14.727-.987 1.325.252 2.812.39 4.37.39 1.867 0 3.632-.198 5.135-.552.792-.187 1.23-1.003 1.03-1.791-.225-.885-1.16-1.39-2.056-1.21-1.19.24-2.593.384-4.109.384-2.35 0-4.423-.343-5.863-.86-.682-.242-1.153-.5-1.44-.725m15.476-.44c.07.89.881 1.468 1.744 1.69.488.125.731.336.842.474.203.254.274.647.185 1.062-.158.735-.603 1.448-1.326 2.104-.38.345-.813.652-1.272.917-.697.403-1.11 1.205-.89 1.979.253.88 1.214 1.362 2.012.911a10.2 10.2 0 0 0 1.827-1.308c1.022-.928 1.94-2.194 2.293-3.835.253-1.172.153-2.758-.836-3.993-.736-.916-1.806-1.438-3.16-1.558-.855-.076-1.485.703-1.419 1.558"/><path stroke="#7B5235" stroke-width=".004" d="M16.817 22.119c.244-.19.51-.344.788-.474.747-.35 1.252-1.11 1.085-1.918-.183-.892-1.093-1.457-1.926-1.091a7 7 0 0 0-1.292.721c-.695.5-1.573 1.393-1.573 2.762 0 .805.325 1.497.79 2.046.36.426.572.974.573 1.532 0 1.307.403 2.442 1.12 3.348.25.316.356.715.296 1.114-.077.514-.419.985-.918 1.13-.749.219-1.463.495-2.089.83-.588.313-1.169.714-1.621 1.23-.456.522-.877 1.274-.877 2.24 0 .676.258 1.223.51 1.6.257.383.589.711.932.989.69.556 1.614 1.06 2.67 1.483 2.124.852 5 1.474 8.154 1.474 4.535 0 7.719-.609 9.8-1.24.79-.233 1.567-.53 2.322-.889.287-.139.573-.286.84-.47a6 6 0 0 0-.176-.356c-.128-.25-3.404-1.434-3.673-1.352-1.838.557-4.788 1.137-9.112 1.137-2.868 0-5.443-.567-7.265-1.299a10 10 0 0 1-1.382-.656c-.405-.242-.403-.79.015-1.011a8.8 8.8 0 0 1 1.767-.677c.701-.194 1.417.117 1.993.561q.13.1.266.194c1.315.89 3.124 1.304 5.287 1.304 1.785 0 3.078-.21 3.95-.434.485-.124.973-.265 1.42-.52.003-.002-.512-1.218-.868-2.06-.184-.434-.684-.63-1.141-.515-.666.173-1.758.36-3.361.36-1.926 0-3.184-.38-3.913-.874-.628-.425-.03-1.044.717-.916.798.138 1.668.205 2.6.205 1.994 0 3.432-.227 4.4-.47.526-.132 1.056-.285 1.546-.55.016-.009-.435-1.102-.781-1.935-.213-.51-.802-.736-1.342-.614-.763.192-2.007.4-3.824.4-2.185 0-3.639-.419-4.5-.988-.686-.453-.081-1.14.727-.987 1.325.252 2.812.39 4.37.39 1.867 0 3.632-.198 5.135-.552.792-.187 1.23-1.003 1.03-1.791-.225-.885-1.16-1.39-2.056-1.21-1.19.24-2.593.384-4.109.384-2.35 0-4.423-.343-5.863-.86-.682-.242-1.153-.5-1.44-.725m4.866-6.367c.066.705.316 1.616.91 2.793.32.634.191 1.414-.359 1.862-.672.547-1.68.375-2.063-.402-.69-1.4-1.083-2.69-1.198-3.91a7.2 7.2 0 0 1 .866-4.23c.605-1.113 1.443-2.027 2.171-2.795.29-.307.587-.609.876-.92.597-.643 1.632-.747 2.273-.148.521.487.61 1.285.147 1.828-.496.583-1.017 1.114-1.465 1.586-.736.778-1.316 1.436-1.701 2.144a3.64 3.64 0 0 0-.457 2.192Zm3.214-.927c.25-.701.668-1.404 1.27-2.15.569-.702 1.637-.613 2.173.114.434.59.36 1.398-.108 1.96-.498.601-.721 1.018-.82 1.295-.142.396-.048.79.047 1.183.115.47.304 1.252.292 2.095a6.5 6.5 0 0 1-.433 2.203c-.3.809-1.31 1.001-1.992.472-.56-.434-.68-1.204-.458-1.877.124-.373.154-.646.157-.85.007-.468-.098-.73-.268-1.521-.164-.758-.285-1.739.14-2.924Zm9.982 9.018c-.11-.138-.354-.349-.842-.474-.863-.223-1.674-.8-1.743-1.69-.067-.854.563-1.633 1.417-1.557 1.355.12 2.425.642 3.16 1.558.99 1.235 1.09 2.82.837 3.993-.353 1.64-1.271 2.907-2.293 3.835a10.2 10.2 0 0 1-1.827 1.308c-.798.451-1.759-.03-2.011-.911-.222-.774.192-1.576.89-1.98a7.4 7.4 0 0 0 1.271-.916c.723-.656 1.168-1.369 1.326-2.104.089-.415.018-.808-.185-1.062Z"/></g><g clip-path="url(#c)"><path fill="#835739" d="M55.624 17.772q.624 0 .912.112a.7.7 0 0 1 .432.336q.176.368.176.992v6.192q0 1.68-1.216 2.976-1.215 1.28-3.104 1.28-1.056 0-1.872-.464-.736-.4-1.024-.72l-.128-.128q-.56-.592-.56-1.008 0-.432.56-1.008t.992-.576.96.528 1.136.528q.624 0 1.024-.416t.4-1.104v-5.984q0-.96.32-1.232.368-.304.992-.304m8.27 4.192q.095-.896 1.263-.896.624 0 .928.096t.416.336q.129.24.144.432.032.176.032.544v5.6q0 .368-.032.56-.015.176-.128.416-.224.416-1.104.416-.864 0-1.168-.208-.288-.225-.336-.64-.591.848-1.984.848-1.375 0-2.56-1.264-1.184-1.264-1.184-2.928 0-1.68 1.184-2.928 1.2-1.264 2.624-1.264.545 0 .992.192.448.192.624.368.177.16.288.32m-2.913 3.328q0 .528.416.96.417.416 1.008.416.592 0 .976-.432.4-.432.4-.944 0-.528-.384-.976-.367-.448-1.008-.448-.624 0-1.024.448-.384.448-.384.976m15.233-4.032q.832.496.832 1.056 0 .32-.32.88l-3.312 5.68a1.5 1.5 0 0 1-.512.496q-.352.208-.704.208a1.45 1.45 0 0 1-.656-.16q-.304-.176-.432-.352l-.144-.176-3.328-5.696q-.32-.528-.32-.864 0-.576.832-1.072.608-.352.96-.352t.544.224q.209.208.432.64l2.096 4.032 2.096-4.032q.176-.305.256-.432.096-.144.288-.272.192-.144.512-.144t.88.336m6.695.704q.096-.896 1.264-.896.624 0 .928.096t.416.336q.127.24.144.432.032.176.032.544v5.6q0 .368-.032.56-.015.176-.128.416-.224.416-1.104.416-.864 0-1.168-.208-.288-.225-.336-.64-.592.848-1.984.848-1.376 0-2.56-1.264t-1.184-2.928q0-1.68 1.184-2.928 1.2-1.264 2.624-1.264.544 0 .992.192.449.192.624.368.175.16.288.32m-2.912 3.328q0 .528.416.96.415.416 1.008.416.591 0 .976-.432.4-.432.4-.944 0-.528-.384-.976-.367-.448-1.008-.448-.624 0-1.024.448-.384.448-.384.976"/></g><defs><clipPath id="b"><path fill="#fff" d="M8 0h33v48H8z"/></clipPath><clipPath id="c"><path fill="#fff" d="M49 14.5h38v19H49z"/></clipPath></defs></svg>