<svg xmlns="http://www.w3.org/2000/svg" width="139" height="48" fill="none" viewBox="0 0 139 48"><mask id="a" fill="#fff"><path d="M0 24C0 10.745 10.745 0 24 0h91c13.255 0 24 10.745 24 24s-10.745 24-24 24H24C10.745 48 0 37.255 0 24"/></mask><path fill="#FFF399" d="M0 24C0 10.745 10.745 0 24 0h91c13.255 0 24 10.745 24 24s-10.745 24-24 24H24C10.745 48 0 37.255 0 24"/><path fill="#FFE26D" d="M24 0v2h91v-4H24zm91 48v-2H24v4h91zm-91 0v-2C11.85 46 2 36.15 2 24h-4c0 14.36 11.64 26 26 26zm115-24h-2c0 12.15-9.85 22-22 22v4c14.359 0 26-11.64 26-26zM115 0v2c12.15 0 22 9.85 22 22h4c0-14.36-11.641-26-26-26zM24 0v-2C9.64-2-2 9.64-2 24h4C2 11.85 11.85 2 24 2z" mask="url(#a)"/><g clip-path="url(#b)"><path fill="#FFF29E" stroke="#D99637" stroke-width="1.333" d="M14.125 11.625a2 2 0 0 0-2 2v20.75a2 2 0 0 0 2 2h20.75a2 2 0 0 0 2-2v-20.75a2 2 0 0 0-2-2zm11.469 19.303c0 2.41-1.412 3.505-3.473 3.505-1.365 0-2.31-.52-2.933-1.255-.38-.448-.173-1.102.33-1.407.553-.334 1.199-.066 1.713.325.207.158.458.253.79.253.765 0 1.246-.291 1.246-1.46v-6.74a1.163 1.163 0 0 1 2.327 0zm5.5 3.503-.003.002c-1.649 0-2.852-.601-3.632-1.485-.4-.454-.192-1.128.332-1.431.534-.309 1.19-.103 1.66.298.404.344.91.558 1.593.558.963 0 1.57-.482 1.57-1.152 0-.797-.632-1.08-1.695-1.538l-.577-.256c-1.678-.714-2.791-1.611-2.791-3.506 0-1.744 1.323-3.073 3.406-3.073 1.129 0 2.016.3 2.713 1.042.388.413.219 1.057-.259 1.364-.517.332-1.166.076-1.707-.217a1.5 1.5 0 0 0-.743-.17c-.68 0-1.115.431-1.115 1 0 .702.429.98 1.427 1.41l.58.256c1.978.841 3.091 1.707 3.091 3.654.006 2.098-1.637 3.242-3.846 3.243z"/></g><g clip-path="url(#c)"><path fill="#D99637" d="M55.624 17.772q.624 0 .912.112a.7.7 0 0 1 .432.336q.176.368.176.992v6.192q0 1.68-1.216 2.976-1.215 1.28-3.104 1.28-1.056 0-1.872-.464-.736-.4-1.024-.72l-.128-.128q-.56-.592-.56-1.008 0-.432.56-1.008t.992-.576.96.528 1.136.528q.624 0 1.024-.416t.4-1.104v-5.984q0-.96.32-1.232.368-.304.992-.304m8.27 4.192q.095-.896 1.263-.896.624 0 .928.096t.416.336q.129.24.144.432.032.176.032.544v5.6q0 .368-.032.56-.015.176-.128.416-.224.416-1.104.416-.864 0-1.168-.208-.288-.225-.336-.64-.591.848-1.984.848-1.375 0-2.56-1.264-1.184-1.264-1.184-2.928 0-1.68 1.184-2.928 1.2-1.264 2.624-1.264.545 0 .992.192.448.192.624.368.177.16.288.32m-2.913 3.328q0 .528.416.96.417.416 1.008.416.592 0 .976-.432.4-.432.4-.944 0-.528-.384-.976-.367-.448-1.008-.448-.624 0-1.024.448-.384.448-.384.976m15.233-4.032q.832.496.832 1.056 0 .32-.32.88l-3.312 5.68a1.5 1.5 0 0 1-.512.496q-.352.208-.704.208a1.45 1.45 0 0 1-.656-.16q-.304-.176-.432-.352l-.144-.176-3.328-5.696q-.32-.528-.32-.864 0-.576.832-1.072.608-.352.96-.352t.544.224q.209.208.432.64l2.096 4.032 2.096-4.032q.176-.305.256-.432.096-.144.288-.272.192-.144.512-.144t.88.336m6.695.704q.096-.896 1.264-.896.624 0 .928.096t.416.336q.127.24.144.432.032.176.032.544v5.6q0 .368-.032.56-.015.176-.128.416-.224.416-1.104.416-.864 0-1.168-.208-.288-.225-.336-.64-.592.848-1.984.848-1.376 0-2.56-1.264t-1.184-2.928q0-1.68 1.184-2.928 1.2-1.264 2.624-1.264.544 0 .992.192.449.192.624.368.175.16.288.32m-2.912 3.328q0 .528.416.96.415.416 1.008.416.591 0 .976-.432.4-.432.4-.944 0-.528-.384-.976-.367-.448-1.008-.448-.624 0-1.024.448-.384.448-.384.976m7.035 3.456q-.304-.192-.304-.608t.608-1.264q.177-.272.56-.272.4 0 1.072.4.672.384 1.216.384.975 0 .976-.384 0-.304-1.072-.448-1.007-.144-2-.752-.464-.287-.768-.896-.304-.624-.304-1.472 0-2.528 3.472-2.528 1.137 0 2.336.544.56.256.56.64 0 .383-.352.944-.351.56-.72.56-.192 0-.72-.24a2.6 2.6 0 0 0-1.12-.24q-.945 0-.944.352 0 .48 1.088.624a6 6 0 0 1 2.048.608q.465.224.768.784.32.544.32 1.376 0 .833-.32 1.424-.304.576-.864.864-1.024.495-2.576.496-1.536 0-2.96-.896m10.404-3.456q0 .672.448 1.056.449.368.944.368.513 0 .944-.288.448-.304.72-.304.48 0 1.168.848.368.465.368.832 0 .608-.88 1.136-.911.64-2.24.64-1.488 0-2.864-1.072-.655-.512-1.072-1.36a4.3 4.3 0 0 1-.416-1.888q0-1.04.416-1.872.417-.848 1.072-1.36 1.329-1.056 2.832-1.056.609 0 1.184.176.576.16.848.32l.256.16q.289.192.448.304.416.32.416.736 0 .4-.336.912-.576.88-1.104.88-.303 0-.864-.352-.288-.272-.832-.272-.528 0-.992.384-.465.384-.464 1.072m11.354-4.128q.304.096.496.336.208.225.208.736 0 .512-.304 1.12t-.88.608a1.3 1.3 0 0 1-.56-.128q-.256-.128-.688-.128t-.816.304q-.368.304-.368.736v3.36q0 .368-.032.56a1.2 1.2 0 0 1-.144.416q-.24.416-1.248.416-.768 0-1.104-.272-.256-.225-.288-.688v-6.08q0-.368.016-.544.032-.192.144-.416.224-.432 1.248-.432.96 0 1.2.368.176.256.176.528.08-.112.224-.272.16-.16.656-.432t.864-.272q.384 0 .64.048.256.032.56.128m1.584 1.312q0-.368.016-.544a1.8 1.8 0 0 1 .144-.432q.225-.416 1.248-.416.768 0 1.088.272.273.225.288.688.016.16.016.464v5.6q0 .368-.032.56-.015.176-.144.416-.207.416-1.232.416-1.007 0-1.232-.432a1.8 1.8 0 0 1-.144-.416 7 7 0 0 1-.016-.56zm2.624-2.96q-.111.224-.416.32-.303.096-.816.096-.495 0-.8-.096a.7.7 0 0 1-.432-.336 1.8 1.8 0 0 1-.144-.416 8 8 0 0 1-.016-.56q0-.368.016-.544.033-.192.144-.416.225-.432 1.248-.432 1.008 0 1.216.432.129.24.144.432.033.176.032.544 0 .368-.032.56-.015.176-.144.416m1.455 12.272v-9.344q0-.368.016-.544.031-.175.144-.4.223-.432 1.072-.432.848 0 1.136.224.303.209.352.624.608-.832 1.904-.832 1.311 0 2.48 1.232 1.167 1.232 1.168 2.864t-1.168 2.864q-1.153 1.232-2.464 1.232-1.313 0-1.904-.736v3.232q0 .368-.032.544-.016.175-.144.4a.64.64 0 0 1-.4.336q-.288.096-.784.096t-.8-.096a.72.72 0 0 1-.416-.32 1.5 1.5 0 0 1-.144-.4 7 7 0 0 1-.016-.544m3.168-7.536a1.42 1.42 0 0 0-.368.944q0 .512.368.944.384.416.96.416.591 0 .992-.416.416-.416.416-.944t-.384-.944q-.384-.432-1.008-.432-.609 0-.976.432m10.884-.352-1.04-.064v2.208q0 .432.128.624.144.192.512.192.384 0 .576.032.207.016.432.144.368.208.368 1.072 0 1.008-.448 1.232-.24.113-.432.144-.177.016-.528.016-1.665 0-2.528-.752-.864-.752-.864-2.544v-2.368a4 4 0 0 1-.656.048.76.76 0 0 1-.592-.272q-.225-.271-.224-.928 0-.656.08-.944.08-.305.224-.432a.98.98 0 0 1 .64-.208l.528.064v-1.648q0-.368.016-.544.031-.176.16-.384.207-.4 1.232-.4 1.088 0 1.296.592.08.256.08.816v1.568q.703-.064 1.056-.064.367 0 .544.032.192.016.432.144.416.209.416 1.232 0 1.008-.432 1.232-.24.113-.432.144-.177.015-.544.016"/></g><defs><clipPath id="b"><path fill="#fff" d="M8 0h33v48H8z"/></clipPath><clipPath id="c"><path fill="#fff" d="M49 14.5h82v19H49z"/></clipPath></defs></svg>