<svg xmlns="http://www.w3.org/2000/svg" width="196" height="48" fill="none" viewBox="0 0 196 48"><mask id="a" fill="#fff"><path d="M0 24C0 10.745 10.745 0 24 0h148c13.255 0 24 10.745 24 24s-10.745 24-24 24H24C10.745 48 0 37.255 0 24"/></mask><path fill="#FFDBC0" d="M0 24C0 10.745 10.745 0 24 0h148c13.255 0 24 10.745 24 24s-10.745 24-24 24H24C10.745 48 0 37.255 0 24"/><path fill="#FFD086" d="M24 0v2h148v-4H24zm148 48v-2H24v4h148zM24 48v-2C11.85 46 2 36.15 2 24h-4c0 14.36 11.64 26 26 26zm172-24h-2c0 12.15-9.85 22-22 22v4c14.359 0 26-11.64 26-26zM172 0v2c12.15 0 22 9.85 22 22h4c0-14.36-11.641-26-26-26zM24 0v-2C9.64-2-2 9.64-2 24h4C2 11.85 11.85 2 24 2z" mask="url(#a)"/><g clip-path="url(#b)"><path fill="#FF9D00" d="M36.847 9.41c.056 1.302-.968 2.403-2.289 2.46-1.32.055-2.436-.956-2.492-2.259s.967-2.404 2.288-2.46 2.436.955 2.493 2.258M25.422 32.458c-5.267 0-9.854-1.87-12.242-4.633 1.807 4.953 6.605 8.493 12.242 8.493s10.436-3.54 12.243-8.493c-2.388 2.762-6.975 4.633-12.243 4.633m0-17.982c5.268 0 9.855 1.87 12.243 4.633-1.807-4.953-6.606-8.494-12.243-8.494-5.636 0-10.435 3.541-12.242 8.494 2.388-2.763 6.975-4.633 12.242-4.633m-6.205 23.449c.067 1.547-1.15 2.856-2.72 2.922-1.568.067-2.893-1.134-2.96-2.682s1.15-2.856 2.718-2.923c1.568-.066 2.895 1.135 2.962 2.683M14.2 13.404a1.73 1.73 0 0 1-1.811-1.641 1.724 1.724 0 0 1 1.662-1.787 1.73 1.73 0 0 1 1.812 1.64 1.725 1.725 0 0 1-1.663 1.787"/><path stroke="#FF9D00" stroke-width="1.333" d="M14.201 13.404a1.73 1.73 0 0 1-1.811-1.641 1.724 1.724 0 0 1 1.662-1.787 1.73 1.73 0 0 1 1.812 1.64 1.725 1.725 0 0 1-1.663 1.787M36.847 9.41c.056 1.303-.968 2.404-2.289 2.46-1.32.056-2.436-.955-2.492-2.258s.967-2.404 2.288-2.46 2.436.955 2.493 2.258ZM25.422 32.46c-5.267 0-9.854-1.87-12.242-4.633 1.807 4.953 6.605 8.493 12.242 8.493s10.436-3.54 12.243-8.493c-2.388 2.762-6.975 4.633-12.243 4.633Zm0-17.982c5.268 0 9.855 1.87 12.243 4.633-1.807-4.953-6.606-8.494-12.243-8.494-5.636 0-10.435 3.541-12.242 8.494 2.388-2.763 6.975-4.633 12.242-4.633Zm-6.205 23.449c.067 1.547-1.15 2.856-2.72 2.922-1.568.067-2.893-1.134-2.96-2.682s1.15-2.856 2.718-2.923c1.568-.066 2.895 1.135 2.962 2.683Z"/></g><g clip-path="url(#c)"><path fill="#F0AB66" d="M55.624 17.772q.624 0 .912.112a.7.7 0 0 1 .432.336q.176.368.176.992v6.192q0 1.68-1.216 2.976-1.215 1.28-3.104 1.28-1.056 0-1.872-.464-.736-.4-1.024-.72l-.128-.128q-.56-.592-.56-1.008 0-.432.56-1.008t.992-.576.96.528 1.136.528q.624 0 1.024-.416t.4-1.104v-5.984q0-.96.32-1.232.368-.304.992-.304m6.541 11.696q-1.615 0-2.688-1.216-1.056-1.232-1.056-2.992v-2.8q0-.384.016-.56a1.8 1.8 0 0 1 .144-.416q.225-.432 1.248-.432 1.12 0 1.312.608.096.256.096.816v2.8q0 .656.368 1.024.384.368 1.008.368.64 0 1.024-.384.4-.384.4-1.008v-2.832q0-.368.016-.544.033-.192.16-.432.209-.416 1.232-.416 1.008 0 1.232.432.113.24.128.432.032.176.032.544v5.664q0 .352-.032.544-.015.175-.144.4-.24.416-1.232.416-.975 0-1.2-.384-.16-.272-.16-.656a1.6 1.6 0 0 1-.288.32q-.224.208-.432.352a2.14 2.14 0 0 1-1.184.352m5.96 2.32v-9.344q0-.368.015-.544.033-.175.144-.4.225-.432 1.072-.432.849 0 1.136.224.304.209.352.624.609-.832 1.904-.832 1.313 0 2.48 1.232t1.168 2.864q0 1.632-1.168 2.864-1.152 1.232-2.464 1.232-1.311 0-1.904-.736v3.232q0 .368-.032.544-.015.175-.144.4a.64.64 0 0 1-.4.336q-.288.096-.784.096-.495 0-.8-.096a.72.72 0 0 1-.416-.32 1.5 1.5 0 0 1-.144-.4 7 7 0 0 1-.016-.544m3.167-7.536q-.368.432-.368.944t.368.944q.384.416.96.416.593 0 .992-.416.417-.416.416-.944 0-.528-.384-.944-.384-.432-1.008-.432-.607 0-.976.432m13.5-3.088q.945.416.945 1.008a1.2 1.2 0 0 1-.128.544 3 3 0 0 0-.128.272l-4.192 9.376q-.128.304-.225.464a.9.9 0 0 1-.271.304.78.78 0 0 1-.48.144q-.288 0-.849-.24-.944-.416-.944-.992 0-.384 1.537-3.664l-3.184-5.36q-.32-.528-.32-.784 0-.512.864-1.024.543-.32.847-.32t.496.128a.8.8 0 0 1 .272.272q.097.127.88 1.488.8 1.344 1.52 2.512.081-.256.864-1.968.784-1.728.832-1.84.065-.112.192-.272a.69.69 0 0 1 .577-.272q.383 0 .895.224m6.713 2.736-1.04-.064v2.208q0 .432.128.624.144.192.512.192.384 0 .576.032.207.016.432.144.368.208.368 1.072 0 1.008-.448 1.232-.24.113-.432.144-.177.016-.528.016-1.665 0-2.528-.752-.864-.752-.864-2.544v-2.368a4 4 0 0 1-.656.048.76.76 0 0 1-.592-.272q-.225-.271-.224-.928 0-.656.08-.944.08-.305.224-.432a.98.98 0 0 1 .64-.208l.528.064v-1.648q0-.368.016-.544.031-.176.16-.384.208-.4 1.232-.4 1.087 0 1.296.592.08.256.08.816v1.568q.704-.064 1.056-.064.367 0 .544.032.192.016.432.144.416.209.416 1.232 0 1.008-.432 1.232-.24.113-.432.144-.177.015-.544.016m10.107.384q0 .975-.496 1.456-.48.465-1.072.464h-3.792q0 .449.528.752a2.1 2.1 0 0 0 1.056.304q.927 0 1.456-.192l.176-.064q.385-.176.64-.176.511 0 .88.72.208.432.208.736 0 1.425-3.408 1.424-1.185 0-2.112-.4-.912-.416-1.424-1.088-1.008-1.296-1.008-2.896 0-2.016 1.296-3.216 1.311-1.215 3.264-1.216 2.223 0 3.264 1.568a3.27 3.27 0 0 1 .544 1.824m-3.376.464q.608 0 .608-.512a.71.71 0 0 0-.288-.592q-.273-.224-.8-.224-.513 0-1.024.432-.513.416-.512.896zm10.148-3.584q.303.096.496.336.208.225.208.736 0 .512-.304 1.12t-.88.608a1.3 1.3 0 0 1-.56-.128q-.256-.128-.688-.128t-.816.304q-.368.304-.368.736v3.36q0 .368-.032.56a1.2 1.2 0 0 1-.144.416q-.24.416-1.248.416-.768 0-1.104-.272-.257-.225-.288-.688v-6.08q0-.368.016-.544.032-.192.144-.416.224-.432 1.248-.432.96 0 1.2.368.176.256.176.528.08-.112.224-.272.16-.16.656-.432.495-.272.864-.272.384 0 .64.048.255.032.56.128m13.199-2.896a.8.8 0 0 1 .464-.384q.304-.096.752-.096.464 0 .736.08.288.08.416.192a.63.63 0 0 1 .208.336q.096.256.096.816v8.88q0 .384-.032.56a1.2 1.2 0 0 1-.144.416q-.224.432-1.248.432-.624 0-.864-.096a.94.94 0 0 1-.4-.304q-3.6-4.8-4.736-6.272v5.264q0 .384-.032.56a1.2 1.2 0 0 1-.144.416q-.224.432-1.248.432-.992 0-1.216-.432a1.5 1.5 0 0 1-.16-.432 7 7 0 0 1-.016-.56v-8.928q0-.608.144-.88a.8.8 0 0 1 .464-.384q.304-.096.784-.096t.752.096q.288.08.4.192.064.047.368.416 3.376 4.592 4.512 6.064v-5.408q0-.608.144-.88m3.708 7.024q0-1.92 1.344-3.168t3.072-1.248 3.056 1.248q1.328 1.232 1.328 3.152 0 1.328-.688 2.368-.689 1.025-1.68 1.52a4.55 4.55 0 0 1-2.032.48q-1.056 0-2.048-.512-.993-.528-1.68-1.536a4.1 4.1 0 0 1-.672-2.304m3.344 1.152q.512.384 1.04.384t1.056-.4.528-1.184-.496-1.168a1.72 1.72 0 0 0-1.072-.384q-.576 0-1.072.4t-.496 1.184q0 .768.512 1.168m11.151-2.544-1.04-.064v2.208q0 .432.128.624.144.192.512.192.384 0 .576.032.208.016.432.144.368.208.368 1.072 0 1.008-.448 1.232-.24.113-.432.144a6 6 0 0 1-.528.016q-1.664 0-2.528-.752t-.864-2.544v-2.368a4 4 0 0 1-.656.048.76.76 0 0 1-.592-.272q-.224-.271-.224-.928 0-.656.08-.944.08-.305.224-.432a.98.98 0 0 1 .64-.208l.528.064v-1.648q0-.368.016-.544.032-.176.16-.384.208-.4 1.232-.4 1.087 0 1.296.592.08.256.08.816v1.568q.703-.064 1.056-.064.368 0 .544.032.192.016.432.144.416.209.416 1.232 0 1.008-.432 1.232-.24.113-.432.144a7 7 0 0 1-.544.016m10.107.384q0 .975-.496 1.456-.48.465-1.072.464h-3.792q0 .449.528.752a2.1 2.1 0 0 0 1.056.304q.928 0 1.456-.192l.176-.064q.384-.176.64-.176.512 0 .88.72.208.432.208.736 0 1.425-3.408 1.424-1.183 0-2.112-.4-.912-.416-1.424-1.088-1.008-1.296-1.008-2.896 0-2.016 1.296-3.216 1.312-1.215 3.264-1.216 2.225 0 3.264 1.568.544.832.544 1.824m-3.376.464q.608 0 .608-.512a.71.71 0 0 0-.288-.592q-.272-.224-.8-.224-.512 0-1.024.432-.512.416-.512.896zm9.044-3.664q1.424 0 2.608 1.264 1.2 1.264 1.2 2.944 0 1.664-1.184 2.928-1.183 1.248-2.544 1.248t-1.936-.768q-.128.784-1.376.784-1.008 0-1.232-.432a1.7 1.7 0 0 1-.144-.416 7 7 0 0 1-.016-.56v-9.552q0-.368.016-.544.031-.192.144-.416.224-.432 1.248-.432 1.008 0 1.216.432.128.24.144.432.032.176.032.544v3.328q.64-.784 1.824-.784m-1.408 5.168q.4.432.992.432.593 0 1.008-.432t.416-.96-.384-.96q-.384-.448-1.024-.448t-1.024.448a1.5 1.5 0 0 0-.368.976q0 .512.384.944m6.013-.96q0-1.92 1.344-3.168t3.072-1.248q1.727 0 3.056 1.248 1.328 1.232 1.328 3.152 0 1.328-.688 2.368-.689 1.025-1.68 1.52a4.55 4.55 0 0 1-2.032.48q-1.056 0-2.048-.512-.993-.528-1.68-1.536a4.1 4.1 0 0 1-.672-2.304m3.344 1.152q.512.384 1.04.384t1.056-.4.528-1.184-.496-1.168a1.72 1.72 0 0 0-1.072-.384q-.576 0-1.072.4t-.496 1.184q0 .768.512 1.168m6.249-1.152q0-1.92 1.344-3.168t3.072-1.248 3.056 1.248q1.329 1.232 1.328 3.152 0 1.328-.688 2.368-.687 1.025-1.68 1.52-.976.48-2.032.48-1.055 0-2.048-.512-.992-.528-1.68-1.536a4.1 4.1 0 0 1-.672-2.304m3.344 1.152q.512.384 1.04.384t1.056-.4.528-1.184-.496-1.168a1.7 1.7 0 0 0-1.072-.384q-.576 0-1.072.4t-.496 1.184q0 .768.512 1.168m11.45-1.168 2.128 1.76q.4.336.496.512.112.176.112.336 0 .384-.496 1.04-.544.672-.96.672-.352 0-.976-.464l-.16-.112a21 21 0 0 1-1.136-1.056q-.768-.768-1.168-1.088v1.232q0 .368-.032.56a1.2 1.2 0 0 1-.144.416q-.208.416-1.232.416-1.008 0-1.232-.432a1.7 1.7 0 0 1-.144-.416 7 7 0 0 1-.016-.56v-9.584q0-.368.016-.544.031-.192.144-.432.224-.432 1.248-.432.768 0 1.088.272.272.224.288.704.016.144.016.448v5.072q.288-.24.864-.816.592-.576.88-.816l.192-.128q.56-.432.96-.432t.912.656q.528.64.528 1.008t-.592.864z"/></g><defs><clipPath id="b"><path fill="#fff" d="M8 0h33v48H8z"/></clipPath><clipPath id="c"><path fill="#fff" d="M49 14.5h139v19H49z"/></clipPath></defs></svg>