<svg xmlns="http://www.w3.org/2000/svg" width="103" height="48" fill="none" viewBox="0 0 103 48"><mask id="a" fill="#fff"><path d="M0 24C0 10.745 10.745 0 24 0h55c13.255 0 24 10.745 24 24S92.255 48 79 48H24C10.745 48 0 37.255 0 24"/></mask><path fill="#D7CCF6" d="M0 24C0 10.745 10.745 0 24 0h55c13.255 0 24 10.745 24 24S92.255 48 79 48H24C10.745 48 0 37.255 0 24"/><path fill="#7D6FA0" d="M24 0v2h55v-4H24zm55 48v-2H24v4h55zm-55 0v-2C11.85 46 2 36.15 2 24h-4c0 14.36 11.64 26 26 26zm79-24h-2c0 12.15-9.85 22-22 22v4c14.36 0 26-11.64 26-26zM79 0v2c12.15 0 22 9.85 22 22h4C105 9.64 93.36-2 79-2zM24 0v-2C9.64-2-2 9.64-2 24h4C2 11.85 11.85 2 24 2z" mask="url(#a)"/><g clip-path="url(#b)"><path fill="#B89FFF" stroke="#7D6FA0" stroke-width="1.333" d="M35.814 34.85c-.75.88-1.783 1.328-2.819 1.328a3.66 3.66 0 0 1-2.553-1.05l-8.91-8.597a4 4 0 0 1-.138-.14l7.025-4.14 7.132 6.882c1.556 1.501 1.673 4.06.263 5.716Zm-15.51-21.195v-.796c0-2.39-1.821-4.328-4.067-4.328S12.17 10.47 12.17 12.86v5.59zm-8.179 18.103V32c0 2.416 1.84 4.375 4.112 4.375 2.27 0 4.112-1.959 4.112-4.375v-5.09zm24.273-20.939c-1.018-1.955-3.332-2.662-5.17-1.58L12.296 20.4v9.251l22.619-13.33c1.837-1.083 2.502-3.546 1.484-5.5Z"/></g><g clip-path="url(#c)"><path fill="#462E3D" d="M54.664 23.612q2.448 2.352 3.472 3.536.528.592.528 1.008 0 .4-.64.96-.64.544-1.056.544-.4 0-.976-.672l-3.52-4.016v3.12q0 .384-.032.56a1.1 1.1 0 0 1-.144.416q-.224.432-1.248.432-1.12 0-1.312-.608-.096-.256-.096-.816V19.18q0-.368.016-.544.032-.192.16-.432.224-.432 1.248-.432 1.12 0 1.328.592.08.272.08.832v3.056q2.176-2.448 3.52-4.016.56-.656.976-.656t1.056.56q.64.544.64.96 0 .4-.48.96-.928 1.072-2.88 2.944zm4.314 1.68q0-1.92 1.344-3.168t3.072-1.248q1.727 0 3.056 1.248 1.328 1.232 1.328 3.152 0 1.328-.688 2.368-.689 1.025-1.68 1.52a4.55 4.55 0 0 1-2.032.48q-1.056 0-2.048-.512-.992-.528-1.68-1.536a4.1 4.1 0 0 1-.672-2.304m3.344 1.152q.512.384 1.04.384t1.056-.4.528-1.184-.496-1.168a1.7 1.7 0 0 0-1.072-.384q-.576 0-1.072.4t-.496 1.184q0 .768.512 1.168M73.473 23.9l-1.04-.064v2.208q0 .432.128.624.144.192.512.192.385 0 .577.032.207.016.431.144.368.208.368 1.072 0 1.008-.448 1.232-.24.113-.431.144a6 6 0 0 1-.528.016q-1.665 0-2.529-.752t-.864-2.544v-2.368a4 4 0 0 1-.656.048.76.76 0 0 1-.591-.272q-.225-.271-.225-.928 0-.656.08-.944.08-.305.224-.432a.98.98 0 0 1 .64-.208l.529.064v-1.648q0-.368.015-.544.033-.176.16-.384.21-.4 1.233-.4 1.088 0 1.295.592.08.256.08.816v1.568q.705-.064 1.056-.064.369 0 .544.032.193.016.433.144.416.209.416 1.232 0 1.008-.433 1.232-.24.113-.431.144a7 7 0 0 1-.544.016m2.292-5.392q0-.368.016-.544.032-.192.144-.432.224-.432 1.248-.432.976 0 1.216.432.127.24.144.432.032.192.032.56v7.408q0 .576.096.736.096.144.416.144.336 0 .448.032.112.015.272.128.32.208.32 1.136 0 1.008-.32 1.232-.416.288-1.984.096-1.232-.16-1.6-.816-.448-.785-.448-2.496zM81 22.476q0-.368.016-.544.033-.192.144-.432.225-.416 1.248-.416.768 0 1.088.272.273.225.288.688.016.16.016.464v5.6q0 .368-.032.56a1.1 1.1 0 0 1-.144.416q-.207.416-1.232.416-1.007 0-1.232-.432a1.8 1.8 0 0 1-.144-.416 7 7 0 0 1-.016-.56zm2.624-2.96q-.111.224-.416.32-.303.096-.816.096-.495 0-.8-.096a.7.7 0 0 1-.432-.336 1.8 1.8 0 0 1-.144-.416 7 7 0 0 1-.016-.56q0-.368.016-.544.033-.192.144-.416.225-.432 1.248-.432 1.008 0 1.216.432.129.24.144.432.032.176.032.544t-.032.56a1.1 1.1 0 0 1-.144.416m6.142 1.552q1.601 0 2.656 1.232 1.072 1.216 1.072 2.976v2.816q0 .368-.031.56-.017.175-.129.4-.224.432-1.248.432-1.136 0-1.311-.592-.097-.271-.097-.816V25.26q0-.656-.384-1.024-.367-.368-1.008-.368-.623 0-1.023.384-.385.384-.385 1.008v2.832q0 .368-.031.56-.017.175-.145.4-.208.432-1.231.432-1.008 0-1.233-.432a1.8 1.8 0 0 1-.143-.416 7 7 0 0 1-.016-.56v-5.664q0-.352.016-.528.03-.192.16-.416.224-.4 1.231-.4.977 0 1.2.368.16.272.16.656.065-.112.288-.32.225-.208.433-.336a2.1 2.1 0 0 1 1.2-.368"/></g><defs><clipPath id="b"><path fill="#fff" d="M8 0h33v48H8z"/></clipPath><clipPath id="c"><path fill="#fff" d="M49 14.5h46v19H49z"/></clipPath></defs></svg>