<svg xmlns="http://www.w3.org/2000/svg" width="145" height="48" fill="none" viewBox="0 0 145 48"><mask id="a" fill="#fff"><path d="M0 24C0 10.745 10.745 0 24 0h97c13.255 0 24 10.745 24 24s-10.745 24-24 24H24C10.745 48 0 37.255 0 24"/></mask><path fill="#68AEFD" d="M0 24C0 10.745 10.745 0 24 0h97c13.255 0 24 10.745 24 24s-10.745 24-24 24H24C10.745 48 0 37.255 0 24"/><path fill="#2474B9" d="M24 0v2h97v-4H24zm97 48v-2H24v4h97zm-97 0v-2C11.85 46 2 36.15 2 24h-4c0 14.36 11.64 26 26 26zm121-24h-2c0 12.15-9.85 22-22 22v4c14.359 0 26-11.64 26-26zM121 0v2c12.15 0 22 9.85 22 22h4c0-14.36-11.641-26-26-26zM24 0v-2C9.64-2-2 9.64-2 24h4C2 11.85 11.85 2 24 2z" mask="url(#a)"/><g clip-path="url(#b)"><path stroke="#3173AC" stroke-width="1.333" d="M30.688 24.884v-1.768H28.83c-.088-.53-.353-1.06-.619-1.591l1.326-1.326-1.237-1.237-1.326 1.326c-.442-.266-.972-.53-1.591-.62v-1.855h-1.768v1.856c-.53.088-1.06.353-1.591.619l-1.326-1.326-1.237 1.237 1.326 1.326c-.266.442-.53.972-.62 1.591h-1.855v1.768h1.856c.088.53.353 1.06.619 1.591l-1.326 1.326 1.237 1.237 1.326-1.326c.442.266.972.53 1.591.62v1.855h1.768v-1.856c.53-.088 1.06-.353 1.591-.619l1.326 1.326 1.237-1.237-1.326-1.326c.266-.442.53-.972.62-1.591zM24.5 26.652c-1.503 0-2.652-1.15-2.652-2.652s1.15-2.652 2.652-2.652 2.652 1.15 2.652 2.652-1.15 2.652-2.652 2.652Z"/><path fill="#3173AC" d="m39.912 25.426-2.865-11.124a1.9 1.9 0 0 0-.445-.812 2.2 2.2 0 0 0-.797-.55L25.41 8.707a2.42 2.42 0 0 0-1.822 0l-10.394 4.23a2.2 2.2 0 0 0-.798.551 1.9 1.9 0 0 0-.444.813L9.088 25.426a1.8 1.8 0 0 0-.001.893c.075.293.222.568.432.803l7.609 8.511c.207.232.47.419.767.547s.624.195.954.195h11.302c.33 0 .656-.067.954-.195a2.2 2.2 0 0 0 .767-.547l7.609-8.511c.21-.235.358-.51.432-.803a1.8 1.8 0 0 0-.001-.893m-9.761 8.96H18.849l-7.608-8.511 2.865-11.125L24.5 10.52l10.394 4.231 2.865 11.123z"/></g><g clip-path="url(#c)"><path fill="#29679D" d="M54.664 23.612q2.448 2.352 3.472 3.536.528.592.528 1.008 0 .4-.64.96-.64.544-1.056.544-.4 0-.976-.672l-3.52-4.016v3.12q0 .384-.032.56a1.1 1.1 0 0 1-.144.416q-.224.432-1.248.432-1.12 0-1.312-.608-.096-.256-.096-.816V19.18q0-.368.016-.544.032-.192.16-.432.224-.432 1.248-.432 1.12 0 1.328.592.08.272.08.832v3.056q2.176-2.448 3.52-4.016.56-.656.976-.656t1.056.56q.64.544.64.96 0 .4-.48.96-.928 1.072-2.88 2.944zm8.454 5.856q-1.615 0-2.688-1.216-1.056-1.232-1.056-2.992v-2.8q0-.384.016-.56a1.8 1.8 0 0 1 .144-.416q.225-.432 1.248-.432 1.12 0 1.312.608.096.256.096.816v2.8q0 .656.368 1.024.384.368 1.008.368.64 0 1.024-.384.4-.384.4-1.008v-2.832q0-.368.016-.544.033-.192.16-.432.209-.416 1.232-.416 1.008 0 1.232.432.113.24.128.432.033.176.032.544v5.664q0 .352-.032.544-.015.175-.144.4-.24.416-1.232.416-.975 0-1.2-.384-.16-.272-.16-.656a1.6 1.6 0 0 1-.288.32q-.224.208-.432.352a2.14 2.14 0 0 1-1.184.352m10.583-8.384q1.425 0 2.609 1.264 1.2 1.264 1.2 2.944 0 1.664-1.184 2.928-1.185 1.248-2.544 1.248-1.36 0-1.936-.768-.128.784-1.377.784-1.007 0-1.231-.432a1.8 1.8 0 0 1-.144-.416 7 7 0 0 1-.016-.56v-9.552q0-.368.016-.544.03-.192.144-.416.223-.432 1.248-.432 1.007 0 1.215.432.129.24.145.432.03.176.031.544v3.328q.64-.784 1.825-.784m-1.407 5.168q.4.432.992.432.591 0 1.007-.432t.416-.96-.383-.96q-.385-.448-1.024-.448-.64 0-1.025.448a1.5 1.5 0 0 0-.368.976q0 .512.384.944m14.38-1.968q0 .975-.496 1.456-.48.465-1.072.464h-3.792q0 .449.528.752a2.1 2.1 0 0 0 1.056.304q.928 0 1.456-.192l.176-.064q.385-.176.64-.176.513 0 .88.72.208.432.208.736 0 1.425-3.408 1.424-1.184 0-2.112-.4-.911-.416-1.424-1.088-1.008-1.296-1.008-2.896 0-2.016 1.296-3.216 1.312-1.215 3.264-1.216 2.224 0 3.264 1.568.544.832.544 1.824m-3.376.464q.609 0 .608-.512a.71.71 0 0 0-.288-.592q-.272-.224-.8-.224-.511 0-1.024.432-.512.416-.512.896zm10.148-3.584q.304.096.496.336.208.225.208.736 0 .512-.304 1.12t-.88.608q-.287 0-.56-.128-.255-.128-.688-.128t-.816.304q-.368.304-.368.736v3.36q0 .368-.032.56-.015.176-.144.416-.24.416-1.248.416-.768 0-1.104-.272-.255-.225-.288-.688v-6.08q0-.368.016-.544.033-.192.144-.416.225-.432 1.248-.432.96 0 1.2.368a.92.92 0 0 1 .176.528q.08-.112.224-.272.16-.16.656-.432t.864-.272q.385 0 .64.048.256.032.56.128m6.273-.096q1.6 0 2.656 1.232 1.072 1.216 1.072 2.976v2.816q0 .368-.032.56a1.2 1.2 0 0 1-.128.4q-.225.432-1.248.432-1.137 0-1.312-.592-.096-.271-.096-.816V25.26q0-.656-.384-1.024-.369-.368-1.008-.368-.624 0-1.024.384-.384.384-.384 1.008v2.832q0 .368-.032.56-.016.175-.144.4-.209.432-1.232.432-1.008 0-1.232-.432a1.8 1.8 0 0 1-.144-.416 7 7 0 0 1-.016-.56v-5.664q0-.352.016-.528.031-.192.16-.416.224-.4 1.232-.4.975 0 1.2.368.16.272.16.656.063-.112.288-.32t.432-.336a2.1 2.1 0 0 1 1.2-.368m13.143 3.216q0 .975-.496 1.456-.48.465-1.072.464h-3.792q0 .449.528.752a2.1 2.1 0 0 0 1.056.304q.927 0 1.456-.192l.176-.064q.384-.176.64-.176.511 0 .88.72.208.432.208.736 0 1.425-3.408 1.424-1.185 0-2.112-.4-.912-.416-1.424-1.088-1.008-1.296-1.008-2.896 0-2.016 1.296-3.216 1.311-1.215 3.264-1.216 2.223 0 3.264 1.568a3.27 3.27 0 0 1 .544 1.824m-3.376.464q.608 0 .608-.512a.71.71 0 0 0-.288-.592q-.272-.224-.8-.224-.513 0-1.024.432-.513.416-.512.896zm9.159-.848-1.04-.064v2.208q0 .432.128.624.144.192.512.192.384 0 .576.032.209.016.432.144.368.208.368 1.072 0 1.008-.448 1.232-.24.113-.432.144a6 6 0 0 1-.528.016q-1.664 0-2.528-.752t-.864-2.544v-2.368a4 4 0 0 1-.656.048.76.76 0 0 1-.592-.272q-.224-.271-.224-.928 0-.656.08-.944.08-.305.224-.432a.98.98 0 0 1 .64-.208l.528.064v-1.648q0-.368.016-.544.033-.176.16-.384.209-.4 1.232-.4 1.089 0 1.296.592.08.256.08.816v1.568q.705-.064 1.056-.064.369 0 .544.032.192.016.432.144.416.209.416 1.232 0 1.008-.432 1.232-.24.113-.432.144-.175.015-.544.016m10.107.384q0 .975-.496 1.456-.48.465-1.072.464h-3.792q0 .449.528.752a2.1 2.1 0 0 0 1.056.304q.928 0 1.456-.192l.176-.064q.385-.176.64-.176.513 0 .88.72.208.432.208.736 0 1.425-3.408 1.424-1.184 0-2.112-.4-.911-.416-1.424-1.088-1.008-1.296-1.008-2.896 0-2.016 1.296-3.216 1.312-1.215 3.264-1.216 2.224 0 3.264 1.568.544.832.544 1.824m-3.376.464q.608 0 .608-.512a.71.71 0 0 0-.288-.592q-.272-.224-.8-.224-.511 0-1.024.432-.512.416-.512.896zm4.484 4q-.304-.192-.304-.608t.608-1.264q.177-.272.56-.272.4 0 1.072.4.673.384 1.216.384.976 0 .976-.384 0-.304-1.072-.448-1.007-.144-2-.752-.464-.287-.768-.896-.304-.624-.304-1.472 0-2.528 3.472-2.528 1.137 0 2.336.544.56.256.56.64 0 .383-.352.944-.351.56-.72.56-.192 0-.72-.24a2.6 2.6 0 0 0-1.12-.24q-.944 0-.944.352 0 .48 1.088.624a6 6 0 0 1 2.048.608q.465.224.768.784.32.544.32 1.376 0 .833-.32 1.424-.303.576-.864.864-1.023.495-2.576.496-1.535 0-2.96-.896"/></g><defs><clipPath id="b"><path fill="#fff" d="M8 0h33v48H8z"/></clipPath><clipPath id="c"><path fill="#fff" d="M49 14.5h88v19H49z"/></clipPath></defs></svg>