<svg xmlns="http://www.w3.org/2000/svg" width="99" height="48" fill="none" viewBox="0 0 99 48"><mask id="a" fill="#fff"><path d="M0 24C0 10.745 10.745 0 24 0h51c13.255 0 24 10.745 24 24S88.255 48 75 48H24C10.745 48 0 37.255 0 24"/></mask><path fill="#FAFAFA" d="M0 24C0 10.745 10.745 0 24 0h51c13.255 0 24 10.745 24 24S88.255 48 75 48H24C10.745 48 0 37.255 0 24"/><path fill="#9D9D9D" d="M24 0v2h51v-4H24zm51 48v-2H24v4h51zm-51 0v-2C11.85 46 2 36.15 2 24h-4c0 14.36 11.64 26 26 26zm75-24h-2c0 12.15-9.85 22-22 22v4c14.36 0 26-11.64 26-26zM75 0v2c12.15 0 22 9.85 22 22h4C101 9.64 89.36-2 75-2zM24 0v-2C9.64-2-2 9.64-2 24h4C2 11.85 11.85 2 24 2z" mask="url(#a)"/><g clip-path="url(#b)"><path fill="#55585B" fill-rule="evenodd" d="M22.963 12.807a7.13 7.13 0 0 1 4.602.217l1.47.585q.258.102.489.234.009-.4.054-.802l.12-1.053a2.76 2.76 0 0 0-.157-1.263 3 3 0 0 0-.715-1.097 3.4 3.4 0 0 0-1.151-.745 3.8 3.8 0 0 0-1.39-.263c-.479 0-.953.09-1.39.263-.438.174-.83.427-1.152.745a3 3 0 0 0-.715 1.097 2.76 2.76 0 0 0-.156 1.263zm7.717 5.798a3.6 3.6 0 0 1-1.006.921l-4.103 2.568c-.28.176-.6.295-.936.35a2.7 2.7 0 0 1-1.014-.03 2.5 2.5 0 0 1-.907-.405 2.2 2.2 0 0 1-.637-.706l-.547-.979-2.356 4.736a5.85 5.85 0 0 0-.516 3.74c1.094.71 1.927 1.74 2.303 2.965l.293.96c1.237.89 2.81 1.423 4.524 1.423h1.285q.126 0 .25-.005l.726-2.378c.412-1.33 1.373-2.472 2.689-3.194a6.72 6.72 0 0 1 4.403-.698q.078-.495.078-1.006c0-1.52-.53-3-1.516-4.234l-2.004-2.505q-.575-.723-1.009-1.523m7.716 10.926a9.4 9.4 0 0 0 .19-4.556 9.94 9.94 0 0 0-1.99-4.198l-2-2.504c-1.138-1.426-1.658-3.172-1.464-4.915l.119-1.053a5.64 5.64 0 0 0-.321-2.575 6.15 6.15 0 0 0-1.46-2.239 7 7 0 0 0-2.35-1.517 7.7 7.7 0 0 0-2.835-.537 7.7 7.7 0 0 0-2.835.537 7 7 0 0 0-2.35 1.517 6.15 6.15 0 0 0-1.46 2.239 5.64 5.64 0 0 0-.32 2.575l.19 1.702a7.1 7.1 0 0 1-.71 3.945l-2.889 5.813a8.7 8.7 0 0 0-.928 4c-1.582.021-3.09.597-4.203 1.602s-1.74 2.36-1.749 3.774c0 2.468 1.88 4.618 4.555 5.218l4.57 1.02a3.66 3.66 0 0 0 2.707-.444 3.1 3.1 0 0 0 .958-.922c.242-.366.393-.773.444-1.195 1.102.338 2.285.521 3.513.521h1.073c.243.735.795 1.358 1.54 1.738a3.67 3.67 0 0 0 2.456.3l4.567-1.02c1.3-.292 2.453-.963 3.279-1.908.825-.944 1.274-2.107 1.276-3.305 0-1.39-.595-2.656-1.57-3.611M26.118 15.94l1.468.585c.071.028.095.053.104.068q.03.034.043.113a.2.2 0 0 1-.017.12c-.009.016-.023.046-.088.084l-2.974 1.862-1.307-2.334a.25.25 0 0 1-.02-.197.28.28 0 0 1 .134-.156 3.18 3.18 0 0 1 2.654-.145M14.452 35.26l4.157.93-1.095-3.586a2.28 2.28 0 0 0-.908-1.19 2.73 2.73 0 0 0-1.526-.459c-1.376 0-2.478 1-2.478 2.185 0 1.003.76 1.877 1.85 2.12m15.94.93 4.157-.93c1.088-.243 1.851-1.117 1.851-2.12 0-1.185-1.101-2.185-2.475-2.185-1.147 0-2.149.69-2.441 1.65z" clip-rule="evenodd"/></g><g clip-path="url(#c)"><path fill="#55585B" d="M52.472 27.132h4.352q.528 0 .768.128a.58.58 0 0 1 .32.368q.08.256.08.688 0 .415-.08.672-.08.256-.272.352-.304.16-.832.16h-5.76q-1.12 0-1.312-.608-.096-.256-.096-.816V19.18q0-.368.016-.544.032-.192.16-.432.224-.432 1.248-.432 1.12 0 1.328.592.08.272.08.832zm6.559-4.656q0-.368.016-.544a1.7 1.7 0 0 1 .144-.432q.223-.416 1.248-.416.767 0 1.088.272.271.225.288.688.015.16.016.464v5.6q0 .368-.032.56-.017.176-.144.416-.209.416-1.232.416-1.008 0-1.232-.432a1.8 1.8 0 0 1-.144-.416 7 7 0 0 1-.016-.56zm2.624-2.96q-.113.224-.416.32-.304.096-.816.096-.497 0-.8-.096a.7.7 0 0 1-.432-.336 1.8 1.8 0 0 1-.144-.416 7 7 0 0 1-.016-.56q0-.368.016-.544.032-.192.144-.416.223-.432 1.248-.432 1.008 0 1.216.432.128.24.144.432.032.176.032.544t-.032.56q-.017.176-.144.416m6.142 1.552q1.6 0 2.656 1.232 1.072 1.216 1.072 2.976v2.816q0 .368-.032.56-.016.175-.128.4-.225.432-1.248.432-1.137 0-1.312-.592-.096-.271-.096-.816V25.26q0-.656-.384-1.024-.369-.368-1.008-.368-.624 0-1.024.384-.384.384-.384 1.008v2.832q0 .368-.032.56-.016.175-.144.4-.209.432-1.232.432-1.008 0-1.232-.432a1.8 1.8 0 0 1-.144-.416 7 7 0 0 1-.016-.56v-5.664q0-.352.016-.528.031-.192.16-.416.224-.4 1.232-.4.975 0 1.2.368.16.272.16.656.063-.112.288-.32t.432-.336a2.1 2.1 0 0 1 1.2-.368m8.759 8.4q-1.617 0-2.688-1.216-1.056-1.232-1.056-2.992v-2.8q0-.384.016-.56a1.8 1.8 0 0 1 .144-.416q.224-.432 1.248-.432 1.12 0 1.312.608.096.256.096.816v2.8q0 .656.368 1.024.384.368 1.008.368.64 0 1.024-.384.4-.384.4-1.008v-2.832q0-.368.016-.544.032-.192.16-.432.209-.416 1.232-.416 1.007 0 1.232.432.112.24.128.432.032.176.032.544v5.664q0 .352-.032.544-.016.175-.144.4-.24.416-1.232.416-.975 0-1.2-.384-.16-.272-.16-.656a1.6 1.6 0 0 1-.288.32q-.224.208-.432.352a2.14 2.14 0 0 1-1.184.352m11.799-4.192 1.776 1.792q.576.576.576.992 0 .4-.576.976-.576.56-.976.56t-.976-.576l-1.76-1.776-1.776 1.776q-.576.576-.976.576-.384 0-.976-.56-.576-.576-.576-.976 0-.416.576-.992l1.776-1.792-1.776-1.792q-.576-.576-.576-.976 0-.416.576-.992.592-.576.976-.576.4 0 .976.576l1.776 1.792 1.76-1.792q.576-.576.976-.576t.976.576.576.992q0 .4-.576.976z"/></g><defs><clipPath id="b"><path fill="#fff" d="M8 0h33v48H8z"/></clipPath><clipPath id="c"><path fill="#fff" d="M49 14.5h42v19H49z"/></clipPath></defs></svg>