<svg xmlns="http://www.w3.org/2000/svg" width="86" height="48" fill="none" viewBox="0 0 86 48"><mask id="a" fill="#fff"><path d="M0 24C0 10.745 10.745 0 24 0h38c13.255 0 24 10.745 24 24S75.255 48 62 48H24C10.745 48 0 37.255 0 24"/></mask><path fill="#DAD3C8" d="M0 24C0 10.745 10.745 0 24 0h38c13.255 0 24 10.745 24 24S75.255 48 62 48H24C10.745 48 0 37.255 0 24"/><path fill="#5C5B58" d="M24 0v2h38v-4H24zm38 48v-2H24v4h38zm-38 0v-2C11.85 46 2 36.15 2 24h-4c0 14.36 11.64 26 26 26zm62-24h-2c0 12.15-9.85 22-22 22v4c14.36 0 26-11.64 26-26zM62 0v2c12.15 0 22 9.85 22 22h4C88 9.64 76.36-2 62-2zM24 0v-2C9.64-2-2 9.64-2 24h4C2 11.85 11.85 2 24 2z" mask="url(#a)"/><g clip-path="url(#b)"><path fill="#C5B9AD" stroke="#4A4741" stroke-width="1.333" d="M22.334 13.894a12.272 12.272 0 1 0 0 24.544 12.272 12.272 0 0 0 0-24.544Zm4.332 11.55a3.61 3.61 0 1 1 0-7.22 3.61 3.61 0 0 1 0 7.22Zm8.662-15.881a3.61 3.61 0 1 0 0 7.218 3.61 3.61 0 0 0 0-7.218Z"/></g><g clip-path="url(#c)"><path fill="#515352" d="M52.472 27.132h4.352q.528 0 .768.128a.58.58 0 0 1 .32.368q.08.256.08.688 0 .415-.08.672-.08.256-.272.352-.304.16-.832.16h-5.76q-1.12 0-1.312-.608-.096-.256-.096-.816V19.18q0-.368.016-.544.032-.192.16-.432.224-.432 1.248-.432 1.12 0 1.328.592.08.272.08.832zm9.99 2.336q-1.615 0-2.688-1.216-1.056-1.232-1.056-2.992v-2.8q0-.384.016-.56.032-.176.144-.416.225-.432 1.248-.432 1.12 0 1.312.608.096.256.096.816v2.8q0 .656.368 1.024.384.368 1.008.368.64 0 1.024-.384.4-.384.4-1.008v-2.832q0-.368.016-.544.033-.192.16-.432.209-.416 1.232-.416 1.008 0 1.232.432.112.24.128.432.032.176.032.544v5.664q0 .352-.032.544-.016.175-.144.4-.24.416-1.232.416-.975 0-1.2-.384-.16-.272-.16-.656a1.6 1.6 0 0 1-.288.32q-.224.208-.432.352a2.14 2.14 0 0 1-1.184.352m11.431-7.504q.097-.896 1.264-.896.624 0 .928.096t.416.336q.129.24.144.432.032.176.032.544v5.6q0 .368-.032.56-.015.176-.128.416-.224.416-1.104.416-.864 0-1.168-.208-.288-.225-.336-.64-.591.848-1.984.848-1.375 0-2.56-1.264t-1.184-2.928q0-1.68 1.184-2.928 1.2-1.264 2.624-1.264.545 0 .992.192.449.192.624.368.177.16.288.32m-2.912 3.328q0 .528.416.96.417.416 1.008.416.592 0 .976-.432.4-.432.4-.944 0-.528-.384-.976-.368-.448-1.008-.448-.624 0-1.024.448-.384.448-.384.976"/></g><defs><clipPath id="b"><path fill="#fff" d="M8 0h33v48H8z"/></clipPath><clipPath id="c"><path fill="#fff" d="M49 14.5h29v19H49z"/></clipPath></defs></svg>