<svg xmlns="http://www.w3.org/2000/svg" width="193" height="48" fill="none" viewBox="0 0 193 48"><mask id="a" fill="#fff"><path d="M0 24C0 10.745 10.745 0 24 0h145c13.255 0 24 10.745 24 24s-10.745 24-24 24H24C10.745 48 0 37.255 0 24"/></mask><path fill="#DBC5FF" d="M0 24C0 10.745 10.745 0 24 0h145c13.255 0 24 10.745 24 24s-10.745 24-24 24H24C10.745 48 0 37.255 0 24"/><path fill="#6E7AFF" d="M24 0v2h145v-4H24zm145 48v-2H24v4h145zM24 48v-2C11.85 46 2 36.15 2 24h-4c0 14.36 11.64 26 26 26zm169-24h-2c0 12.15-9.85 22-22 22v4c14.359 0 26-11.64 26-26zM169 0v2c12.15 0 22 9.85 22 22h4c0-14.36-11.641-26-26-26zM24 0v-2C9.64-2-2 9.64-2 24h4C2 11.85 11.85 2 24 2z" mask="url(#a)"/><g clip-path="url(#b)"><path fill="#3A43FF" stroke="#3A43FF" stroke-width="1.333" d="M33.892 25.436a2.987 2.987 0 0 0 2.983-2.983 2.987 2.987 0 0 0-2.983-2.983 2.98 2.98 0 0 0-2.8 1.989h-5.738l7.259-7.26c.39.186.82.299 1.279.299a2.987 2.987 0 0 0 2.983-2.983 2.987 2.987 0 0 0-2.983-2.984 2.987 2.987 0 0 0-2.984 2.983c0 .46.114.89.299 1.278l-8.254 8.255v-6.55c0-1.095.892-1.988 1.989-1.988h1.989V10.52h-1.989c-1.193 0-2.253.54-2.983 1.374a3.96 3.96 0 0 0-2.984-1.374h-.994c-4.934 0-8.95 4.015-8.95 8.95v5.966c0 4.936 4.016 8.95 8.95 8.95h.994a3.95 3.95 0 0 0 2.984-1.374 3.95 3.95 0 0 0 2.983 1.374h1.989v-1.989h-1.989a1.99 1.99 0 0 1-1.989-1.988v-6.55l8.254 8.255a2.95 2.95 0 0 0-.299 1.278 2.986 2.986 0 0 0 2.984 2.983 2.986 2.986 0 0 0 2.983-2.983 2.986 2.986 0 0 0-2.983-2.984 2.95 2.95 0 0 0-1.278.3l-7.26-7.26h5.738a2.98 2.98 0 0 0 2.8 1.988Zm0-3.977a.994.994 0 1 1 0 1.989.994.994 0 0 1 0-1.99Zm0-10.939a.995.995 0 0 1 0 1.989.994.994 0 1 1 0-1.989Zm-12.928 7.955h-1.989v1.99h1.99v3.977h-1.99a2.987 2.987 0 0 0-2.983 2.983v1.99h1.989v-1.99a.994.994 0 0 1 .994-.994h1.99v3.977a1.99 1.99 0 0 1-1.99 1.99h-.994c-3.5 0-6.396-2.6-6.881-5.967h1.909v-1.989H11.02v-3.978h2.983a2.987 2.987 0 0 0 2.984-2.983v-1.989h-1.99v1.989a.994.994 0 0 1-.994.994H11.1c.485-3.368 3.38-5.966 6.881-5.966h.994c1.097 0 1.99.893 1.99 1.989zm13.922 14.917a.996.996 0 0 1-1.989 0c0-.548.447-.995.995-.995s.994.447.994.995Z"/></g><g clip-path="url(#c)"><path fill="#1823ED" d="M62.104 18.22q.128.24.144.432.032.192.032.56v8.88q0 1.104-.608 1.296a2.6 2.6 0 0 1-.768.096q-.465 0-.736-.08a1.3 1.3 0 0 1-.416-.192.7.7 0 0 1-.224-.32q-.08-.272-.08-.832V22.7q-.4.496-1.168 1.584a74 74 0 0 1-1.264 1.728q-.08.096-.4.288a1.3 1.3 0 0 1-.672.176q-.352 0-.656-.16a1.6 1.6 0 0 1-.416-.336l-.128-.176a60 60 0 0 1-1.264-1.696q-.944-1.312-1.024-1.408v5.392q0 .368-.032.56-.016.175-.144.4-.24.432-1.248.432-.975 0-1.216-.432a1.3 1.3 0 0 1-.16-.416 8 8 0 0 1-.016-.576v-8.88q0-.368.016-.544.032-.192.16-.432.24-.416 1.248-.416.432 0 .736.112.32.096.416.208l.096.096 3.632 4.768q2.72-3.6 3.632-4.752.272-.432 1.28-.432 1.025 0 1.248.432m6.93 3.744q.096-.896 1.264-.896.624 0 .928.096t.416.336q.127.24.144.432.032.176.032.544v5.6q0 .368-.032.56-.015.176-.128.416-.224.416-1.104.416-.864 0-1.168-.208-.288-.225-.336-.64-.592.848-1.984.848-1.376 0-2.56-1.264t-1.184-2.928q0-1.68 1.184-2.928 1.2-1.264 2.624-1.264.544 0 .992.192.449.192.624.368.175.16.288.32m-2.912 3.328q0 .528.416.96.415.416 1.008.416.591 0 .976-.432.4-.432.4-.944 0-.528-.384-.976-.367-.448-1.008-.448-.624 0-1.024.448-.384.448-.384.976m9.611 0q0 .672.448 1.056.449.368.944.368.512 0 .944-.288.449-.304.72-.304.48 0 1.168.848.368.465.368.832 0 .608-.88 1.136-.912.64-2.24.64-1.488 0-2.864-1.072-.655-.512-1.072-1.36a4.3 4.3 0 0 1-.416-1.888q0-1.04.416-1.872.416-.848 1.072-1.36 1.329-1.056 2.832-1.056.609 0 1.184.176.576.16.848.32l.256.16q.288.192.448.304.416.32.416.736 0 .4-.336.912-.576.88-1.104.88-.304 0-.864-.352-.288-.272-.832-.272-.528 0-.992.384-.465.384-.464 1.072M85.937 21.1q1.6 0 2.656 1.216 1.072 1.216 1.072 2.976v2.816q0 .368-.032.56a1.1 1.1 0 0 1-.144.416q-.209.416-1.232.416-.975 0-1.216-.416a1.5 1.5 0 0 1-.16-.432 8 8 0 0 1-.016-.576v-2.8q0-.656-.368-1.024t-.944-.368q-.56 0-.992.352-.432.336-.496.768v3.104q0 .368-.032.56a1.1 1.1 0 0 1-.144.416q-.209.416-1.232.416-1.008 0-1.232-.432a1.8 1.8 0 0 1-.144-.416 7 7 0 0 1-.016-.56v-9.568q0-.368.016-.544.032-.192.144-.416.224-.432 1.248-.432 1.008 0 1.216.432.127.24.144.432.032.176.032.544v3.536q.8-.975 1.872-.976m5.016 1.376q0-.368.016-.544.03-.192.144-.432.223-.416 1.248-.416.767 0 1.087.272.273.225.289.688.016.16.016.464v5.6q0 .368-.032.56a1.1 1.1 0 0 1-.145.416q-.208.416-1.231.416-1.008 0-1.233-.432a1.8 1.8 0 0 1-.143-.416 7 7 0 0 1-.016-.56zm2.623-2.96q-.111.224-.415.32t-.817.096q-.495 0-.8-.096a.7.7 0 0 1-.431-.336 1.8 1.8 0 0 1-.144-.416 7 7 0 0 1-.016-.56q0-.368.016-.544.03-.192.144-.416.223-.432 1.248-.432 1.007 0 1.215.432.129.24.145.432.03.176.031.544 0 .368-.031.56a1.1 1.1 0 0 1-.145.416m6.143 1.552q1.6 0 2.656 1.232 1.072 1.216 1.072 2.976v2.816q0 .368-.032.56a1.2 1.2 0 0 1-.128.4q-.225.432-1.248.432-1.137 0-1.312-.592-.096-.271-.096-.816V25.26q0-.656-.384-1.024-.369-.368-1.008-.368-.624 0-1.024.384-.384.384-.384 1.008v2.832q0 .368-.032.56-.016.175-.144.4-.209.432-1.232.432-1.008 0-1.232-.432a1.8 1.8 0 0 1-.144-.416 7 7 0 0 1-.016-.56v-5.664q0-.352.016-.528.031-.192.16-.416.224-.4 1.232-.4.975 0 1.2.368.16.272.16.656.063-.112.288-.32t.432-.336a2.1 2.1 0 0 1 1.2-.368m13.143 3.216q0 .975-.496 1.456-.48.465-1.072.464h-3.792q0 .449.528.752a2.1 2.1 0 0 0 1.056.304q.927 0 1.456-.192l.176-.064q.384-.176.64-.176.511 0 .88.72.208.432.208.736 0 1.425-3.408 1.424-1.185 0-2.112-.4-.912-.416-1.424-1.088-1.008-1.296-1.008-2.896 0-2.016 1.296-3.216 1.311-1.215 3.264-1.216 2.223 0 3.264 1.568a3.27 3.27 0 0 1 .544 1.824m-3.376.464q.608 0 .608-.512a.71.71 0 0 0-.288-.592q-.272-.224-.8-.224-.513 0-1.024.432-.513.416-.512.896zm11.299 2.384h4.352q.528 0 .768.128.24.112.32.368t.08.688q0 .415-.08.672-.08.256-.272.352-.304.16-.832.16h-5.76q-1.12 0-1.312-.608-.096-.256-.096-.816V19.18q0-.368.016-.544.031-.192.16-.432.223-.432 1.248-.432 1.12 0 1.328.592.08.272.08.832zm14.046-2.848q0 .975-.496 1.456-.48.465-1.072.464h-3.792q0 .449.528.752a2.1 2.1 0 0 0 1.056.304q.928 0 1.456-.192l.176-.064q.384-.176.64-.176.511 0 .88.72.208.432.208.736 0 1.425-3.408 1.424-1.185 0-2.112-.4-.912-.416-1.424-1.088-1.008-1.296-1.008-2.896 0-2.016 1.296-3.216 1.311-1.215 3.264-1.216 2.223 0 3.263 1.568.545.832.545 1.824m-3.376.464q.608 0 .608-.512a.71.71 0 0 0-.288-.592q-.273-.224-.8-.224-.513 0-1.024.432-.512.416-.512.896zm9.891-2.784q.096-.896 1.264-.896.625 0 .928.096.305.096.416.336.129.24.144.432.033.176.032.544v5.6q0 .368-.032.56a1.3 1.3 0 0 1-.128.416q-.224.416-1.104.416-.864 0-1.168-.208-.288-.225-.336-.64-.591.848-1.984.848-1.375 0-2.56-1.264-1.184-1.264-1.184-2.928 0-1.68 1.184-2.928 1.2-1.264 2.624-1.264.545 0 .992.192.448.192.624.368.177.16.288.32m-2.912 3.328q0 .528.416.96.417.416 1.008.416.592 0 .976-.432.4-.432.4-.944 0-.528-.384-.976-.368-.448-1.008-.448-.624 0-1.024.448-.384.448-.384.976m12.7-4.128q.303.096.496.336.208.225.208.736 0 .512-.304 1.12t-.88.608a1.3 1.3 0 0 1-.56-.128q-.256-.128-.688-.128t-.816.304q-.368.304-.368.736v3.36q0 .368-.032.56a1.2 1.2 0 0 1-.144.416q-.24.416-1.248.416-.768 0-1.104-.272-.256-.225-.288-.688v-6.08q0-.368.016-.544.031-.192.144-.416.224-.432 1.248-.432.96 0 1.2.368.176.256.176.528.08-.112.224-.272.16-.16.656-.432.495-.272.864-.272.384 0 .64.048.255.032.56.128m6.272-.096q1.6 0 2.656 1.232 1.072 1.216 1.072 2.976v2.816q0 .368-.032.56-.016.175-.128.4-.224.432-1.248.432-1.136 0-1.312-.592-.096-.271-.096-.816V25.26q0-.656-.384-1.024-.367-.368-1.008-.368-.624 0-1.024.384-.384.384-.384 1.008v2.832q0 .368-.032.56-.017.175-.144.4-.208.432-1.232.432-1.008 0-1.232-.432a1.7 1.7 0 0 1-.144-.416 7 7 0 0 1-.016-.56v-5.664q0-.352.016-.528.032-.192.16-.416.224-.4 1.232-.4.976 0 1.2.368.16.272.16.656.065-.112.288-.32a3 3 0 0 1 .432-.336 2.1 2.1 0 0 1 1.2-.368m5.015 1.408q0-.368.016-.544a1.8 1.8 0 0 1 .144-.432q.225-.416 1.248-.416.768 0 1.088.272.273.225.288.688.016.16.016.464v5.6q0 .368-.032.56-.015.176-.144.416-.207.416-1.232.416-1.007 0-1.232-.432a1.8 1.8 0 0 1-.144-.416 7 7 0 0 1-.016-.56zm2.624-2.96q-.111.224-.416.32-.303.096-.816.096-.495 0-.8-.096a.7.7 0 0 1-.432-.336 1.8 1.8 0 0 1-.144-.416 8 8 0 0 1-.016-.56q0-.368.016-.544.033-.192.144-.416.225-.432 1.248-.432 1.008 0 1.216.432.129.24.144.432.032.176.032.544t-.032.56q-.015.176-.144.416m6.142 1.552q1.6 0 2.656 1.232 1.072 1.216 1.072 2.976v2.816q0 .368-.032.56-.015.175-.128.4-.224.432-1.248.432-1.135 0-1.312-.592-.096-.271-.096-.816V25.26q0-.656-.384-1.024-.368-.368-1.008-.368-.624 0-1.024.384-.384.384-.384 1.008v2.832q0 .368-.032.56a1 1 0 0 1-.144.4q-.207.432-1.232.432-1.007 0-1.232-.432a1.8 1.8 0 0 1-.144-.416 8 8 0 0 1-.016-.56v-5.664q0-.352.016-.528.033-.192.16-.416.224-.4 1.232-.4.977 0 1.2.368.16.272.16.656.065-.112.288-.32.225-.208.432-.336a2.1 2.1 0 0 1 1.2-.368m10.36 7.376q-.609.8-1.936.8-1.329 0-2.496-1.216-1.152-1.232-1.152-2.864t1.168-2.864q1.167-1.232 2.56-1.232.543 0 .992.208.447.192.608.368.176.16.272.304.048-.448.32-.672.288-.24.912-.24t.912.096a.64.64 0 0 1 .4.336q.128.225.144.4.032.176.032.544v6.624q0 1.84-1.28 2.96-1.281 1.136-2.88 1.136a4.84 4.84 0 0 1-2.32-.592q-1.104-.592-1.104-1.072 0-.624.48-1.104.303-.336.464-.464a.66.66 0 0 1 .4-.128q.224 0 .464.192.768.592 1.664.592.608 0 .992-.48t.384-1.152zm-2.848-3.264q0 .511.4.928.416.416.992.416.591 0 .976-.416.384-.432.384-.928 0-.512-.368-.944-.369-.448-.992-.448-.624 0-1.008.432a1.4 1.4 0 0 0-.384.96"/></g><defs><clipPath id="b"><path fill="#fff" d="M8 0h33v48H8z"/></clipPath><clipPath id="c"><path fill="#fff" d="M49 14.5h136v19H49z"/></clipPath></defs></svg>