<svg xmlns="http://www.w3.org/2000/svg" width="98" height="48" fill="none" viewBox="0 0 98 48"><mask id="a" fill="#fff"><path d="M0 24C0 10.745 10.745 0 24 0h50c13.255 0 24 10.745 24 24S87.255 48 74 48H24C10.745 48 0 37.255 0 24"/></mask><path fill="#DDBEFF" d="M0 24C0 10.745 10.745 0 24 0h50c13.255 0 24 10.745 24 24S87.255 48 74 48H24C10.745 48 0 37.255 0 24"/><path fill="#A465E8" d="M24 0v2h50v-4H24zm50 48v-2H24v4h50zm-50 0v-2C11.85 46 2 36.15 2 24h-4c0 14.36 11.64 26 26 26zm74-24h-2c0 12.15-9.85 22-22 22v4c14.36 0 26-11.64 26-26zM74 0v2c12.15 0 22 9.85 22 22h4C100 9.64 88.36-2 74-2zM24 0v-2C9.64-2-2 9.64-2 24h4C2 11.85 11.85 2 24 2z" mask="url(#a)"/><g clip-path="url(#b)"><path fill="#7241E4" stroke="#7241E4" stroke-width="1.333" d="M26.208 14.1c-.334 0-.633.221-.7.542l-3.669 17.494a.64.64 0 0 0 .108.503c.105.147.268.25.453.286l5.068.962a.76.76 0 0 0 .538-.1.68.68 0 0 0 .305-.43l3.667-17.492a.64.64 0 0 0-.108-.503.72.72 0 0 0-.452-.286l-5.07-.962a1 1 0 0 0-.14-.014Zm-7.272.114a.75.75 0 0 0-.375.1.7.7 0 0 0-.263.27l-8.571 16.05a.64.64 0 0 0 .097.741.7.7 0 0 0 .22.16l4.62 2.187a.76.76 0 0 0 .544.035.7.7 0 0 0 .414-.336l8.571-16.048a.64.64 0 0 0-.097-.742.7.7 0 0 0-.22-.161l-4.62-2.184a.8.8 0 0 0-.32-.072Zm14.529.134c-.19 0-.37.07-.505.196a.65.65 0 0 0-.208.475v17.963c0 .37.319.673.712.673h5.17a.74.74 0 0 0 .506-.198.66.66 0 0 0 .21-.475V15.02a.66.66 0 0 0-.211-.474.74.74 0 0 0-.504-.197z"/></g><g clip-path="url(#c)"><path fill="#7241E4" d="M62.104 18.22q.128.24.144.432.032.192.032.56v8.88q0 1.104-.608 1.296a2.6 2.6 0 0 1-.768.096q-.465 0-.736-.08a1.3 1.3 0 0 1-.416-.192.7.7 0 0 1-.224-.32q-.08-.272-.08-.832V22.7q-.4.496-1.168 1.584a74 74 0 0 1-1.264 1.728q-.08.096-.4.288a1.3 1.3 0 0 1-.672.176q-.352 0-.656-.16a1.6 1.6 0 0 1-.416-.336l-.128-.176a60 60 0 0 1-1.264-1.696q-.944-1.312-1.024-1.408v5.392q0 .368-.032.56-.016.175-.144.4-.24.432-1.248.432-.975 0-1.216-.432a1.3 1.3 0 0 1-.16-.416 8 8 0 0 1-.016-.576v-8.88q0-.368.016-.544.032-.192.16-.432.24-.416 1.248-.416.432 0 .736.112.32.096.416.208l.096.096 3.632 4.768q2.72-3.6 3.632-4.752.272-.432 1.28-.432 1.025 0 1.248.432m6.93 3.744q.096-.896 1.264-.896.624 0 .928.096t.416.336q.127.24.144.432.032.176.032.544v5.6q0 .368-.032.56-.015.176-.128.416-.224.416-1.104.416-.864 0-1.168-.208-.288-.225-.336-.64-.592.848-1.984.848-1.376 0-2.56-1.264t-1.184-2.928q0-1.68 1.184-2.928 1.2-1.264 2.624-1.264.544 0 .992.192.449.192.624.368.175.16.288.32m-2.912 3.328q0 .528.416.96.415.416 1.008.416.591 0 .976-.432.4-.432.4-.944 0-.528-.384-.976-.367-.448-1.008-.448-.624 0-1.024.448-.384.448-.384.976m11.931-.016 2.128 1.76q.4.336.496.512.112.176.112.336 0 .384-.496 1.04-.544.672-.96.672-.352 0-.976-.464l-.16-.112a21 21 0 0 1-1.136-1.056q-.768-.768-1.168-1.088v1.232q0 .368-.032.56-.016.176-.144.416-.208.416-1.232.416-1.007 0-1.232-.432a1.8 1.8 0 0 1-.144-.416 7 7 0 0 1-.016-.56v-9.584q0-.368.016-.544a1.7 1.7 0 0 1 .144-.432q.225-.432 1.248-.432.768 0 1.088.272.272.224.288.704.016.144.016.448v5.072q.288-.24.864-.816.592-.576.88-.816l.192-.128q.561-.432.96-.432.4 0 .912.656.528.64.528 1.008t-.592.864zm11.262-.992q0 .975-.496 1.456-.48.465-1.072.464h-3.792q0 .449.528.752a2.1 2.1 0 0 0 1.056.304q.927 0 1.456-.192l.176-.064q.385-.176.64-.176.511 0 .88.72.208.432.208.736 0 1.425-3.408 1.424-1.184 0-2.112-.4-.912-.416-1.424-1.088-1.008-1.296-1.008-2.896 0-2.016 1.296-3.216 1.312-1.215 3.264-1.216 2.224 0 3.264 1.568.544.832.544 1.824m-3.376.464q.608 0 .608-.512a.71.71 0 0 0-.288-.592q-.272-.224-.8-.224-.512 0-1.024.432-.512.416-.512.896z"/></g><defs><clipPath id="b"><path fill="#fff" d="M8 0h33v48H8z"/></clipPath><clipPath id="c"><path fill="#fff" d="M49 14.5h41v19H49z"/></clipPath></defs></svg>