<svg xmlns="http://www.w3.org/2000/svg" width="138" height="48" fill="none" viewBox="0 0 138 48"><mask id="a" fill="#fff"><path d="M0 24C0 10.745 10.745 0 24 0h90c13.255 0 24 10.745 24 24s-10.745 24-24 24H24C10.745 48 0 37.255 0 24"/></mask><path fill="#F4EDDB" d="M0 24C0 10.745 10.745 0 24 0h90c13.255 0 24 10.745 24 24s-10.745 24-24 24H24C10.745 48 0 37.255 0 24"/><path fill="#D1C6B2" d="M24 0v2h90v-4H24zm90 48v-2H24v4h90zm-90 0v-2C11.85 46 2 36.15 2 24h-4c0 14.36 11.64 26 26 26zm114-24h-2c0 12.15-9.85 22-22 22v4c14.359 0 26-11.64 26-26zM114 0v2c12.15 0 22 9.85 22 22h4c0-14.36-11.641-26-26-26zM24 0v-2C9.64-2-2 9.64-2 24h4C2 11.85 11.85 2 24 2z" mask="url(#a)"/><g fill="#BD9C81" clip-path="url(#b)"><path d="m25.7 47.224.025-.004q.026.004.033.037l.035.88-.008.035-.025.034-.214.152-.025.008-.031-.008-.214-.152-.021-.027-.01-.042.035-.882.008-.02q.015-.022.05-.013l.146.074.029.008.04-.008zm.54-.234.03-.003q.03.006.04.045l.071 1.266-.008.03q-.021.026-.06.016l-.415-.19-.016-.017-.01-.024-.038-.887.007-.023.02-.02zm-1.475-.004q.015-.004.03.005l.38.19.02.02.006.025-.037.887-.006.022-.02.017-.415.192-.031.004q-.033-.012-.035-.05l.07-1.266.012-.029a.04.04 0 0 1 .026-.017"/><path fill-rule="evenodd" d="M37.7 13.688c.833 0 1.634.28 2.245.785.61.506.984 1.199 1.047 1.94l.008.22v14.733c0 .743-.314 1.46-.88 2.004-.566.546-1.342.88-2.172.935l-.248.008H11.3a3.53 3.53 0 0 1-2.245-.787c-.61-.505-.984-1.198-1.047-1.939L8 31.367V16.633c0-.743.314-1.46.88-2.005s1.342-.878 2.172-.934l.248-.008zM15.974 19.58H14.6c-.438 0-.857.156-1.167.432s-.483.65-.483 1.042v5.892c0 .391.174.766.483 1.042.31.276.73.432 1.167.432s.857-.156 1.167-.432.483-.65.483-1.042V24.53l1.033 1.66c.143.229.352.42.605.553a1.81 1.81 0 0 0 1.673 0c.254-.133.463-.324.606-.554l1.033-1.66v2.417c0 .391.174.766.483 1.042.31.276.73.432 1.167.432s.857-.156 1.167-.432.483-.65.483-1.042v-5.892c0-.391-.174-.766-.483-1.042a1.76 1.76 0 0 0-1.167-.432h-1.375c-.294 0-.582.07-.836.204a1.57 1.57 0 0 0-.605.554l-1.309 2.102-1.309-2.102a1.57 1.57 0 0 0-.605-.554 1.8 1.8 0 0 0-.836-.204m15.126 0c-.404 0-.794.133-1.096.373a1.43 1.43 0 0 0-.543.928l-.011.173v2.407a1.82 1.82 0 0 0-1.096-.177 1.7 1.7 0 0 0-.972.484 1.4 1.4 0 0 0-.406.926 1.37 1.37 0 0 0 .346.946l.137.138 2.474 2.21c.285.254.663.406 1.064.428a1.8 1.8 0 0 0 1.114-.306l.156-.122 2.475-2.21c.27-.24.438-.558.475-.897a1.35 1.35 0 0 0-.27-.963 1.65 1.65 0 0 0-.893-.592 1.84 1.84 0 0 0-1.11.05l-.194.085v-2.407c0-.391-.174-.766-.483-1.042a1.76 1.76 0 0 0-1.167-.432" clip-rule="evenodd"/></g><g clip-path="url(#c)"><path fill="#3F3D3E" d="M62.104 18.22q.128.24.144.432.032.192.032.56v8.88q0 1.104-.608 1.296a2.6 2.6 0 0 1-.768.096q-.465 0-.736-.08a1.3 1.3 0 0 1-.416-.192.7.7 0 0 1-.224-.32q-.08-.272-.08-.832V22.7q-.4.496-1.168 1.584a74 74 0 0 1-1.264 1.728q-.08.096-.4.288a1.3 1.3 0 0 1-.672.176q-.352 0-.656-.16a1.6 1.6 0 0 1-.416-.336l-.128-.176a60 60 0 0 1-1.264-1.696q-.944-1.312-1.024-1.408v5.392q0 .368-.032.56-.016.175-.144.4-.24.432-1.248.432-.975 0-1.216-.432a1.3 1.3 0 0 1-.16-.416 8 8 0 0 1-.016-.576v-8.88q0-.368.016-.544.032-.192.16-.432.24-.416 1.248-.416.432 0 .736.112.32.096.416.208l.096.096 3.632 4.768q2.72-3.6 3.632-4.752.272-.432 1.28-.432 1.025 0 1.248.432m6.93 3.744q.096-.896 1.264-.896.624 0 .928.096t.416.336q.127.24.144.432.032.176.032.544v5.6q0 .368-.032.56-.015.176-.128.416-.224.416-1.104.416-.864 0-1.168-.208-.288-.225-.336-.64-.592.848-1.984.848-1.376 0-2.56-1.264t-1.184-2.928q0-1.68 1.184-2.928 1.2-1.264 2.624-1.264.544 0 .992.192.449.192.624.368.175.16.288.32m-2.912 3.328q0 .528.416.96.415.416 1.008.416.591 0 .976-.432.4-.432.4-.944 0-.528-.384-.976-.367-.448-1.008-.448-.624 0-1.024.448-.384.448-.384.976m12.7-4.128q.303.096.495.336.208.225.208.736 0 .512-.304 1.12t-.88.608q-.287 0-.56-.128-.256-.128-.688-.128t-.816.304q-.368.304-.368.736v3.36q0 .368-.032.56-.015.176-.144.416-.24.416-1.248.416-.768 0-1.104-.272-.255-.225-.288-.688v-6.08q0-.368.016-.544.033-.192.144-.416.225-.432 1.248-.432.96 0 1.2.368a.92.92 0 0 1 .176.528q.08-.112.224-.272.16-.16.656-.432t.864-.272q.385 0 .64.048.256.032.56.128m6.544 4.112 2.128 1.76q.4.336.496.512.112.176.112.336 0 .384-.496 1.04-.544.672-.96.672-.352 0-.976-.464l-.16-.112a21 21 0 0 1-1.136-1.056q-.769-.768-1.168-1.088v1.232q0 .368-.032.56-.016.176-.144.416-.209.416-1.232.416-1.008 0-1.232-.432a1.8 1.8 0 0 1-.144-.416 7 7 0 0 1-.016-.56v-9.584q0-.368.016-.544a1.7 1.7 0 0 1 .144-.432q.223-.432 1.248-.432.767 0 1.088.272.272.224.288.704.016.144.016.448v5.072q.288-.24.864-.816.592-.576.88-.816l.192-.128q.56-.432.96-.432t.912.656q.528.64.528 1.008t-.592.864zm8.781-7.712a.7.7 0 0 1 .432-.336q.305-.096.8-.096.513 0 .816.096.305.096.416.336.129.24.144.432.032.176.032.544v9.552q0 .368-.032.56-.015.175-.144.4-.24.432-1.36.432-1.104 0-1.232-.784-.672.768-1.872.768-1.44 0-2.624-1.248-1.184-1.264-1.184-2.928 0-1.68 1.184-2.944 1.2-1.264 2.624-1.264 1.185 0 1.84.8v-3.36q0-.368.016-.544.033-.192.144-.416m-2.592 8.688q.417.432 1.008.432.592 0 .976-.432.4-.432.4-.944 0-.528-.384-.976-.368-.448-1.008-.448t-1.024.448a1.4 1.4 0 0 0-.384.96q0 .528.416.96m6.267-.96q0-1.92 1.344-3.168t3.072-1.248 3.056 1.248q1.328 1.232 1.328 3.152 0 1.328-.688 2.368-.689 1.025-1.68 1.52a4.55 4.55 0 0 1-2.032.48q-1.056 0-2.048-.512-.993-.528-1.68-1.536a4.1 4.1 0 0 1-.672-2.304m3.344 1.152q.512.384 1.04.384t1.056-.4.528-1.184-.496-1.168a1.72 1.72 0 0 0-1.072-.384q-.576 0-1.072.4t-.496 1.184q0 .768.512 1.168m16.961-5.312q1.024.448 1.024 1.104 0 .272-.256.88-.257.592-.432 1.04l-1.76 4.288q-.24.704-.8.992a1.4 1.4 0 0 1-.608.112q-.368 0-.72-.272-.336-.288-.448-.576l-.128-.272q-.128-.32-.944-2.496-.16.384-.48 1.264-.304.864-.4 1.088l-.112.288a1.3 1.3 0 0 1-.128.256q-.112.192-.256.336-.384.384-.88.384t-.832-.272q-.336-.288-.448-.576l-2.416-5.888q-.16-.48-.16-.624 0-.64.912-1.008.512-.208.832-.208t.512.144a.8.8 0 0 1 .288.272q.08.128.128.272.272.64 1.136 3.008l.944-2.592q.096-.32.352-.56.464-.465.944-.464.48 0 .816.256.352.255.48.512l.128.272q.8 2.24.944 2.56l.976-2.656q.384-1.024 1.152-1.024.304 0 .64.16m6.592-.064q1.6 0 2.656 1.232 1.072 1.216 1.072 2.976v2.816q0 .368-.032.56a1.2 1.2 0 0 1-.128.4q-.225.432-1.248.432-1.137 0-1.312-.592-.096-.271-.096-.816V25.26q0-.656-.384-1.024-.369-.368-1.008-.368-.624 0-1.024.384-.384.384-.384 1.008v2.832q0 .368-.032.56-.016.175-.144.4-.209.432-1.232.432-1.008 0-1.232-.432a1.7 1.7 0 0 1-.144-.416 7 7 0 0 1-.016-.56v-5.664q0-.352.016-.528.031-.192.16-.416.224-.4 1.232-.4.975 0 1.2.368.16.272.16.656.063-.112.288-.32a3 3 0 0 1 .432-.336 2.1 2.1 0 0 1 1.2-.368"/></g><defs><clipPath id="b"><path fill="#fff" d="M8 0h33v48H8z"/></clipPath><clipPath id="c"><path fill="#fff" d="M49 14.5h81v19H49z"/></clipPath></defs></svg>