<svg xmlns="http://www.w3.org/2000/svg" width="131" height="48" fill="none" viewBox="0 0 131 48"><mask id="a" fill="#fff"><path d="M0 24C0 10.745 10.745 0 24 0h83c13.255 0 24 10.745 24 24s-10.745 24-24 24H24C10.745 48 0 37.255 0 24"/></mask><path fill="#CEF88A" d="M0 24C0 10.745 10.745 0 24 0h83c13.255 0 24 10.745 24 24s-10.745 24-24 24H24C10.745 48 0 37.255 0 24"/><path fill="#9ACD7B" d="M24 0v2h83v-4H24zm83 48v-2H24v4h83zm-83 0v-2C11.85 46 2 36.15 2 24h-4c0 14.36 11.64 26 26 26zm107-24h-2c0 12.15-9.85 22-22 22v4c14.359 0 26-11.64 26-26zM107 0v2c12.15 0 22 9.85 22 22h4c0-14.36-11.641-26-26-26zM24 0v-2C9.64-2-2 9.64-2 24h4C2 11.85 11.85 2 24 2z" mask="url(#a)"/><g clip-path="url(#b)"><path fill="#438C22" d="m24.5 7.061.959-.818a1.3 1.3 0 0 0-.435-.29 1.38 1.38 0 0 0-1.048 0 1.3 1.3 0 0 0-.435.29zm0 31.46-1.021.747c.121.144.277.26.453.34a1.38 1.38 0 0 0 1.136 0c.176-.08.331-.196.453-.34zm1.3 3.629V7.061h-2.6V42.15zm-.279-4.378-7.475-8.859-2.043 1.496 7.476 8.861zM18.62 14.825l6.841-6.946-1.92-1.636-6.836 6.946zm4.921-6.946 6.839 6.946 1.915-1.634-6.836-6.945zm7.413 21.032-7.475 8.861 2.042 1.496 7.475-8.86zm-.574-14.084c1.872 1.903 2.957 4.365 3.062 6.944.105 2.58-.778 5.11-2.49 7.14l2.044 1.498c2.094-2.482 3.172-5.577 3.044-8.73s-1.456-6.162-3.745-8.488zM18.046 28.913c-1.712-2.03-2.595-4.563-2.49-7.142.106-2.58 1.191-5.04 3.064-6.944l-1.915-1.638c-2.29 2.326-3.616 5.334-3.745 8.487-.128 3.153.95 6.247 3.043 8.728z"/></g><g clip-path="url(#c)"><path fill="#438C22" d="M62.104 18.22q.128.24.144.432.032.192.032.56v8.88q0 1.104-.608 1.296a2.6 2.6 0 0 1-.768.096q-.465 0-.736-.08a1.3 1.3 0 0 1-.416-.192.7.7 0 0 1-.224-.32q-.08-.272-.08-.832V22.7q-.4.496-1.168 1.584a74 74 0 0 1-1.264 1.728q-.08.096-.4.288a1.3 1.3 0 0 1-.672.176q-.352 0-.656-.16a1.6 1.6 0 0 1-.416-.336l-.128-.176a60 60 0 0 1-1.264-1.696q-.944-1.312-1.024-1.408v5.392q0 .368-.032.56-.016.175-.144.4-.24.432-1.248.432-.975 0-1.216-.432a1.3 1.3 0 0 1-.16-.416 8 8 0 0 1-.016-.576v-8.88q0-.368.016-.544.032-.192.16-.432.24-.416 1.248-.416.432 0 .736.112.32.096.416.208l.096.096 3.632 4.768q2.72-3.6 3.632-4.752.272-.432 1.28-.432 1.025 0 1.248.432m1.218 7.072q0-1.92 1.344-3.168t3.072-1.248q1.727 0 3.056 1.248 1.328 1.232 1.328 3.152 0 1.328-.688 2.368-.689 1.025-1.68 1.52a4.55 4.55 0 0 1-2.032.48q-1.056 0-2.048-.512-.993-.528-1.68-1.536a4.1 4.1 0 0 1-.672-2.304m3.344 1.152q.512.384 1.04.384t1.056-.4.528-1.184-.496-1.168a1.72 1.72 0 0 0-1.072-.384q-.576 0-1.072.4t-.496 1.184q0 .768.512 1.168m11.178-5.376q1.6 0 2.656 1.232 1.072 1.216 1.072 2.976v2.816q0 .368-.032.56-.017.175-.128.4-.225.432-1.248.432-1.137 0-1.312-.592-.096-.271-.096-.816V25.26q0-.656-.384-1.024-.369-.368-1.008-.368-.624 0-1.024.384-.384.384-.384 1.008v2.832q0 .368-.032.56-.016.175-.144.4-.209.432-1.232.432-1.008 0-1.232-.432a1.8 1.8 0 0 1-.144-.416 7 7 0 0 1-.016-.56v-5.664q0-.352.016-.528.031-.192.16-.416.224-.4 1.232-.4.975 0 1.2.368.16.272.16.656.063-.112.288-.32t.432-.336a2.1 2.1 0 0 1 1.2-.368m10.359 7.376q-.608.8-1.936.8-1.329 0-2.496-1.216-1.152-1.232-1.152-2.864t1.168-2.864 2.56-1.232q.543 0 .992.208.447.192.608.368.176.16.272.304.047-.448.32-.672.288-.24.912-.24t.912.096a.64.64 0 0 1 .4.336q.127.225.144.4.032.176.032.544v6.624q0 1.84-1.28 2.96-1.281 1.136-2.88 1.136-1.215 0-2.32-.592t-1.104-1.072q0-.624.48-1.104.303-.336.464-.464a.66.66 0 0 1 .4-.128q.225 0 .464.192.768.592 1.664.592.608 0 .992-.48t.384-1.152zm-2.848-3.264q0 .511.4.928.416.416.992.416.591 0 .976-.416.384-.432.384-.928 0-.512-.368-.944-.368-.448-.992-.448t-1.008.432a1.4 1.4 0 0 0-.384.96m6.623.112q0-1.92 1.344-3.168t3.072-1.248 3.056 1.248q1.328 1.232 1.328 3.152 0 1.328-.688 2.368-.689 1.025-1.68 1.52a4.55 4.55 0 0 1-2.032.48q-1.055 0-2.048-.512-.992-.528-1.68-1.536a4.1 4.1 0 0 1-.672-2.304m3.344 1.152q.512.384 1.04.384t1.056-.4.528-1.184-.496-1.168a1.7 1.7 0 0 0-1.072-.384q-.576 0-1.072.4t-.496 1.184q0 .768.512 1.168m7.914-8.688 2.96.016q2.32 0 4.08 1.68 1.76 1.665 1.76 4.112 0 2.431-1.728 4.176-1.712 1.744-4.16 1.744h-2.928q-.976 0-1.216-.4-.192-.336-.192-1.024v-8.896q0-.384.016-.56.032-.176.16-.416.224-.432 1.248-.432m2.96 8.896q1.152 0 2.08-.848.928-.864.928-2.16t-.912-2.16q-.895-.88-2.112-.88h-1.536v6.048zm15.234-3.44q.944 1.12.944 2.512-.033 1.6-1.104 2.688-1.056 1.072-2.576 1.072h-4.208q-1.12 0-1.312-.608-.096-.272-.096-.832v-8.88q0-.384.016-.56.031-.176.16-.416.223-.432 1.248-.432h4.032q1.471 0 2.464 1.024 1.04 1.04 1.04 2.496 0 1.056-.608 1.936m-1.888 2.352q0-.384-.096-.608a.54.54 0 0 0-.288-.32q-.32-.128-.896-.128t-.864-.224-.288-.912q0-.705.288-.928.303-.224.992-.224.639 0 .768-.336.048-.176.048-.576t-.272-.56q-.256-.16-.784-.16h-2.24v6.064h2.624q1.008 0 1.008-1.088"/></g><defs><clipPath id="b"><path fill="#fff" d="M8 0h33v48H8z"/></clipPath><clipPath id="c"><path fill="#fff" d="M49 14.5h74v19H49z"/></clipPath></defs></svg>