<svg xmlns="http://www.w3.org/2000/svg" width="87" height="48" fill="none" viewBox="0 0 87 48"><mask id="a" fill="#fff"><path d="M0 24C0 10.745 10.745 0 24 0h39c13.255 0 24 10.745 24 24S76.255 48 63 48H24C10.745 48 0 37.255 0 24"/></mask><path fill="#D2EAFF" d="M0 24C0 10.745 10.745 0 24 0h39c13.255 0 24 10.745 24 24S76.255 48 63 48H24C10.745 48 0 37.255 0 24"/><path fill="#44A4F6" d="M24 0v2h39v-4H24zm39 48v-2H24v4h39zm-39 0v-2C11.85 46 2 36.15 2 24h-4c0 14.36 11.64 26 26 26zm63-24h-2c0 12.15-9.85 22-22 22v4c14.36 0 26-11.64 26-26zM63 0v2c12.15 0 22 9.85 22 22h4C89 9.64 77.36-2 63-2zM24 0v-2C9.64-2-2 9.64-2 24h4C2 11.85 11.85 2 24 2z" mask="url(#a)"/><g clip-path="url(#b)"><path fill="#148BF2" stroke="#188BED" stroke-width="1.333" d="M34.4 31.997a.9.9 0 0 0 .294-.314.96.96 0 0 0 .108-.43l.015-4.987a.96.96 0 0 1 .108-.43.9.9 0 0 1 .295-.314l2.514-1.555a.8.8 0 0 1 .401-.114.8.8 0 0 1 .4.116.9.9 0 0 1 .294.314c.069.132.106.28.107.43v9.067c0 .151-.038.3-.108.431a.84.84 0 0 1-.295.316l-9.496 5.86a.76.76 0 0 1-.796 0l-7.453-4.578a.84.84 0 0 1-.296-.316.9.9 0 0 1-.108-.433v-4.57q0-.01.01-.005.008.002.01-.002v-.01q0-.004.004-.009l6.139-3.787c.004-.003.002-.011-.002-.013h-.004l-.004-.006v-.003l.012-4.48c0-.152-.037-.3-.107-.432a.84.84 0 0 0-.294-.318.76.76 0 0 0-.802 0l-4.561 2.826a.76.76 0 0 1-.8 0l-4.577-2.83a.76.76 0 0 0-.8 0 .83.83 0 0 0-.294.315.9.9 0 0 0-.108.43v8.1a.9.9 0 0 1-.107.43.84.84 0 0 1-.292.316.8.8 0 0 1-.4.116.8.8 0 0 1-.4-.113l-2.54-1.56a.84.84 0 0 1-.296-.316.9.9 0 0 1-.108-.434l.022-14.157a.9.9 0 0 1 .108-.43.83.83 0 0 1 .293-.314.76.76 0 0 1 .8-.002l8.699 5.368a.76.76 0 0 0 .8 0l8.696-5.368a.8.8 0 0 1 .4-.114.8.8 0 0 1 .401.117.9.9 0 0 1 .294.315c.068.132.104.28.106.43v14.16a.9.9 0 0 1-.107.432.84.84 0 0 1-.295.316l-4.554 2.817a.84.84 0 0 0-.295.317.92.92 0 0 0 .001.863.84.84 0 0 0 .298.316l2.512 1.536a.8.8 0 0 0 .397.113.8.8 0 0 0 .4-.115zm.528-12.703c0 .152.037.302.108.433.072.132.175.24.298.316a.76.76 0 0 0 .806-.01l2.408-1.552a.88.88 0 0 0 .39-.739v-3.159a.9.9 0 0 0-.11-.433.84.84 0 0 0-.298-.314.76.76 0 0 0-.806.01l-2.407 1.55a.9.9 0 0 0-.286.314.96.96 0 0 0-.103.425z"/></g><g clip-path="url(#c)"><path fill="#188BED" d="M62.104 18.22q.128.24.144.432.032.192.032.56v8.88q0 1.104-.608 1.296a2.6 2.6 0 0 1-.768.096q-.465 0-.736-.08a1.3 1.3 0 0 1-.416-.192.7.7 0 0 1-.224-.32q-.08-.272-.08-.832V22.7q-.4.496-1.168 1.584a74 74 0 0 1-1.264 1.728q-.08.096-.4.288a1.3 1.3 0 0 1-.672.176q-.352 0-.656-.16a1.6 1.6 0 0 1-.416-.336l-.128-.176a60 60 0 0 1-1.264-1.696q-.944-1.312-1.024-1.408v5.392q0 .368-.032.56-.016.175-.144.4-.24.432-1.248.432-.975 0-1.216-.432a1.3 1.3 0 0 1-.16-.416 8 8 0 0 1-.016-.576v-8.88q0-.368.016-.544.032-.192.16-.432.24-.416 1.248-.416.432 0 .736.112.32.096.416.208l.096.096 3.632 4.768q2.72-3.6 3.632-4.752.272-.432 1.28-.432 1.025 0 1.248.432m9.122-.016a.82.82 0 0 1 .464-.352q.304-.096.752-.096.465 0 .736.08.272.08.416.192a.63.63 0 0 1 .208.336q.096.272.096.832v4.832q0 2.112-1.312 3.84a4.85 4.85 0 0 1-1.648 1.328q-1.008.495-2.24.496a4.84 4.84 0 0 1-2.224-.512 4.65 4.65 0 0 1-1.616-1.344 6.16 6.16 0 0 1-1.296-3.84V19.18q0-.384.016-.56.032-.192.16-.432a.7.7 0 0 1 .432-.336q.304-.096.816-.096.511 0 .816.096.303.096.416.336.192.368.192 1.008v4.8q0 .976.48 1.856.24.448.72.72t1.136.272q1.168 0 1.744-.864t.576-2v-4.896q0-.625.16-.88m3.945.976q0-.368.016-.544.033-.192.16-.432.225-.432 1.248-.432 1.12 0 1.328.592.08.272.08.832v8.896q0 .384-.032.56a1.1 1.1 0 0 1-.144.416q-.224.432-1.248.432-1.12 0-1.312-.608-.096-.256-.096-.816z"/></g><defs><clipPath id="b"><path fill="#fff" d="M8 0h33v48H8z"/></clipPath><clipPath id="c"><path fill="#fff" d="M49 14.5h30v19H49z"/></clipPath></defs></svg>