<svg xmlns="http://www.w3.org/2000/svg" width="113" height="48" fill="none" viewBox="0 0 113 48"><mask id="a" fill="#fff"><path d="M0 24C0 10.745 10.745 0 24 0h65c13.255 0 24 10.745 24 24s-10.745 24-24 24H24C10.745 48 0 37.255 0 24"/></mask><path fill="#92CDFF" d="M0 24C0 10.745 10.745 0 24 0h65c13.255 0 24 10.745 24 24s-10.745 24-24 24H24C10.745 48 0 37.255 0 24"/><path fill="#1379A4" d="M24 0v2h65v-4H24zm65 48v-2H24v4h65zm-65 0v-2C11.85 46 2 36.15 2 24h-4c0 14.36 11.64 26 26 26zm89-24h-2c0 12.15-9.85 22-22 22v4c14.359 0 26-11.64 26-26zM89 0v2c12.15 0 22 9.85 22 22h4c0-14.36-11.641-26-26-26zM24 0v-2C9.64-2-2 9.64-2 24h4C2 11.85 11.85 2 24 2z" mask="url(#a)"/><g clip-path="url(#b)"><path stroke="#00618A" stroke-linecap="round" stroke-linejoin="round" stroke-width="2" d="M25.258 37.027c-1.39-.928-3.238-2.899-4.551-4.992-.758-1.208-2.98-1.175-4.324-.7-.256.09-.378-.011-.586-.186-1.52-1.272-.8-4.394-.042-6.962a2.08 2.08 0 0 0-.623-2.136c-1.508-1.353-2.432-2.508-2.707-3.952-.1-.522-.312-1.03-.673-1.42-3.964-4.278-.24-6.516 3.85-3.995.356.22.761.357 1.179.357h.878c12.404.679 9.973 10.592 13.263 15.651.25.385.664.619 1.105.747 1.485.43 2.705 1.172 3.782 2.01 1.033.802-.153 2.3-1.441 2.527-.675.118-.614.74-.224 1.304 1.054 1.523 3.063 2.224 4.794 3.157m-19.76-21.163h.016"/></g><g clip-path="url(#c)"><path fill="#00618A" d="M62.104 18.22q.128.24.144.432.032.192.032.56v8.88q0 1.104-.608 1.296a2.6 2.6 0 0 1-.768.096q-.465 0-.736-.08a1.3 1.3 0 0 1-.416-.192.7.7 0 0 1-.224-.32q-.08-.272-.08-.832V22.7q-.4.496-1.168 1.584a74 74 0 0 1-1.264 1.728q-.08.096-.4.288a1.3 1.3 0 0 1-.672.176q-.352 0-.656-.16a1.6 1.6 0 0 1-.416-.336l-.128-.176a60 60 0 0 1-1.264-1.696q-.944-1.312-1.024-1.408v5.392q0 .368-.032.56-.016.175-.144.4-.24.432-1.248.432-.975 0-1.216-.432a1.3 1.3 0 0 1-.16-.416 8 8 0 0 1-.016-.576v-8.88q0-.368.016-.544.032-.192.16-.432.24-.416 1.248-.416.432 0 .736.112.32.096.416.208l.096.096 3.632 4.768q2.72-3.6 3.632-4.752.272-.432 1.28-.432 1.025 0 1.248.432m9.298 2.944q.944.416.944 1.008a1.2 1.2 0 0 1-.128.544q-.129.255-.128.272l-4.192 9.376q-.128.304-.224.464a.9.9 0 0 1-.272.304.78.78 0 0 1-.48.144q-.288 0-.848-.24-.944-.416-.944-.992 0-.384 1.536-3.664l-3.184-5.36q-.32-.528-.32-.784 0-.512.864-1.024.543-.32.848-.32t.496.128a.8.8 0 0 1 .272.272q.096.127.88 1.488.8 1.344 1.52 2.512.08-.256.864-1.968.784-1.728.832-1.84.064-.112.192-.272a.68.68 0 0 1 .576-.272q.384 0 .896.224m1.992 6.688q-.416-.511-.416-.912 0-.416.688-1.088.4-.384.848-.384.449 0 1.248.8.225.272.64.528.417.24.768.24 1.488 0 1.488-1.216 0-.368-.416-.608-.4-.255-1.008-.368a9 9 0 0 1-1.312-.352 9 9 0 0 1-1.312-.592q-.607-.336-1.024-1.056-.4-.735-.4-1.76 0-1.408 1.04-2.448 1.056-1.056 2.864-1.056.96 0 1.744.256.8.24 1.104.496l.4.304q.496.464.496.784t-.384.88q-.543.8-1.12.8-.336 0-.832-.32a2 2 0 0 1-.192-.16 2 2 0 0 0-.24-.208q-.336-.208-.864-.208-.512 0-.864.256-.336.24-.336.688 0 .432.4.704.417.272 1.024.368.608.096 1.328.304.72.192 1.328.48t1.008 1.008q.416.704.416 1.744t-.416 1.84q-.416.784-1.088 1.216-1.296.848-2.768.848-.752 0-1.424-.176-.671-.192-1.088-.464-.848-.512-1.184-.992zm19.92-1.536q.736.495 1.056.72.576.432.576.832 0 .384-.48 1.088t-.976.704q-.303 0-.928-.432a12 12 0 0 1-.448-.304q-.368-.256-.576-.384a5.32 5.32 0 0 1-3.344 1.152q-2.48 0-4.192-1.76-1.695-1.76-1.696-4.192 0-1.328.48-2.48.48-1.169 1.28-1.952a6 6 0 0 1 1.84-1.232 5.4 5.4 0 0 1 2.144-.448q2.369 0 4.112 1.712 1.744 1.712 1.744 4.336 0 1.327-.592 2.64m-8.176-2.656q0 1.425.912 2.32.928.88 2.064.88t2.048-.864.912-2.32-.928-2.336q-.912-.88-2.048-.88t-2.048.896q-.912.88-.912 2.304m13.521 3.472h4.353q.528 0 .768.128.24.112.32.368t.08.688q0 .415-.08.672-.08.256-.272.352-.304.16-.832.16h-5.76q-1.12 0-1.312-.608-.097-.256-.097-.816V19.18q0-.368.017-.544.03-.192.16-.432.224-.432 1.247-.432 1.12 0 1.328.592.08.272.08.832z"/></g><defs><clipPath id="b"><path fill="#fff" d="M8 0h33v48H8z"/></clipPath><clipPath id="c"><path fill="#fff" d="M49 14.5h56v19H49z"/></clipPath></defs></svg>