<svg xmlns="http://www.w3.org/2000/svg" width="86" height="48" fill="none" viewBox="0 0 86 48"><mask id="a" fill="#fff"><path d="M0 24C0 10.745 10.745 0 24 0h38c13.255 0 24 10.745 24 24S75.255 48 62 48H24C10.745 48 0 37.255 0 24"/></mask><path fill="#FFCCAC" d="M0 24C0 10.745 10.745 0 24 0h38c13.255 0 24 10.745 24 24S75.255 48 62 48H24C10.745 48 0 37.255 0 24"/><path fill="#FFAA9A" d="M24 0v2h38v-4H24zm38 48v-2H24v4h38zm-38 0v-2C11.85 46 2 36.15 2 24h-4c0 14.36 11.64 26 26 26zm62-24h-2c0 12.15-9.85 22-22 22v4c14.36 0 26-11.64 26-26zM62 0v2c12.15 0 22 9.85 22 22h4C88 9.64 76.36-2 62-2zM24 0v-2C9.64-2-2 9.64-2 24h4C2 11.85 11.85 2 24 2z" mask="url(#a)"/><g clip-path="url(#b)"><path stroke="#ED3818" stroke-width="2" d="M35.899 15.75c-.674 0-1.329.244-1.862.692a3.34 3.34 0 0 0-1.082 1.783h-3.486a2.9 2.9 0 0 0-1.964.781 3.38 3.38 0 0 0-1.034 1.975l-.124.815a1.7 1.7 0 0 1-.516.988 1.44 1.44 0 0 1-.983.39h-1.204a3.33 3.33 0 0 0-1.082-1.783A2.9 2.9 0 0 0 20.7 20.7a2.9 2.9 0 0 0-1.862.69 3.33 3.33 0 0 0-1.082 1.784h-1.71a3.3 3.3 0 0 0-1.238-1.906 2.86 2.86 0 0 0-2.09-.543 2.98 2.98 0 0 0-1.897 1.093 3.47 3.47 0 0 0-.76 2.182c0 .803.27 1.579.76 2.182.489.602 1.163.99 1.898 1.092a2.86 2.86 0 0 0 2.089-.542 3.3 3.3 0 0 0 1.237-1.907h1.711a3.33 3.33 0 0 0 1.082 1.785 2.9 2.9 0 0 0 1.862.692 2.9 2.9 0 0 0 1.862-.692 3.33 3.33 0 0 0 1.082-1.785h1.203c.36-.001.709.137.984.39.275.252.458.602.516.988l.124.814c.118.77.485 1.47 1.034 1.975a2.9 2.9 0 0 0 1.964.782h.446a3.3 3.3 0 0 0 1.237 1.907 2.86 2.86 0 0 0 2.09.543 2.98 2.98 0 0 0 1.897-1.093c.49-.602.76-1.378.76-2.182 0-.803-.27-1.579-.76-2.182a2.98 2.98 0 0 0-1.898-1.092 2.86 2.86 0 0 0-2.09.543 3.3 3.3 0 0 0-1.236 1.907h-.446c-.36 0-.708-.138-.983-.39a1.7 1.7 0 0 1-.516-.99l-.124-.814A3.37 3.37 0 0 0 26.858 24a3.38 3.38 0 0 0 .987-1.933l.125-.813c.059-.386.241-.736.516-.989s.623-.391.983-.39h3.484c.142.598.436 1.14.848 1.566s.925.718 1.482.842a2.8 2.8 0 0 0 1.668-.136 3.07 3.07 0 0 0 1.35-1.075 3.46 3.46 0 0 0 .62-1.686 3.55 3.55 0 0 0-.294-1.788 3.2 3.2 0 0 0-1.121-1.348 2.86 2.86 0 0 0-1.608-.5Zm-.002 1.65c.403 0 .79.174 1.075.483.285.31.445.729.445 1.166 0 .217-.04.432-.116.632s-.188.382-.329.536a1.5 1.5 0 0 1-.493.358 1.42 1.42 0 0 1-1.163 0 1.5 1.5 0 0 1-.494-.358 1.7 1.7 0 0 1-.329-.536 1.77 1.77 0 0 1 0-1.263c.077-.2.19-.382.33-.536.142-.153.31-.274.494-.357s.38-.125.58-.125Zm-22.795 4.95c.2 0 .398.042.582.125q.28.126.494.358c.14.153.253.335.33.535a1.77 1.77 0 0 1 0 1.263c-.077.2-.19.382-.33.536a1.5 1.5 0 0 1-.494.357 1.4 1.4 0 0 1-.582.125 1.46 1.46 0 0 1-1.074-.483A1.72 1.72 0 0 1 11.583 24c0-.438.16-.858.445-1.167s.671-.483 1.074-.483Zm7.6 0c.199 0 .396.043.58.126.185.082.352.204.494.357.14.153.253.335.329.535s.116.415.116.632c0 .437-.16.857-.445 1.166-.285.31-.672.483-1.075.483s-.789-.174-1.074-.483A1.72 1.72 0 0 1 19.183 24c0-.438.16-.858.445-1.167s.67-.483 1.073-.483ZM32.86 27.3c.403 0 .79.174 1.074.483.285.31.445.73.445 1.167s-.16.857-.445 1.166c-.285.31-.671.484-1.074.484-.2 0-.398-.043-.582-.126a1.5 1.5 0 0 1-.494-.357 1.7 1.7 0 0 1-.33-.535 1.77 1.77 0 0 1 0-1.264c.077-.2.189-.382.33-.535a1.5 1.5 0 0 1 .493-.358 1.4 1.4 0 0 1 .583-.125Z"/></g><g clip-path="url(#c)"><path fill="#ED3818" d="M54.328 21.068q1.6 0 2.656 1.232 1.072 1.216 1.072 2.976v2.816q0 .368-.032.56-.015.175-.128.4-.224.432-1.248.432-1.136 0-1.312-.592-.096-.271-.096-.816V25.26q0-.656-.384-1.024-.367-.368-1.008-.368-.624 0-1.024.384-.384.384-.384 1.008v2.832q0 .368-.032.56-.016.175-.144.4-.209.432-1.232.432-1.008 0-1.232-.432a1.8 1.8 0 0 1-.144-.416 7 7 0 0 1-.016-.56v-5.664q0-.352.016-.528.032-.192.16-.416.224-.4 1.232-.4.975 0 1.2.368.16.272.16.656.065-.112.288-.32.224-.208.432-.336a2.1 2.1 0 0 1 1.2-.368m13.287 4.672q0 1.792-1.312 2.896-1.296 1.088-2.944 1.088t-2.96-1.088q-1.296-1.087-1.296-2.896 0-.672.32-1.296.336-.64.656-.928l.336-.304a5 5 0 0 1-.272-.256q-.16-.16-.432-.688a2.6 2.6 0 0 1-.256-1.12q0-1.568 1.184-2.592a4.08 4.08 0 0 1 2.752-1.024q1.568 0 2.72 1.04t1.152 2.656q0 .48-.24.976-.225.495-.464.752l-.24.256q.144.112.352.336.224.208.576.864.368.656.368 1.328m-3.184-4.608q0-.32-.272-.592-.271-.288-.816-.288-.528 0-.784.272a.87.87 0 0 0-.256.608q0 .32.272.608.288.288.8.288.528 0 .784-.288.272-.288.272-.608m-2.128 5.504q.368.384 1.072.384t1.056-.384.352-.816q0-.448-.368-.832-.353-.384-1.056-.384-.688 0-1.056.384-.368.367-.368.816t.368.832m11.04-5.568q1.6 0 2.657 1.232 1.072 1.216 1.072 2.976v2.816q0 .368-.032.56-.017.175-.128.4-.225.432-1.248.432-1.137 0-1.312-.592-.096-.271-.096-.816V25.26q0-.656-.384-1.024-.369-.368-1.008-.368-.624 0-1.024.384-.384.384-.384 1.008v2.832q0 .368-.032.56-.016.175-.144.4-.209.432-1.232.432-1.008 0-1.232-.432a1.8 1.8 0 0 1-.144-.416 7 7 0 0 1-.016-.56v-5.664q0-.352.016-.528.031-.192.16-.416.224-.4 1.232-.4.975 0 1.2.368.16.272.16.656.063-.112.288-.32t.432-.336a2.1 2.1 0 0 1 1.2-.368"/></g><defs><clipPath id="b"><path fill="#fff" d="M8 0h33v48H8z"/></clipPath><clipPath id="c"><path fill="#fff" d="M49 14.5h29v19H49z"/></clipPath></defs></svg>