<svg xmlns="http://www.w3.org/2000/svg" width="160" height="48" fill="none" viewBox="0 0 160 48"><mask id="a" fill="#fff"><path d="M0 24C0 10.745 10.745 0 24 0h112c13.255 0 24 10.745 24 24s-10.745 24-24 24H24C10.745 48 0 37.255 0 24"/></mask><path fill="#FCFF98" d="M0 24C0 10.745 10.745 0 24 0h112c13.255 0 24 10.745 24 24s-10.745 24-24 24H24C10.745 48 0 37.255 0 24"/><path fill="#FFB145" d="M24 0v2h112v-4H24zm112 48v-2H24v4h112zM24 48v-2C11.85 46 2 36.15 2 24h-4c0 14.36 11.64 26 26 26zm136-24h-2c0 12.15-9.85 22-22 22v4c14.359 0 26-11.64 26-26zM136 0v2c12.15 0 22 9.85 22 22h4c0-14.36-11.641-26-26-26zM24 0v-2C9.64-2-2 9.64-2 24h4C2 11.85 11.85 2 24 2z" mask="url(#a)"/><g stroke="#FFCD29" stroke-linecap="round" stroke-linejoin="round" stroke-width="2" clip-path="url(#b)"><path d="M14.6 25.238c4.33-2.476 9.9-2.476 12.374 2.474a6.806 6.806 0 0 1 9.9 6.188"/><path d="M16.023 31.289c6.83-1.881 10.704-8.527 8.662-14.85-.742-2.339-.804-4.814 1.052-4.814 3.984 0 6.187 6.806 6.187 9.9 0 8.044-5.197 14.85-12.98 14.85-2.97 0-6.819 0-6.819-2.475 0-1.856 1.41-1.918 3.898-2.611"/></g><g clip-path="url(#c)"><path fill="#EEB752" d="M57.208 18.268a.8.8 0 0 1 .464-.384q.304-.096.752-.096.465 0 .736.08.287.08.416.192a.63.63 0 0 1 .208.336q.096.256.096.816v8.88q0 .384-.032.56a1.1 1.1 0 0 1-.144.416q-.224.432-1.248.432-.624 0-.864-.096a.93.93 0 0 1-.4-.304q-3.6-4.8-4.736-6.272v5.264q0 .384-.032.56a1.1 1.1 0 0 1-.144.416q-.224.432-1.248.432-.992 0-1.216-.432a1.5 1.5 0 0 1-.16-.432 7 7 0 0 1-.016-.56v-8.928q0-.608.144-.88a.8.8 0 0 1 .464-.384 2.7 2.7 0 0 1 .784-.096q.48 0 .752.096.288.08.4.192.064.047.368.416 3.376 4.592 4.512 6.064v-5.408q0-.608.144-.88m9.42 3.696q.096-.896 1.264-.896.624 0 .928.096.303.096.416.336.127.24.144.432.032.176.032.544v5.6q0 .368-.032.56-.017.176-.128.416-.225.416-1.104.416-.864 0-1.168-.208-.288-.225-.336-.64-.592.848-1.984.848-1.377 0-2.56-1.264t-1.184-2.928q0-1.68 1.184-2.928 1.2-1.264 2.624-1.264.543 0 .992.192.447.192.624.368.176.16.288.32m-2.912 3.328q0 .528.416.96.415.416 1.008.416.591 0 .976-.432.4-.432.4-.944 0-.528-.384-.976-.369-.448-1.008-.448-.624 0-1.024.448-.384.448-.384.976m11.659-4.224q1.6 0 2.656 1.232 1.072 1.216 1.072 2.976v2.816q0 .368-.032.56-.015.175-.128.4-.225.432-1.248.432-1.136 0-1.312-.592-.096-.271-.096-.816V25.26q0-.656-.384-1.024-.369-.368-1.008-.368-.624 0-1.024.384-.384.384-.384 1.008v2.832q0 .368-.032.56-.016.175-.144.4-.209.432-1.232.432-1.008 0-1.232-.432a1.8 1.8 0 0 1-.144-.416 7 7 0 0 1-.016-.56v-5.664q0-.352.016-.528.032-.192.16-.416.225-.4 1.232-.4.975 0 1.2.368.16.272.16.656.064-.112.288-.32t.432-.336a2.1 2.1 0 0 1 1.2-.368m4.775 4.224q0-1.92 1.344-3.168t3.072-1.248q1.727 0 3.056 1.248 1.328 1.232 1.328 3.152 0 1.328-.688 2.368-.689 1.025-1.68 1.52a4.55 4.55 0 0 1-2.032.48q-1.056 0-2.048-.512-.992-.528-1.68-1.536a4.1 4.1 0 0 1-.672-2.304m3.344 1.152q.512.384 1.04.384t1.056-.4.528-1.184-.496-1.168a1.72 1.72 0 0 0-1.072-.384q-.576 0-1.072.4-.495.4-.496 1.184 0 .768.512 1.168m18.889-3.232q.944 1.12.944 2.512-.033 1.6-1.104 2.688-1.056 1.072-2.576 1.072h-4.208q-1.12 0-1.312-.608-.096-.272-.096-.832v-8.88q0-.384.016-.56.031-.176.16-.416.224-.432 1.248-.432h4.032q1.471 0 2.464 1.024 1.04 1.04 1.04 2.496 0 1.056-.608 1.936m-1.888 2.352q0-.384-.096-.608a.54.54 0 0 0-.288-.32q-.32-.128-.896-.128t-.864-.224-.288-.912q0-.705.288-.928.303-.224.992-.224.639 0 .768-.336.048-.176.048-.576t-.272-.56q-.256-.16-.784-.16h-2.24v6.064h2.624q1.008 0 1.008-1.088m9.351-3.6q.097-.896 1.264-.896.624 0 .928.096t.416.336q.129.24.144.432.032.176.032.544v5.6q0 .368-.032.56a1.3 1.3 0 0 1-.128.416q-.224.416-1.104.416-.864 0-1.168-.208-.288-.225-.336-.64-.591.848-1.984.848-1.375 0-2.56-1.264-1.184-1.264-1.184-2.928 0-1.68 1.184-2.928 1.2-1.264 2.624-1.264.545 0 .992.192.448.192.624.368.177.16.288.32m-2.912 3.328q0 .528.416.96.417.416 1.008.416.592 0 .976-.432.4-.432.4-.944 0-.528-.384-.976-.368-.448-1.008-.448-.624 0-1.024.448-.384.448-.384.976m11.66-4.224q1.6 0 2.656 1.232 1.072 1.216 1.072 2.976v2.816q0 .368-.032.56a1.2 1.2 0 0 1-.128.4q-.225.432-1.248.432-1.137 0-1.312-.592-.096-.271-.096-.816V25.26q0-.656-.384-1.024-.369-.368-1.008-.368-.624 0-1.024.384-.384.384-.384 1.008v2.832q0 .368-.032.56-.016.175-.144.4-.209.432-1.232.432-1.008 0-1.232-.432a1.7 1.7 0 0 1-.144-.416 7 7 0 0 1-.016-.56v-5.664q0-.352.016-.528.031-.192.16-.416.224-.4 1.232-.4.975 0 1.2.368.16.272.16.656.063-.112.288-.32a3 3 0 0 1 .432-.336 2.1 2.1 0 0 1 1.2-.368m10.487.896q.096-.896 1.264-.896.624 0 .928.096.303.096.416.336.128.24.144.432.032.176.032.544v5.6q0 .368-.032.56a1.3 1.3 0 0 1-.128.416q-.225.416-1.104.416-.864 0-1.168-.208-.288-.225-.336-.64-.592.848-1.984.848-1.377 0-2.56-1.264-1.185-1.264-1.184-2.928 0-1.68 1.184-2.928 1.2-1.264 2.624-1.264.543 0 .992.192.447.192.624.368.175.16.288.32m-2.912 3.328q0 .528.416.96.416.416 1.008.416t.976-.432q.4-.432.4-.944 0-.528-.384-.976-.369-.448-1.008-.448-.624 0-1.024.448-.384.448-.384.976m11.659-4.224q1.6 0 2.656 1.232 1.072 1.216 1.072 2.976v2.816q0 .368-.032.56-.016.175-.128.4-.224.432-1.248.432-1.136 0-1.312-.592-.096-.271-.096-.816V25.26q0-.656-.384-1.024-.367-.368-1.008-.368-.624 0-1.024.384-.384.384-.384 1.008v2.832q0 .368-.032.56-.016.175-.144.4-.208.432-1.232.432-1.008 0-1.232-.432a1.7 1.7 0 0 1-.144-.416 7 7 0 0 1-.016-.56v-5.664q0-.352.016-.528.032-.192.16-.416.224-.4 1.232-.4.976 0 1.2.368.16.272.16.656.064-.112.288-.32a3 3 0 0 1 .432-.336 2.1 2.1 0 0 1 1.2-.368m10.487.896q.096-.896 1.264-.896.624 0 .928.096t.416.336q.127.24.144.432.032.176.032.544v5.6q0 .368-.032.56a1.3 1.3 0 0 1-.128.416q-.223.416-1.104.416-.864 0-1.168-.208-.288-.225-.336-.64-.592.848-1.984.848-1.376 0-2.56-1.264t-1.184-2.928q0-1.68 1.184-2.928 1.2-1.264 2.624-1.264.544 0 .992.192t.624.368q.175.16.288.32m-2.912 3.328q0 .528.416.96.415.416 1.008.416.592 0 .976-.432.4-.432.4-.944 0-.528-.384-.976-.367-.448-1.008-.448-.624 0-1.024.448-.384.448-.384.976"/></g><defs><clipPath id="b"><path fill="#fff" d="M8 0h33v48H8z"/></clipPath><clipPath id="c"><path fill="#fff" d="M49 14.5h103v19H49z"/></clipPath></defs></svg>