<svg xmlns="http://www.w3.org/2000/svg" width="111" height="48" fill="none" viewBox="0 0 111 48"><mask id="a" fill="#fff"><path d="M0 24C0 10.745 10.745 0 24 0h63c13.255 0 24 10.745 24 24s-10.745 24-24 24H24C10.745 48 0 37.255 0 24"/></mask><path fill="#FFA6AA" d="M0 24C0 10.745 10.745 0 24 0h63c13.255 0 24 10.745 24 24s-10.745 24-24 24H24C10.745 48 0 37.255 0 24"/><path fill="#FF5C90" d="M24 0v2h63v-4H24zm63 48v-2H24v4h63zm-63 0v-2C11.85 46 2 36.15 2 24h-4c0 14.36 11.64 26 26 26zm87-24h-2c0 12.15-9.85 22-22 22v4c14.359 0 26-11.64 26-26zM87 0v2c12.15 0 22 9.85 22 22h4c0-14.36-11.641-26-26-26zM24 0v-2C9.64-2-2 9.64-2 24h4C2 11.85 11.85 2 24 2z" mask="url(#a)"/><g clip-path="url(#b)"><path fill="#E92842" stroke="#E92842" stroke-width="1.333" d="M26.598 8.49c-.265 0-.323.348-.17.564.139.195.233.412.296.645.01.055.02.099.031.154s.021.099.021.154c.032.736-.189.824-.336 1.263a1.85 1.85 0 0 0 .117 1.651c.017.045.074.027.07-.02-.159-1.796 1.198-2.202 1.64-2.759a.4.4 0 0 0 .08-.297c-.058-.493-.458-.83-.782-1.07a1.83 1.83 0 0 0-.967-.285Zm2.773.556c-.118-.047-.236.032-.25.158l-.002.016c-.017.135-.03.272-.071.402l-.063.198c-.024.05-.042.094-.063.146a1 1 0 0 1-.051.099l-.067.102-.019.026c-.042.055-.084.121-.116.165-.05.054-.082.107-.142.15a.01.01 0 0 0-.005.01l-.004.008c-.05.043-.092.086-.143.129-.168.132-.358.23-.537.362-.052.045-.115.077-.157.121a2 2 0 0 0-.147.132l-.148.154c-.042.055-.084.11-.115.165a2 2 0 0 0-.116.176c-.032.066-.053.12-.084.198-.021.066-.053.12-.063.197l-.028.1c-.02.072-.023.148-.046.219-.02.064-.02.133-.026.2q-.005.056-.005.108.002.154.024.307l.007.055c.01.066.021.132.042.198l.063.198c.023.047-.02.09-.07.071l-1.718-.697c-.315-.088-.62-.176-.925-.253a8 8 0 0 0-.505-.121q-.726-.15-1.462-.23c-.02 0-.02-.012-.042-.012a13 13 0 0 0-1.43-.077c-.358 0-.705.022-1.052.044-.483.033-.978.1-1.462.187l-.357.066c-.252.055-.484.11-.726.165-.237.067-.466.16-.696.25l-.008.002a3 3 0 0 1-.263.121l-.085.044q-.09.048-.178.1l-.104.047c-.07.036-.142.07-.201.106a.7.7 0 0 0-.158.088c-.021.022-.053.033-.074.044a4 4 0 0 1-.21.12c-.074.045-.137.089-.19.122-.052.044-.115.077-.157.12a.3.3 0 0 1-.047.04 1 1 0 0 0-.121.104l-.021.021q-.046.036-.087.072l-.062.048-.037.026q-.035.03-.066.063l-.064.066c-.045.047-.082.078-.125.12l-.043.045a2 2 0 0 0-.147.143l-.043.045a1 1 0 0 0-.094.109q-.052.055-.101.114l-.07.075-.034.041-.034.042c-.056.06-.105.119-.171.178l-.021.022a4 4 0 0 1-.41.407c-.148.132-.295.264-.453.373-.157.121-.315.22-.483.319a5.5 5.5 0 0 1-1.031.45c-.337.078-.684.22-.978.242-.134 0-.268.032-.394.075l-.006.002c-.063.022-.126.055-.189.077a1.6 1.6 0 0 0-.362.205l-.006.004c-.109.09-.223.18-.311.29l-.005.007c-.052.055-.094.11-.136.165-.082.128-.174.254-.232.395-.031.077-.063.143-.084.22-.02.066-.052.143-.074.22-.02.064-.03.128-.04.192l-.003.013c-.004.012-.01.02-.014.033a1 1 0 0 0-.015.15 1 1 0 0 1-.012.124.6.6 0 0 0 0 .213c.01.055.021.11.032.154.02.053.03.096.05.148l.002.011.002.01c.021.053.052.096.083.15s.063.098.105.153c.042.044.084.088.137.132.052.055.094.088.147.132.19.176.242.23.483.374l.119.061.02.008c.008.005.008.013.009.023q0 .008.005.017l.007.024c.01.061.02.123.04.185q.031.116.063.198c.032.083.043.099.064.154l.042.088.044.084q.03.058.068.112c.028.041.055.085.077.122.042.055.084.11.137.154.052.055.094.088.147.143 0 0 .027.017.04.027.044.039.082.076.128.105.053.044.116.077.179.11a.8.8 0 0 0 .19.088q.067.03.136.05.02.006.039.017.014.009.03.015h.002c.046.015.085.057.083.105-.018.417-.024.8.035.945.128.286.706.037.74.349q.014.114.039.178c.385.957 1.554-1.342 2.583-1.41 5.024-.337 9.32 3.52 9.816 8.773-.08-.687-.716-1.143-1.232-1.269-.265-.064-.485.135-.6.381a4.7 4.7 0 0 1-.722 1.13c-.144.161-.385.04-.385-.175 0-.264-.362-.298-.472-.057a5.7 5.7 0 0 1-.502.882.4.4 0 0 1-.34.178 2.25 2.25 0 0 1-1.662-.84c-.033-.043-.07-.084-.09-.133l-.039-.086-.02-.05q-.03-.08-.054-.164a1 1 0 0 1-.024-.094c-.01-.055-.01-.12-.01-.187 0-.08.004-.161.024-.24q.007-.03.018-.057.019-.055.033-.115c.011-.04.03-.077.047-.116.038-.081.083-.163.107-.25.094-.345.069-.617-.156-.793l-.052-.032a1 1 0 0 0-.2-.09c-.04-.02-.084-.03-.127-.042l-.05-.012c-.036-.008-.072-.02-.108-.026l-.026-.004-.177-.018a1 1 0 0 0-.09-.007c-.043 0-.085.011-.116.011-.064 0-.116.01-.18.022-.11.023-.225.043-.33.086l-.006.002c-.052.022-.105.055-.157.077s-.095.055-.148.088c-1.461.995-1.102 3.029-.264 4.28.233.348.012.875-.314 1.137a.025.025 0 0 0 .005.038q.505.32 1.057.545c.512.174 1.055.327 1.289.405l.005.006q0 .006.005.007a7.3 7.3 0 0 0 2.014.153c3.473-.258 6.34-2.965 6.948-6.578a.044.044 0 0 1 .088-.004c.02.154.052.308.073.472q0 .012.003.022c.015.06.018.122.024.176l.005.066c.01.077.02.154.02.22.011.088.022.187.022.274v.132c0 .044.01.088.01.132 0 .055-.01.1-.01.154v.121c0 .055-.01.11-.01.165l-.002.046c-.002.043-.009.085-.012.127l-.006.066c-.002.038-.011.077-.012.116l-.003.038a1 1 0 0 0-.018.178c0 .052-.014.103-.02.155l-.022.164a.2.2 0 0 1-.006.043c-.016.066-.027.133-.044.199l-.003.022-.003.021c-.017.068-.028.136-.045.203q-.004.018-.01.034t-.01.033c-.017.068-.027.135-.045.203l-.003.023-.002.02c-.02.076-.046.136-.058.203-.002.011-.011.026-.013.038l-.002.008c-.02.085-.051.16-.072.247-.031.087-.052.153-.084.241s-.052.165-.084.242c-.031.086-.062.151-.093.237l-.007.005-.007.005c-.031.075-.062.15-.103.225l-.02.043-.01.025c-.006.01-.016.016-.02.027a8 8 0 0 1-2.243 2.795 2 2 0 0 0-.21.16c-.024.015-.043.037-.065.054a1 1 0 0 1-.117.078.04.04 0 0 0-.017.047l.006.015a.014.014 0 0 0 .015.009c.113-.021.217-.033.33-.054h.011l.01-.001c.208-.033.417-.077.615-.12.053-.012.116-.023.18-.044l.027-.008c.057-.016.117-.02.176-.032.053-.01.106-.026.159-.039l.02-.004.099-.029c.659-.166 1.203.57.718 1.047q-.504.497-1.061.935c-.459.362-.184 1.14.376.976a12.8 12.8 0 0 0 5.803-3.767c.38-.431 1.129-.092.908.44-.216.519.388 1.023.77.611l.07-.076a13.35 13.35 0 0 0 2.815-4.788c.153-.453.829-.427.844.051.013.442.603.628.814.24 4.337-7.97-.502-15.889-2.599-18.06L35 14.981q-.006-.011-.012-.018c-.005-.007-.018-.01-.018-.002 0-.009-.01-.005-.01.004q-.005.135-.022.271c-.02.198-.052.374-.084.56a8 8 0 0 1-.136.55 6 6 0 0 1-.19.538c-.073.165-.147.341-.242.506q-.132.242-.284.472c-.105.154-.22.308-.325.451-.116.154-.253.286-.38.418-.083.076-.146.142-.23.208-.064.055-.116.11-.19.165a3.5 3.5 0 0 1-.452.33 7 7 0 0 1-.473.286c-.169.087-.337.153-.505.23a7 7 0 0 1-.526.176 5 5 0 0 1-.536.121 5 5 0 0 1-.547.066c-.126.01-.253.022-.39.022-.189 0-.367-.022-.546-.033a4 4 0 0 1-.547-.088c-.186-.032-.351-.086-.526-.14l-.021-.003c.179-.022.358-.033.526-.066.19-.033.358-.077.536-.12.179-.055.358-.11.526-.176.179-.066.347-.154.505-.231.168-.088.315-.176.484-.275.147-.11.305-.22.452-.33a5 5 0 0 0 .41-.373c.137-.121.253-.264.379-.407.094-.125.189-.244.277-.366q.058-.085.112-.172.124-.198.231-.407c.084-.165.168-.33.242-.505.074-.176.137-.352.19-.539.052-.175.094-.362.136-.55.032-.197.063-.373.084-.56a5 5 0 0 0 .032-.571c0-.132-.01-.264-.021-.407-.021-.197-.042-.373-.063-.56-.032-.198-.074-.374-.116-.56a11 11 0 0 0-.179-.539c-.063-.176-.147-.351-.22-.516-.085-.165-.18-.33-.274-.495l-.316-.461a13 13 0 0 0-.368-.429 4 4 0 0 0-.21-.209 13 13 0 0 0-1.115-.824c-.053-.033-.105-.055-.158-.088a2 2 0 0 0-.518-.29Z"/></g><g clip-path="url(#c)"><path fill="#E92842" d="M57.208 18.268a.8.8 0 0 1 .464-.384q.304-.096.752-.096.465 0 .736.08.287.08.416.192a.63.63 0 0 1 .208.336q.096.256.096.816v8.88q0 .384-.032.56a1.1 1.1 0 0 1-.144.416q-.224.432-1.248.432-.624 0-.864-.096a.93.93 0 0 1-.4-.304q-3.6-4.8-4.736-6.272v5.264q0 .384-.032.56a1.1 1.1 0 0 1-.144.416q-.224.432-1.248.432-.992 0-1.216-.432a1.5 1.5 0 0 1-.16-.432 7 7 0 0 1-.016-.56v-8.928q0-.608.144-.88a.8.8 0 0 1 .464-.384 2.7 2.7 0 0 1 .784-.096q.48 0 .752.096.288.08.4.192.064.047.368.416 3.376 4.592 4.512 6.064v-5.408q0-.608.144-.88m12.076 6.016q0 .975-.496 1.456-.48.465-1.072.464h-3.792q0 .449.528.752a2.1 2.1 0 0 0 1.056.304q.927 0 1.456-.192l.176-.064q.384-.176.64-.176.511 0 .88.72.208.432.208.736 0 1.425-3.408 1.424-1.185 0-2.112-.4-.912-.416-1.424-1.088-1.008-1.296-1.008-2.896 0-2.016 1.296-3.216 1.311-1.215 3.264-1.216 2.223 0 3.264 1.568.543.832.544 1.824m-3.376.464q.608 0 .608-.512a.71.71 0 0 0-.288-.592q-.272-.224-.8-.224-.513 0-1.024.432-.512.416-.512.896zm9.16-.848-1.04-.064v2.208q0 .432.127.624.144.192.512.192.384 0 .576.032.209.016.432.144.368.208.368 1.072 0 1.008-.448 1.232-.24.113-.432.144-.176.016-.528.016-1.665 0-2.528-.752-.864-.752-.864-2.544v-2.368a4 4 0 0 1-.656.048.76.76 0 0 1-.592-.272q-.225-.271-.224-.928 0-.656.08-.944.08-.305.224-.432a.98.98 0 0 1 .64-.208l.528.064v-1.648q0-.368.016-.544.033-.176.16-.384.209-.4 1.232-.4 1.089 0 1.296.592.08.256.08.816v1.568q.705-.064 1.056-.064.369 0 .544.032.192.016.432.144.416.209.416 1.232 0 1.008-.432 1.232-.24.113-.432.144-.175.015-.544.016m2.355 4.848q-.304-.192-.304-.608t.608-1.264q.176-.272.56-.272.4 0 1.072.4.672.384 1.216.384.976 0 .976-.384 0-.304-1.072-.448-1.008-.144-2-.752-.465-.287-.768-.896-.304-.624-.304-1.472 0-2.528 3.472-2.528 1.136 0 2.336.544.56.256.56.64 0 .383-.352.944t-.72.56q-.192 0-.72-.24a2.6 2.6 0 0 0-1.12-.24q-.944 0-.944.352 0 .48 1.088.624a6 6 0 0 1 2.048.608q.464.224.768.784.32.544.32 1.376 0 .833-.32 1.424-.304.576-.864.864-1.025.495-2.576.496-1.535 0-2.96-.896M91.17 17.772q.624 0 .912.112a.7.7 0 0 1 .432.336q.176.368.176.992v6.192q0 1.68-1.216 2.976-1.216 1.28-3.104 1.28-1.056 0-1.872-.464-.735-.4-1.024-.72l-.128-.128q-.56-.592-.56-1.008 0-.432.56-1.008t.992-.576.96.528 1.136.528q.624 0 1.024-.416t.4-1.104v-5.984q0-.96.32-1.232.368-.304.992-.304m2.973 10.08q-.416-.511-.416-.912 0-.416.688-1.088.4-.384.848-.384.449 0 1.248.8.225.272.64.528.417.24.768.24 1.488 0 1.488-1.216 0-.368-.416-.608-.4-.255-1.008-.368a9 9 0 0 1-1.312-.352 9 9 0 0 1-1.312-.592q-.607-.336-1.024-1.056-.4-.735-.4-1.76 0-1.408 1.04-2.448 1.056-1.056 2.864-1.056.96 0 1.744.256.8.24 1.104.496l.4.304q.496.464.496.784t-.384.88q-.544.8-1.12.8-.336 0-.832-.32a2 2 0 0 1-.192-.16 2 2 0 0 0-.24-.208q-.336-.208-.864-.208-.512 0-.864.256-.336.24-.336.688 0 .432.4.704.417.272 1.024.368.609.096 1.328.304.72.192 1.328.48t1.008 1.008q.416.704.416 1.744t-.416 1.84q-.416.784-1.088 1.216-1.296.848-2.768.848-.752 0-1.424-.176-.671-.192-1.088-.464-.848-.512-1.184-.992z"/></g><defs><clipPath id="b"><path fill="#fff" d="M8 0h33v48H8z"/></clipPath><clipPath id="c"><path fill="#fff" d="M49 14.5h54v19H49z"/></clipPath></defs></svg>