<svg xmlns="http://www.w3.org/2000/svg" width="111" height="48" fill="none" viewBox="0 0 111 48"><mask id="a" fill="#fff"><path d="M0 24C0 10.745 10.745 0 24 0h63c13.255 0 24 10.745 24 24s-10.745 24-24 24H24C10.745 48 0 37.255 0 24"/></mask><path fill="#EBFFEB" d="M0 24C0 10.745 10.745 0 24 0h63c13.255 0 24 10.745 24 24s-10.745 24-24 24H24C10.745 48 0 37.255 0 24"/><path fill="#527058" d="M24 0v2h63v-4H24zm63 48v-2H24v4h63zm-63 0v-2C11.85 46 2 36.15 2 24h-4c0 14.36 11.64 26 26 26zm87-24h-2c0 12.15-9.85 22-22 22v4c14.359 0 26-11.64 26-26zM87 0v2c12.15 0 22 9.85 22 22h4c0-14.36-11.641-26-26-26zM24 0v-2C9.64-2-2 9.64-2 24h4C2 11.85 11.85 2 24 2z" mask="url(#a)"/><g clip-path="url(#b)"><path fill="#59735A" d="M16.924 33.68h-.316l-1.554-1.568v-.316l2.379-2.351h1.65l.206.206v1.65l-2.352 2.379zm-1.87-17.504v-.288l1.554-1.554h.316l2.351 2.351v1.65l-.206.206h-1.65zm13.695 12.499H26.48l-.192-.179V23.23c0-.935-.372-1.65-1.513-1.691-.577 0-1.237 0-1.966.027l-.097.11v6.82l-.192.193h-2.282l-.18-.193v-8.992l.18-.193h5.087a3.574 3.574 0 0 1 3.589 3.575v5.61l-.179.193zM17.24 25.32H8.193L8 25.128v-2.256l.193-.192h9.047l.193.192v2.256zm23.568 0H31.76l-.193-.192v-2.256l.193-.192h9.047l.193.192v2.256zm-17.614-8.814V9.755l.192-.193h2.269l.192.193v6.737l-.192.193h-2.269zm0 21.739v-6.737l.192-.193h2.269l.192.179v6.751l-.192.193h-2.269z"/></g><g clip-path="url(#c)"><path fill="#59735A" d="M57.208 18.268a.8.8 0 0 1 .464-.384q.304-.096.752-.096.465 0 .736.08.287.08.416.192a.63.63 0 0 1 .208.336q.096.256.096.816v8.88q0 .384-.032.56a1.1 1.1 0 0 1-.144.416q-.224.432-1.248.432-.624 0-.864-.096a.93.93 0 0 1-.4-.304q-3.6-4.8-4.736-6.272v5.264q0 .384-.032.56a1.1 1.1 0 0 1-.144.416q-.224.432-1.248.432-.992 0-1.216-.432a1.5 1.5 0 0 1-.16-.432 7 7 0 0 1-.016-.56v-8.928q0-.608.144-.88a.8.8 0 0 1 .464-.384 2.7 2.7 0 0 1 .784-.096q.48 0 .752.096.288.08.4.192.064.047.368.416 3.376 4.592 4.512 6.064v-5.408q0-.608.144-.88m12.076 6.016q0 .975-.496 1.456-.48.465-1.072.464h-3.792q0 .449.528.752a2.1 2.1 0 0 0 1.056.304q.927 0 1.456-.192l.176-.064q.384-.176.64-.176.511 0 .88.72.208.432.208.736 0 1.425-3.408 1.424-1.185 0-2.112-.4-.912-.416-1.424-1.088-1.008-1.296-1.008-2.896 0-2.016 1.296-3.216 1.311-1.215 3.264-1.216 2.223 0 3.264 1.568.543.832.544 1.824m-3.376.464q.608 0 .608-.512a.71.71 0 0 0-.288-.592q-.272-.224-.8-.224-.513 0-1.024.432-.512.416-.512.896zm9.16-.848-1.04-.064v2.208q0 .432.127.624.144.192.512.192.384 0 .576.032.209.016.432.144.368.208.368 1.072 0 1.008-.448 1.232-.24.113-.432.144-.176.016-.528.016-1.665 0-2.528-.752-.864-.752-.864-2.544v-2.368a4 4 0 0 1-.656.048.76.76 0 0 1-.592-.272q-.225-.271-.224-.928 0-.656.08-.944.08-.305.224-.432a.98.98 0 0 1 .64-.208l.528.064v-1.648q0-.368.016-.544.033-.176.16-.384.209-.4 1.232-.4 1.089 0 1.296.592.08.256.08.816v1.568q.705-.064 1.056-.064.369 0 .544.032.192.016.432.144.416.209.416 1.232 0 1.008-.432 1.232-.24.113-.432.144-.175.015-.544.016m2.29-5.392q0-.368.017-.544.032-.192.144-.432.224-.432 1.248-.432.975 0 1.216.432.127.24.144.432.032.192.032.56v7.408q0 .576.096.736.096.144.416.144.336 0 .448.032.111.015.272.128.32.208.32 1.136 0 1.008-.32 1.232-.417.288-1.984.096-1.233-.16-1.6-.816-.448-.785-.448-2.496zm5.235 3.968q0-.368.016-.544a1.7 1.7 0 0 1 .144-.432q.225-.416 1.248-.416.768 0 1.088.272.272.225.288.688.016.16.016.464v5.6q0 .368-.032.56-.016.176-.144.416-.208.416-1.232.416-1.007 0-1.232-.432a1.8 1.8 0 0 1-.144-.416 7 7 0 0 1-.016-.56zm2.624-2.96q-.112.224-.416.32t-.816.096q-.495 0-.8-.096a.7.7 0 0 1-.432-.336 1.8 1.8 0 0 1-.144-.416 7 7 0 0 1-.016-.56q0-.368.016-.544.033-.192.144-.416.225-.432 1.248-.432 1.009 0 1.216.432.127.24.144.432.032.176.032.544t-.032.56q-.016.176-.144.416m6.382 1.568q1.104 0 1.296.608.096.305.096.8t-.112.8a.72.72 0 0 1-.32.416q-.337.192-.976.192l-1.024-.064v4.288q0 .608-.16.912a.73.73 0 0 1-.464.384q-.304.096-.8.096-.495 0-.8-.096a.8.8 0 0 1-.416-.336 1.4 1.4 0 0 1-.16-.432 7 7 0 0 1-.016-.56v-4.24h-.576q-.415-.032-.592-.192-.303-.304-.304-1.168 0-1.312.944-1.312h.528v-.848q0-1.232.88-2.224.88-1.008 2.544-1.008.369 0 .544.032.192.016.432.144.432.209.432 1.232 0 .768-.272 1.104-.225.256-.704.288h-.448q-.591 0-.592.4v.88zm10.115.08q.944.416.944 1.008 0 .288-.128.544-.128.255-.128.272l-4.192 9.376q-.128.304-.224.464a.9.9 0 0 1-.272.304.78.78 0 0 1-.48.144q-.287 0-.848-.24-.944-.416-.944-.992 0-.384 1.536-3.664l-3.184-5.36q-.32-.528-.32-.784 0-.512.864-1.024.545-.32.848-.32.304 0 .496.128a.8.8 0 0 1 .272.272q.096.127.88 1.488.8 1.344 1.52 2.512.081-.256.864-1.968.784-1.728.832-1.84.064-.112.192-.272a.69.69 0 0 1 .576-.272q.384 0 .896.224"/></g><defs><clipPath id="b"><path fill="#fff" d="M8 0h33v48H8z"/></clipPath><clipPath id="c"><path fill="#fff" d="M49 14.5h54v19H49z"/></clipPath></defs></svg>