<svg xmlns="http://www.w3.org/2000/svg" width="110" height="48" fill="none" viewBox="0 0 110 48"><mask id="a" fill="#fff"><path d="M0 24C0 10.745 10.745 0 24 0h62c13.255 0 24 10.745 24 24S99.255 48 86 48H24C10.745 48 0 37.255 0 24"/></mask><path fill="#868E94" d="M0 24C0 10.745 10.745 0 24 0h62c13.255 0 24 10.745 24 24S99.255 48 86 48H24C10.745 48 0 37.255 0 24"/><path fill="#62646D" d="M24 0v2h62v-4H24zm62 48v-2H24v4h62zm-62 0v-2C11.85 46 2 36.15 2 24h-4c0 14.36 11.64 26 26 26zm86-24h-2c0 12.15-9.85 22-22 22v4c14.359 0 26-11.64 26-26zM86 0v2c12.15 0 22 9.85 22 22h4c0-14.36-11.641-26-26-26zM24 0v-2C9.64-2-2 9.64-2 24h4C2 11.85 11.85 2 24 2z" mask="url(#a)"/><g clip-path="url(#b)"><path fill="#35383B" fill-rule="evenodd" d="M24.493 11.437a12.569 12.569 0 1 0 7.057 22.97L20.626 21.254v9.036a1.45 1.45 0 0 1-2.9 0V17.237a1.45 1.45 0 0 1 2.565-.928l14.452 17.403a1.45 1.45 0 0 1-.17 2.028 15.47 15.47 0 1 1 4.099-5.54 1.452 1.452 0 0 1-2.659-1.164 12.5 12.5 0 0 0 1.048-5.031 12.57 12.57 0 0 0-12.568-12.568m4.834 4.35a1.45 1.45 0 0 1 1.45 1.45v5.801a1.45 1.45 0 0 1-2.9 0v-5.8a1.45 1.45 0 0 1 1.45-1.45" clip-rule="evenodd"/></g><g clip-path="url(#c)"><path fill="#35383B" d="M57.208 18.268a.8.8 0 0 1 .464-.384q.304-.096.752-.096.465 0 .736.08.287.08.416.192a.63.63 0 0 1 .208.336q.096.256.096.816v8.88q0 .384-.032.56a1.1 1.1 0 0 1-.144.416q-.224.432-1.248.432-.624 0-.864-.096a.93.93 0 0 1-.4-.304q-3.6-4.8-4.736-6.272v5.264q0 .384-.032.56a1.1 1.1 0 0 1-.144.416q-.224.432-1.248.432-.992 0-1.216-.432a1.5 1.5 0 0 1-.16-.432 7 7 0 0 1-.016-.56v-8.928q0-.608.144-.88a.8.8 0 0 1 .464-.384 2.7 2.7 0 0 1 .784-.096q.48 0 .752.096.288.08.4.192.064.047.368.416 3.376 4.592 4.512 6.064v-5.408q0-.608.144-.88m12.076 6.016q0 .975-.496 1.456-.48.465-1.072.464h-3.792q0 .449.528.752a2.1 2.1 0 0 0 1.056.304q.927 0 1.456-.192l.176-.064q.384-.176.64-.176.511 0 .88.72.208.432.208.736 0 1.425-3.408 1.424-1.185 0-2.112-.4-.912-.416-1.424-1.088-1.008-1.296-1.008-2.896 0-2.016 1.296-3.216 1.311-1.215 3.264-1.216 2.223 0 3.264 1.568.543.832.544 1.824m-3.376.464q.608 0 .608-.512a.71.71 0 0 0-.288-.592q-.272-.224-.8-.224-.513 0-1.024.432-.512.416-.512.896zm10.26.528 1.775 1.792q.577.576.576.992 0 .4-.576.976-.575.56-.975.56t-.977-.576l-1.76-1.776-1.775 1.776q-.577.576-.977.576-.382 0-.975-.56-.577-.576-.577-.976 0-.416.576-.992l1.776-1.792-1.775-1.792q-.577-.576-.577-.976 0-.416.576-.992.592-.576.977-.576.399 0 .975.576l1.776 1.792 1.76-1.792q.577-.576.977-.576.399 0 .975.576.577.576.576.992 0 .4-.576.976zm8.134-1.376-1.04-.064v2.208q0 .432.128.624.144.192.512.192.384 0 .576.032.207.016.432.144.368.208.368 1.072 0 1.008-.448 1.232-.24.113-.432.144a6 6 0 0 1-.528.016q-1.664 0-2.528-.752t-.864-2.544v-2.368a4 4 0 0 1-.656.048.76.76 0 0 1-.592-.272q-.225-.271-.224-.928 0-.656.08-.944.08-.305.224-.432a.98.98 0 0 1 .64-.208l.528.064v-1.648q0-.368.016-.544.031-.176.16-.384.207-.4 1.232-.4 1.087 0 1.296.592.08.256.08.816v1.568q.704-.064 1.056-.064.367 0 .544.032.192.016.432.144.416.209.416 1.232 0 1.008-.432 1.232-.24.113-.432.144-.177.015-.544.016m4.771 2.96q.272.272.272 1.12v.064q0 .384-.032.576-.015.176-.16.432-.24.465-1.216.464-.96 0-1.28-.304-.304-.305-.304-1.152v-.064q0-.368.016-.56.033-.192.16-.432.24-.48 1.2-.48.976 0 1.344.336m3.461-7.04q-.288.08-.784.08t-.784-.096a.72.72 0 0 1-.416-.32 1.8 1.8 0 0 1-.144-.416 7 7 0 0 1-.016-.56q0-.368.016-.544.032-.175.144-.4.225-.416 1.232-.416.96 0 1.2.416.112.208.128.384.032.175.032.528v.096q0 .352-.032.528-.016.175-.144.4-.128.224-.432.32m-1.552 1.296q.305-.096.8-.096t.784.096a.64.64 0 0 1 .4.336q.127.224.144.416.032.176.032.544v6.592q0 1.872-1.296 2.992t-2.848 1.12a3.3 3.3 0 0 1-.544-.032 1.2 1.2 0 0 1-.4-.128q-.416-.225-.416-1.168 0-.944.352-1.184.336-.24.928-.24.576 0 1.024-.32t.448-1.152V22.3q0-.56.144-.816a.8.8 0 0 1 .448-.368m3.503 7.632q-.303-.192-.304-.608 0-.416.608-1.264.177-.272.56-.272.4 0 1.072.4.672.384 1.216.384.976 0 .976-.384 0-.304-1.072-.448-1.007-.144-2-.752-.464-.287-.768-.896-.303-.624-.304-1.472 0-2.528 3.472-2.528 1.136 0 2.336.544.56.256.56.64 0 .383-.352.944-.351.56-.72.56-.192 0-.72-.24a2.6 2.6 0 0 0-1.12-.24q-.944 0-.944.352 0 .48 1.088.624a6 6 0 0 1 2.048.608q.465.224.768.784.32.544.32 1.376 0 .833-.32 1.424-.303.576-.864.864-1.023.495-2.576.496-1.535 0-2.96-.896"/></g><defs><clipPath id="b"><path fill="#fff" d="M8 0h33v48H8z"/></clipPath><clipPath id="c"><path fill="#fff" d="M49 14.5h53v19H49z"/></clipPath></defs></svg>