<svg xmlns="http://www.w3.org/2000/svg" width="101" height="48" fill="none" viewBox="0 0 101 48"><mask id="a" fill="#fff"><path d="M0 24C0 10.745 10.745 0 24 0h53c13.255 0 24 10.745 24 24S90.255 48 77 48H24C10.745 48 0 37.255 0 24"/></mask><path fill="#F5FFEB" d="M0 24C0 10.745 10.745 0 24 0h53c13.255 0 24 10.745 24 24S90.255 48 77 48H24C10.745 48 0 37.255 0 24"/><path fill="#209338" d="M24 0v2h53v-4H24zm53 48v-2H24v4h53zm-53 0v-2C11.85 46 2 36.15 2 24h-4c0 14.36 11.64 26 26 26zm77-24h-2c0 12.15-9.85 22-22 22v4c14.36 0 26-11.64 26-26zM77 0v2c12.15 0 22 9.85 22 22h4C103 9.64 91.36-2 77-2zM24 0v-2C9.64-2-2 9.64-2 24h4C2 11.85 11.85 2 24 2z" mask="url(#a)"/><g clip-path="url(#b)"><path fill="#209338" stroke="#209338" stroke-width="1.333" d="m23.469 7.5-13.407 7.734v15.47l13.407 7.733 13.406-7.734V15.234zm7.738 21.386c0 .908-.833 1.662-1.972 1.662-.814 0-1.742-.328-2.323-1.044L19.174 20.3v8.585c0 .93-.735 1.663-1.643 1.663h-.098c-.93 0-1.664-.773-1.664-1.663V17.052c0-.909.813-1.663 1.935-1.663.833 0 1.78.329 2.36 1.044l7.7 9.205v-8.586c0-.93.773-1.663 1.663-1.663h.097c.928 0 1.663.774 1.663 1.663v11.834z"/></g><g clip-path="url(#c)"><path fill="#209338" d="M57.208 18.268a.8.8 0 0 1 .464-.384q.304-.096.752-.096.465 0 .736.08.287.08.416.192a.63.63 0 0 1 .208.336q.096.256.096.816v8.88q0 .384-.032.56a1.1 1.1 0 0 1-.144.416q-.224.432-1.248.432-.624 0-.864-.096a.93.93 0 0 1-.4-.304q-3.6-4.8-4.736-6.272v5.264q0 .384-.032.56a1.1 1.1 0 0 1-.144.416q-.224.432-1.248.432-.992 0-1.216-.432a1.5 1.5 0 0 1-.16-.432 7 7 0 0 1-.016-.56v-8.928q0-.608.144-.88a.8.8 0 0 1 .464-.384 2.7 2.7 0 0 1 .784-.096q.48 0 .752.096.288.08.4.192.064.047.368.416 3.376 4.592 4.512 6.064v-5.408q0-.608.144-.88M66.5 28.444q-.609.8-1.936.8-1.329 0-2.496-1.216-1.152-1.232-1.152-2.864t1.168-2.864 2.56-1.232q.543 0 .992.208.447.192.608.368.176.16.272.304.048-.448.32-.672.288-.24.912-.24t.912.096a.64.64 0 0 1 .4.336q.127.225.144.4.032.176.032.544v6.624q0 1.84-1.28 2.96-1.281 1.136-2.88 1.136-1.216 0-2.32-.592t-1.104-1.072q0-.624.48-1.104a5 5 0 0 1 .464-.464.66.66 0 0 1 .4-.128q.224 0 .464.192.768.592 1.664.592.608 0 .992-.48t.384-1.152zm-2.848-3.264q0 .511.4.928.416.416.992.416.591 0 .976-.416.384-.432.384-.928 0-.512-.368-.944-.368-.448-.992-.448t-1.008.432a1.4 1.4 0 0 0-.384.96m6.863-2.704q0-.368.016-.544.032-.192.144-.432.224-.416 1.248-.416.768 0 1.088.272.272.225.288.688.016.16.016.464v5.6q0 .368-.032.56a1.1 1.1 0 0 1-.144.416q-.209.416-1.232.416-1.008 0-1.232-.432a1.8 1.8 0 0 1-.144-.416 7 7 0 0 1-.016-.56zm2.624-2.96q-.112.224-.416.32t-.816.096q-.495 0-.8-.096a.7.7 0 0 1-.432-.336 1.8 1.8 0 0 1-.144-.416 7 7 0 0 1-.016-.56q0-.368.016-.544.032-.192.144-.416.224-.432 1.248-.432 1.008 0 1.216.432.127.24.144.432.032.176.032.544t-.032.56a1.1 1.1 0 0 1-.144.416m6.142 1.552q1.6 0 2.656 1.232 1.072 1.216 1.072 2.976v2.816q0 .368-.032.56-.015.175-.128.4-.224.432-1.248.432-1.136 0-1.312-.592-.096-.271-.096-.816V25.26q0-.656-.384-1.024-.368-.368-1.008-.368-.624 0-1.024.384-.384.384-.384 1.008v2.832q0 .368-.032.56-.016.175-.144.4-.208.432-1.232.432-1.007 0-1.232-.432a1.8 1.8 0 0 1-.144-.416 7 7 0 0 1-.016-.56v-5.664q0-.352.016-.528.033-.192.16-.416.225-.4 1.232-.4.975 0 1.2.368.16.272.16.656.065-.112.288-.32.224-.208.432-.336a2.1 2.1 0 0 1 1.2-.368m10.855 4.208 1.776 1.792q.576.576.576.992 0 .4-.576.976-.577.56-.976.56-.4 0-.976-.576l-1.76-1.776-1.776 1.776q-.576.576-.976.576-.384 0-.976-.56-.576-.576-.576-.976 0-.416.576-.992l1.776-1.792-1.776-1.792q-.576-.576-.576-.976 0-.416.576-.992.592-.576.976-.576.4 0 .976.576l1.776 1.792 1.76-1.792q.576-.576.976-.576t.976.576.576.992q0 .4-.576.976z"/></g><defs><clipPath id="b"><path fill="#fff" d="M8 0h33v48H8z"/></clipPath><clipPath id="c"><path fill="#fff" d="M49 14.5h44v19H49z"/></clipPath></defs></svg>