<svg xmlns="http://www.w3.org/2000/svg" width="113" height="48" fill="none" viewBox="0 0 113 48"><mask id="a" fill="#fff"><path d="M0 24C0 10.745 10.745 0 24 0h65c13.255 0 24 10.745 24 24s-10.745 24-24 24H24C10.745 48 0 37.255 0 24"/></mask><path fill="#fff" d="M0 24C0 10.745 10.745 0 24 0h65c13.255 0 24 10.745 24 24s-10.745 24-24 24H24C10.745 48 0 37.255 0 24"/><path fill="#C2F090" d="M24 0v2h65v-4H24zm65 48v-2H24v4h65zm-65 0v-2C11.85 46 2 36.15 2 24h-4c0 14.36 11.64 26 26 26zm89-24h-2c0 12.15-9.85 22-22 22v4c14.359 0 26-11.64 26-26zM89 0v2c12.15 0 22 9.85 22 22h4c0-14.36-11.641-26-26-26zM24 0v-2C9.64-2-2 9.64-2 24h4C2 11.85 11.85 2 24 2z" mask="url(#a)"/><g stroke="#84B54E" stroke-linecap="round" stroke-linejoin="round" stroke-width="2" clip-path="url(#b)"><path d="M19.688 20.373v12.449c0 .542-.149 1.075-.43 1.546-.28.47-.685.86-1.172 1.132a3.3 3.3 0 0 1-1.601.416 3.3 3.3 0 0 1-1.604-.41l-2.515-1.394a4.7 4.7 0 0 1-1.689-1.69 4.5 4.5 0 0 1-.614-2.273V19.88c0-.795.211-1.577.615-2.27a4.7 4.7 0 0 1 1.688-1.691l9.625-5.676a4.94 4.94 0 0 1 2.509-.68 4.95 4.95 0 0 1 2.509.68l9.625 5.676a4.7 4.7 0 0 1 1.689 1.69c.403.695.615 1.477.614 2.273v10.267c0 .795-.211 1.578-.615 2.271a4.7 4.7 0 0 1-1.688 1.69l-9.625 5.676a4.95 4.95 0 0 1-2.509.68 4.95 4.95 0 0 1-2.509-.68"/><path d="M32.52 20.373h-5.614c-.638 0-1.25.244-1.701.68a2.28 2.28 0 0 0-.705 1.641c0 .616.253 1.206.705 1.642s1.063.68 1.701.68h3.209c.638 0 1.25.244 1.701.68a2.28 2.28 0 0 1 .705 1.64 2.28 2.28 0 0 1-.705 1.642 2.45 2.45 0 0 1-1.701.68H24.5"/></g><g clip-path="url(#c)"><path fill="#84B54E" d="M57.208 18.268a.8.8 0 0 1 .464-.384q.304-.096.752-.096.465 0 .736.08.287.08.416.192a.63.63 0 0 1 .208.336q.096.256.096.816v8.88q0 .384-.032.56a1.1 1.1 0 0 1-.144.416q-.224.432-1.248.432-.624 0-.864-.096a.93.93 0 0 1-.4-.304q-3.6-4.8-4.736-6.272v5.264q0 .384-.032.56a1.1 1.1 0 0 1-.144.416q-.224.432-1.248.432-.992 0-1.216-.432a1.5 1.5 0 0 1-.16-.432 7 7 0 0 1-.016-.56v-8.928q0-.608.144-.88a.8.8 0 0 1 .464-.384 2.7 2.7 0 0 1 .784-.096q.48 0 .752.096.288.08.4.192.064.047.368.416 3.376 4.592 4.512 6.064v-5.408q0-.608.144-.88m3.708 7.024q0-1.92 1.344-3.168t3.072-1.248 3.056 1.248q1.328 1.232 1.328 3.152 0 1.328-.688 2.368-.689 1.025-1.68 1.52a4.55 4.55 0 0 1-2.032.48q-1.056 0-2.048-.512-.993-.528-1.68-1.536a4.1 4.1 0 0 1-.672-2.304m3.344 1.152q.512.384 1.04.384t1.056-.4.528-1.184-.496-1.168a1.7 1.7 0 0 0-1.072-.384q-.577 0-1.072.4t-.496 1.184q0 .768.512 1.168m12.137-8.88a.7.7 0 0 1 .432-.336q.305-.096.8-.096.513 0 .816.096.305.096.416.336.129.24.144.432.032.176.032.544v9.552q0 .368-.032.56-.015.175-.144.4-.24.432-1.36.432-1.103 0-1.232-.784-.672.768-1.872.768-1.44 0-2.624-1.248-1.184-1.264-1.184-2.928 0-1.68 1.184-2.944 1.2-1.264 2.624-1.264 1.185 0 1.84.8v-3.36q0-.368.016-.544.033-.192.144-.416m-2.592 8.688q.417.432 1.008.432.592 0 .976-.432.4-.432.4-.944 0-.528-.384-.976-.368-.448-1.008-.448t-1.024.448a1.4 1.4 0 0 0-.384.96q0 .528.416.96m14.635-1.968q0 .975-.496 1.456-.48.465-1.072.464H83.08q0 .449.528.752a2.1 2.1 0 0 0 1.056.304q.927 0 1.456-.192l.176-.064q.385-.176.64-.176.511 0 .88.72.208.432.208.736 0 1.425-3.408 1.424-1.184 0-2.112-.4-.912-.416-1.424-1.088-1.008-1.296-1.008-2.896 0-2.016 1.296-3.216 1.312-1.215 3.264-1.216 2.224 0 3.264 1.568.544.832.544 1.824m-3.376.464q.608 0 .608-.512a.71.71 0 0 0-.288-.592q-.272-.224-.8-.224-.512 0-1.024.432-.512.416-.512.896zm6.9 2.112q.272.272.272 1.12v.064q0 .384-.032.576-.016.176-.16.432-.24.465-1.216.464-.96 0-1.28-.304-.304-.305-.304-1.152v-.064q0-.368.016-.56.031-.192.16-.432.24-.48 1.2-.48.975 0 1.344.336m3.46-7.04q-.287.08-.783.08t-.784-.096a.72.72 0 0 1-.416-.32 1.8 1.8 0 0 1-.144-.416 7 7 0 0 1-.016-.56q0-.368.016-.544.032-.175.144-.4.224-.416 1.232-.416.96 0 1.2.416.111.208.128.384.032.175.032.528v.096q0 .352-.032.528-.016.175-.144.4-.129.224-.432.32m-1.551 1.296q.303-.096.8-.096.496 0 .784.096a.64.64 0 0 1 .4.336q.127.224.144.416.032.176.032.544v6.592q0 1.872-1.296 2.992t-2.848 1.12q-.369 0-.544-.032a1.2 1.2 0 0 1-.4-.128q-.416-.225-.416-1.168 0-.944.352-1.184.336-.24.928-.24.576 0 1.024-.32.447-.32.448-1.152V22.3q0-.56.144-.816a.8.8 0 0 1 .448-.368m3.503 7.632q-.304-.192-.304-.608t.608-1.264q.176-.272.56-.272.4 0 1.072.4.672.384 1.216.384.976 0 .976-.384 0-.304-1.072-.448-1.008-.144-2-.752-.465-.287-.768-.896-.304-.624-.304-1.472 0-2.528 3.472-2.528 1.136 0 2.336.544.56.256.56.64 0 .383-.352.944t-.72.56q-.192 0-.72-.24a2.6 2.6 0 0 0-1.12-.24q-.944 0-.944.352 0 .48 1.088.624a6 6 0 0 1 2.048.608q.463.224.768.784.32.544.32 1.376 0 .833-.32 1.424a2 2 0 0 1-.864.864q-1.024.495-2.576.496-1.536 0-2.96-.896"/></g><defs><clipPath id="b"><path fill="#fff" d="M8 0h33v48H8z"/></clipPath><clipPath id="c"><path fill="#fff" d="M49 14.5h56v19H49z"/></clipPath></defs></svg>