<svg xmlns="http://www.w3.org/2000/svg" width="90" height="48" fill="none" viewBox="0 0 90 48"><mask id="a" fill="#fff"><path d="M0 24C0 10.745 10.745 0 24 0h42c13.255 0 24 10.745 24 24S79.255 48 66 48H24C10.745 48 0 37.255 0 24"/></mask><path fill="#FFF3EE" d="M0 24C0 10.745 10.745 0 24 0h42c13.255 0 24 10.745 24 24S79.255 48 66 48H24C10.745 48 0 37.255 0 24"/><path fill="#F06867" d="M24 0v2h42v-4H24zm42 48v-2H24v4h42zm-42 0v-2C11.85 46 2 36.15 2 24h-4c0 14.36 11.64 26 26 26zm66-24h-2c0 12.15-9.85 22-22 22v4c14.36 0 26-11.64 26-26zM66 0v2c12.15 0 22 9.85 22 22h4C92 9.64 80.36-2 66-2zM24 0v-2C9.64-2-2 9.64-2 24h4C2 11.85 11.85 2 24 2z" mask="url(#a)"/><g clip-path="url(#b)"><path fill="#CB3837" fill-rule="evenodd" d="M15.104 38.438a2.98 2.98 0 0 1-2.979-2.98V14.604a2.98 2.98 0 0 1 2.98-2.979h20.854a2.98 2.98 0 0 1 2.979 2.98v20.853a2.98 2.98 0 0 1-2.98 2.98zm3.49-4.47a2 2 0 0 1-2-2V18.095a2 2 0 0 1 2-2h13.875a2 2 0 0 1 2 2V31.97a2 2 0 0 1-2 2H32a2 2 0 0 1-2-2v-9.407a2 2 0 0 0-2-2h-.468a2 2 0 0 0-2 2v9.407a2 2 0 0 1-2 2z" clip-rule="evenodd"/></g><g clip-path="url(#c)"><path fill="#CB3837" d="M54.328 21.068q1.6 0 2.656 1.232 1.072 1.216 1.072 2.976v2.816q0 .368-.032.56-.015.175-.128.4-.224.432-1.248.432-1.136 0-1.312-.592-.096-.271-.096-.816V25.26q0-.656-.384-1.024-.367-.368-1.008-.368-.624 0-1.024.384-.384.384-.384 1.008v2.832q0 .368-.032.56-.016.175-.144.4-.209.432-1.232.432-1.008 0-1.232-.432a1.8 1.8 0 0 1-.144-.416 7 7 0 0 1-.016-.56v-5.664q0-.352.016-.528.032-.192.16-.416.224-.4 1.232-.4.975 0 1.2.368.16.272.16.656.065-.112.288-.32.224-.208.432-.336a2.1 2.1 0 0 1 1.2-.368m5.015 10.72v-9.344q0-.368.016-.544.032-.175.144-.4.225-.432 1.072-.432.849 0 1.136.224.304.209.352.624.608-.832 1.904-.832 1.312 0 2.48 1.232t1.168 2.864-1.168 2.864q-1.153 1.232-2.464 1.232-1.312 0-1.904-.736v3.232q0 .368-.032.544-.015.175-.144.4a.64.64 0 0 1-.4.336q-.288.096-.784.096-.495 0-.8-.096a.72.72 0 0 1-.416-.32 1.5 1.5 0 0 1-.144-.4 7 7 0 0 1-.016-.544m3.168-7.536q-.368.432-.368.944t.368.944q.384.416.96.416.593 0 .992-.416.416-.416.416-.944t-.384-.944q-.384-.432-1.008-.432-.607 0-.976.432m8.897-2.064q.752-1.136 1.808-1.136 1.631 0 2.432 1.392.176-.24.416-.496.255-.272.8-.576.543-.32 1.12-.32 1.28 0 2.144.992.864.975.864 3.248v2.8q0 .368-.032.56-.016.176-.144.416-.209.432-1.232.432-1.008 0-1.232-.448a1.8 1.8 0 0 1-.144-.416 7 7 0 0 1-.016-.56v-2.8q0-1.392-.992-1.392-.561 0-.768.368-.192.368-.192 1.04v2.8q0 .384-.032.56-.016.176-.144.416-.225.432-1.248.432-1.008 0-1.232-.448a1.8 1.8 0 0 1-.144-.416 7 7 0 0 1-.016-.56v-2.8q0-1.392-.992-1.392-.96 0-.96 1.392v2.832q0 .368-.032.56-.016.176-.144.416-.24.416-1.248.416t-1.232-.432a1.8 1.8 0 0 1-.144-.416 7 7 0 0 1-.016-.56V22.46q0-.368.016-.544.031-.192.16-.416.24-.432 1.136-.432t1.168.288.272.832"/></g><defs><clipPath id="b"><path fill="#fff" d="M8 0h33v48H8z"/></clipPath><clipPath id="c"><path fill="#fff" d="M49 14.5h33v19H49z"/></clipPath></defs></svg>