<svg xmlns="http://www.w3.org/2000/svg" width="111" height="48" fill="none" viewBox="0 0 111 48"><mask id="a" fill="#fff"><path d="M0 24C0 10.745 10.745 0 24 0h63c13.255 0 24 10.745 24 24s-10.745 24-24 24H24C10.745 48 0 37.255 0 24"/></mask><path fill="#BEF9D9" d="M0 24C0 10.745 10.745 0 24 0h63c13.255 0 24 10.745 24 24s-10.745 24-24 24H24C10.745 48 0 37.255 0 24"/><path fill="#85BAA3" d="M24 0v2h63v-4H24zm63 48v-2H24v4h63zm-63 0v-2C11.85 46 2 36.15 2 24h-4c0 14.36 11.64 26 26 26zm87-24h-2c0 12.15-9.85 22-22 22v4c14.359 0 26-11.64 26-26zM87 0v2c12.15 0 22 9.85 22 22h4c0-14.36-11.641-26-26-26zM24 0v-2C9.64-2-2 9.64-2 24h4C2 11.85 11.85 2 24 2z" mask="url(#a)"/><g clip-path="url(#b)"><path fill="#345D51" d="M26.356 33.281h11.447c.366 0 .716-.135 1.031-.325.316-.19.643-.429.826-.758.182-.33.309-.703.309-1.082s-.127-.754-.31-1.083l-7.734-13.968a1.94 1.94 0 0 0-.722-.76 2.4 2.4 0 0 0-1.135-.324c-.366 0-.715.136-1.03.325-.316.19-.54.43-.723.759l-1.96 3.573-3.918-6.93c-.182-.33-.406-.676-.722-.866s-.666-.217-1.031-.217c-.366 0-.715.026-1.031.217-.316.19-.643.536-.825.865l-9.59 17.325c-.183.33-.207.703-.207 1.084 0 .38.024.752.207 1.082.182.329.508.568.825.757s.666.326 1.03.326h7.22c2.86 0 4.942-1.347 6.393-3.899l3.506-6.388 1.856-3.356 5.672 10.178h-7.528zm-8.147-3.466h-5.053l7.528-13.643 3.816 6.823-2.527 4.625c-.964 1.656-2.063 2.196-3.764 2.196"/></g><g clip-path="url(#c)"><path fill="#345D51" d="M57.208 18.268a.8.8 0 0 1 .464-.384q.304-.096.752-.096.465 0 .736.08.287.08.416.192a.63.63 0 0 1 .208.336q.096.256.096.816v8.88q0 .384-.032.56a1.1 1.1 0 0 1-.144.416q-.224.432-1.248.432-.624 0-.864-.096a.93.93 0 0 1-.4-.304q-3.6-4.8-4.736-6.272v5.264q0 .384-.032.56a1.1 1.1 0 0 1-.144.416q-.224.432-1.248.432-.992 0-1.216-.432a1.5 1.5 0 0 1-.16-.432 7 7 0 0 1-.016-.56v-8.928q0-.608.144-.88a.8.8 0 0 1 .464-.384 2.7 2.7 0 0 1 .784-.096q.48 0 .752.096.288.08.4.192.064.047.368.416 3.376 4.592 4.512 6.064v-5.408q0-.608.144-.88m7.692 11.2q-1.617 0-2.688-1.216-1.056-1.232-1.056-2.992v-2.8q0-.384.016-.56.032-.176.144-.416.223-.432 1.248-.432 1.12 0 1.312.608.096.256.096.816v2.8q0 .656.368 1.024.384.368 1.008.368.64 0 1.024-.384.4-.384.4-1.008v-2.832q0-.368.016-.544.031-.192.16-.432.207-.416 1.232-.416 1.007 0 1.232.432.111.24.128.432.032.176.032.544v5.664q0 .352-.032.544-.016.175-.144.4-.24.416-1.232.416-.976 0-1.2-.384-.16-.272-.16-.656a1.6 1.6 0 0 1-.288.32q-.225.208-.432.352a2.14 2.14 0 0 1-1.184.352m11.799-4.192 1.776 1.792q.576.576.576.992 0 .4-.576.976-.576.56-.976.56t-.976-.576l-1.76-1.776-1.776 1.776q-.576.576-.976.576-.385 0-.976-.56-.576-.576-.576-.976 0-.416.576-.992l1.776-1.792-1.776-1.792q-.576-.576-.576-.976 0-.416.576-.992.591-.576.976-.576.4 0 .976.576l1.776 1.792 1.76-1.792q.576-.576.976-.576t.976.576.576.992q0 .4-.576.976zm8.134-1.376-1.04-.064v2.208q0 .432.128.624.144.192.512.192.384 0 .576.032.207.016.432.144.368.208.368 1.072 0 1.008-.448 1.232-.24.113-.432.144-.177.016-.528.016-1.664 0-2.528-.752t-.864-2.544v-2.368a4 4 0 0 1-.656.048.76.76 0 0 1-.592-.272q-.225-.271-.224-.928 0-.656.08-.944.08-.305.224-.432a.98.98 0 0 1 .64-.208l.528.064v-1.648q0-.368.016-.544.032-.176.16-.384.208-.4 1.232-.4 1.088 0 1.296.592.08.256.08.816v1.568q.704-.064 1.056-.064.367 0 .544.032.192.016.432.144.416.209.416 1.232 0 1.008-.432 1.232-.24.113-.432.144-.176.015-.544.016m4.771 2.96q.273.272.272 1.12v.064q0 .384-.032.576-.015.176-.16.432-.24.465-1.216.464-.96 0-1.28-.304-.304-.305-.304-1.152v-.064q0-.368.016-.56.033-.192.16-.432.24-.48 1.2-.48.977 0 1.344.336m3.461-7.04q-.288.08-.784.08t-.784-.096a.72.72 0 0 1-.416-.32 1.8 1.8 0 0 1-.144-.416 7 7 0 0 1-.016-.56q0-.368.016-.544.033-.175.144-.4.225-.416 1.232-.416.96 0 1.2.416.113.208.128.384.033.175.032.528v.096q0 .352-.032.528-.015.175-.144.4-.128.224-.432.32m-1.552 1.296q.305-.096.8-.096t.784.096a.64.64 0 0 1 .4.336q.129.224.144.416.033.176.032.544v6.592q0 1.872-1.296 2.992t-2.848 1.12q-.367 0-.544-.032a1.2 1.2 0 0 1-.4-.128q-.416-.225-.416-1.168 0-.944.352-1.184.337-.24.928-.24.576 0 1.024-.32t.448-1.152V22.3q0-.56.144-.816a.8.8 0 0 1 .448-.368m3.503 7.632q-.303-.192-.303-.608t.608-1.264q.175-.272.56-.272.399 0 1.072.4.671.384 1.215.384.976 0 .976-.384 0-.304-1.072-.448-1.007-.144-2-.752-.464-.287-.767-.896Q95 24.284 95 23.436q0-2.528 3.472-2.528 1.137 0 2.337.544.56.256.56.64 0 .383-.352.944t-.72.56q-.192 0-.72-.24a2.6 2.6 0 0 0-1.12-.24q-.944 0-.944.352 0 .48 1.087.624a6 6 0 0 1 2.049.608q.464.224.768.784.32.544.32 1.376 0 .833-.32 1.424a2 2 0 0 1-.864.864q-1.025.495-2.576.496-1.537 0-2.96-.896"/></g><defs><clipPath id="b"><path fill="#fff" d="M8 0h33v48H8z"/></clipPath><clipPath id="c"><path fill="#fff" d="M49 14.5h54v19H49z"/></clipPath></defs></svg>