<svg xmlns="http://www.w3.org/2000/svg" width="114" height="48" fill="none" viewBox="0 0 114 48"><mask id="a" fill="#fff"><path d="M0 24C0 10.745 10.745 0 24 0h66c13.255 0 24 10.745 24 24s-10.745 24-24 24H24C10.745 48 0 37.255 0 24"/></mask><path fill="#F6F6F6" d="M0 24C0 10.745 10.745 0 24 0h66c13.255 0 24 10.745 24 24s-10.745 24-24 24H24C10.745 48 0 37.255 0 24"/><path fill="#C4C4C4" d="M24 0v2h66v-4H24zm66 48v-2H24v4h66zm-66 0v-2C11.85 46 2 36.15 2 24h-4c0 14.36 11.64 26 26 26zm90-24h-2c0 12.15-9.85 22-22 22v4c14.359 0 26-11.64 26-26zM90 0v2c12.15 0 22 9.85 22 22h4c0-14.36-11.641-26-26-26zM24 0v-2C9.64-2-2 9.64-2 24h4C2 11.85 11.85 2 24 2z" mask="url(#a)"/><g clip-path="url(#b)"><path fill="#A4D5FF" d="m26.628 41.35.018-.003q.018.003.025.027l.026.639-.006.025-.019.024-.16.11-.018.007-.023-.006-.16-.11-.015-.02-.008-.03.026-.64.006-.015q.013-.015.037-.009l.11.054.02.006.032-.006zm.402-.168.022-.003q.023.005.03.032l.053.919-.006.02q-.015.02-.045.012l-.309-.137-.012-.012-.008-.018-.027-.643.004-.016.016-.015zm-1.1-.004a.03.03 0 0 1 .023.004l.283.137.015.015.005.018-.028.643-.004.016-.016.012-.309.14-.023.002a.04.04 0 0 1-.026-.035l.052-.919.01-.02a.03.03 0 0 1 .018-.013"/><path fill="#878787" fill-rule="evenodd" d="M22.66 9.563c1.076 0 2.134.274 3.067.796a6.07 6.07 0 0 1 2.25 2.179l.15.272.982-.55a6.3 6.3 0 0 1 3.868-.752c1.34.17 2.585.764 3.542 1.69a5.92 5.92 0 0 1 1.757 3.437 5.84 5.84 0 0 1-.753 3.768l-.173.278.98.55a6.04 6.04 0 0 1 2.603 2.884 5.83 5.83 0 0 1 .266 3.828 5.97 5.97 0 0 1-2.181 3.198 6.26 6.26 0 0 1-3.73 1.25l-.333-.006v1.1a5.88 5.88 0 0 1-1.267 3.64 6.16 6.16 0 0 1-3.281 2.137 6.3 6.3 0 0 1-3.941-.244 6.1 6.1 0 0 1-2.975-2.527l-.154-.272-.979.55a6.3 6.3 0 0 1-3.869.752 6.2 6.2 0 0 1-3.542-1.69 5.92 5.92 0 0 1-1.756-3.437 5.85 5.85 0 0 1 .752-3.768l.174-.278-.98-.55a6.04 6.04 0 0 1-2.604-2.883 5.83 5.83 0 0 1-.265-3.83 5.97 5.97 0 0 1 2.18-3.197 6.26 6.26 0 0 1 3.73-1.25l.334.006v-1.1a5.9 5.9 0 0 1 1.8-4.23 6.24 6.24 0 0 1 4.347-1.751m7.226 16.13-.104 6.069c-.004.225-.06.446-.164.648a1.5 1.5 0 0 1-.437.514l-.168.107-3.006 1.69a3.03 3.03 0 0 0 1.369 1.407 3.15 3.15 0 0 0 1.967.296 3.1 3.1 0 0 0 1.742-.937 2.95 2.95 0 0 0 .788-1.779l.008-.222v-6.63l-1.995-1.165zm-3.124 2.91-5.457 2.945a1.57 1.57 0 0 1-1.514-.012l-3.006-1.69a2.93 2.93 0 0 0-.568 1.913c.04.682.32 1.33.79 1.837a3.1 3.1 0 0 0 1.802.946 3.15 3.15 0 0 0 2.012-.363l5.902-3.314zm4.13-8.097-2.034 1.099 5.352 3.123c.227.133.415.321.546.546.13.224.199.478.2.736v3.377a3.15 3.15 0 0 0 1.982-.48 3 3 0 0 0 1.236-1.584c.214-.65.194-1.35-.057-1.988a3.02 3.02 0 0 0-1.324-1.514zm-14.38-.866a3.14 3.14 0 0 0-1.937.446 3 3 0 0 0-1.25 1.507 2.9 2.9 0 0 0-.04 1.935 3 3 0 0 0 1.185 1.555l.203.124 5.902 3.315 2.034-1.1-5.352-3.121a1.5 1.5 0 0 1-.495-.463 1.5 1.5 0 0 1-.238-.626l-.012-.193zm6.147-7.087c-.815 0-1.597.315-2.173.876a2.95 2.95 0 0 0-.9 2.114v6.63l1.994 1.165.105-6.07c.004-.26.077-.512.212-.735s.326-.408.556-.537l3.007-1.688a3 3 0 0 0-1.135-1.278 3.14 3.14 0 0 0-1.666-.477m12.185 3.391a3.06 3.06 0 0 0-1.75-1.361 3.15 3.15 0 0 0-2.236.157l-.213.11-5.901 3.314-.039 2.263 5.456-2.946a1.57 1.57 0 0 1 1.334-.075l.18.087 3.008 1.69c.68-.927.784-2.19.161-3.239" clip-rule="evenodd"/></g><g clip-path="url(#c)"><path fill="#878787" d="M55.144 17.628q2.369 0 4.112 1.712Q61 21.052 61 23.596q0 2.527-1.664 4.32-1.665 1.776-4.096 1.776t-4.144-1.76Q49.4 26.172 49.4 23.74q0-1.328.48-2.48.48-1.169 1.28-1.952A6 6 0 0 1 53 18.076a5.4 5.4 0 0 1 2.144-.448m-2.912 6.032q0 1.425.912 2.32.928.88 2.064.88t2.048-.864.912-2.32-.928-2.336q-.911-.88-2.048-.88-1.136 0-2.048.896-.912.88-.912 2.304m9.814 8.128v-9.344q0-.368.016-.544.033-.175.144-.4.225-.432 1.072-.432.849 0 1.136.224.304.209.352.624.609-.832 1.904-.832 1.313 0 2.48 1.232t1.168 2.864-1.168 2.864q-1.153 1.232-2.464 1.232-1.312 0-1.904-.736v3.232q0 .368-.032.544-.015.175-.144.4a.64.64 0 0 1-.4.336q-.288.096-.784.096-.495 0-.8-.096a.72.72 0 0 1-.416-.32 1.5 1.5 0 0 1-.144-.4 7 7 0 0 1-.016-.544m3.168-7.536q-.368.432-.368.944t.368.944q.384.416.96.416.593 0 .992-.416.417-.416.416-.944 0-.528-.384-.944-.384-.432-1.008-.432-.607 0-.976.432m14.273.032q0 .975-.496 1.456-.48.465-1.072.464h-3.792q0 .449.528.752a2.1 2.1 0 0 0 1.056.304q.927 0 1.456-.192l.176-.064q.385-.176.64-.176.511 0 .88.72.208.432.208.736 0 1.425-3.408 1.424-1.185 0-2.112-.4-.912-.416-1.424-1.088-1.008-1.296-1.008-2.896 0-2.016 1.296-3.216 1.311-1.215 3.264-1.216 2.223 0 3.264 1.568.543.832.544 1.824m-3.376.464q.608 0 .608-.512a.71.71 0 0 0-.288-.592q-.273-.224-.8-.224-.513 0-1.024.432-.513.416-.512.896zm9.108-3.68q1.6 0 2.656 1.232 1.072 1.216 1.072 2.976v2.816q0 .368-.032.56-.017.175-.128.4-.225.432-1.248.432-1.137 0-1.312-.592-.096-.271-.096-.816V25.26q0-.656-.384-1.024-.369-.368-1.008-.368-.624 0-1.024.384-.384.384-.384 1.008v2.832q0 .368-.032.56-.016.175-.144.4-.209.432-1.232.432-1.008 0-1.232-.432a1.8 1.8 0 0 1-.144-.416 7 7 0 0 1-.016-.56v-5.664q0-.352.016-.528.031-.192.16-.416.224-.4 1.232-.4.975 0 1.2.368.16.272.16.656.063-.112.288-.32t.432-.336a2.1 2.1 0 0 1 1.2-.368m11.783-2.464 4.32 8.928q.272.545.272.816 0 .575-.928 1.04-.544.272-.864.272a.9.9 0 0 1-.512-.144 1.1 1.1 0 0 1-.288-.304l-.24-.48-.832-1.728h-4.432l-.832 1.728a5 5 0 0 1-.256.464q-.081.144-.288.304-.192.144-.512.144-.305 0-.848-.272-.928-.448-.928-1.024 0-.271.272-.816l4.32-8.944q.176-.368.528-.592.368-.224.768-.224.863 0 1.28.832m-1.296 3.84-1.056 2.192h2.128zm6.762-3.264q0-.368.016-.544.032-.192.16-.432.224-.432 1.248-.432 1.12 0 1.328.592.08.272.08.832v8.896q0 .384-.032.56a1.2 1.2 0 0 1-.144.416q-.224.432-1.248.432-1.12 0-1.312-.608-.096-.256-.096-.816z"/></g><defs><clipPath id="b"><path fill="#fff" d="M8 0h33v48H8z"/></clipPath><clipPath id="c"><path fill="#fff" d="M49 14.5h57v19H49z"/></clipPath></defs></svg>