<svg xmlns="http://www.w3.org/2000/svg" width="80" height="48" fill="none" viewBox="0 0 80 48"><mask id="a" fill="#fff"><path d="M0 24C0 10.745 10.745 0 24 0h32c13.255 0 24 10.745 24 24S69.255 48 56 48H24C10.745 48 0 37.255 0 24"/></mask><path fill="#D1CEFC" d="M0 24C0 10.745 10.745 0 24 0h32c13.255 0 24 10.745 24 24S69.255 48 56 48H24C10.745 48 0 37.255 0 24"/><path fill="#A197C0" d="M24 0v2h32v-4H24zm32 48v-2H24v4h32zm-32 0v-2C11.85 46 2 36.15 2 24h-4c0 14.36 11.64 26 26 26zm56-24h-2c0 12.15-9.85 22-22 22v4c14.36 0 26-11.64 26-26zM56 0v2c12.15 0 22 9.85 22 22h4C82 9.64 70.36-2 56-2zM24 0v-2C9.64-2-2 9.64-2 24h4C2 11.85 11.85 2 24 2z" mask="url(#a)"/><g clip-path="url(#b)"><path fill="#fff" d="M24.5 33.166c-4.817 0-8.735-4.112-8.735-9.165 0-5.054 3.92-9.166 8.737-9.166a8.45 8.45 0 0 1 4.365 1.231 8.9 8.9 0 0 1 2.103 1.777c.703.81.372 2.012-.545 2.569l-.357.217c-.972.59-2.228.192-3.163-.454a4.23 4.23 0 0 0-2.404-.76 4.28 4.28 0 0 0-3.089 1.344A4.7 4.7 0 0 0 20.131 24a4.7 4.7 0 0 0 1.281 3.24 4.27 4.27 0 0 0 3.089 1.343 4.23 4.23 0 0 0 2.404-.759c.934-.646 2.189-1.043 3.16-.453l.36.218c.917.556 1.248 1.759.544 2.57a8.9 8.9 0 0 1-2.103 1.775 8.46 8.46 0 0 1-4.365 1.232"/><path fill="#B1ADE9" fill-rule="evenodd" d="M37.274 16.266c-.206-.374-.49-.7-.802-.89L25.64 8.817c-.626-.38-1.647-.38-2.271 0l-10.837 6.56c-.624.378-1.134 1.307-1.134 2.063v13.123c0 .379.128.799.333 1.173s.49.7.801.89l10.834 6.56c.624.378 1.647.378 2.271 0l10.834-6.56c.312-.19.596-.516.801-.89s.332-.794.332-1.173V17.439c.003-.379-.123-.799-.33-1.173M24.5 33.166c-4.818 0-8.737-4.112-8.737-9.165 0-5.054 3.92-9.166 8.738-9.166a8.45 8.45 0 0 1 4.365 1.231 8.9 8.9 0 0 1 2.103 1.777c.703.81.372 2.012-.545 2.569l-.357.217c-.972.59-2.228.192-3.163-.454a4.23 4.23 0 0 0-2.404-.76 4.28 4.28 0 0 0-3.089 1.344A4.7 4.7 0 0 0 20.131 24a4.7 4.7 0 0 0 1.281 3.24 4.27 4.27 0 0 0 3.089 1.343 4.23 4.23 0 0 0 2.404-.759c.934-.646 2.189-1.043 3.16-.453l.36.218c.917.556 1.248 1.759.544 2.57a8.9 8.9 0 0 1-2.103 1.775 8.46 8.46 0 0 1-4.365 1.232m9.27-7.455h-.602a.51.51 0 0 0-.509.509v.024a.485.485 0 1 1-.97 0v-.048a.485.485 0 0 0-.486-.486.485.485 0 0 1-.485-.485v-.047c0-.268.217-.486.485-.486a.485.485 0 0 0 .485-.485v-.533h-.461a.51.51 0 0 1-.51-.51v-.023c0-.268.218-.485.486-.485a.485.485 0 0 0 .485-.486v-.047a.485.485 0 1 1 .971 0v.023c0 .281.228.51.51.51h.6v1.018h-1.11c0 .562.456 1.018 1.019 1.018h.091zm1.941-.46a.46.46 0 0 1-.459.46.46.46 0 0 0-.456.509.46.46 0 0 1-.456.509h-.059a.51.51 0 0 1-.512-.512v-4.095a.486.486 0 0 1 .971 0v.048c0 .268.218.485.486.485s.485.218.485.486v.024a.51.51 0 0 1-.51.509h-.46v.533c0 .268.217.485.485.485s.485.218.485.486z" clip-rule="evenodd"/><path stroke="#9F93BD" stroke-width="1.333" d="M33.77 25.71h-.6a.51.51 0 0 0-.51.51v.024a.485.485 0 1 1-.97 0v-.048a.485.485 0 0 0-.486-.486.485.485 0 0 1-.485-.485v-.047c0-.268.217-.486.485-.486a.485.485 0 0 0 .485-.485v-.533m2.081 2.037v-1.019m0 1.018v.507c0 .283.23.512.512.512h.06a.46.46 0 0 0 .455-.51.46.46 0 0 1 .456-.509.46.46 0 0 0 .46-.458v-.074a.485.485 0 0 0-.486-.486.485.485 0 0 1-.486-.485v-.533m-3.052 0h.971m-.97 0h-.462a.51.51 0 0 1-.51-.51v-.023c0-.268.218-.485.486-.485a.485.485 0 0 0 .485-.486v-.047a.485.485 0 1 1 .971 0v.023c0 .281.228.51.51.51h.6m-1.11 1.018h1.11m-1.11 0c0 .562.456 1.018 1.019 1.018h.091m0 0v-1.018m0 0h.971m-.97 0v-1.018m.97 1.018h.462a.51.51 0 0 0 .51-.51v-.023a.485.485 0 0 0-.486-.485.485.485 0 0 1-.486-.486v-.048a.486.486 0 0 0-.97 0v.534m3.502-6.39c-.205-.374-.489-.7-.8-.89l-10.834-6.56c-.626-.38-1.647-.38-2.271 0l-10.837 6.56c-.624.378-1.134 1.307-1.134 2.063v13.123c0 .379.128.799.333 1.173s.49.7.801.89l10.834 6.56c.624.378 1.647.378 2.271 0l10.834-6.56c.312-.19.596-.516.801-.89s.332-.794.332-1.173V17.439c.003-.379-.123-.799-.33-1.173Zm-12.772 16.9c-4.818 0-8.737-4.112-8.737-9.165 0-5.054 3.92-9.166 8.738-9.166a8.45 8.45 0 0 1 4.365 1.231 8.9 8.9 0 0 1 2.103 1.777c.703.81.372 2.012-.545 2.569l-.357.217c-.972.59-2.228.192-3.163-.454a4.23 4.23 0 0 0-2.404-.76 4.28 4.28 0 0 0-3.089 1.344A4.7 4.7 0 0 0 20.131 24a4.7 4.7 0 0 0 1.281 3.24 4.27 4.27 0 0 0 3.089 1.343 4.23 4.23 0 0 0 2.404-.759c.934-.646 2.189-1.043 3.16-.453l.36.218c.917.556 1.248 1.759.544 2.57a8.9 8.9 0 0 1-2.103 1.775 8.46 8.46 0 0 1-4.365 1.232Z"/></g><g clip-path="url(#c)"><path fill="#9B8EB9" d="m56.968 26.428.288-.208q.544-.32.768-.32.496 0 1.072.896.352.56.352.896a.76.76 0 0 1-.224.56q-.208.225-.496.4t-.56.336q-.255.16-1.072.416a5.3 5.3 0 0 1-1.584.256 6.4 6.4 0 0 1-1.536-.192 7 7 0 0 1-1.6-.672 7 7 0 0 1-1.472-1.152q-.656-.688-1.088-1.744a6.4 6.4 0 0 1-.416-2.32q0-1.248.416-2.256.416-1.024 1.056-1.68a6.1 6.1 0 0 1 1.488-1.12q1.568-.864 3.152-.864.752 0 1.52.24.784.224 1.184.464l.384.224q.288.175.448.288.416.336.416.768 0 .415-.336.88-.624.864-1.12.864-.288 0-.816-.352-.672-.544-1.792-.544-1.04 0-2.048.72-.48.352-.8.992t-.32 1.456q0 .8.32 1.44t.816 1.008q.976.704 2.032.704.495 0 .928-.128.448-.127.64-.256m12.987-5.584h.816q.304 0 .432.032.144.016.272.16t.128.432q0 .272-.064.608-.048.32-.24.56-.191.24-.368.272a3 3 0 0 1-.528.032h-.8l-.288 1.76h.816q.305 0 .432.032.144.016.272.16t.128.432q0 .272-.048.544a1.8 1.8 0 0 1-.16.496.63.63 0 0 1-.272.32q-.255.128-.72.128h-.8q-.159.992-.192 1.232l-.032.176q-.064.352-.112.496a1.2 1.2 0 0 1-.16.352q-.255.368-1.184.368-.927 0-.928-.592 0-.016.128-.832l.192-1.2h-2.384q-.159.992-.192 1.232l-.032.176q-.063.352-.112.496a1.2 1.2 0 0 1-.16.352q-.255.368-1.184.368t-.928-.592q0-.016.128-.832l.192-1.2h-1.056q-.672 0-.8-.288a1.1 1.1 0 0 1-.048-.368q0-.256.048-.576.064-.336.256-.576.209-.24.384-.272.177-.032.528-.032h1.04l.288-1.76h-1.056q-.687 0-.8-.272a1.3 1.3 0 0 1-.048-.384q0-.24.048-.56.064-.336.256-.576.209-.24.384-.272.177-.032.528-.032h1.04l.272-1.648q.017-.096.032-.304.033-.224.048-.304l.08-.256a.44.44 0 0 1 .128-.224l.24-.16q.225-.144.816-.144.593 0 .816.176.24.16.24.496 0 .048-.08.56l-.304 1.808h2.384l.272-1.648q.017-.096.032-.304.033-.224.048-.304l.08-.256a.44.44 0 0 1 .128-.224l.24-.16q.225-.144.816-.144.593 0 .816.176.24.16.24.496 0 .048-.08.56zM67.027 24.7l.288-1.76h-2.368l-.304 1.76z"/></g><defs><clipPath id="b"><path fill="#fff" d="M8 0h33v48H8z"/></clipPath><clipPath id="c"><path fill="#fff" d="M49 14.5h23v19H49z"/></clipPath></defs></svg>