<svg xmlns="http://www.w3.org/2000/svg" width="149" height="48" fill="none" viewBox="0 0 149 48"><mask id="a" fill="#fff"><path d="M0 24C0 10.745 10.745 0 24 0h101c13.255 0 24 10.745 24 24s-10.745 24-24 24H24C10.745 48 0 37.255 0 24"/></mask><path fill="#82C0F3" d="M0 24C0 10.745 10.745 0 24 0h101c13.255 0 24 10.745 24 24s-10.745 24-24 24H24C10.745 48 0 37.255 0 24"/><path fill="#618FB4" d="M24 0v2h101v-4H24zm101 48v-2H24v4h101zM24 48v-2C11.85 46 2 36.15 2 24h-4c0 14.36 11.64 26 26 26zm125-24h-2c0 12.15-9.85 22-22 22v4c14.359 0 26-11.64 26-26zM125 0v2c12.15 0 22 9.85 22 22h4c0-14.36-11.641-26-26-26zM24 0v-2C9.64-2-2 9.64-2 24h4C2 11.85 11.85 2 24 2z" mask="url(#a)"/><g clip-path="url(#b)"><path stroke="#336791" stroke-width="1.333" d="M23.909 20.725c.185.023.622.124.584.39-.038.271-.437.418-.674.386-.223-.032-.627-.28-.584-.556l.014-.096c.2 0 .394-.16.66-.124Zm7.984-.156c.513.12-.052.62-.323.656-.204.028-.575-.1-.608-.34-.047-.34.746-.362.936-.316zm-1.045-6.464c1.696-.014 3.861.431 5.429 2.373.342.423.475 1.102.46 1.878-.037 2.277-1.234 5.94-3.357 9.063.213.133.836.34 2.427.023.266-.055.603-.101.836.073.864.638-.931 1.612-1.35 1.8-.626.285-1.652.436-2.431.4-.1-.01-.204-.01-.3-.028-.241-.05-.35-.046-.393-.032-.053.014-.067.133-.076.174-.134 1.143-.366 2.97-.509 3.765-.133.748-.365 1.345-.817 1.8-.45.454-1.082.72-1.928.895-1.06.22-1.8-.005-2.313-.418-.49-.4-.722-.937-.855-1.258-.085-.206-.142-.528-.19-.909-.11-.909-.157-2.314-.142-3.824-1.169 1.014-2.613.79-3.24.638-.498-.12-1.567-.74-.83-1.318.564-.445 1.438-.252 2.004-.688.114-.088.541-.487.541-.62a3.1 3.1 0 0 1-1.335-.345 65 65 0 0 0-1.866 2.048c-.395.454-.827.725-1.302.744-.47.018-.888-.211-1.24-.542-.346-.326-.669-.79-.968-1.331-.903-1.63-1.577-3.953-2.01-5.804-.284-1.225-.455-2.254-.479-2.708-.105-2.034.38-3.402 1.235-4.28.85-.872 2.014-1.193 3.14-1.257 1.69-.092 3.372.39 4.113.633l.237.083c.755-.496 1.715-.799 2.93-.78.628.009 1.212.1 1.744.192.883-.326 1.89-.436 2.82-.445zm-4.56.94c-1.173-.018-2.037.3-2.688.772a.34.34 0 0 1-.133.055c-.684.542-1.135 1.286-1.439 2.057-.342.877-.475 1.768-.527 2.364.36-.197.85-.399 1.363-.514.499-.11 1.064-.147 1.553.037.518.193.903.61 1.055 1.29.356 1.593.318 2.672.128 3.485-.228.964-.798 1.813-1.04 2.773a1 1 0 0 1 .465.004l.342.134c.366.201.608.596.665.996.095.275.005.656 0 .945.318.749.342 1.658.318 2.448-.033 1.147-.047 1.845.152 2.373.138.363.224.753.494 1.047.124.138.29.252.518.312.879.234 2.09-.216 2.688-.835.366-.377.584-.886.637-1.557.052-.624.2-1.267.299-1.887l.138-.404q.122-1.02.237-2.038c-.019-.418.043-.74.185-.987.148-.262.361-.409.56-.496.086-.037.186-.055.267-.092-.076-.11-.171-.211-.252-.312-.39-.478-.632-1.024-.936-1.552-.403-.698-1.13-1.937-1.43-3.099-.194-.753-.232-1.584.286-2.158.465-.514 1.277-.711 2.465-.597-.162-.459-.542-1.262-1.178-2.052-.855-1.056-2.17-2.107-4.07-2.438a12 12 0 0 0-1.122-.078zM24.76 27.994c-.38.032-.736.835-1.03 1.06s-.69.35-1.425.491a2.3 2.3 0 0 0-.461.129c1.06.725 2.769.147 3.448-.771.08-.11.1-.276.024-.469-.08-.206-.304-.463-.565-.44zM19.056 15.12c-1.026.055-1.995.345-2.679 1.047-.684.698-1.15 1.864-1.05 3.788.02.39.181 1.377.466 2.598.423 1.828 1.126 4.146 1.928 5.61.285.51.827 1.516 1.558 1.483.21-.009.48-.128.808-.505a57 57 0 0 1 1.828-2.006 3.38 3.38 0 0 1-1.178-3.085c.162-1.116.024-2.213.057-3.329.02-.546.11-1.776.599-3.02.28-.712.688-1.438 1.301-2.03-.779-.248-2.237-.62-3.638-.546zM32.71 27.961c-.18.05-.318.1-.413.266-.062.11-.119.308-.105.652.228.179.67.151.94.147.66-.01 1.42-.143 1.867-.345.375-.17.698-.38.903-.56-1.815.354-2.632.097-3.002-.22l-.185.055zm-8.54-7.53c-.731-.27-1.681.083-2.322.432a2.6 2.6 0 0 0-.376.238c.02.405.133 1.658-.066 3.044-.242 1.68 1.03 3.058 2.494 3.063.242-.955.807-1.8 1.035-2.76.166-.702.214-1.68-.128-3.2-.11-.482-.352-.707-.637-.812zm6.878-5.633a9 9 0 0 0-1.862.174 7.56 7.56 0 0 1 2.83 2.186c.827 1.019 1.25 2.024 1.378 2.525.033.124.062.262.024.385.028.868-.19 1.438-.219 2.26-.019.591.138 1.29.176 2.052.038.72-.048 1.492-.532 2.272l.114.142c1.273-1.937 2.185-4.067 2.674-5.9.261-.982.399-1.868.413-2.575.01-.698-.095-1.166-.275-1.395-1.344-1.658-3.173-2.103-4.717-2.122zm1.69 5.486c-1.201-.147-1.771.07-2.032.354-.285.312-.323.85-.138 1.565.27 1.038.955 2.232 1.363 2.939.171.294.304.601.475.89.261-.537.313-1.079.285-1.63-.033-.688-.2-1.39-.176-2.102l.02-.34c.056-.657.194-1.13.199-1.676z"/></g><g clip-path="url(#c)"><path fill="#336791" d="M58.296 20.14a4.2 4.2 0 0 1 .416 1.888 4.2 4.2 0 0 1-.416 1.888q-.416.832-1.072 1.328-1.328 1.024-2.752 1.024h-2v1.808q0 .368-.032.56a1.1 1.1 0 0 1-.144.416q-.224.432-1.248.432-1.12 0-1.312-.592-.096-.272-.096-.832v-8.88q0-.368.016-.544.032-.192.16-.432.224-.432 1.248-.432h3.424q1.408 0 2.736 1.024.656.496 1.072 1.344m-3.808 3.296q.48 0 .944-.352.464-.353.464-1.056t-.464-1.056q-.465-.368-.96-.368h-2v2.832zm5.021 1.856q0-1.92 1.344-3.168t3.072-1.248 3.056 1.248q1.329 1.232 1.328 3.152 0 1.328-.688 2.368-.687 1.025-1.68 1.52a4.55 4.55 0 0 1-2.032.48q-1.056 0-2.048-.512-.992-.528-1.68-1.536a4.1 4.1 0 0 1-.672-2.304m3.344 1.152q.512.384 1.04.384t1.056-.4.528-1.184-.496-1.168a1.72 1.72 0 0 0-1.072-.384q-.576 0-1.072.4-.495.4-.496 1.184 0 .768.512 1.168m6.554 2.304q-.304-.192-.304-.608t.608-1.264q.177-.272.56-.272.4 0 1.072.4.672.384 1.216.384.976 0 .976-.384 0-.304-1.072-.448-1.007-.144-2-.752-.464-.287-.768-.896-.303-.624-.304-1.472 0-2.528 3.472-2.528 1.136 0 2.336.544.56.256.56.64 0 .383-.352.944-.351.56-.72.56-.192 0-.72-.24a2.6 2.6 0 0 0-1.12-.24q-.945 0-.944.352 0 .48 1.088.624a6 6 0 0 1 2.048.608q.465.224.768.784.32.544.32 1.376 0 .833-.32 1.424-.304.576-.864.864-1.024.495-2.576.496-1.536 0-2.96-.896m12.41-4.848-1.04-.064v2.208q0 .432.128.624.144.192.512.192.384 0 .576.032.209.016.432.144.368.208.368 1.072 0 1.008-.448 1.232-.24.113-.432.144-.176.016-.528.016-1.665 0-2.528-.752-.864-.752-.864-2.544v-2.368a4 4 0 0 1-.656.048.76.76 0 0 1-.592-.272q-.225-.271-.224-.928 0-.656.08-.944.08-.305.224-.432a.98.98 0 0 1 .64-.208l.528.064v-1.648q0-.368.016-.544.033-.176.16-.384.209-.4 1.232-.4 1.089 0 1.296.592.08.256.08.816v1.568q.705-.064 1.056-.064.369 0 .544.032.192.016.432.144.416.209.416 1.232 0 1.008-.432 1.232-.24.113-.432.144-.175.015-.544.016m7.636 4.544q-.608.8-1.936.8-1.329 0-2.496-1.216-1.152-1.232-1.152-2.864t1.168-2.864 2.56-1.232q.543 0 .992.208.447.192.608.368.176.16.272.304.047-.448.32-.672.288-.24.912-.24t.912.096a.64.64 0 0 1 .4.336q.127.225.144.4.032.176.032.544v6.624q0 1.84-1.28 2.96-1.281 1.136-2.88 1.136-1.215 0-2.32-.592t-1.104-1.072q0-.624.48-1.104.303-.336.464-.464a.66.66 0 0 1 .4-.128q.225 0 .464.192.768.592 1.664.592.608 0 .992-.48t.384-1.152zm-2.848-3.264q0 .511.4.928.416.416.992.416.591 0 .976-.416.384-.432.384-.928 0-.512-.368-.944-.368-.448-.992-.448t-1.008.432a1.4 1.4 0 0 0-.384.96m12.591-4.016q.304.096.496.336.208.225.208.736 0 .512-.304 1.12t-.88.608q-.287 0-.56-.128-.255-.128-.688-.128t-.816.304q-.368.304-.368.736v3.36q0 .368-.032.56-.015.176-.144.416-.24.416-1.248.416-.768 0-1.104-.272-.255-.225-.288-.688v-6.08q0-.368.016-.544.033-.192.144-.416.225-.432 1.248-.432.96 0 1.2.368a.92.92 0 0 1 .176.528q.08-.112.224-.272.16-.16.656-.432t.864-.272q.385 0 .64.048.256.032.56.128m9.228 3.12q0 .975-.496 1.456-.48.465-1.072.464h-3.792q0 .449.528.752a2.1 2.1 0 0 0 1.056.304q.928 0 1.456-.192l.176-.064q.385-.176.64-.176.513 0 .88.72.208.432.208.736 0 1.425-3.408 1.424-1.183 0-2.112-.4-.911-.416-1.424-1.088-1.008-1.296-1.008-2.896 0-2.016 1.296-3.216 1.313-1.215 3.264-1.216 2.225 0 3.264 1.568.544.832.544 1.824m-3.376.464q.609 0 .608-.512a.71.71 0 0 0-.288-.592q-.272-.224-.8-.224-.511 0-1.024.432-.512.416-.512.896zm4.596 3.104q-.416-.511-.416-.912 0-.416.688-1.088.4-.384.848-.384.449 0 1.248.8.224.272.64.528.416.24.768.24 1.488 0 1.488-1.216 0-.368-.416-.608-.4-.255-1.008-.368a9 9 0 0 1-1.312-.352 9 9 0 0 1-1.312-.592q-.608-.336-1.024-1.056-.4-.735-.4-1.76 0-1.408 1.04-2.448 1.056-1.056 2.864-1.056.96 0 1.744.256.8.24 1.104.496l.4.304q.496.464.496.784t-.384.88q-.544.8-1.12.8-.336 0-.832-.32a2 2 0 0 1-.192-.16 2 2 0 0 0-.24-.208q-.336-.208-.864-.208-.511 0-.864.256-.336.24-.336.688 0 .432.4.704.416.272 1.024.368t1.328.304q.72.192 1.328.48t1.008 1.008q.416.704.416 1.744t-.416 1.84q-.416.784-1.088 1.216-1.296.848-2.768.848-.752 0-1.424-.176-.672-.192-1.088-.464-.848-.512-1.184-.992zm19.92-1.536q.737.495 1.056.72.576.432.576.832 0 .384-.48 1.088t-.976.704q-.303 0-.928-.432a14 14 0 0 1-.448-.304q-.368-.256-.576-.384a5.32 5.32 0 0 1-3.344 1.152q-2.48 0-4.192-1.76-1.695-1.76-1.696-4.192 0-1.328.48-2.48.48-1.169 1.28-1.952a6 6 0 0 1 1.84-1.232 5.4 5.4 0 0 1 2.144-.448q2.369 0 4.112 1.712 1.744 1.712 1.744 4.336 0 1.327-.592 2.64m-8.176-2.656q0 1.425.912 2.32.928.88 2.064.88t2.048-.864.912-2.32-.928-2.336q-.912-.88-2.048-.88t-2.048.896q-.912.88-.912 2.304m13.522 3.472h4.352q.528 0 .768.128.24.112.32.368t.08.688q0 .415-.08.672-.08.256-.272.352-.304.16-.832.16h-5.76q-1.12 0-1.312-.608-.096-.256-.096-.816V19.18q0-.368.016-.544.031-.192.16-.432.224-.432 1.248-.432 1.12 0 1.328.592.08.272.08.832z"/></g><defs><clipPath id="b"><path fill="#fff" d="M8 0h33v48H8z"/></clipPath><clipPath id="c"><path fill="#fff" d="M49 14.5h92v19H49z"/></clipPath></defs></svg>