<svg xmlns="http://www.w3.org/2000/svg" width="142" height="48" fill="none" viewBox="0 0 142 48"><mask id="a" fill="#fff"><path d="M0 24C0 10.745 10.745 0 24 0h94c13.255 0 24 10.745 24 24s-10.745 24-24 24H24C10.745 48 0 37.255 0 24"/></mask><path fill="#BAD3FF" d="M0 24C0 10.745 10.745 0 24 0h94c13.255 0 24 10.745 24 24s-10.745 24-24 24H24C10.745 48 0 37.255 0 24"/><path fill="#6092E6" d="M24 0v2h94v-4H24zm94 48v-2H24v4h94zm-94 0v-2C11.85 46 2 36.15 2 24h-4c0 14.36 11.64 26 26 26zm118-24h-2c0 12.15-9.85 22-22 22v4c14.359 0 26-11.64 26-26zM118 0v2c12.15 0 22 9.85 22 22h4c0-14.36-11.641-26-26-26zM24 0v-2C9.64-2-2 9.64-2 24h4C2 11.85 11.85 2 24 2z" mask="url(#a)"/><g stroke="#4172C7" stroke-linecap="round" stroke-linejoin="round" clip-path="url(#b)"><path fill="#7DACFF" stroke-width="1.333" d="M13.09 36.375h19.038c1.432 0 2.67-1.029 2.963-2.463l3.782-18.562c.34-1.672-.709-3.31-2.345-3.66a3 3 0 0 0-.618-.065H16.872c-1.432 0-2.67 1.029-2.963 2.463L10.126 32.65c-.34 1.672.71 3.31 2.346 3.66q.306.065.617.065"/><path stroke-width="2" d="M19.688 17.813 26.104 24l-9.625 6.188m8.021 0h4.813"/></g><g clip-path="url(#c)"><path fill="#4172C7" d="M58.296 20.14a4.2 4.2 0 0 1 .416 1.888 4.2 4.2 0 0 1-.416 1.888q-.416.832-1.072 1.328-1.328 1.024-2.752 1.024h-2v1.808q0 .368-.032.56a1.1 1.1 0 0 1-.144.416q-.224.432-1.248.432-1.12 0-1.312-.592-.096-.272-.096-.832v-8.88q0-.368.016-.544.032-.192.16-.432.224-.432 1.248-.432h3.424q1.408 0 2.736 1.024.656.496 1.072 1.344m-3.808 3.296q.48 0 .944-.352.464-.353.464-1.056t-.464-1.056q-.465-.368-.96-.368h-2v2.832zm5.021 1.856q0-1.92 1.344-3.168t3.072-1.248 3.056 1.248q1.329 1.232 1.328 3.152 0 1.328-.688 2.368-.687 1.025-1.68 1.52a4.55 4.55 0 0 1-2.032.48q-1.056 0-2.048-.512-.992-.528-1.68-1.536a4.1 4.1 0 0 1-.672-2.304m3.344 1.152q.512.384 1.04.384t1.056-.4.528-1.184-.496-1.168a1.72 1.72 0 0 0-1.072-.384q-.576 0-1.072.4-.495.4-.496 1.184 0 .768.512 1.168m16.962-5.312q1.024.448 1.024 1.104 0 .272-.256.88-.257.592-.432 1.04l-1.76 4.288q-.24.704-.8.992-.24.112-.608.112-.369 0-.72-.272-.336-.288-.448-.576l-.128-.272q-.129-.32-.944-2.496-.16.384-.48 1.264a24 24 0 0 1-.4 1.088l-.112.288a1.3 1.3 0 0 1-.128.256 1.6 1.6 0 0 1-.256.336q-.385.384-.88.384-.496 0-.832-.272-.336-.288-.448-.576l-2.416-5.888q-.16-.48-.16-.624 0-.64.912-1.008.511-.208.832-.208t.512.144a.8.8 0 0 1 .288.272q.08.128.128.272.272.64 1.136 3.008l.944-2.592q.096-.32.352-.56.464-.465.944-.464.48 0 .816.256.351.255.48.512l.128.272q.8 2.24.944 2.56l.976-2.656q.384-1.024 1.152-1.024.303 0 .64.16m9.719 3.152q0 .975-.496 1.456-.48.465-1.072.464h-3.792q0 .449.528.752a2.1 2.1 0 0 0 1.056.304q.928 0 1.456-.192l.176-.064q.384-.176.64-.176.511 0 .88.72.208.432.208.736 0 1.425-3.408 1.424-1.185 0-2.112-.4-.912-.416-1.424-1.088-1.008-1.296-1.008-2.896 0-2.016 1.296-3.216 1.311-1.215 3.264-1.216 2.223 0 3.264 1.568.544.832.544 1.824m-3.376.464q.608 0 .608-.512a.71.71 0 0 0-.288-.592q-.272-.224-.8-.224-.513 0-1.024.432-.512.416-.512.896zm10.147-3.584q.304.096.496.336.21.225.209.736 0 .512-.305 1.12-.303.608-.88.608-.287 0-.56-.128-.256-.128-.687-.128t-.817.304q-.367.304-.367.736v3.36q0 .368-.032.56a1.1 1.1 0 0 1-.144.416q-.24.416-1.249.416-.767 0-1.103-.272-.257-.225-.288-.688v-6.08q0-.368.016-.544.03-.192.144-.416.223-.432 1.248-.432.96 0 1.2.368.175.256.175.528.081-.112.224-.272.16-.16.657-.432.495-.272.864-.272.384 0 .64.048.255.032.56.128m1.336 7.584q-.303-.192-.303-.608t.608-1.264q.175-.272.56-.272.399 0 1.072.4.672.384 1.216.384.976 0 .976-.384 0-.304-1.072-.448-1.009-.144-2-.752-.465-.287-.768-.896-.305-.624-.305-1.472 0-2.528 3.473-2.528 1.136 0 2.336.544.56.256.56.64 0 .383-.352.944t-.72.56q-.192 0-.72-.24a2.6 2.6 0 0 0-1.12-.24q-.944 0-.944.352 0 .48 1.088.624a6 6 0 0 1 2.048.608q.464.224.768.784.32.544.32 1.376 0 .833-.32 1.424a2 2 0 0 1-.864.864q-1.025.495-2.576.496-1.537 0-2.96-.896M110.08 21.1q1.6 0 2.656 1.216 1.072 1.216 1.072 2.976v2.816q0 .368-.032.56a1.2 1.2 0 0 1-.144.416q-.209.416-1.232.416-.976 0-1.216-.416a1.4 1.4 0 0 1-.16-.432 7 7 0 0 1-.016-.576v-2.8q0-.656-.368-1.024t-.944-.368q-.56 0-.992.352-.432.336-.496.768v3.104q0 .368-.032.56a1.2 1.2 0 0 1-.144.416q-.209.416-1.232.416-1.008 0-1.232-.432a1.7 1.7 0 0 1-.144-.416 7 7 0 0 1-.016-.56v-9.568q0-.368.016-.544.032-.192.144-.416.224-.432 1.248-.432 1.008 0 1.216.432.127.24.144.432.032.176.032.544v3.536q.8-.975 1.872-.976m13.143 3.184q0 .975-.496 1.456-.48.465-1.072.464h-3.792q0 .449.528.752a2.1 2.1 0 0 0 1.056.304q.928 0 1.456-.192l.176-.064q.384-.176.64-.176.512 0 .88.72.208.432.208.736 0 1.425-3.408 1.424-1.183 0-2.112-.4-.912-.416-1.424-1.088-1.008-1.296-1.008-2.896 0-2.016 1.296-3.216 1.313-1.215 3.264-1.216 2.224 0 3.264 1.568.544.832.544 1.824m-3.376.464q.608 0 .608-.512a.71.71 0 0 0-.288-.592q-.272-.224-.8-.224-.512 0-1.024.432-.512.416-.512.896zm7.364 1.92q.528 0 .784.272t.256 1.12-.272 1.136q-.272.272-.784.272-1.616 0-2.272-.768-.656-.785-.656-2.592v-7.632q0-.368.016-.544.031-.192.144-.432.223-.416 1.248-.416.976 0 1.216.448.127.224.144.416.032.176.032.544v7.68q0 .495.144.496m4.176-.496q0 .304.128.4t.656.096.88.272.352 1.12-.384 1.136q-.368.272-1.04.272-3.392 0-3.392-3.36l-.016-7.632q0-.368.016-.544.032-.192.16-.432.24-.416 1.248-.416.976 0 1.216.448.176.352.176.96z"/></g><defs><clipPath id="b"><path fill="#fff" d="M8 0h33v48H8z"/></clipPath><clipPath id="c"><path fill="#fff" d="M49 14.5h85v19H49z"/></clipPath></defs></svg>