<svg xmlns="http://www.w3.org/2000/svg" width="113" height="48" fill="none" viewBox="0 0 113 48"><mask id="a" fill="#fff"><path d="M0 24C0 10.745 10.745 0 24 0h65c13.255 0 24 10.745 24 24s-10.745 24-24 24H24C10.745 48 0 37.255 0 24"/></mask><path fill="#BEE1FF" d="M0 24C0 10.745 10.745 0 24 0h65c13.255 0 24 10.745 24 24s-10.745 24-24 24H24C10.745 48 0 37.255 0 24"/><path fill="#45A9FF" d="M24 0v2h65v-4H24zm65 48v-2H24v4h65zm-65 0v-2C11.85 46 2 36.15 2 24h-4c0 14.36 11.64 26 26 26zm89-24h-2c0 12.15-9.85 22-22 22v4c14.359 0 26-11.64 26-26zM89 0v2c12.15 0 22 9.85 22 22h4c0-14.36-11.641-26-26-26zM24 0v-2C9.64-2-2 9.64-2 24h4C2 11.85 11.85 2 24 2z" mask="url(#a)"/><g clip-path="url(#b)"><path fill="#A4D5FF" d="M34.433 31.602H32.02v2.644c0 1.403-.298 2.84-1.306 3.702-1.077.923-2.91 1.91-5.83 1.91s-4.753-.987-5.83-1.908c-1.01-.864-1.307-2.301-1.307-3.702v-2.646h-2.414c-1.28 0-2.59-.327-3.378-1.432-.84-1.18-1.742-3.192-1.742-6.39 0-3.2.901-5.21 1.742-6.39.788-1.105 2.098-1.432 3.378-1.432h2.414v-2.646c0-1.402.298-2.838 1.307-3.702 1.077-.921 2.91-1.909 5.83-1.909 2.918 0 4.753.988 5.83 1.909 1.008.864 1.306 2.3 1.306 3.702v2.646h2.414c1.279 0 2.59.327 3.378 1.432.84 1.18 1.742 3.192 1.742 6.39 0 3.2-.901 5.21-1.743 6.39-.787 1.105-2.098 1.432-3.378 1.432"/><path stroke="#188BED" stroke-linecap="round" stroke-linejoin="round" stroke-width="2" d="M24.884 15.958h-7.137m0 0h-2.414c-1.28 0-2.59.327-3.378 1.432-.84 1.18-1.742 3.19-1.742 6.39 0 3.198.901 5.21 1.742 6.39.788 1.105 2.098 1.432 3.378 1.432h2.414m0-15.644v-2.646c0-1.402.298-2.838 1.307-3.702 1.077-.921 2.91-1.909 5.83-1.909 2.918 0 4.753.988 5.83 1.909 1.008.864 1.306 2.3 1.306 3.702v2.646m-7.136 15.644h7.136m0 0h2.413c1.28 0 2.591-.327 3.378-1.432.842-1.18 1.743-3.19 1.743-6.39 0-3.198-.901-5.21-1.742-6.39-.788-1.105-2.1-1.432-3.378-1.432H32.02m0 15.644v2.644c0 1.403-.298 2.84-1.306 3.702-1.077.923-2.91 1.91-5.83 1.91s-4.753-.987-5.83-1.908c-1.01-.864-1.307-2.301-1.307-3.702v-2.646M32.02 15.958v4.345c0 .922-.334 1.807-.929 2.459-.594.652-1.401 1.018-2.242 1.018h-7.93c-.842 0-1.648.366-2.243 1.018a3.65 3.65 0 0 0-.93 2.458v4.346"/><path fill="#188BED" d="M29.641 35.079c0 .345-.125.677-.348.921a1.14 1.14 0 0 1-.841.382A1.14 1.14 0 0 1 27.61 36a1.37 1.37 0 0 1-.349-.922c0-.345.126-.677.349-.921a1.14 1.14 0 0 1 .84-.382c.316 0 .619.137.842.382.223.244.348.576.348.922M20.126 12.48c0-.345.125-.677.348-.921a1.14 1.14 0 0 1 .841-.382c.316 0 .618.137.841.382.223.244.349.576.349.921s-.126.678-.349.922a1.14 1.14 0 0 1-.84.382 1.14 1.14 0 0 1-.842-.382 1.37 1.37 0 0 1-.348-.922"/></g><g clip-path="url(#c)"><path fill="#188BED" d="M58.296 20.14a4.2 4.2 0 0 1 .416 1.888 4.2 4.2 0 0 1-.416 1.888q-.416.832-1.072 1.328-1.328 1.024-2.752 1.024h-2v1.808q0 .368-.032.56a1.1 1.1 0 0 1-.144.416q-.224.432-1.248.432-1.12 0-1.312-.592-.096-.272-.096-.832v-8.88q0-.368.016-.544.032-.192.16-.432.224-.432 1.248-.432h3.424q1.408 0 2.736 1.024.656.496 1.072 1.344m-3.808 3.296q.48 0 .944-.352.464-.353.464-1.056t-.464-1.056q-.465-.368-.96-.368h-2v2.832zm12.945-2.272q.945.416.944 1.008a1.2 1.2 0 0 1-.128.544 3 3 0 0 0-.128.272l-4.192 9.376q-.128.304-.224.464a.9.9 0 0 1-.272.304.78.78 0 0 1-.48.144q-.288 0-.848-.24-.945-.416-.944-.992 0-.384 1.536-3.664l-3.184-5.36q-.32-.528-.32-.784 0-.512.864-1.024.544-.32.848-.32t.496.128a.8.8 0 0 1 .272.272q.096.127.88 1.488.8 1.344 1.52 2.512.08-.256.864-1.968.784-1.728.832-1.84.065-.112.192-.272a.69.69 0 0 1 .576-.272q.384 0 .896.224m6.712 2.736-1.04-.064v2.208q0 .432.128.624.144.192.512.192.384 0 .576.032.209.016.432.144.368.208.368 1.072 0 1.008-.448 1.232-.24.113-.432.144-.175.016-.528.016-1.664 0-2.528-.752t-.864-2.544v-2.368a4 4 0 0 1-.656.048.76.76 0 0 1-.592-.272q-.224-.271-.224-.928 0-.656.08-.944.08-.305.224-.432a.98.98 0 0 1 .64-.208l.528.064v-1.648q0-.368.016-.544.033-.176.16-.384.209-.4 1.232-.4 1.089 0 1.296.592.08.256.08.816v1.568q.705-.064 1.056-.064.369 0 .544.032.192.016.432.144.416.209.416 1.232 0 1.008-.432 1.232-.24.113-.432.144-.175.015-.544.016m6.964-2.8q1.6 0 2.656 1.216 1.072 1.216 1.072 2.976v2.816q0 .368-.032.56a1.1 1.1 0 0 1-.144.416q-.209.416-1.232.416-.976 0-1.216-.416a1.4 1.4 0 0 1-.16-.432 8 8 0 0 1-.016-.576v-2.8q0-.656-.368-1.024t-.944-.368q-.56 0-.992.352-.433.336-.496.768v3.104q0 .368-.032.56a1.1 1.1 0 0 1-.144.416q-.209.416-1.232.416-1.008 0-1.232-.432a1.8 1.8 0 0 1-.144-.416 7 7 0 0 1-.016-.56v-9.568q0-.368.016-.544.032-.192.144-.416.224-.432 1.248-.432 1.008 0 1.216.432.127.24.144.432.032.176.032.544v3.536q.8-.975 1.872-.976m4.775 4.192q0-1.92 1.344-3.168t3.072-1.248 3.056 1.248q1.329 1.232 1.328 3.152 0 1.328-.688 2.368-.687 1.025-1.68 1.52a4.55 4.55 0 0 1-2.032.48q-1.055 0-2.048-.512-.992-.528-1.68-1.536a4.1 4.1 0 0 1-.672-2.304m3.344 1.152q.512.384 1.04.384t1.056-.4.528-1.184-.496-1.168a1.72 1.72 0 0 0-1.072-.384q-.576 0-1.072.4t-.496 1.184q0 .768.512 1.168m11.178-5.376q1.6 0 2.656 1.232 1.072 1.216 1.072 2.976v2.816q0 .368-.032.56-.016.175-.128.4-.223.432-1.248.432-1.136 0-1.312-.592-.096-.271-.096-.816V25.26q0-.656-.384-1.024-.368-.368-1.008-.368-.624 0-1.024.384-.384.384-.384 1.008v2.832q0 .368-.032.56-.016.175-.144.4-.208.432-1.232.432-1.007 0-1.232-.432a1.8 1.8 0 0 1-.144-.416 7 7 0 0 1-.016-.56v-5.664q0-.352.016-.528.033-.192.16-.416.225-.4 1.232-.4.975 0 1.2.368.16.272.16.656.065-.112.288-.32.224-.208.432-.336a2.1 2.1 0 0 1 1.2-.368"/></g><defs><clipPath id="b"><path fill="#fff" d="M8 0h33v48H8z"/></clipPath><clipPath id="c"><path fill="#fff" d="M49 14.5h56v19H49z"/></clipPath></defs></svg>