<svg xmlns="http://www.w3.org/2000/svg" width="68" height="48" fill="none" viewBox="0 0 68 48"><mask id="a" fill="#fff"><path d="M0 24C0 10.745 10.745 0 24 0h20c13.255 0 24 10.745 24 24S57.255 48 44 48H24C10.745 48 0 37.255 0 24"/></mask><path fill="#ACDEDB" d="M0 24C0 10.745 10.745 0 24 0h20c13.255 0 24 10.745 24 24S57.255 48 44 48H24C10.745 48 0 37.255 0 24"/><path fill="#6AADAC" d="M24 0v2h20v-4H24zm20 48v-2H24v4h20zm-20 0v-2C11.85 46 2 36.15 2 24h-4c0 14.36 11.64 26 26 26zm44-24h-2c0 12.15-9.85 22-22 22v4c14.36 0 26-11.64 26-26zM44 0v2c12.15 0 22 9.85 22 22h4C70 9.64 58.36-2 44-2zM24 0v-2C9.64-2-2 9.64-2 24h4C2 11.85 11.85 2 24 2z" mask="url(#a)"/><g fill="#6AADAC" stroke="#6AADAC" clip-path="url(#b)"><path stroke-width="1.333" d="M24.054 10.5c-8.067 0-14.22 5.51-14.22 12.907 0 6.468 4.263 11.39 10.489 12.566l1.986.34c.51.031 1.018.062 1.551.062 1.575 0 3.028-.155 4.918-.65l-1.066-2.569c-.582.062-1.163.124-1.769.124-.29 0-.581 0-.896-.031l-1.72-.155c-4.53-.68-8.576-3.776-8.576-9.038 0-4.364 3.852-8.604 10.563-8.604 5.596 0 10.417 2.879 10.417 8.635 0 2.662-1.14 5.262-3.804 7.212l1.26 2.445c2.495-1.733 5.063-4.921 5.063-10.276 0-6.283-4.82-12.968-12.743-12.937z"/><path d="m35.43 38.08-2.286-5.2c-.555-1.264-1.27-2.7-2.726-3.504 1.27-.316 2.726-.977 3.419-2.987a8.2 8.2 0 0 0 .415-2.7c-.046-1.838-.808-5.314-4.758-5.314h-8.222c-.23 0-.439.144-.439.373v19.274c0 .373.185.603.485.603h3.603c.44 0 .416-.517.416-.517v-6.951c0-.632.231-.747.554-.747h.462c.647 0 .878.259 1.386 1.35l2.61 6.348c.162.402.3.517.67.517h4.065c.392 0 .462-.23.392-.488zm-7.899-11.72H25.5c-.162 0-.162-.086-.162-.258v-3.447c0-.086.046-.086.139-.086h2.194c1.27 0 1.986.603 1.986 1.81 0 1.033-.554 1.952-2.125 1.981Z"/></g><g clip-path="url(#c)"><path fill="#4A8382" d="M58.616 27.516q.24.576.24.832 0 .608-.992 1.024-.512.224-.832.224a.9.9 0 0 1-.512-.144 1.3 1.3 0 0 1-.288-.32q-.16-.304-1.248-2.896l-.496.032h-2.016v1.808q0 .368-.032.56a1.1 1.1 0 0 1-.144.416q-.224.432-1.248.432-1.12 0-1.312-.592-.096-.272-.096-.832v-8.88q0-.368.016-.544.032-.192.16-.432.224-.432 1.248-.432h3.456q1.408 0 2.736 1.024.64.496 1.056 1.344a4.2 4.2 0 0 1 .416 1.888q0 1.807-1.2 2.976.352.848 1.088 2.512m-6.144-4.08h2.048q.465 0 .928-.352.464-.353.464-1.056t-.464-1.056q-.465-.368-.96-.368h-2.016z"/></g><defs><clipPath id="b"><path fill="#fff" d="M8 0h33v48H8z"/></clipPath><clipPath id="c"><path fill="#fff" d="M49 14.5h11v19H49z"/></clipPath></defs></svg>