<svg xmlns="http://www.w3.org/2000/svg" width="101" height="48" fill="none" viewBox="0 0 101 48"><mask id="a" fill="#fff"><path d="M0 24C0 10.745 10.745 0 24 0h53c13.255 0 24 10.745 24 24S90.255 48 77 48H24C10.745 48 0 37.255 0 24"/></mask><path fill="#BEF3FF" d="M0 24C0 10.745 10.745 0 24 0h53c13.255 0 24 10.745 24 24S90.255 48 77 48H24C10.745 48 0 37.255 0 24"/><path fill="#45DDFF" d="M24 0v2h53v-4H24zm53 48v-2H24v4h53zm-53 0v-2C11.85 46 2 36.15 2 24h-4c0 14.36 11.64 26 26 26zm77-24h-2c0 12.15-9.85 22-22 22v4c14.36 0 26-11.64 26-26zM77 0v2c12.15 0 22 9.85 22 22h4C103 9.64 91.36-2 77-2zM24 0v-2C9.64-2-2 9.64-2 24h4C2 11.85 11.85 2 24 2z" mask="url(#a)"/><g clip-path="url(#b)"><path fill="#A4D5FF" d="m25.7 47.224.023-.004q.027.004.035.037l.035.88-.008.035-.025.034-.214.152-.025.008-.031-.008-.214-.152-.021-.027-.01-.042.035-.882.008-.02q.015-.022.05-.011l.146.072.029.008.04-.008zm.543-.234.027-.003q.03.008.04.045l.071 1.266-.008.03q-.021.026-.06.016l-.415-.192-.016-.015-.01-.024-.038-.887.007-.023.02-.02zm-1.478-.004q.015-.004.03.005l.38.19.02.02.006.025-.035.887-.008.022-.02.017-.415.192-.031.004q-.033-.012-.035-.05l.07-1.266.012-.029a.04.04 0 0 1 .026-.017"/><path stroke="#188BED" stroke-width="1.333" d="m25.7 47.224.023-.004q.027.004.035.037l.035.88-.008.035-.025.034-.214.152-.025.008-.031-.008-.214-.152-.021-.027-.01-.042.035-.882.008-.02q.015-.022.05-.011l.146.072.029.008.04-.008zm.543-.234.027-.003q.03.008.04.045l.071 1.266-.008.03q-.021.026-.06.016l-.415-.192-.016-.015-.01-.024-.038-.887.007-.023.02-.02zm-1.478-.004q.015-.004.03.005l.38.19.02.02.006.025-.035.887-.008.022-.02.017-.415.192-.031.004q-.033-.012-.035-.05l.07-1.266.012-.029a.04.04 0 0 1 .026-.017Z"/><path fill="#18ADED" d="M25.373 9.698c2.339-1.86 5.094-2.954 7.377-1.583 2.283 1.369 2.751 4.397 2.37 7.432q-.069.564-.181 1.156.55.197 1.054.415C38.711 18.294 41 20.23 41 22.968c0 2.74-2.289 4.676-5.007 5.851q-.506.219-1.055.415.113.592.182 1.157c.381 3.034-.087 6.062-2.37 7.432s-5.04.277-7.377-1.582a18 18 0 0 1-.873-.743q-.44.398-.873.743c-2.337 1.86-5.094 2.952-7.377 1.581-2.281-1.369-2.75-4.397-2.37-7.431q.074-.582.183-1.157-.552-.197-1.056-.415C10.289 27.644 8 25.71 8 22.97s2.289-4.675 5.007-5.85q.505-.22 1.056-.416-.112-.592-.183-1.156c-.38-3.035.088-6.063 2.37-7.432s5.04-.278 7.377 1.583q.435.342.873.742.44-.398.873-.742M16.97 30.043q-.067.387-.114.75c-.35 2.796.309 3.976.895 4.329.588.352 1.901.355 4.055-1.357q.29-.231.569-.479a34 34 0 0 1-2.087-2.728 32 32 0 0 1-3.318-.515m15.065 0q-1.554.33-3.318.515a34 34 0 0 1-2.087 2.728q.287.255.567.478c2.154 1.713 3.468 1.71 4.055 1.358.588-.353 1.244-1.533.895-4.329q-.048-.375-.112-.75M24.5 18.291q-1.334 0-2.553.08-.677 1.06-1.344 2.26-.64 1.15-1.21 2.34.544 1.137 1.21 2.337t1.344 2.26c1.701.105 3.407.105 5.108 0q.675-1.06 1.342-2.26a44 44 0 0 0 1.212-2.34 44 44 0 0 0-1.212-2.338 44 44 0 0 0-1.342-2.26q-1.277-.08-2.555-.08m-9.66 1.434q-.344.129-.681.273C11.654 21.08 11 22.264 11 22.968c0 .706.656 1.889 3.159 2.971q.327.141.681.273a35 35 0 0 1 1.232-3.243 35 35 0 0 1-1.232-3.244m19.32 0a35 35 0 0 1-1.23 3.244 35 35 0 0 1 1.23 3.243q.344-.128.681-.273C37.346 24.857 38 23.674 38 22.97s-.654-1.887-3.159-2.97a15 15 0 0 0-.681-.274m-9.66.905c.597 0 1.169.246 1.591.685.422.438.659 1.033.659 1.654 0 .62-.237 1.215-.659 1.654a2.2 2.2 0 0 1-1.591.685 2.2 2.2 0 0 1-1.591-.685 2.4 2.4 0 0 1-.659-1.654c0-.62.237-1.216.659-1.654a2.2 2.2 0 0 1 1.591-.685m-6.75-9.814c-.587.352-1.245 1.532-.895 4.328q.044.365.113.75 1.553-.329 3.319-.514a34 34 0 0 1 2.086-2.73 15 15 0 0 0-.569-.476c-2.153-1.714-3.466-1.71-4.054-1.358m13.5 0c-.587-.353-1.9-.354-4.055 1.358q-.288.231-.567.477c.7.82 1.398 1.732 2.085 2.729q1.767.185 3.32.514.064-.372.112-.748c.351-2.796-.307-3.978-.895-4.33"/></g><g clip-path="url(#c)"><path fill="#18ADED" d="M58.616 27.516q.24.576.24.832 0 .608-.992 1.024-.512.224-.832.224a.9.9 0 0 1-.512-.144 1.3 1.3 0 0 1-.288-.32q-.16-.304-1.248-2.896l-.496.032h-2.016v1.808q0 .368-.032.56a1.1 1.1 0 0 1-.144.416q-.224.432-1.248.432-1.12 0-1.312-.592-.096-.272-.096-.832v-8.88q0-.368.016-.544.032-.192.16-.432.224-.432 1.248-.432h3.456q1.408 0 2.736 1.024.64.496 1.056 1.344a4.2 4.2 0 0 1 .416 1.888q0 1.807-1.2 2.976.352.848 1.088 2.512m-6.144-4.08h2.048q.465 0 .928-.352.464-.353.464-1.056t-.464-1.056q-.465-.368-.96-.368h-2.016zm15.077.848q0 .975-.496 1.456-.48.465-1.072.464H62.19q0 .449.528.752a2.1 2.1 0 0 0 1.056.304q.928 0 1.456-.192l.176-.064q.385-.176.64-.176.513 0 .88.72.208.432.208.736 0 1.425-3.408 1.424-1.184 0-2.112-.4-.911-.416-1.424-1.088-1.008-1.296-1.008-2.896 0-2.016 1.296-3.216 1.313-1.215 3.264-1.216 2.224 0 3.264 1.568.544.832.544 1.824m-3.376.464q.609 0 .608-.512a.71.71 0 0 0-.288-.592q-.272-.224-.8-.224-.511 0-1.024.432-.512.416-.512.896zm9.892-2.784q.096-.896 1.264-.896.625 0 .928.096t.416.336q.127.24.144.432.032.176.032.544v5.6q0 .368-.032.56-.015.176-.128.416-.224.416-1.104.416-.864 0-1.168-.208-.288-.225-.336-.64-.592.848-1.984.848-1.375 0-2.56-1.264-1.184-1.264-1.184-2.928 0-1.68 1.184-2.928 1.2-1.264 2.624-1.264.545 0 .992.192.449.192.624.368.176.16.288.32m-2.912 3.328q0 .528.416.96.417.416 1.008.416.592 0 .976-.432.4-.432.4-.944 0-.528-.384-.976-.367-.448-1.008-.448-.624 0-1.024.448-.384.448-.384.976m9.611 0q0 .672.448 1.056.449.368.944.368.513 0 .944-.288.449-.304.72-.304.48 0 1.168.848.368.465.368.832 0 .608-.88 1.136-.912.64-2.24.64-1.487 0-2.864-1.072-.655-.512-1.072-1.36a4.3 4.3 0 0 1-.416-1.888q0-1.04.416-1.872.417-.848 1.072-1.36 1.329-1.056 2.832-1.056.608 0 1.184.176.576.16.848.32l.256.16q.288.192.448.304.416.32.416.736 0 .4-.336.912-.576.88-1.104.88-.303 0-.864-.352-.288-.272-.832-.272-.528 0-.992.384t-.464 1.072M91.13 23.9l-1.04-.064v2.208q0 .432.128.624.144.192.512.192.384 0 .576.032.207.016.432.144.368.208.368 1.072 0 1.008-.448 1.232-.24.113-.432.144-.177.016-.528.016-1.665 0-2.528-.752-.864-.752-.864-2.544v-2.368a4 4 0 0 1-.656.048.76.76 0 0 1-.592-.272q-.225-.271-.224-.928 0-.656.08-.944.08-.305.224-.432a.98.98 0 0 1 .64-.208l.528.064v-1.648q0-.368.016-.544.031-.176.16-.384.208-.4 1.232-.4 1.087 0 1.296.592.08.256.08.816v1.568q.704-.064 1.056-.064.367 0 .544.032.192.016.432.144.416.209.416 1.232 0 1.008-.432 1.232-.24.113-.432.144-.177.015-.544.016"/></g><defs><clipPath id="b"><path fill="#fff" d="M8 0h33v48H8z"/></clipPath><clipPath id="c"><path fill="#fff" d="M49 14.5h44v19H49z"/></clipPath></defs></svg>