<svg xmlns="http://www.w3.org/2000/svg" width="98" height="48" fill="none" viewBox="0 0 98 48"><mask id="a" fill="#fff"><path d="M0 24C0 10.745 10.745 0 24 0h50c13.255 0 24 10.745 24 24S87.255 48 74 48H24C10.745 48 0 37.255 0 24"/></mask><path fill="#F6C8C3" d="M0 24C0 10.745 10.745 0 24 0h50c13.255 0 24 10.745 24 24S87.255 48 74 48H24C10.745 48 0 37.255 0 24"/><path fill="#D4200F" d="M24 0v2h50v-4H24zm50 48v-2H24v4h50zm-50 0v-2C11.85 46 2 36.15 2 24h-4c0 14.36 11.64 26 26 26zm74-24h-2c0 12.15-9.85 22-22 22v4c14.36 0 26-11.64 26-26zM74 0v2c12.15 0 22 9.85 22 22h4C100 9.64 88.36-2 74-2zM24 0v-2C9.64-2-2 9.64-2 24h4C2 11.85 11.85 2 24 2z" mask="url(#a)"/><g clip-path="url(#b)"><path fill="#DA3B1F" stroke="#D4200F" stroke-width="1.333" d="M10.356 22.625c1.644.828 10.722 4.684 12.144 5.408s2.454.725 4.27-.258c1.815-1.01 10.353-4.684 11.997-5.59.834-.466 1.202-.828 1.202-1.139v-3.235c0-.336-.417-.62-1.227-.931-1.595-.621-10.083-4.166-11.703-4.813-1.619-.622-2.281-.596-4.195.129s-10.918 4.451-12.537 5.124c-.785.336-1.227.62-1.227.957h-.049v3.287c.05.31.515.647 1.325 1.06Zm14.819.466-4.98-2.174 7.139-1.165zm10.82-5.176-4.22 1.76-.467.18-4.22-1.759 4.686-1.94zM23.58 14.68l-.687-1.345 2.159.88 2.036-.7-.54 1.398 2.062.828-2.675.285-.589 1.527-.956-1.682-3.092-.285zm-5.324 1.89c2.11 0 3.827.698 3.827 1.552s-1.717 1.553-3.827 1.553-3.827-.699-3.827-1.553 1.717-1.553 3.827-1.553Zm20.51 7.892c-1.643.906-10.156 4.607-11.972 5.59-1.816 1.01-2.822.983-4.245.259-1.422-.725-10.55-4.58-12.168-5.409-.835-.414-1.3-.75-1.3-1.087v3.287c0 .336.465.673 1.275 1.087 1.644.828 10.722 4.684 12.144 5.408s2.454.725 4.27-.259c1.815-1.009 10.353-4.684 11.997-5.59.834-.465 1.202-.827 1.202-1.138v-3.235c0 .285-.393.647-1.202 1.087Zm0 5.357c-1.643.906-10.156 4.606-11.972 5.59-1.816 1.009-2.822.983-4.245.258-1.422-.724-10.55-4.58-12.168-5.408-.835-.388-1.3-.75-1.3-1.087v3.287c0 .336.465.672 1.275 1.086C12 34.373 21.078 38.23 22.5 38.954s2.454.725 4.27-.259c1.815-1.01 10.353-4.684 11.997-5.59.834-.465 1.202-.828 1.202-1.138v-3.235c0 .31-.393.647-1.202 1.087Z"/></g><g clip-path="url(#c)"><path fill="#DA3B1F" d="M58.616 27.516q.24.576.24.832 0 .608-.992 1.024-.512.224-.832.224a.9.9 0 0 1-.512-.144 1.3 1.3 0 0 1-.288-.32q-.16-.304-1.248-2.896l-.496.032h-2.016v1.808q0 .368-.032.56a1.1 1.1 0 0 1-.144.416q-.224.432-1.248.432-1.12 0-1.312-.592-.096-.272-.096-.832v-8.88q0-.368.016-.544.032-.192.16-.432.224-.432 1.248-.432h3.456q1.408 0 2.736 1.024.64.496 1.056 1.344a4.2 4.2 0 0 1 .416 1.888q0 1.807-1.2 2.976.352.848 1.088 2.512m-6.144-4.08h2.048q.465 0 .928-.352.464-.353.464-1.056t-.464-1.056q-.465-.368-.96-.368h-2.016zm15.077.848q0 .975-.496 1.456-.48.465-1.072.464H62.19q0 .449.528.752a2.1 2.1 0 0 0 1.056.304q.928 0 1.456-.192l.176-.064q.385-.176.64-.176.513 0 .88.72.208.432.208.736 0 1.425-3.408 1.424-1.184 0-2.112-.4-.911-.416-1.424-1.088-1.008-1.296-1.008-2.896 0-2.016 1.296-3.216 1.313-1.215 3.264-1.216 2.224 0 3.264 1.568.544.832.544 1.824m-3.376.464q.609 0 .608-.512a.71.71 0 0 0-.288-.592q-.272-.224-.8-.224-.511 0-1.024.432-.512.416-.512.896zm10.068-7.184a.7.7 0 0 1 .432-.336q.305-.096.8-.096.512 0 .816.096t.416.336q.127.24.144.432.032.176.032.544v9.552q0 .368-.032.56-.016.175-.144.4-.24.432-1.36.432-1.104 0-1.232-.784-.672.768-1.872.768-1.44 0-2.624-1.248-1.184-1.264-1.184-2.928 0-1.68 1.184-2.944 1.2-1.264 2.624-1.264 1.185 0 1.84.8v-3.36q0-.368.016-.544.033-.192.144-.416m-2.592 8.688q.417.432 1.008.432.592 0 .976-.432.4-.432.4-.944 0-.528-.384-.976-.368-.448-1.008-.448t-1.024.448a1.4 1.4 0 0 0-.384.96q0 .528.416.96m6.507-3.776q0-.368.016-.544a1.7 1.7 0 0 1 .144-.432q.223-.416 1.248-.416.767 0 1.088.272.272.225.288.688.016.16.016.464v5.6q0 .368-.032.56-.016.176-.144.416-.209.416-1.232.416-1.008 0-1.232-.432a1.8 1.8 0 0 1-.144-.416 7 7 0 0 1-.016-.56zm2.624-2.96q-.113.224-.416.32-.304.096-.816.096-.497 0-.8-.096a.7.7 0 0 1-.432-.336 1.8 1.8 0 0 1-.144-.416 7 7 0 0 1-.016-.56q0-.368.016-.544.032-.192.144-.416.223-.432 1.248-.432 1.008 0 1.216.432.127.24.144.432.032.176.032.544t-.032.56q-.016.176-.144.416m1.518 9.232q-.304-.192-.304-.608t.608-1.264q.176-.272.56-.272.4 0 1.072.4.672.384 1.216.384.976 0 .976-.384 0-.304-1.072-.448-1.008-.144-2-.752-.465-.287-.768-.896-.304-.624-.304-1.472 0-2.528 3.472-2.528 1.136 0 2.336.544.56.256.56.64 0 .383-.352.944t-.72.56q-.192 0-.72-.24a2.6 2.6 0 0 0-1.12-.24q-.944 0-.944.352 0 .48 1.088.624a6 6 0 0 1 2.048.608q.464.224.768.784.32.544.32 1.376 0 .833-.32 1.424-.304.576-.864.864-1.025.495-2.576.496-1.535 0-2.96-.896"/></g><defs><clipPath id="b"><path fill="#fff" d="M8 0h33v48H8z"/></clipPath><clipPath id="c"><path fill="#fff" d="M49 14.5h41v19H49z"/></clipPath></defs></svg>