<svg xmlns="http://www.w3.org/2000/svg" width="96" height="48" fill="none" viewBox="0 0 96 48"><mask id="a" fill="#fff"><path d="M0 24C0 10.745 10.745 0 24 0h48c13.255 0 24 10.745 24 24S85.255 48 72 48H24C10.745 48 0 37.255 0 24"/></mask><path fill="#FDCBD4" d="M0 24C0 10.745 10.745 0 24 0h48c13.255 0 24 10.745 24 24S85.255 48 72 48H24C10.745 48 0 37.255 0 24"/><path fill="#E89A9C" d="M24 0v2h48v-4H24zm48 48v-2H24v4h48zm-48 0v-2C11.85 46 2 36.15 2 24h-4c0 14.36 11.64 26 26 26zm72-24h-2c0 12.15-9.85 22-22 22v4c14.36 0 26-11.64 26-26zM72 0v2c12.15 0 22 9.85 22 22h4C98 9.64 86.36-2 72-2zM24 0v-2C9.64-2-2 9.64-2 24h4C2 11.85 11.85 2 24 2z" mask="url(#a)"/><g clip-path="url(#b)"><path fill="#ED9093" stroke="#B9565E" stroke-width="1.333" d="m29.83 10.18-13.296 3.557c-1.081.272-1.967 1.136-2.465 2.322l-1.967 5.36c-.39 1.037-.151 2.593.757 3.457 1.73 1.63 9.274 7.78 12.647 10.62 1.08.914 2.594.94 3.308-.37l8.69-16.572c.692-1.31.411-2.865-.518-3.804l-3.503-3.606c-.951-.963-2.313-1.309-3.653-.963Z"/><path fill="#FFBDC3" d="m23.403 11.85-3.366 9.639 6.679 14.661 3.059-18.11z"/><path fill="#B9565D" d="m37.541 14.284-3.666-3.848c-.846-.88-1.866-1.333-2.994-1.282-.585 0-1.084.15-1.497.251l-13.103 3.546c-1.301.327-2.408 1.408-2.994 2.892l-1.909 5.507c-.564 1.383-.238 3.395.998 4.627 1.107 1.03 4.47 3.822 7.702 6.488l5.185 4.5c.607.529 1.258 1.032 2.19.981.847 0 1.606-.452 2.105-1.383l8.678-17.049c.802-1.634.564-3.847-.695-5.23M30.21 11.14c.998-.226 1.844-.176 2.733.579l3.406 3.57c.282.327.564.705.52.856l-1.887.477a197 197 0 0 0-4.1 1.031l-.195-.075-5.662-5.105zM12.593 22.33l1.91-5.532c.433-1.081 1.192-1.835 2.038-2.087l5.316-1.358-3.255 7.67-.086.075-5.793 1.534c-.195.05-.195-.1-.13-.302m.694 2.39c-.152-.151-.325-.378-.238-.428l5.619-1.484h.13l6.334 12.12c-2.213-1.81-10.196-8.524-11.845-10.208m7.203-2.364 9.155-2.465v.1l-2.43 15.114c-.065.201-.152.1-.239-.05l-6.573-12.473c-.087-.176-.043-.226.087-.226m-.022-1.786 3.037-7.167.044-.075c.152.075 2.473 2.288 5.315 4.853v.05l-8.374 2.364zm8.374 13.83 2.365-14.81.043-.126.152-.076 5.619-1.634c.173 0 .086.276 0 .478z"/></g><g clip-path="url(#c)"><path fill="#B05A5A" d="M58.616 27.516q.24.576.24.832 0 .608-.992 1.024-.512.224-.832.224a.9.9 0 0 1-.512-.144 1.3 1.3 0 0 1-.288-.32q-.16-.304-1.248-2.896l-.496.032h-2.016v1.808q0 .368-.032.56a1.1 1.1 0 0 1-.144.416q-.224.432-1.248.432-1.12 0-1.312-.592-.096-.272-.096-.832v-8.88q0-.368.016-.544.032-.192.16-.432.224-.432 1.248-.432h3.456q1.408 0 2.736 1.024.64.496 1.056 1.344a4.2 4.2 0 0 1 .416 1.888q0 1.807-1.2 2.976.352.848 1.088 2.512m-6.144-4.08h2.048q.465 0 .928-.352.464-.353.464-1.056t-.464-1.056q-.465-.368-.96-.368h-2.016zm10.85 6.032q-1.617 0-2.689-1.216-1.056-1.232-1.056-2.992v-2.8q0-.384.017-.56a1.8 1.8 0 0 1 .143-.416q.225-.432 1.249-.432 1.12 0 1.312.608.095.256.096.816v2.8q0 .656.367 1.024.384.368 1.008.368.64 0 1.024-.384.4-.384.4-1.008v-2.832q0-.368.017-.544.03-.192.16-.432.208-.416 1.231-.416 1.008 0 1.233.432.112.24.127.432.033.176.032.544v5.664q0 .352-.031.544-.017.175-.145.4-.24.416-1.231.416-.976 0-1.2-.384-.16-.272-.16-.656a1.6 1.6 0 0 1-.288.32q-.225.208-.433.352a2.14 2.14 0 0 1-1.183.352m10.583-8.384q1.423 0 2.608 1.264 1.2 1.264 1.2 2.944 0 1.664-1.184 2.928-1.185 1.248-2.544 1.248-1.36 0-1.936-.768-.129.784-1.376.784-1.008 0-1.232-.432a1.8 1.8 0 0 1-.144-.416 7 7 0 0 1-.016-.56v-9.552q0-.368.016-.544.032-.192.144-.416.223-.432 1.248-.432 1.008 0 1.216.432.127.24.144.432.032.176.032.544v3.328q.639-.784 1.824-.784m-1.408 5.168q.4.432.992.432.591 0 1.008-.432.416-.432.416-.96t-.384-.96q-.385-.448-1.024-.448-.64 0-1.024.448a1.5 1.5 0 0 0-.368.976q0 .512.384.944m14.092-5.088q.944.416.944 1.008a1.2 1.2 0 0 1-.128.544q-.128.255-.128.272l-4.192 9.376q-.128.304-.224.464a.9.9 0 0 1-.272.304.78.78 0 0 1-.48.144q-.287 0-.848-.24-.944-.416-.944-.992 0-.384 1.536-3.664l-3.184-5.36q-.32-.528-.32-.784 0-.512.864-1.024.545-.32.848-.32.304 0 .496.128a.8.8 0 0 1 .272.272q.096.127.88 1.488.8 1.344 1.52 2.512.081-.256.864-1.968.784-1.728.832-1.84.065-.112.192-.272a.68.68 0 0 1 .576-.272q.384 0 .896.224"/></g><defs><clipPath id="b"><path fill="#fff" d="M8 0h33v48H8z"/></clipPath><clipPath id="c"><path fill="#fff" d="M49 14.5h39v19H49z"/></clipPath></defs></svg>