<svg xmlns="http://www.w3.org/2000/svg" width="92" height="48" fill="none" viewBox="0 0 92 48"><mask id="a" fill="#fff"><path d="M0 24C0 10.745 10.745 0 24 0h44c13.255 0 24 10.745 24 24S81.255 48 68 48H24C10.745 48 0 37.255 0 24"/></mask><path fill="#FEB193" d="M0 24C0 10.745 10.745 0 24 0h44c13.255 0 24 10.745 24 24S81.255 48 68 48H24C10.745 48 0 37.255 0 24"/><path fill="#E17B5A" d="M24 0v2h44v-4H24zm44 48v-2H24v4h44zm-44 0v-2C11.85 46 2 36.15 2 24h-4c0 14.36 11.64 26 26 26zm68-24h-2c0 12.15-9.85 22-22 22v4c14.36 0 26-11.64 26-26zM68 0v2c12.15 0 22 9.85 22 22h4C94 9.64 82.36-2 68-2zM24 0v-2C9.64-2-2 9.64-2 24h4C2 11.85 11.85 2 24 2z" mask="url(#a)"/><g clip-path="url(#b)"><path fill="#BC4926" d="M39.934 22.654c-.174-1.021-.801-1.86-1.672-2.261a8 8 0 0 0-1.01-.365c-.245-.073-.314-.146-.419-.401-.14-.365-.313-.73-.488-1.167-.07-.183-.034-.292.035-.438a8.6 8.6 0 0 0 .593-1.459c.313-.948.07-2.006-.732-2.881l-1.603-1.714c-.801-.839-1.846-1.204-2.787-.875-.418.145-.87.4-1.324.656a.57.57 0 0 1-.488 0l-1.15-.547c-.173-.073-.243-.182-.278-.365-.105-.291-.174-.583-.279-.875-.348-.948-1.219-1.86-2.438-2.006h-2.892c-1.08.073-2.02.875-2.37 2.006-.069.255-.139.51-.243.839-.035.255-.14.328-.348.437l-1.01.475c-.21.109-.35.109-.558 0l-.836-.438c-1.15-.62-2.23-.365-3.136.438l-1.777 1.896c-.87.875-1.184 2.006-.731 3.027l.627 1.35c.07.182.14.291.035.474l-.523 1.24c-.07.182-.21.255-.383.328a8 8 0 0 0-.836.292c-.976.364-1.812 1.386-1.882 2.553v2.808c.07 1.094.662 2.043 1.533 2.444.349.182.732.291 1.185.437.244.073.313.146.383.365l.523 1.094c.104.219.104.292 0 .51l-.628 1.387c-.418 1.02-.139 2.115.628 3.136l1.776 1.897a2.78 2.78 0 0 0 1.986.802c.697 0 1.115-.255 2.02-.73.314-.145.384-.145.663-.036l.975.438c.28.146.349.182.384.438l.244.838c.418 1.131 1.289 1.97 2.438 2.006h2.683c1.08 0 2.09-.693 2.473-1.75.14-.365.244-.73.349-1.131.07-.182.174-.255.348-.328l.941-.438c.279-.146.383-.182.662-.036.453.255 1.08.583 1.533.656a2.63 2.63 0 0 0 2.473-.693l1.708-1.823c.592-.547 1.01-1.532.8-2.517-.138-.51-.556-1.35-.8-2.042-.07-.146 0-.365.034-.438l.488-1.276c.07-.183.21-.256.383-.292.349-.146.627-.183.906-.328.976-.365 1.812-1.313 1.847-2.517v-3.1zm-2.125 2.845c0 .364-.14.62-.453.766l-1.742.656a.7.7 0 0 0-.383.401c-.07.183-1.15 2.736-1.15 2.736-.105.218 0 .437.104.693l.767 1.787c.174.328.07.583-.174.912l-1.603 1.714c-.244.291-.453.583-1.22.145l-1.323-.692s-.384-.146-.593-.037l-2.647 1.204a.83.83 0 0 0-.488.547l-.627 1.714c-.105.328-.349.474-.627.474h-2.37c-.313 0-.522-.11-.626-.365l-.662-1.896a.73.73 0 0 0-.419-.438 24 24 0 0 1-2.438-1.094c-.279-.182-.453-.182-.871.037l-1.463.765c-.453.22-.662.146-1.01-.182l-1.638-1.787c-.244-.292-.314-.51-.175-.875l.837-1.933c.104-.292.139-.475.035-.693l-1.046-2.7c-.07-.218-.244-.364-.453-.473l-1.777-.657a.74.74 0 0 1-.487-.693V23.02c0-.256.174-.584.488-.73l1.811-.62c.244-.073.349-.219.488-.51l1.01-2.626c.105-.256.105-.438-.034-.766l-.871-2.08c-.14-.364.034-.583.348-.91l1.498-1.57c.314-.29.488-.29.87-.072l1.569.766c.313.146.453.182.836.036.836-.4 1.533-.73 2.543-1.13.244-.073.383-.256.453-.547l.558-1.678c.07-.182.278-.474.592-.474h2.369c.313 0 .557.11.697.474l.592 1.75c.07.292.209.438.488.548l2.578 1.057c.279.11.418.11.731-.036l1.499-.766c.383-.219.627-.219.94.073l1.638 1.714c.313.292.453.51.174.985l-.836 1.823c-.14.292-.035.547.07.84l.975 2.589c.07.255.279.437.523.51l1.637.62c.314.11.523.365.523.693z"/><path fill="#FCA282" d="M37.809 25.499c0 .364-.14.62-.453.766l-1.742.656a.7.7 0 0 0-.383.401c-.07.183-1.15 2.736-1.15 2.736-.105.218 0 .437.104.693l.767 1.787c.174.328.07.583-.174.912l-1.603 1.714c-.244.291-.453.583-1.22.145l-1.323-.692s-.384-.146-.593-.037l-2.647 1.204a.83.83 0 0 0-.488.547l-.627 1.714c-.105.328-.349.474-.627.474h-2.37c-.313 0-.522-.11-.626-.365l-.662-1.896a.73.73 0 0 0-.419-.438 24 24 0 0 1-2.438-1.094c-.279-.182-.453-.182-.871.037l-1.463.765c-.453.22-.662.146-1.01-.182l-1.638-1.787c-.244-.292-.314-.51-.175-.875l.837-1.933c.104-.292.139-.475.035-.693l-1.046-2.7c-.07-.218-.244-.364-.453-.473l-1.777-.657a.74.74 0 0 1-.487-.693V23.02c0-.256.174-.584.488-.73l1.811-.62c.244-.073.349-.219.488-.51l1.01-2.626c.105-.256.105-.438-.034-.766l-.871-2.08c-.14-.364.034-.583.348-.91l1.498-1.57c.314-.29.488-.29.87-.072l1.569.766c.313.146.453.182.836.036.836-.4 1.533-.73 2.543-1.13.244-.073.383-.256.453-.547l.558-1.678c.07-.182.278-.474.592-.474h2.369c.313 0 .557.11.697.474l.592 1.75c.07.292.209.438.488.548l2.578 1.057c.279.11.418.11.731-.036l1.499-.766c.383-.219.627-.219.94.073l1.638 1.714c.313.292.453.51.174.985l-.836 1.823c-.14.292-.035.547.07.84l.975 2.589c.07.255.279.437.523.51l1.637.62c.314.11.523.365.523.693z"/><path stroke="#B75034" stroke-width=".4" d="M39.934 22.654c-.174-1.021-.801-1.86-1.672-2.261a8 8 0 0 0-1.01-.365c-.245-.073-.314-.146-.419-.401-.14-.365-.313-.73-.488-1.167-.07-.183-.034-.292.035-.438a8.6 8.6 0 0 0 .593-1.459c.313-.948.07-2.006-.732-2.881l-1.603-1.714c-.801-.839-1.846-1.204-2.787-.875-.418.145-.87.4-1.324.656a.57.57 0 0 1-.488 0l-1.15-.547c-.173-.073-.243-.182-.278-.365-.105-.291-.174-.583-.279-.875-.348-.948-1.219-1.86-2.438-2.006h-2.892c-1.08.073-2.02.875-2.37 2.006-.069.255-.139.51-.243.839-.035.255-.14.328-.348.437l-1.01.475c-.21.109-.35.109-.558 0l-.836-.438c-1.15-.62-2.23-.365-3.136.438l-1.777 1.896c-.87.875-1.184 2.006-.731 3.027l.627 1.35c.07.182.14.291.035.474l-.523 1.24c-.07.182-.21.255-.383.328a8 8 0 0 0-.836.292c-.976.364-1.812 1.386-1.882 2.553v2.808c.07 1.094.662 2.043 1.533 2.444.349.182.732.291 1.185.437.244.073.313.146.383.365l.523 1.094c.104.219.104.292 0 .51l-.628 1.387c-.418 1.02-.139 2.115.628 3.136l1.776 1.897a2.78 2.78 0 0 0 1.986.802c.697 0 1.115-.255 2.02-.73.314-.145.384-.145.663-.036l.975.438c.28.146.349.182.384.438l.244.838c.418 1.131 1.289 1.97 2.438 2.006h2.683c1.08 0 2.09-.693 2.473-1.75.14-.365.244-.73.349-1.131.07-.182.174-.255.348-.328l.941-.438c.279-.146.383-.182.662-.036.453.255 1.08.583 1.533.656a2.63 2.63 0 0 0 2.473-.693l1.708-1.823c.592-.547 1.01-1.532.8-2.517-.138-.51-.556-1.35-.8-2.042-.07-.146 0-.365.034-.438l.488-1.276c.07-.183.21-.256.383-.292.349-.146.627-.183.906-.328.976-.365 1.812-1.313 1.847-2.517v-3.1zm-2.125 2.845c0 .364-.14.62-.453.766l-1.742.656a.7.7 0 0 0-.383.401c-.07.183-1.15 2.736-1.15 2.736-.105.218 0 .437.104.693l.767 1.787c.174.328.07.583-.174.912l-1.603 1.714c-.244.291-.453.583-1.22.145l-1.323-.692s-.384-.146-.593-.037l-2.647 1.204a.83.83 0 0 0-.488.547l-.627 1.714c-.105.328-.349.474-.627.474h-2.37c-.313 0-.522-.11-.626-.365l-.662-1.896a.73.73 0 0 0-.419-.438 24 24 0 0 1-2.438-1.094c-.279-.182-.453-.182-.871.037l-1.463.765c-.453.22-.662.146-1.01-.182l-1.638-1.787c-.244-.292-.314-.51-.175-.875l.837-1.933c.104-.292.139-.475.035-.693l-1.046-2.7c-.07-.218-.244-.364-.453-.473l-1.777-.657a.74.74 0 0 1-.487-.693V23.02c0-.256.174-.584.488-.73l1.811-.62c.244-.073.349-.219.488-.51l1.01-2.626c.105-.256.105-.438-.034-.766l-.871-2.08c-.14-.364.034-.583.348-.91l1.498-1.57c.314-.29.488-.29.87-.072l1.569.766c.313.146.453.182.836.036.836-.4 1.533-.73 2.543-1.13.244-.073.383-.256.453-.547l.558-1.678c.07-.182.278-.474.592-.474h2.369c.313 0 .557.11.697.474l.592 1.75c.07.292.209.438.488.548l2.578 1.057c.279.11.418.11.731-.036l1.499-.766c.383-.219.627-.219.94.073l1.638 1.714c.313.292.453.51.174.985l-.836 1.823c-.14.292-.035.547.07.84l.975 2.589c.07.255.279.437.523.51l1.637.62c.314.11.523.365.523.693z"/><path stroke="#B75034" stroke-width=".4" d="M37.809 25.499c0 .364-.14.62-.453.766l-1.742.656a.7.7 0 0 0-.383.401c-.07.183-1.15 2.736-1.15 2.736-.105.218 0 .437.104.693l.767 1.787c.174.328.07.583-.174.912l-1.603 1.714c-.244.291-.453.583-1.22.145l-1.323-.692s-.384-.146-.593-.037l-2.647 1.204a.83.83 0 0 0-.488.547l-.627 1.714c-.105.328-.349.474-.627.474h-2.37c-.313 0-.522-.11-.626-.365l-.662-1.896a.73.73 0 0 0-.419-.438 24 24 0 0 1-2.438-1.094c-.279-.182-.453-.182-.871.037l-1.463.765c-.453.22-.662.146-1.01-.182l-1.638-1.787c-.244-.292-.314-.51-.175-.875l.837-1.933c.104-.292.139-.475.035-.693l-1.046-2.7c-.07-.218-.244-.364-.453-.473l-1.777-.657a.74.74 0 0 1-.487-.693V23.02c0-.256.174-.584.488-.73l1.811-.62c.244-.073.349-.219.488-.51l1.01-2.626c.105-.256.105-.438-.034-.766l-.871-2.08c-.14-.364.034-.583.348-.91l1.498-1.57c.314-.29.488-.29.87-.072l1.569.766c.313.146.453.182.836.036.836-.4 1.533-.73 2.543-1.13.244-.073.383-.256.453-.547l.558-1.678c.07-.182.278-.474.592-.474h2.369c.313 0 .557.11.697.474l.592 1.75c.07.292.209.438.488.548l2.578 1.057c.279.11.418.11.731-.036l1.499-.766c.383-.219.627-.219.94.073l1.638 1.714c.313.292.453.51.174.985l-.836 1.823c-.14.292-.035.547.07.84l.975 2.589c.07.255.279.437.523.51l1.637.62c.314.11.523.365.523.693z"/><path fill="#BC4926" d="M24.525 15.004c-2.126 0-4.251.901-6.133 2.992-.14.216-.104.288.174.288h8.537c1.29 0 3.032 1.118 3.032 2.92 0 1.154-.732 1.839-1.499 2.416-.139.072-.104.18 0 .324.872 1.154.941 1.442 1.115 2.055.14.469.349.613.732.613.593 0 .871-.216 1.08-1.154.175-.793.314-.865 1.01-.685.35.036.419-.036.419-.396.279-4.146-3.136-9.373-8.467-9.373"/><path fill="#BC4926" d="M23.183 22.88h2.33c1.115 0 1.18-1.565.393-1.988a1.5 1.5 0 0 0-.426-.084h-2.297c-.131 0-.23.169-.23.296v1.523c0 .127.099.254.23.254m-3.971-2.073h-2.117c-.097 0-.195.114-.228.265a10.1 10.1 0 0 0-.488 3.034c0 1.024.163 1.934.358 2.73.033.114.13.19.228.19h2.247c.098 0 .26-.114.26-.266v-5.688a.27.27 0 0 0-.26-.265m11.64 8.59H27.97c-1.017 0-1.491-.859-1.593-1.793-.068-.597-.441-2.614-1.695-2.652h-1.628c-.135 0-.271.15-.271.262v1.494c0 .112.102.224.237.224h1.017c.543 0 .577.486.577 1.083v.747c0 .374-.204.635-.678.635h-5.764c-.203 0-.339.037-.17.262 1.323 1.867 3.357 3.585 6.51 3.585 2.373 0 4.645-1.008 6.442-3.473.203-.3.135-.374-.102-.374"/></g><g clip-path="url(#c)"><path fill="#C52" d="M58.616 27.516q.24.576.24.832 0 .608-.992 1.024-.512.224-.832.224a.9.9 0 0 1-.512-.144 1.3 1.3 0 0 1-.288-.32q-.16-.304-1.248-2.896l-.496.032h-2.016v1.808q0 .368-.032.56a1.1 1.1 0 0 1-.144.416q-.224.432-1.248.432-1.12 0-1.312-.592-.096-.272-.096-.832v-8.88q0-.368.016-.544.032-.192.16-.432.224-.432 1.248-.432h3.456q1.408 0 2.736 1.024.64.496 1.056 1.344a4.2 4.2 0 0 1 .416 1.888q0 1.807-1.2 2.976.352.848 1.088 2.512m-6.144-4.08h2.048q.465 0 .928-.352.464-.353.464-1.056t-.464-1.056q-.465-.368-.96-.368h-2.016zm10.85 6.032q-1.617 0-2.689-1.216-1.056-1.232-1.056-2.992v-2.8q0-.384.017-.56a1.8 1.8 0 0 1 .143-.416q.225-.432 1.249-.432 1.12 0 1.312.608.095.256.096.816v2.8q0 .656.367 1.024.384.368 1.008.368.64 0 1.024-.384.4-.384.4-1.008v-2.832q0-.368.017-.544.03-.192.16-.432.208-.416 1.231-.416 1.008 0 1.233.432.112.24.127.432.033.176.032.544v5.664q0 .352-.031.544-.017.175-.145.4-.24.416-1.231.416-.976 0-1.2-.384-.16-.272-.16-.656a1.6 1.6 0 0 1-.288.32q-.225.208-.433.352a2.14 2.14 0 0 1-1.183.352m6.023-.72q-.304-.192-.304-.608t.608-1.264q.176-.272.56-.272.4 0 1.072.4.672.384 1.216.384.976 0 .976-.384 0-.304-1.072-.448-1.008-.144-2-.752-.465-.287-.768-.896-.304-.624-.304-1.472 0-2.528 3.472-2.528 1.136 0 2.336.544.56.256.56.64 0 .383-.352.944t-.72.56q-.192 0-.72-.24a2.6 2.6 0 0 0-1.12-.24q-.945 0-.944.352 0 .48 1.088.624a6 6 0 0 1 2.048.608q.463.224.768.784.32.544.32 1.376 0 .833-.32 1.424-.305.576-.864.864-1.025.495-2.576.496-1.536 0-2.96-.896m12.41-4.848-1.04-.064v2.208q0 .432.128.624.144.192.512.192.384 0 .576.032.207.016.432.144.368.208.368 1.072 0 1.008-.448 1.232-.24.113-.432.144-.177.016-.528.016-1.665 0-2.528-.752-.864-.752-.864-2.544v-2.368a4 4 0 0 1-.656.048.76.76 0 0 1-.592-.272q-.225-.271-.224-.928 0-.656.08-.944.08-.305.224-.432a.98.98 0 0 1 .64-.208l.528.064v-1.648q0-.368.016-.544.031-.176.16-.384.208-.4 1.232-.4 1.087 0 1.296.592.08.256.08.816v1.568q.704-.064 1.056-.064.367 0 .544.032.192.016.432.144.416.209.416 1.232 0 1.008-.432 1.232-.24.113-.432.144-.177.015-.544.016"/></g><defs><clipPath id="b"><path fill="#fff" d="M8 0h33v48H8z"/></clipPath><clipPath id="c"><path fill="#fff" d="M49 14.5h35v19H49z"/></clipPath></defs></svg>