<svg xmlns="http://www.w3.org/2000/svg" width="116" height="48" fill="none" viewBox="0 0 116 48"><mask id="a" fill="#fff"><path d="M0 24C0 10.745 10.745 0 24 0h68c13.255 0 24 10.745 24 24s-10.745 24-24 24H24C10.745 48 0 37.255 0 24"/></mask><path fill="#ECECEC" d="M0 24C0 10.745 10.745 0 24 0h68c13.255 0 24 10.745 24 24s-10.745 24-24 24H24C10.745 48 0 37.255 0 24"/><path fill="#424242" d="M24 0v2h68v-4H24zm68 48v-2H24v4h68zm-68 0v-2C11.85 46 2 36.15 2 24h-4c0 14.36 11.64 26 26 26zm92-24h-2c0 12.15-9.85 22-22 22v4c14.359 0 26-11.64 26-26zM92 0v2c12.15 0 22 9.85 22 22h4c0-14.36-11.641-26-26-26zM24 0v-2C9.64-2-2 9.64-2 24h4C2 11.85 11.85 2 24 2z" mask="url(#a)"/><g clip-path="url(#b)"><path fill="#666" d="M21.735 23.83a2 2 0 0 1-3.235 0l-3.505-4.82a2 2 0 0 1 0-2.352l4.524-6.224a2 2 0 0 1 1.617-.824h9.93a2 2 0 0 1 1.612.816l3.104 4.224c.97 1.32.027 3.184-1.612 3.184h-7.056a2 2 0 0 0-1.617.824zm15.53 7.513a2 2 0 0 0 0-2.354l-3.511-4.822a2 2 0 0 0-3.234.001l-3.763 5.174a2 2 0 0 1-1.618.824h-7.05c-1.64 0-2.582 1.863-1.613 3.183l3.1 4.224a2 2 0 0 0 1.613.816h9.929a2 2 0 0 0 1.617-.822z"/></g><g clip-path="url(#c)"><path fill="#666" d="M49.816 27.852q-.416-.511-.416-.912 0-.416.688-1.088.4-.384.848-.384t1.248.8q.225.272.64.528.416.24.768.24 1.488 0 1.488-1.216 0-.368-.416-.608-.4-.255-1.008-.368a9 9 0 0 1-1.312-.352 9 9 0 0 1-1.312-.592q-.608-.336-1.024-1.056-.4-.735-.4-1.76 0-1.408 1.04-2.448 1.056-1.056 2.864-1.056.96 0 1.744.256.8.24 1.104.496l.4.304q.495.464.496.784 0 .32-.384.88-.544.8-1.12.8-.336 0-.832-.32a2 2 0 0 1-.192-.16 2 2 0 0 0-.24-.208q-.336-.208-.864-.208-.512 0-.864.256-.336.24-.336.688 0 .432.4.704.416.272 1.024.368t1.328.304q.72.192 1.328.48t1.008 1.008q.416.704.416 1.744t-.416 1.84q-.416.784-1.088 1.216-1.296.848-2.768.848-.752 0-1.424-.176-.672-.192-1.088-.464-.848-.512-1.184-.992zm8.912-2.56q0-1.92 1.344-3.168t3.072-1.248q1.727 0 3.056 1.248 1.328 1.232 1.328 3.152 0 1.328-.688 2.368-.689 1.025-1.68 1.52a4.55 4.55 0 0 1-2.032.48q-1.056 0-2.048-.512-.992-.528-1.68-1.536a4.1 4.1 0 0 1-.672-2.304m3.344 1.152q.512.384 1.04.384t1.056-.4.528-1.184-.496-1.168a1.7 1.7 0 0 0-1.072-.384q-.576 0-1.072.4t-.496 1.184q0 .768.512 1.168m6.49-7.936q0-.368.016-.544.032-.192.144-.432.224-.432 1.248-.432.976 0 1.216.432.127.24.144.432.032.192.032.56v7.408q0 .576.096.736.096.144.416.144.336 0 .448.032.112.015.272.128.32.208.32 1.136 0 1.008-.32 1.232-.416.288-1.984.096-1.233-.16-1.6-.816-.448-.785-.448-2.496zm5.234 3.968q0-.368.016-.544.033-.192.144-.432.225-.416 1.248-.416.768 0 1.088.272.273.225.288.688.016.16.016.464v5.6q0 .368-.032.56a1.1 1.1 0 0 1-.144.416q-.208.416-1.232.416-1.007 0-1.232-.432a1.8 1.8 0 0 1-.144-.416 7 7 0 0 1-.016-.56zm2.624-2.96q-.111.224-.416.32-.303.096-.816.096-.495 0-.8-.096a.7.7 0 0 1-.432-.336 1.8 1.8 0 0 1-.144-.416 7 7 0 0 1-.016-.56q0-.368.016-.544.033-.192.144-.416.225-.432 1.248-.432 1.008 0 1.216.432.129.24.144.432.033.176.032.544 0 .368-.032.56a1.1 1.1 0 0 1-.144.416m7.102-1.952a.7.7 0 0 1 .432-.336q.305-.096.8-.096.513 0 .816.096.305.096.416.336.129.24.144.432.032.176.032.544v9.552q0 .368-.032.56-.015.175-.144.4-.24.432-1.36.432-1.103 0-1.232-.784-.672.768-1.872.768-1.44 0-2.624-1.248-1.184-1.264-1.184-2.928 0-1.68 1.184-2.944 1.2-1.264 2.624-1.264 1.185 0 1.84.8v-3.36q0-.368.016-.544.033-.192.144-.416m-2.592 8.688q.417.432 1.008.432.592 0 .976-.432.4-.432.4-.944 0-.528-.384-.976-.368-.448-1.008-.448t-1.024.448a1.4 1.4 0 0 0-.384.96q0 .528.416.96m6.507-3.776q0-.368.016-.544.032-.192.144-.432.224-.416 1.248-.416.768 0 1.088.272.271.225.288.688.016.16.016.464v5.6q0 .368-.032.56a1.1 1.1 0 0 1-.144.416q-.209.416-1.232.416-1.008 0-1.232-.432a1.8 1.8 0 0 1-.144-.416 7 7 0 0 1-.016-.56zm2.624-2.96q-.113.224-.416.32-.304.096-.816.096-.495 0-.8-.096a.7.7 0 0 1-.432-.336 1.8 1.8 0 0 1-.144-.416 7 7 0 0 1-.016-.56q0-.368.016-.544.032-.192.144-.416.224-.432 1.248-.432 1.008 0 1.216.432.127.24.144.432.032.176.032.544t-.032.56a1.1 1.1 0 0 1-.144.416m6.35 4.384-1.04-.064v2.208q0 .432.128.624.144.192.512.192.384 0 .576.032.209.016.432.144.368.208.368 1.072 0 1.008-.448 1.232-.24.113-.432.144a6 6 0 0 1-.528.016q-1.664 0-2.528-.752t-.864-2.544v-2.368a4 4 0 0 1-.656.048.76.76 0 0 1-.592-.272q-.225-.271-.224-.928 0-.656.08-.944.08-.305.224-.432a.98.98 0 0 1 .64-.208l.528.064v-1.648q0-.368.016-.544.032-.176.16-.384.209-.4 1.232-.4 1.087 0 1.296.592.08.256.08.816v1.568q.704-.064 1.056-.064.368 0 .544.032.192.016.432.144.416.209.416 1.232 0 1.008-.432 1.232-.24.113-.432.144a7 7 0 0 1-.544.016m9.897-2.736q.944.416.944 1.008 0 .288-.128.544-.128.255-.128.272l-4.192 9.376q-.128.304-.224.464a.9.9 0 0 1-.272.304.78.78 0 0 1-.48.144q-.288 0-.848-.24-.944-.416-.944-.992 0-.384 1.536-3.664l-3.184-5.36q-.32-.528-.32-.784 0-.512.864-1.024.544-.32.848-.32t.496.128a.8.8 0 0 1 .272.272q.096.127.88 1.488.8 1.344 1.52 2.512.08-.256.864-1.968.784-1.728.832-1.84.065-.112.192-.272a.69.69 0 0 1 .576-.272q.384 0 .896.224"/></g><defs><clipPath id="b"><path fill="#fff" d="M8 0h33v48H8z"/></clipPath><clipPath id="c"><path fill="#fff" d="M49 14.5h59v19H49z"/></clipPath></defs></svg>