<svg xmlns="http://www.w3.org/2000/svg" width="89" height="48" fill="none" viewBox="0 0 89 48"><mask id="a" fill="#fff"><path d="M0 24C0 10.745 10.745 0 24 0h41c13.255 0 24 10.745 24 24S78.255 48 65 48H24C10.745 48 0 37.255 0 24"/></mask><path fill="#E9F5D1" d="M0 24C0 10.745 10.745 0 24 0h41c13.255 0 24 10.745 24 24S78.255 48 65 48H24C10.745 48 0 37.255 0 24"/><path fill="#939653" d="M24 0v2h41v-4H24zm41 48v-2H24v4h41zm-41 0v-2C11.85 46 2 36.15 2 24h-4c0 14.36 11.64 26 26 26zm65-24h-2c0 12.15-9.85 22-22 22v4c14.36 0 26-11.64 26-26zM65 0v2c12.15 0 22 9.85 22 22h4C91 9.64 79.36-2 65-2zM24 0v-2C9.64-2-2 9.64-2 24h4C2 11.85 11.85 2 24 2z" mask="url(#a)"/><g clip-path="url(#b)"><path fill="#E1F1C2" d="M36.38 13.358c0-1.609-3.969-3.559-11.88-3.559s-11.88 1.95-11.88 3.559v20.375c0 2.048 4.363 3.656 11.88 3.656 6.781 0 11.88-1.56 11.88-3.656z"/><path fill="#BAC286" d="M24.5 37.39c6.781 0 11.88-1.593 11.88-3.733v-5.6c-1.209 1.344-4.862 2.837-11.88 2.837-5.809 0-9.909-1.22-11.065-2.588h-.815l.131 5.898c.342 1.543 4.232 3.185 11.749 3.185m11.283-22.721c-1.177 1.359-4.4 2.768-11.232 2.768-5.654 0-9.185-1.007-10.873-2.39l-.563-.101.051 5.963c.333 1.535 4.068 3.498 11.385 3.498 6.6 0 11.001-1.61 11.334-3.296z"/><path fill="#787F3C" d="M34.807 12.312c-1.427-.976-4.618-2.107-10.327-2.107s-8.796.925-10.275 2.107c-.649.463-1.09.925-1.09 1.593 0 1.362 2.05 3.958 11.365 4.009 9.134-.052 11.158-2.261 11.391-4.009.104-.668-.389-1.13-1.064-1.593"/><path fill="#787F3C" d="M24.461 9.393c-3.502 0-10.43.554-11.847 3.06-.232.313-.489.746-.489 1.276v20.064c0 2.722 4.765 4.384 12.336 4.408 6.259 0 12.414-1.3 12.414-4.36V13.61c0-1.638-2.627-4.216-12.414-4.216m-10.765 6.528c2.138 1.517 6.155 2.192 10.765 2.192 3.4 0 7.881-.458 10.92-2.168v4.408c0 1.469-4.198 3.107-10.92 3.107-4.326 0-9.142-.795-10.585-2.288-.128-.169-.257-.362-.257-.699v-4.552zm21.685 17.824c0 1.06-3.039 2.938-10.92 2.963-5.228 0-8.37-.723-10.095-1.903-.387-.265-.67-.578-.67-1.06V29.24c2.009 1.493 5.666 2.432 10.765 2.457 3.065 0 7.7-.314 10.225-1.807.232-.12.515-.265.695-.626zm-1.133-18.74c-2.009 1.133-5.717 1.783-9.787 1.783-5.28 0-9.657-.963-10.688-2.53-.077-.144-.154-.312-.128-.65.283-1.06 3.58-2.818 10.816-2.818 6.207 0 10.225 1.229 10.843 2.506.386.65-.206 1.3-1.056 1.71m-20.552 7.54c1.674 1.18 4.97 2.312 10.765 2.312 3.348 0 8.216-.434 10.92-2.312v4.576c0 1.421-4.198 3.18-10.92 3.18-4.326 0-8.91-.627-10.482-2.481a1 1 0 0 1-.283-.675z"/><path fill="#787F3C" d="M19.798 25.624c-.643 0-1.238.584-1.238 1.217 0 .657.5 1.216 1.214 1.216.642 0 1.261-.56 1.261-1.192 0-.657-.571-1.266-1.238-1.241m9.331 0a1.205 1.205 0 0 0-1.162 1.24c.025.682.569 1.193 1.261 1.193.668 0 1.237-.56 1.212-1.216a1.265 1.265 0 0 0-1.31-1.217m-3.942 1.245c-.51.632-1.049.44-1.438-.055-.15-.302-.66-.495-.959-.302-.33.192-.39.604 0 1.072.36.412.959.88 1.768.88.749 0 1.408-.413 1.737-.88.33-.413.18-.852-.15-1.017a.72.72 0 0 0-.958.302"/></g><g clip-path="url(#c)"><path fill="#87873F" d="M49.816 27.852q-.416-.511-.416-.912 0-.416.688-1.088.4-.384.848-.384t1.248.8q.225.272.64.528.416.24.768.24 1.488 0 1.488-1.216 0-.368-.416-.608-.4-.255-1.008-.368a9 9 0 0 1-1.312-.352 9 9 0 0 1-1.312-.592q-.608-.336-1.024-1.056-.4-.735-.4-1.76 0-1.408 1.04-2.448 1.056-1.056 2.864-1.056.96 0 1.744.256.8.24 1.104.496l.4.304q.495.464.496.784 0 .32-.384.88-.544.8-1.12.8-.336 0-.832-.32a2 2 0 0 1-.192-.16 2 2 0 0 0-.24-.208q-.336-.208-.864-.208-.512 0-.864.256-.336.24-.336.688 0 .432.4.704.416.272 1.024.368t1.328.304q.72.192 1.328.48t1.008 1.008q.416.704.416 1.744t-.416 1.84q-.416.784-1.088 1.216-1.296.848-2.768.848-.752 0-1.424-.176-.672-.192-1.088-.464-.848-.512-1.184-.992zm19.92-1.536q.736.495 1.056.72.576.432.576.832 0 .384-.48 1.088t-.976.704q-.304 0-.928-.432a13 13 0 0 1-.448-.304q-.368-.256-.576-.384a5.32 5.32 0 0 1-3.344 1.152q-2.48 0-4.192-1.76-1.696-1.76-1.696-4.192 0-1.328.48-2.48.48-1.169 1.28-1.952a6 6 0 0 1 1.84-1.232 5.4 5.4 0 0 1 2.144-.448q2.369 0 4.112 1.712 1.744 1.712 1.744 4.336 0 1.327-.592 2.64M61.56 23.66q0 1.425.912 2.32.928.88 2.064.88t2.048-.864.912-2.32-.928-2.336q-.912-.88-2.048-.88t-2.048.896q-.912.88-.912 2.304m13.521 3.472h4.352q.528 0 .768.128a.58.58 0 0 1 .32.368q.08.256.08.688 0 .415-.08.672-.08.256-.272.352-.303.16-.832.16h-5.76q-1.12 0-1.312-.608-.096-.256-.096-.816V19.18q0-.368.016-.544.033-.192.16-.432.225-.432 1.248-.432 1.12 0 1.328.592.08.272.08.832z"/></g><defs><clipPath id="b"><path fill="#fff" d="M8 0h33v48H8z"/></clipPath><clipPath id="c"><path fill="#fff" d="M49 14.5h32v19H49z"/></clipPath></defs></svg>