<svg xmlns="http://www.w3.org/2000/svg" width="110" height="48" fill="none" viewBox="0 0 110 48"><mask id="a" fill="#fff"><path d="M0 24C0 10.745 10.745 0 24 0h62c13.255 0 24 10.745 24 24S99.255 48 86 48H24C10.745 48 0 37.255 0 24"/></mask><path fill="#BDEBFF" d="M0 24C0 10.745 10.745 0 24 0h62c13.255 0 24 10.745 24 24S99.255 48 86 48H24C10.745 48 0 37.255 0 24"/><path fill="#51D3D3" d="M24 0v2h62v-4H24zm62 48v-2H24v4h62zm-62 0v-2C11.85 46 2 36.15 2 24h-4c0 14.36 11.64 26 26 26zm86-24h-2c0 12.15-9.85 22-22 22v4c14.359 0 26-11.64 26-26zM86 0v2c12.15 0 22 9.85 22 22h4c0-14.36-11.641-26-26-26zM24 0v-2C9.64-2-2 9.64-2 24h4C2 11.85 11.85 2 24 2z" mask="url(#a)"/><g clip-path="url(#b)"><path fill="#24AAAA" stroke="#24AAAA" stroke-width="1.333" d="m22.198 24.645-.762 2.162c-.407 1.342-.373 1.765-.166 2.078.05.076.19.328.384.999.283.971.532 2.438.538 2.508-.041.896-.02 1.846.062 2.756H12.189c-1.138 0-2.069-.833-2.069-1.85V16.554c0-1.017.931-1.85 2.07-1.85h15.487c-2.372 2.25-4.722 6.519-5.479 9.94Zm10.933-10.489c2.838 2.264.02 7.439-2.567 11.082-1.881.54-4.074 1.734-4.074 1.734s.183-.087.86-.34c.458-.173 1.828-.464 2.663-.634a46 46 0 0 1-2.585 3.191s-2.43.883-3.181 2.937c.435-2.19 1.158-4.477 2.178-6.914.91-2.176 3.953-8.052 6.202-9.867-2.467 1.757-5.162 5.438-7.104 10.025-1.15 3.04-1.772 5.955-1.874 8.372-.067 1.582.086 2.954.463 4l-.174.085c-.37-.857-.708-2.363-.627-5.449l-.02-.227s-.224-1.35-.547-2.46c-.142-.492-.305-.937-.476-1.195-.088-.133.01-.68.255-1.49.416.647.864 1.348 1.037 1.921 0 0-.332-1.528-.877-2.42.119-.36.262-.758.423-1.184.402.628.812 1.226.976 1.825a10.3 10.3 0 0 0-.799-2.283c.686-3.19 2.893-7.366 5.27-9.621 1.27-1.21 3.018-2.294 4.578-1.088Z"/></g><g clip-path="url(#c)"><path fill="#24AAAA" d="M49.816 27.852q-.416-.511-.416-.912 0-.416.688-1.088.4-.384.848-.384t1.248.8q.225.272.64.528.416.24.768.24 1.488 0 1.488-1.216 0-.368-.416-.608-.4-.255-1.008-.368a9 9 0 0 1-1.312-.352 9 9 0 0 1-1.312-.592q-.608-.336-1.024-1.056-.4-.735-.4-1.76 0-1.408 1.04-2.448 1.056-1.056 2.864-1.056.96 0 1.744.256.8.24 1.104.496l.4.304q.495.464.496.784 0 .32-.384.88-.544.8-1.12.8-.336 0-.832-.32a2 2 0 0 1-.192-.16 2 2 0 0 0-.24-.208q-.336-.208-.864-.208-.512 0-.864.256-.336.24-.336.688 0 .432.4.704.416.272 1.024.368t1.328.304q.72.192 1.328.48t1.008 1.008q.416.704.416 1.744t-.416 1.84q-.416.784-1.088 1.216-1.296.848-2.768.848-.752 0-1.424-.176-.672-.192-1.088-.464-.848-.512-1.184-.992zm19.92-1.536q.736.495 1.056.72.576.432.576.832 0 .384-.48 1.088t-.976.704q-.304 0-.928-.432a13 13 0 0 1-.448-.304q-.368-.256-.576-.384a5.32 5.32 0 0 1-3.344 1.152q-2.48 0-4.192-1.76-1.696-1.76-1.696-4.192 0-1.328.48-2.48.48-1.169 1.28-1.952a6 6 0 0 1 1.84-1.232 5.4 5.4 0 0 1 2.144-.448q2.369 0 4.112 1.712 1.744 1.712 1.744 4.336 0 1.327-.592 2.64M61.56 23.66q0 1.425.912 2.32.928.88 2.064.88t2.048-.864.912-2.32-.928-2.336q-.912-.88-2.048-.88t-2.048.896q-.912.88-.912 2.304m13.521 3.472h4.352q.528 0 .768.128a.58.58 0 0 1 .32.368q.08.256.08.688 0 .415-.08.672-.08.256-.272.352-.303.16-.832.16h-5.76q-1.12 0-1.312-.608-.096-.256-.096-.816V19.18q0-.368.016-.544.033-.192.16-.432.225-.432 1.248-.432 1.12 0 1.328.592.08.272.08.832zm6.559-4.656q0-.368.016-.544.032-.192.144-.432.224-.416 1.248-.416.768 0 1.088.272.272.225.288.688.016.16.016.464v5.6q0 .368-.032.56a1.1 1.1 0 0 1-.144.416q-.209.416-1.232.416-1.008 0-1.232-.432a1.8 1.8 0 0 1-.144-.416 7 7 0 0 1-.016-.56zm2.624-2.96q-.112.224-.416.32t-.816.096q-.495 0-.8-.096a.7.7 0 0 1-.432-.336 1.8 1.8 0 0 1-.144-.416 7 7 0 0 1-.016-.56q0-.368.016-.544.032-.192.144-.416.224-.432 1.248-.432 1.008 0 1.216.432.127.24.144.432.032.176.032.544t-.032.56a1.1 1.1 0 0 1-.144.416m6.35 4.384-1.04-.064v2.208q0 .432.128.624.144.192.512.192.384 0 .576.032.208.016.432.144.368.208.368 1.072 0 1.008-.448 1.232-.24.113-.432.144a6 6 0 0 1-.528.016q-1.664 0-2.528-.752t-.864-2.544v-2.368a4 4 0 0 1-.656.048.76.76 0 0 1-.592-.272q-.225-.271-.224-.928 0-.656.08-.944.08-.305.224-.432a.98.98 0 0 1 .64-.208l.528.064v-1.648q0-.368.016-.544.033-.176.16-.384.209-.4 1.232-.4 1.089 0 1.296.592.08.256.08.816v1.568q.705-.064 1.056-.064.369 0 .544.032.192.016.432.144.416.209.416 1.232 0 1.008-.432 1.232-.24.113-.432.144-.176.015-.544.016m10.107.384q0 .975-.496 1.456-.48.465-1.072.464h-3.792q0 .449.528.752a2.1 2.1 0 0 0 1.056.304q.928 0 1.456-.192l.176-.064q.385-.176.64-.176.512 0 .88.72.208.432.208.736 0 1.425-3.408 1.424-1.184 0-2.112-.4-.911-.416-1.424-1.088-1.008-1.296-1.008-2.896 0-2.016 1.296-3.216 1.313-1.215 3.264-1.216 2.224 0 3.264 1.568.544.832.544 1.824m-3.376.464q.609 0 .608-.512a.71.71 0 0 0-.288-.592q-.272-.224-.8-.224-.511 0-1.024.432-.512.416-.512.896z"/></g><defs><clipPath id="b"><path fill="#fff" d="M8 0h33v48H8z"/></clipPath><clipPath id="c"><path fill="#fff" d="M49 14.5h53v19H49z"/></clipPath></defs></svg>