<svg xmlns="http://www.w3.org/2000/svg" width="131" height="48" fill="none" viewBox="0 0 131 48"><mask id="a" fill="#fff"><path d="M0 24C0 10.745 10.745 0 24 0h83c13.255 0 24 10.745 24 24s-10.745 24-24 24H24C10.745 48 0 37.255 0 24"/></mask><path fill="#B8FFB2" d="M0 24C0 10.745 10.745 0 24 0h83c13.255 0 24 10.745 24 24s-10.745 24-24 24H24C10.745 48 0 37.255 0 24"/><path fill="#6AE47D" d="M24 0v2h83v-4H24zm83 48v-2H24v4h83zm-83 0v-2C11.85 46 2 36.15 2 24h-4c0 14.36 11.64 26 26 26zm107-24h-2c0 12.15-9.85 22-22 22v4c14.359 0 26-11.64 26-26zM107 0v2c12.15 0 22 9.85 22 22h4c0-14.36-11.641-26-26-26zM24 0v-2C9.64-2-2 9.64-2 24h4C2 11.85 11.85 2 24 2z" mask="url(#a)"/><g clip-path="url(#b)"><path fill="#60A55A" stroke="#60A55A" stroke-width="1.333" d="M12.712 27.31c-2.2 0-3.438-2.554-2.089-4.31l11.51-14.98c.773-1.004 2.367-.454 2.367.82v9.79h11.788c2.199 0 3.438 2.553 2.09 4.308l-11.512 14.98c-.772 1.005-2.367.455-2.367-.818v-9.79z"/></g><g clip-path="url(#c)"><path fill="#60A65A" d="M49.816 27.852q-.416-.511-.416-.912 0-.416.688-1.088.4-.384.848-.384t1.248.8q.225.272.64.528.416.24.768.24 1.488 0 1.488-1.216 0-.368-.416-.608-.4-.255-1.008-.368a9 9 0 0 1-1.312-.352 9 9 0 0 1-1.312-.592q-.608-.336-1.024-1.056-.4-.735-.4-1.76 0-1.408 1.04-2.448 1.056-1.056 2.864-1.056.96 0 1.744.256.8.24 1.104.496l.4.304q.495.464.496.784 0 .32-.384.88-.544.8-1.12.8-.336 0-.832-.32a2 2 0 0 1-.192-.16 2 2 0 0 0-.24-.208q-.336-.208-.864-.208-.512 0-.864.256-.336.24-.336.688 0 .432.4.704.416.272 1.024.368t1.328.304q.72.192 1.328.48t1.008 1.008q.416.704.416 1.744t-.416 1.84q-.416.784-1.088 1.216-1.296.848-2.768.848-.752 0-1.424-.176-.672-.192-1.088-.464-.848-.512-1.184-.992zm12.896 1.616q-1.615 0-2.688-1.216-1.056-1.232-1.056-2.992v-2.8q0-.384.016-.56.032-.176.144-.416.225-.432 1.248-.432 1.12 0 1.312.608.096.256.096.816v2.8q0 .656.368 1.024.384.368 1.008.368.64 0 1.024-.384.4-.384.4-1.008v-2.832q0-.368.016-.544.033-.192.16-.432.209-.416 1.232-.416 1.008 0 1.232.432.112.24.128.432.032.176.032.544v5.664q0 .352-.032.544-.016.175-.144.4-.24.416-1.232.416-.975 0-1.2-.384-.16-.272-.16-.656a1.6 1.6 0 0 1-.288.32q-.224.208-.432.352a2.14 2.14 0 0 1-1.184.352m5.96 2.32v-9.344q0-.368.015-.544.033-.175.144-.4.225-.432 1.072-.432.849 0 1.136.224.304.209.352.624.609-.832 1.904-.832 1.313 0 2.48 1.232t1.168 2.864-1.168 2.864q-1.153 1.232-2.464 1.232-1.312 0-1.904-.736v3.232q0 .368-.032.544-.015.175-.144.4a.64.64 0 0 1-.4.336q-.288.096-.784.096-.495 0-.8-.096a.72.72 0 0 1-.416-.32 1.5 1.5 0 0 1-.144-.4 7 7 0 0 1-.016-.544m3.167-7.536q-.368.432-.368.944t.368.944q.384.416.96.416.593 0 .992-.416.417-.416.416-.944 0-.528-.384-.944-.384-.432-1.008-.432-.607 0-.976.432m11.617-2.288q.096-.896 1.264-.896.624 0 .928.096.303.096.416.336.127.24.144.432.032.176.032.544v5.6q0 .368-.032.56-.016.176-.128.416-.225.416-1.104.416-.864 0-1.168-.208-.288-.225-.336-.64-.592.848-1.984.848-1.376 0-2.56-1.264t-1.184-2.928q0-1.68 1.184-2.928 1.2-1.264 2.624-1.264.543 0 .992.192.447.192.624.368.175.16.288.32m-2.912 3.328q0 .528.416.96.416.416 1.008.416.591 0 .976-.432.4-.432.4-.944 0-.528-.384-.976-.369-.448-1.008-.448-.624 0-1.024.448-.384.448-.384.976m11.595-4.208q1.425 0 2.608 1.264 1.2 1.264 1.2 2.944 0 1.664-1.184 2.928-1.184 1.248-2.544 1.248t-1.936-.768q-.128.784-1.376.784-1.008 0-1.232-.432a1.8 1.8 0 0 1-.144-.416 7 7 0 0 1-.016-.56v-9.552q0-.368.016-.544.032-.192.144-.416.224-.432 1.248-.432 1.008 0 1.216.432.127.24.144.432.032.176.032.544v3.328q.64-.784 1.824-.784m-1.408 5.168q.4.432.992.432t1.008-.432.416-.96-.384-.96q-.384-.448-1.024-.448t-1.024.448a1.5 1.5 0 0 0-.368.976q0 .512.384.944m11.725-4.288q.096-.896 1.264-.896.624 0 .928.096.303.096.416.336.127.24.144.432.032.176.032.544v5.6q0 .368-.032.56a1.3 1.3 0 0 1-.128.416q-.225.416-1.104.416-.864 0-1.168-.208-.288-.225-.336-.64-.592.848-1.984.848-1.376 0-2.56-1.264t-1.184-2.928q0-1.68 1.184-2.928 1.2-1.264 2.624-1.264.543 0 .992.192.447.192.624.368.175.16.288.32m-2.912 3.328q0 .528.416.96.415.416 1.008.416.591 0 .976-.432.4-.432.4-.944 0-.528-.384-.976-.369-.448-1.008-.448-.624 0-1.024.448-.384.448-.384.976m7.035 3.456q-.304-.192-.304-.608t.608-1.264q.176-.272.56-.272.4 0 1.072.4.672.384 1.216.384.976 0 .976-.384 0-.304-1.072-.448-1.008-.144-2-.752-.463-.287-.768-.896-.304-.624-.304-1.472 0-2.528 3.472-2.528 1.136 0 2.336.544.56.256.56.64 0 .383-.352.944t-.72.56q-.192 0-.72-.24a2.6 2.6 0 0 0-1.12-.24q-.944 0-.944.352 0 .48 1.088.624a6 6 0 0 1 2.048.608q.463.224.768.784.32.544.32 1.376 0 .833-.32 1.424a2 2 0 0 1-.864.864q-1.024.495-2.576.496-1.536 0-2.96-.896m15.892-4.464q0 .975-.496 1.456-.48.465-1.072.464h-3.792q0 .449.528.752a2.1 2.1 0 0 0 1.056.304q.928 0 1.456-.192l.176-.064q.384-.176.64-.176.512 0 .88.72.208.432.208.736 0 1.425-3.408 1.424-1.183 0-2.112-.4-.912-.416-1.424-1.088-1.008-1.296-1.008-2.896 0-2.016 1.296-3.216 1.313-1.215 3.264-1.216 2.224 0 3.264 1.568.544.832.544 1.824m-3.376.464q.608 0 .608-.512a.71.71 0 0 0-.288-.592q-.272-.224-.8-.224-.512 0-1.024.432-.512.416-.512.896z"/></g><defs><clipPath id="b"><path fill="#fff" d="M8 0h33v48H8z"/></clipPath><clipPath id="c"><path fill="#fff" d="M49 14.5h74v19H49z"/></clipPath></defs></svg>