<svg xmlns="http://www.w3.org/2000/svg" width="106" height="48" fill="none" viewBox="0 0 106 48"><mask id="a" fill="#fff"><path d="M0 24C0 10.745 10.745 0 24 0h58c13.255 0 24 10.745 24 24S95.255 48 82 48H24C10.745 48 0 37.255 0 24"/></mask><path fill="#FFE4BE" d="M0 24C0 10.745 10.745 0 24 0h58c13.255 0 24 10.745 24 24S95.255 48 82 48H24C10.745 48 0 37.255 0 24"/><path fill="#FF9674" d="M24 0v2h58v-4H24zm58 48v-2H24v4h58zm-58 0v-2C11.85 46 2 36.15 2 24h-4c0 14.36 11.64 26 26 26zm82-24h-2c0 12.15-9.85 22-22 22v4c14.36 0 26-11.64 26-26zM82 0v2c12.15 0 22 9.85 22 22h4C108 9.64 96.36-2 82-2zM24 0v-2C9.64-2-2 9.64-2 24h4C2 11.85 11.85 2 24 2z" mask="url(#a)"/><g clip-path="url(#b)"><path fill="#FF5722" d="M28.856 9.564a9.5 9.5 0 0 0-4.802 1.376l-7.503 4.592A8.5 8.5 0 0 0 14 17.902a8.1 8.1 0 0 0-1.339 3.157 8.4 8.4 0 0 0 .892 5.593 8.1 8.1 0 0 0-1.286 3.09 8.5 8.5 0 0 0 .083 3.484 8.6 8.6 0 0 0 1.485 3.18c2.992 4.113 8.901 5.331 13.174 2.717l7.503-4.573a8.5 8.5 0 0 0 2.55-2.371 8.1 8.1 0 0 0 1.34-3.156 8.4 8.4 0 0 0-.895-5.59 8.1 8.1 0 0 0 1.29-3.09 8.5 8.5 0 0 0-.085-3.484 8.65 8.65 0 0 0-1.484-3.181v-.022c-1.963-2.699-5.183-4.151-8.373-4.092m.658 3.53c.916.04 1.81.283 2.611.71a5.9 5.9 0 0 1 2.013 1.748 5.2 5.2 0 0 1 .894 1.912c.162.688.179 1.4.05 2.095a5 5 0 0 1-.179.671l-.143.415-.383-.277a9.9 9.9 0 0 0-2.935-1.409l-.287-.08.025-.277a1.57 1.57 0 0 0-.304-1.072 1.8 1.8 0 0 0-.85-.62 1.86 1.86 0 0 0-1.066-.046 1.7 1.7 0 0 0-.46.194l-7.507 4.584a1.5 1.5 0 0 0-.462.43 1.47 1.47 0 0 0-.225 1.206c.05.208.141.404.27.578.209.287.504.506.845.628a1.86 1.86 0 0 0 1.068.057q.246-.065.46-.194l2.878-1.751c.47-.29.984-.507 1.524-.644a6.2 6.2 0 0 1 3.571.172 5.93 5.93 0 0 1 2.825 2.105c.427.574.73 1.224.893 1.912.162.688.18 1.4.05 2.095-.127.68-.4 1.33-.803 1.903a5.1 5.1 0 0 1-1.535 1.43l-7.507 4.592a5.6 5.6 0 0 1-1.524.644 6.2 6.2 0 0 1-3.573-.174 5.94 5.94 0 0 1-2.826-2.106 5.2 5.2 0 0 1-.892-1.912 5.1 5.1 0 0 1-.049-2.095 4.5 4.5 0 0 1 .179-.666l.14-.414.386.276a9.9 9.9 0 0 0 2.926 1.398l.288.08-.026.277c-.027.379.083.755.314 1.064.21.29.507.51.852.633.344.123.72.14 1.075.052a1.7 1.7 0 0 0 .46-.194l7.492-4.592c.184-.111.342-.258.463-.431.122-.174.204-.37.242-.575a1.53 1.53 0 0 0-.287-1.207 1.8 1.8 0 0 0-.852-.634 1.87 1.87 0 0 0-1.076-.052 1.7 1.7 0 0 0-.46.194L25.22 27.48c-.47.287-.984.503-1.522.641a6.2 6.2 0 0 1-3.566-.175 5.94 5.94 0 0 1-2.821-2.101 5.2 5.2 0 0 1-.889-1.913 5.1 5.1 0 0 1-.046-2.094c.127-.682.4-1.33.803-1.904a5.1 5.1 0 0 1 1.536-1.43l7.514-4.592a5.6 5.6 0 0 1 1.514-.641 6.2 6.2 0 0 1 1.77-.178"/><path fill="#fff" d="M29.514 13.094c.916.04 1.81.283 2.611.71a5.9 5.9 0 0 1 2.013 1.748 5.2 5.2 0 0 1 .894 1.912c.162.688.179 1.4.05 2.095a5 5 0 0 1-.179.671l-.143.415-.383-.277a9.9 9.9 0 0 0-2.935-1.409l-.287-.08.025-.277a1.57 1.57 0 0 0-.304-1.072 1.8 1.8 0 0 0-.85-.62 1.86 1.86 0 0 0-1.066-.046 1.7 1.7 0 0 0-.46.194l-7.507 4.584a1.5 1.5 0 0 0-.462.43 1.47 1.47 0 0 0-.225 1.206c.05.208.141.404.27.578.209.287.504.506.845.628a1.86 1.86 0 0 0 1.068.057q.246-.065.46-.194l2.878-1.751c.47-.29.984-.507 1.524-.644a6.2 6.2 0 0 1 3.571.172 5.93 5.93 0 0 1 2.825 2.105c.427.574.73 1.224.893 1.912.162.688.18 1.4.05 2.095-.127.68-.4 1.33-.803 1.903a5.1 5.1 0 0 1-1.535 1.43l-7.507 4.592a5.6 5.6 0 0 1-1.524.644 6.2 6.2 0 0 1-3.573-.174 5.94 5.94 0 0 1-2.826-2.106 5.2 5.2 0 0 1-.892-1.912 5.1 5.1 0 0 1-.049-2.095 4.5 4.5 0 0 1 .179-.666l.14-.414.386.276a9.9 9.9 0 0 0 2.926 1.398l.288.08-.026.277c-.027.379.083.755.314 1.064.21.29.507.51.852.633.344.123.72.14 1.075.052a1.7 1.7 0 0 0 .46-.194l7.492-4.592c.184-.111.342-.258.463-.431.122-.174.204-.37.242-.575a1.53 1.53 0 0 0-.287-1.207 1.8 1.8 0 0 0-.852-.634 1.87 1.87 0 0 0-1.076-.052 1.7 1.7 0 0 0-.46.194L25.22 27.48c-.47.287-.984.503-1.522.641a6.2 6.2 0 0 1-3.566-.175 5.94 5.94 0 0 1-2.821-2.101 5.2 5.2 0 0 1-.889-1.913 5.1 5.1 0 0 1-.046-2.094c.127-.682.4-1.33.803-1.904a5.1 5.1 0 0 1 1.536-1.43l7.514-4.592a5.6 5.6 0 0 1 1.514-.641 6.2 6.2 0 0 1 1.77-.178"/></g><g clip-path="url(#c)"><path fill="#FF5722" d="M49.816 27.852q-.416-.511-.416-.912 0-.416.688-1.088.4-.384.848-.384t1.248.8q.225.272.64.528.416.24.768.24 1.488 0 1.488-1.216 0-.368-.416-.608-.4-.255-1.008-.368a9 9 0 0 1-1.312-.352 9 9 0 0 1-1.312-.592q-.608-.336-1.024-1.056-.4-.735-.4-1.76 0-1.408 1.04-2.448 1.056-1.056 2.864-1.056.96 0 1.744.256.8.24 1.104.496l.4.304q.495.464.496.784 0 .32-.384.88-.544.8-1.12.8-.336 0-.832-.32a2 2 0 0 1-.192-.16 2 2 0 0 0-.24-.208q-.336-.208-.864-.208-.512 0-.864.256-.336.24-.336.688 0 .432.4.704.416.272 1.024.368t1.328.304q.72.192 1.328.48t1.008 1.008q.416.704.416 1.744t-.416 1.84q-.416.784-1.088 1.216-1.296.848-2.768.848-.752 0-1.424-.176-.672-.192-1.088-.464-.848-.512-1.184-.992zM66.98 21.26q.831.496.832 1.056 0 .32-.32.88l-3.312 5.68a1.5 1.5 0 0 1-.512.496q-.353.208-.704.208a1.45 1.45 0 0 1-.656-.16q-.305-.176-.432-.352l-.144-.176-3.328-5.696q-.32-.528-.32-.864 0-.576.832-1.072.608-.352.96-.352t.544.224q.207.208.432.64l2.096 4.032 2.096-4.032q.175-.305.256-.432.096-.144.288-.272.191-.144.512-.144.32 0 .88.336m9.35 3.024q0 .975-.495 1.456-.48.465-1.072.464H70.97q0 .449.529.752a2.1 2.1 0 0 0 1.056.304q.927 0 1.455-.192l.176-.064q.385-.176.64-.176.513 0 .88.72.21.432.209.736 0 1.425-3.409 1.424-1.183 0-2.112-.4-.911-.416-1.424-1.088-1.007-1.296-1.007-2.896 0-2.016 1.296-3.216 1.311-1.215 3.263-1.216 2.225 0 3.264 1.568.544.832.544 1.824m-3.376.464q.609 0 .609-.512a.71.71 0 0 0-.288-.592q-.273-.224-.8-.224-.513 0-1.024.432-.512.416-.512.896zm4.42-6.24q0-.368.016-.544.033-.192.144-.432.225-.432 1.248-.432.976 0 1.216.432.129.24.144.432.032.192.032.56v7.408q0 .576.096.736.096.144.416.144.336 0 .448.032.113.015.272.128.32.208.32 1.136 0 1.008-.32 1.232-.415.288-1.984.096-1.231-.16-1.6-.816-.448-.785-.448-2.496zm9.49 5.392-1.04-.064v2.208q0 .432.128.624.144.192.512.192.384 0 .576.032.208.016.432.144.368.208.368 1.072 0 1.008-.448 1.232-.24.113-.432.144a6 6 0 0 1-.528.016q-1.664 0-2.528-.752t-.864-2.544v-2.368a4 4 0 0 1-.656.048.76.76 0 0 1-.592-.272q-.225-.271-.224-.928 0-.656.08-.944.08-.305.224-.432a.98.98 0 0 1 .64-.208l.528.064v-1.648q0-.368.016-.544.033-.176.16-.384.209-.4 1.232-.4 1.089 0 1.296.592.08.256.08.816v1.568q.705-.064 1.056-.064.369 0 .544.032.192.016.432.144.416.209.416 1.232 0 1.008-.432 1.232-.24.113-.432.144-.176.015-.544.016m10.107.384q0 .975-.496 1.456-.48.465-1.072.464h-3.792q0 .449.528.752a2.1 2.1 0 0 0 1.056.304q.928 0 1.456-.192l.176-.064q.385-.176.64-.176.512 0 .88.72.208.432.208.736 0 1.425-3.408 1.424-1.184 0-2.112-.4-.911-.416-1.424-1.088-1.008-1.296-1.008-2.896 0-2.016 1.296-3.216 1.313-1.215 3.264-1.216 2.224 0 3.264 1.568.544.832.544 1.824m-3.376.464q.609 0 .608-.512a.71.71 0 0 0-.288-.592q-.272-.224-.8-.224-.511 0-1.024.432-.512.416-.512.896z"/></g><defs><clipPath id="b"><path fill="#fff" d="M8 0h33v48H8z"/></clipPath><clipPath id="c"><path fill="#fff" d="M49 14.5h49v19H49z"/></clipPath></defs></svg>