<svg xmlns="http://www.w3.org/2000/svg" width="96" height="48" fill="none" viewBox="0 0 96 48"><mask id="a" fill="#fff"><path d="M0 24C0 10.745 10.745 0 24 0h48c13.255 0 24 10.745 24 24S85.255 48 72 48H24C10.745 48 0 37.255 0 24"/></mask><path fill="#FFD1A6" d="M0 24C0 10.745 10.745 0 24 0h48c13.255 0 24 10.745 24 24S85.255 48 72 48H24C10.745 48 0 37.255 0 24"/><path fill="#E29862" d="M24 0v2h48v-4H24zm48 48v-2H24v4h48zm-48 0v-2C11.85 46 2 36.15 2 24h-4c0 14.36 11.64 26 26 26zm72-24h-2c0 12.15-9.85 22-22 22v4c14.36 0 26-11.64 26-26zM72 0v2c12.15 0 22 9.85 22 22h4C98 9.64 86.36-2 72-2zM24 0v-2C9.64-2-2 9.64-2 24h4C2 11.85 11.85 2 24 2z" mask="url(#a)"/><g clip-path="url(#b)"><path fill="#FBA463" d="M27.378 11.772c11.415 6.9 9.863 14.632 9.173 16.726.968 1.121 3.347 4.316 1.966 7.335a.9.9 0 0 1-.327.376 1 1 0 0 1-.487.163 1 1 0 0 1-.512-.09.96.96 0 0 1-.39-.325c-.01-.016-1.265-1.803-3.177-1.803-.764 0-1.463.32-2.346.722l-.018.008-.007.003c-1.45.663-3.25 1.487-6.332 1.487-11.247 0-16.566-8.123-16.788-8.47a.82.82 0 0 1-.124-.57.85.85 0 0 1 .288-.512 1.04 1.04 0 0 1 1.193-.108c6.636 3.881 11.66 3.054 13.973 2.274-4.777-3.393-12.582-12.412-12.582-12.412l11.041 6.697-5.946-9.169s10.288 7.675 12.876 9.35c1.496-5.51-2.712-10.334-2.758-10.386a.83.83 0 0 1-.216-.581.84.84 0 0 1 .25-.57 1.03 1.03 0 0 1 1.25-.146"/><path stroke="#C17035" stroke-linecap="round" stroke-linejoin="round" stroke-width="2" d="M36.55 28.499c.69-2.092 2.245-9.827-9.172-16.727a1.03 1.03 0 0 0-1.25.146.84.84 0 0 0-.25.569.83.83 0 0 0 .216.58c.046.053 4.254 4.878 2.758 10.388-2.588-1.676-12.876-9.35-12.876-9.35l5.946 9.168-11.041-6.697s7.805 9.019 12.582 12.412c-2.313.78-7.337 1.607-13.973-2.274a1.04 1.04 0 0 0-1.193.108.85.85 0 0 0-.288.513.82.82 0 0 0 .124.568c.222.348 5.541 8.471 16.788 8.471 3.086 0 4.888-.826 6.34-1.49.89-.406 1.594-.73 2.363-.73 1.912 0 3.166 1.787 3.177 1.803.096.14.231.252.39.325s.336.104.512.09a1 1 0 0 0 .487-.163.9.9 0 0 0 .327-.376c1.38-3.02-.998-6.215-1.966-7.336"/></g><g clip-path="url(#c)"><path fill="#C36F30" d="M49.816 27.852q-.416-.511-.416-.912 0-.416.688-1.088.4-.384.848-.384t1.248.8q.225.272.64.528.416.24.768.24 1.488 0 1.488-1.216 0-.368-.416-.608-.4-.255-1.008-.368a9 9 0 0 1-1.312-.352 9 9 0 0 1-1.312-.592q-.608-.336-1.024-1.056-.4-.735-.4-1.76 0-1.408 1.04-2.448 1.056-1.056 2.864-1.056.96 0 1.744.256.8.24 1.104.496l.4.304q.495.464.496.784 0 .32-.384.88-.544.8-1.12.8-.336 0-.832-.32a2 2 0 0 1-.192-.16 2 2 0 0 0-.24-.208q-.336-.208-.864-.208-.512 0-.864.256-.336.24-.336.688 0 .432.4.704.416.272 1.024.368t1.328.304q.72.192 1.328.48t1.008 1.008q.416.704.416 1.744t-.416 1.84q-.416.784-1.088 1.216-1.296.848-2.768.848-.752 0-1.424-.176-.672-.192-1.088-.464-.848-.512-1.184-.992zm19.452-6.72q1.024.448 1.024 1.104 0 .272-.256.88-.256.592-.432 1.04l-1.76 4.288q-.24.704-.8.992a1.4 1.4 0 0 1-.608.112q-.369 0-.72-.272-.337-.288-.448-.576l-.128-.272q-.129-.32-.944-2.496a33 33 0 0 0-.48 1.264q-.304.864-.4 1.088l-.112.288q-.016.064-.128.256t-.256.336q-.385.384-.88.384t-.832-.272q-.337-.288-.448-.576l-2.416-5.888q-.16-.48-.16-.624 0-.64.912-1.008.511-.208.832-.208t.512.144a.8.8 0 0 1 .288.272q.08.128.128.272.272.64 1.136 3.008l.944-2.592q.096-.32.352-.56.465-.465.944-.464.48 0 .816.256.351.255.48.512l.128.272q.8 2.24.944 2.56l.976-2.656q.384-1.024 1.152-1.024.303 0 .64.16m1.903 1.344q0-.368.016-.544.033-.192.144-.432.225-.416 1.248-.416.768 0 1.088.272.273.225.288.688.016.16.016.464v5.6q0 .368-.032.56a1.1 1.1 0 0 1-.144.416q-.208.416-1.232.416-1.007 0-1.232-.432a1.8 1.8 0 0 1-.144-.416 7 7 0 0 1-.016-.56zm2.624-2.96q-.111.224-.416.32-.303.096-.816.096-.495 0-.8-.096a.7.7 0 0 1-.432-.336 1.8 1.8 0 0 1-.144-.416 7 7 0 0 1-.016-.56q0-.368.016-.544.033-.192.144-.416.225-.432 1.248-.432 1.008 0 1.216.432.129.24.144.432.033.176.032.544 0 .368-.032.56a1.1 1.1 0 0 1-.144.416m12.19 4.384-1.04-.064v2.208q0 .432.128.624.144.192.512.192.384 0 .576.032.209.016.416.144.384.208.384 1.072 0 1.008-.448 1.232-.24.113-.432.144-.176.016-.528.016-1.568 0-2.48-.88t-.912-2.416v-2.368q-.864.048-1.472.048l-1.552-.064v4.288q0 .608-.16.912a.73.73 0 0 1-.464.384q-.303.096-.8.096-.495 0-.8-.096a.8.8 0 0 1-.416-.336 1.4 1.4 0 0 1-.16-.432 7 7 0 0 1-.016-.56v-4.24a4.5 4.5 0 0 1-.672.048.74.74 0 0 1-.576-.272q-.224-.271-.224-.928 0-.656.08-.944.08-.305.224-.432a.98.98 0 0 1 .64-.208l.528.064v-.848q0-1.232.88-2.224.88-1.008 2.544-1.008.369 0 .544.032.192.015.432.128.432.224.432 1.248 0 .768-.272 1.088-.224.272-.704.288-.144.015-.448.016-.592 0-.592.4v.88a22 22 0 0 1 1.536-.064l1.488.064v-1.648q0-.368.016-.544.033-.176.144-.384.225-.4 1.248-.4 1.088 0 1.28.592.096.256.096.816v1.568q.705-.064 1.056-.064.369 0 .544.032.192.016.416.144.432.209.432 1.232 0 1.008-.432 1.232-.24.113-.432.144-.175.015-.544.016"/></g><defs><clipPath id="b"><path fill="#fff" d="M8 0h33v48H8z"/></clipPath><clipPath id="c"><path fill="#fff" d="M49 14.5h39v19H49z"/></clipPath></defs></svg>