<svg xmlns="http://www.w3.org/2000/svg" width="151" height="48" fill="none" viewBox="0 0 151 48"><mask id="a" fill="#fff"><path d="M0 24C0 10.745 10.745 0 24 0h103c13.255 0 24 10.745 24 24s-10.745 24-24 24H24C10.745 48 0 37.255 0 24"/></mask><path fill="#B0D9FB" d="M0 24C0 10.745 10.745 0 24 0h103c13.255 0 24 10.745 24 24s-10.745 24-24 24H24C10.745 48 0 37.255 0 24"/><path fill="#7DB5E4" d="M24 0v2h103v-4H24zm103 48v-2H24v4h103zM24 48v-2C11.85 46 2 36.15 2 24h-4c0 14.36 11.64 26 26 26zm127-24h-2c0 12.15-9.85 22-22 22v4c14.359 0 26-11.64 26-26zM127 0v2c12.15 0 22 9.85 22 22h4c0-14.36-11.641-26-26-26zM24 0v-2C9.64-2-2 9.64-2 24h4C2 11.85 11.85 2 24 2z" mask="url(#a)"/><g clip-path="url(#b)"><path fill="#6ABADD" stroke="#3496C5" stroke-width="1.333" d="M24.5 14.719q-6.187 0-7.734 6.187 2.32-3.093 5.413-2.32c1.178.294 2.019 1.147 2.95 2.093C26.647 22.22 28.402 24 32.235 24q6.187 0 7.735-6.188-2.32 3.094-5.414 2.32c-1.177-.293-2.017-1.147-2.95-2.093-1.516-1.539-3.27-3.32-7.105-3.32ZM16.766 24q-6.187 0-7.735 6.188 2.32-3.094 5.414-2.32c1.177.293 2.018 1.147 2.95 2.093 1.517 1.539 3.272 3.32 7.105 3.32q6.187 0 7.734-6.187-2.32 3.093-5.413 2.32c-1.178-.294-2.018-1.147-2.95-2.093C22.354 25.78 20.6 24 16.765 24Z"/></g><g clip-path="url(#c)"><path fill="#4B8CC3" d="M50.408 17.756h8.896q.512 0 .752.128a.58.58 0 0 1 .32.368q.08.256.08.672t-.08.672a.55.55 0 0 1-.272.336q-.288.144-.816.144h-3.056v8.048q0 .368-.032.544a1.1 1.1 0 0 1-.144.416q-.112.224-.416.32-.305.096-.8.096t-.8-.096a.72.72 0 0 1-.416-.32 1.8 1.8 0 0 1-.144-.416 7 7 0 0 1-.016-.56v-8.032h-3.072q-.512 0-.752-.112a.64.64 0 0 1-.32-.384 2.3 2.3 0 0 1-.08-.672q0-.416.08-.656.08-.256.272-.352.288-.144.816-.144m14.485 4.208q.097-.896 1.264-.896.624 0 .928.096t.416.336q.129.24.144.432.032.176.032.544v5.6q0 .368-.032.56-.015.176-.128.416-.224.416-1.104.416-.864 0-1.168-.208-.288-.225-.336-.64-.591.848-1.984.848-1.375 0-2.56-1.264-1.184-1.264-1.184-2.928 0-1.68 1.184-2.928 1.2-1.264 2.624-1.264.545 0 .992.192.449.192.624.368.177.16.288.32m-2.912 3.328q0 .528.416.96.417.416 1.008.416.592 0 .976-.432.4-.432.4-.944 0-.528-.384-.976-.368-.448-1.008-.448-.624 0-1.024.448-.384.448-.384.976m6.971-2.816q0-.368.017-.544.03-.192.144-.432.223-.416 1.248-.416.767 0 1.087.272.273.225.289.688.016.16.016.464v5.6q0 .368-.032.56a1.1 1.1 0 0 1-.145.416q-.208.416-1.231.416-1.008 0-1.233-.432a1.8 1.8 0 0 1-.143-.416 7 7 0 0 1-.016-.56zm2.624-2.96q-.111.224-.415.32t-.817.096q-.495 0-.8-.096a.7.7 0 0 1-.431-.336 1.8 1.8 0 0 1-.144-.416 7 7 0 0 1-.016-.56q0-.368.016-.544.03-.192.144-.416.223-.432 1.248-.432 1.007 0 1.215.432.129.24.145.432.03.176.031.544 0 .368-.031.56a1.1 1.1 0 0 1-.145.416m1.455-1.008q0-.368.016-.544a1.7 1.7 0 0 1 .144-.432q.223-.432 1.248-.432.975 0 1.216.432.127.24.144.432.032.192.032.56v7.408q0 .576.096.736.095.144.416.144.336 0 .448.032.111.015.272.128.32.208.32 1.136 0 1.008-.32 1.232-.417.288-1.984.096-1.233-.16-1.6-.816-.448-.785-.448-2.496zm15.377 2.624q1.024.448 1.024 1.104 0 .272-.256.88-.255.592-.432 1.04l-1.76 4.288q-.24.704-.8.992a1.4 1.4 0 0 1-.608.112q-.368 0-.72-.272-.336-.288-.448-.576l-.128-.272q-.128-.32-.944-2.496a33 33 0 0 0-.48 1.264q-.303.864-.4 1.088l-.112.288q-.015.064-.128.256-.112.192-.256.336-.384.384-.88.384t-.832-.272q-.336-.288-.448-.576l-2.416-5.888q-.16-.48-.16-.624 0-.64.912-1.008.513-.208.832-.208.32 0 .512.144a.8.8 0 0 1 .288.272q.08.128.128.272.273.64 1.136 3.008l.944-2.592q.096-.32.352-.56.465-.465.944-.464.48 0 .816.256.353.255.48.512l.128.272q.8 2.24.944 2.56l.976-2.656q.384-1.024 1.152-1.024.304 0 .64.16m1.904 1.344q0-.368.016-.544.032-.192.144-.432.224-.416 1.248-.416.768 0 1.088.272.271.225.288.688.016.16.016.464v5.6q0 .368-.032.56a1.1 1.1 0 0 1-.144.416q-.209.416-1.232.416-1.008 0-1.232-.432a1.8 1.8 0 0 1-.144-.416 7 7 0 0 1-.016-.56zm2.624-2.96q-.113.224-.416.32-.304.096-.816.096-.495 0-.8-.096a.7.7 0 0 1-.432-.336 1.8 1.8 0 0 1-.144-.416 7 7 0 0 1-.016-.56q0-.368.016-.544.032-.192.144-.416.224-.432 1.248-.432 1.008 0 1.216.432.127.24.144.432.032.176.032.544t-.032.56a1.1 1.1 0 0 1-.144.416m6.142 1.552q1.6 0 2.656 1.232 1.072 1.216 1.072 2.976v2.816q0 .368-.032.56-.016.175-.128.4-.224.432-1.248.432-1.136 0-1.312-.592-.096-.271-.096-.816V25.26q0-.656-.384-1.024-.368-.368-1.008-.368-.624 0-1.024.384-.384.384-.384 1.008v2.832q0 .368-.032.56-.016.175-.144.4-.209.432-1.232.432-1.008 0-1.232-.432a1.8 1.8 0 0 1-.144-.416 7 7 0 0 1-.016-.56v-5.664q0-.352.016-.528.032-.192.16-.416.225-.4 1.232-.4.975 0 1.2.368.16.272.16.656.064-.112.288-.32t.432-.336a2.1 2.1 0 0 1 1.2-.368m10.663-3.504a.7.7 0 0 1 .432-.336q.304-.096.8-.096.511 0 .816.096t.416.336q.128.24.144.432.032.176.032.544v9.552q0 .368-.032.56-.016.175-.144.4-.24.432-1.36.432-1.104 0-1.232-.784-.672.768-1.872.768-1.44 0-2.624-1.248-1.184-1.264-1.184-2.928 0-1.68 1.184-2.944 1.2-1.264 2.624-1.264 1.184 0 1.84.8v-3.36q0-.368.016-.544.032-.192.144-.416m-2.592 8.688q.416.432 1.008.432t.976-.432q.4-.432.4-.944 0-.528-.384-.976-.368-.448-1.008-.448t-1.024.448a1.4 1.4 0 0 0-.384.96q0 .528.416.96m13.835.176.288-.208q.543-.32.768-.32.495 0 1.072.896.351.56.352.896 0 .336-.224.56-.208.225-.496.4t-.56.336q-.256.16-1.072.416a5.3 5.3 0 0 1-1.584.256 6.4 6.4 0 0 1-1.536-.192 7 7 0 0 1-1.6-.672 7 7 0 0 1-1.472-1.152q-.656-.688-1.088-1.744a6.3 6.3 0 0 1-.416-2.32q0-1.248.416-2.256.416-1.024 1.056-1.68a6.1 6.1 0 0 1 1.488-1.12q1.568-.864 3.152-.864.752 0 1.52.24.783.224 1.184.464l.384.224q.288.175.448.288.416.336.416.768 0 .415-.336.88-.624.864-1.12.864-.288 0-.816-.352-.672-.544-1.792-.544-1.04 0-2.048.72-.48.352-.8.992t-.32 1.456q0 .8.32 1.44t.816 1.008q.976.704 2.032.704.496 0 .928-.128.448-.127.64-.256m3.707 1.424q-.416-.511-.416-.912 0-.416.688-1.088.4-.384.848-.384t1.248.8q.224.272.64.528.416.24.768.24 1.488 0 1.488-1.216 0-.368-.416-.608-.4-.255-1.008-.368a9 9 0 0 1-1.312-.352 9 9 0 0 1-1.312-.592q-.608-.336-1.024-1.056-.4-.735-.4-1.76 0-1.408 1.04-2.448 1.056-1.056 2.864-1.056.96 0 1.744.256.8.24 1.104.496l.4.304q.496.464.496.784t-.384.88q-.544.8-1.12.8-.336 0-.832-.32a2 2 0 0 1-.192-.16 2 2 0 0 0-.24-.208q-.336-.208-.864-.208-.512 0-.864.256-.336.24-.336.688 0 .432.4.704.416.272 1.024.368t1.328.304q.72.192 1.328.48.607.288 1.008 1.008.416.704.416 1.744t-.416 1.84q-.416.784-1.088 1.216-1.296.848-2.768.848-.752 0-1.424-.176-.672-.192-1.088-.464-.848-.512-1.184-.992zm9.328 0q-.416-.511-.416-.912 0-.416.688-1.088.4-.384.848-.384.449 0 1.248.8.224.272.64.528.416.24.768.24 1.488 0 1.488-1.216 0-.368-.416-.608-.4-.255-1.008-.368a9 9 0 0 1-1.312-.352 9 9 0 0 1-1.312-.592q-.608-.336-1.024-1.056-.4-.735-.4-1.76 0-1.408 1.04-2.448 1.056-1.056 2.864-1.056.96 0 1.744.256.8.24 1.104.496l.4.304q.496.464.496.784t-.384.88q-.544.8-1.12.8-.336 0-.832-.32a2 2 0 0 1-.192-.16 2 2 0 0 0-.24-.208q-.336-.208-.864-.208-.511 0-.864.256-.336.24-.336.688 0 .432.4.704.416.272 1.024.368t1.328.304q.72.192 1.328.48t1.008 1.008q.416.704.416 1.744t-.416 1.84q-.416.784-1.088 1.216-1.296.848-2.768.848-.752 0-1.424-.176-.672-.192-1.088-.464-.848-.512-1.184-.992z"/></g><defs><clipPath id="b"><path fill="#fff" d="M8 0h33v48H8z"/></clipPath><clipPath id="c"><path fill="#fff" d="M49 14.5h94v19H49z"/></clipPath></defs></svg>