<svg xmlns="http://www.w3.org/2000/svg" width="130" height="48" fill="none" viewBox="0 0 130 48"><mask id="a" fill="#fff"><path d="M0 24C0 10.745 10.745 0 24 0h82c13.255 0 24 10.745 24 24s-10.745 24-24 24H24C10.745 48 0 37.255 0 24"/></mask><path fill="#DDEFFF" d="M0 24C0 10.745 10.745 0 24 0h82c13.255 0 24 10.745 24 24s-10.745 24-24 24H24C10.745 48 0 37.255 0 24"/><path fill="#45A9FF" d="M24 0v2h82v-4H24zm82 48v-2H24v4h82zm-82 0v-2C11.85 46 2 36.15 2 24h-4c0 14.36 11.64 26 26 26zm106-24h-2c0 12.15-9.85 22-22 22v4c14.359 0 26-11.64 26-26zM106 0v2c12.15 0 22 9.85 22 22h4c0-14.36-11.641-26-26-26zM24 0v-2C9.64-2-2 9.64-2 24h4C2 11.85 11.85 2 24 2z" mask="url(#a)"/><g clip-path="url(#b)"><path fill="#27A7E7" d="M34.59 11.862s2.48-1.16 2.273 1.658c-.069 1.16-.688 5.223-1.171 9.616l-1.654 13.015s-.137 1.907-1.378 2.239c-1.24.33-3.1-1.16-3.445-1.492-.276-.25-5.167-3.98-6.89-5.803-.482-.498-1.033-1.493.07-2.653l7.234-8.29c.827-.997 1.653-3.318-1.791-.499L18.19 27.53s-1.102.83-3.169.083l-4.479-1.658s-1.653-1.244 1.172-2.487c6.89-3.896 15.366-7.874 22.875-11.605"/></g><g clip-path="url(#c)"><path fill="#28A8E9" d="M50.408 17.756h8.896q.512 0 .752.128a.58.58 0 0 1 .32.368q.08.256.08.672t-.08.672a.55.55 0 0 1-.272.336q-.288.144-.816.144h-3.056v8.048q0 .368-.032.544a1.1 1.1 0 0 1-.144.416q-.112.224-.416.32-.305.096-.8.096t-.8-.096a.72.72 0 0 1-.416-.32 1.8 1.8 0 0 1-.144-.416 7 7 0 0 1-.016-.56v-8.032h-3.072q-.512 0-.752-.112a.64.64 0 0 1-.32-.384 2.3 2.3 0 0 1-.08-.672q0-.416.08-.656.08-.256.272-.352.288-.144.816-.144m17.141 6.528q0 .975-.496 1.456-.48.465-1.072.464H62.19q0 .449.528.752a2.1 2.1 0 0 0 1.056.304q.928 0 1.456-.192l.176-.064q.385-.176.64-.176.513 0 .88.72.208.432.208.736 0 1.425-3.408 1.424-1.184 0-2.112-.4-.911-.416-1.424-1.088-1.008-1.296-1.008-2.896 0-2.016 1.296-3.216 1.313-1.215 3.264-1.216 2.224 0 3.264 1.568.544.832.544 1.824m-3.376.464q.609 0 .608-.512a.71.71 0 0 0-.288-.592q-.272-.224-.8-.224-.511 0-1.024.432-.512.416-.512.896zm4.42-6.24q0-.368.016-.544a1.7 1.7 0 0 1 .144-.432q.225-.432 1.248-.432.975 0 1.216.432.127.24.144.432.032.192.032.56v7.408q0 .576.096.736.096.144.416.144.336 0 .448.032.113.015.272.128.32.208.32 1.136 0 1.008-.32 1.232-.416.288-1.984.096-1.232-.16-1.6-.816-.447-.785-.448-2.496zM81.8 24.284q0 .975-.496 1.456-.48.465-1.072.464H76.44q0 .449.528.752a2.1 2.1 0 0 0 1.056.304q.928 0 1.456-.192l.176-.064q.385-.176.64-.176.513 0 .88.72.208.432.208.736 0 1.425-3.408 1.424-1.184 0-2.112-.4-.911-.416-1.424-1.088-1.008-1.296-1.008-2.896 0-2.016 1.296-3.216 1.312-1.215 3.264-1.216 2.224 0 3.264 1.568.544.832.544 1.824m-3.376.464q.609 0 .608-.512a.71.71 0 0 0-.288-.592q-.272-.224-.8-.224-.511 0-1.024.432-.512.416-.512.896zm9.764 3.696q-.607.8-1.936.8t-2.496-1.216q-1.152-1.232-1.152-2.864t1.168-2.864 2.56-1.232q.545 0 .992.208.449.192.608.368.176.16.272.304.048-.448.32-.672.288-.24.912-.24t.912.096a.64.64 0 0 1 .4.336q.128.225.144.4.032.176.032.544v6.624q0 1.84-1.28 2.96-1.28 1.136-2.88 1.136-1.216 0-2.32-.592t-1.104-1.072q0-.624.48-1.104a5 5 0 0 1 .464-.464.66.66 0 0 1 .4-.128q.225 0 .464.192.768.592 1.664.592.608 0 .992-.48t.384-1.152zM85.34 25.18q0 .511.4.928.416.416.992.416.592 0 .976-.416.384-.432.384-.928 0-.512-.368-.944-.368-.448-.992-.448t-1.008.432a1.4 1.4 0 0 0-.384.96m12.591-4.016q.304.096.496.336.21.225.209.736 0 .512-.305 1.12-.303.608-.88.608-.287 0-.56-.128-.256-.128-.687-.128t-.817.304q-.367.304-.367.736v3.36q0 .368-.032.56a1.1 1.1 0 0 1-.144.416q-.24.416-1.249.416-.767 0-1.103-.272-.257-.225-.288-.688v-6.08q0-.368.016-.544.03-.192.144-.416.223-.432 1.248-.432.96 0 1.2.368.175.256.175.528.081-.112.224-.272.16-.16.657-.432.495-.272.864-.272.384 0 .64.048.255.032.56.128m6.573.8q.096-.896 1.264-.896.624 0 .928.096.303.096.416.336.127.24.144.432.032.176.032.544v5.6q0 .368-.032.56a1.3 1.3 0 0 1-.128.416q-.225.416-1.104.416-.864 0-1.168-.208-.288-.225-.336-.64-.592.848-1.984.848-1.377 0-2.56-1.264t-1.184-2.928q0-1.68 1.184-2.928 1.2-1.264 2.624-1.264.543 0 .992.192.447.192.624.368.175.16.288.32m-2.912 3.328q0 .528.416.96.416.416 1.008.416t.976-.432q.4-.432.4-.944 0-.528-.384-.976-.369-.448-1.008-.448-.624 0-1.024.448-.384.448-.384.976m9.723-3.104q.752-1.136 1.808-1.136 1.632 0 2.432 1.392.176-.24.416-.496.256-.272.8-.576.544-.32 1.12-.32 1.28 0 2.144.992.864.975.864 3.248v2.8q0 .368-.032.56a1.2 1.2 0 0 1-.144.416q-.208.432-1.232.432-1.008 0-1.232-.448a1.7 1.7 0 0 1-.144-.416 7 7 0 0 1-.016-.56v-2.8q0-1.392-.992-1.392-.56 0-.768.368-.192.368-.192 1.04v2.8q0 .384-.032.56a1.2 1.2 0 0 1-.144.416q-.224.432-1.248.432-1.008 0-1.232-.448a1.7 1.7 0 0 1-.144-.416 7 7 0 0 1-.016-.56v-2.8q0-1.392-.992-1.392-.96 0-.96 1.392v2.832q0 .368-.032.56a1.2 1.2 0 0 1-.144.416q-.24.416-1.248.416t-1.232-.432a1.7 1.7 0 0 1-.144-.416 7 7 0 0 1-.016-.56V22.46q0-.368.016-.544.032-.192.16-.416.24-.432 1.136-.432t1.168.288.272.832"/></g><defs><clipPath id="b"><path fill="#fff" d="M8 0h33v48H8z"/></clipPath><clipPath id="c"><path fill="#fff" d="M49 14.5h73v19H49z"/></clipPath></defs></svg>