<svg xmlns="http://www.w3.org/2000/svg" width="148" height="48" fill="none" viewBox="0 0 148 48"><mask id="a" fill="#fff"><path d="M0 24C0 10.745 10.745 0 24 0h100c13.255 0 24 10.745 24 24s-10.745 24-24 24H24C10.745 48 0 37.255 0 24"/></mask><path fill="#FFE08B" d="M0 24C0 10.745 10.745 0 24 0h100c13.255 0 24 10.745 24 24s-10.745 24-24 24H24C10.745 48 0 37.255 0 24"/><path fill="#FFCA57" d="M24 0v2h100v-4H24zm100 48v-2H24v4h100zM24 48v-2C11.85 46 2 36.15 2 24h-4c0 14.36 11.64 26 26 26zm124-24h-2c0 12.15-9.85 22-22 22v4c14.359 0 26-11.64 26-26zM124 0v2c12.15 0 22 9.85 22 22h4c0-14.36-11.641-26-26-26zM24 0v-2C9.64-2-2 9.64-2 24h4C2 11.85 11.85 2 24 2z" mask="url(#a)"/><g clip-path="url(#b)"><path fill="#FF6F00" d="m23.837 39.469-5.907-3.065V18.332l-8.899 4.595.022-6.845 14.784-7.55zM25.165 8.53v30.94l5.908-3.065V27.7l4.46 2.304-.027-5.953-4.433-2.262v-3.457l8.896 4.595-.022-6.845z"/></g><g clip-path="url(#c)"><path fill="#FF6F00" d="M50.408 17.756h8.896q.512 0 .752.128a.58.58 0 0 1 .32.368q.08.256.08.672t-.08.672a.55.55 0 0 1-.272.336q-.288.144-.816.144h-3.056v8.048q0 .368-.032.544a1.1 1.1 0 0 1-.144.416q-.112.224-.416.32-.305.096-.8.096t-.8-.096a.72.72 0 0 1-.416-.32 1.8 1.8 0 0 1-.144-.416 7 7 0 0 1-.016-.56v-8.032h-3.072q-.512 0-.752-.112a.64.64 0 0 1-.32-.384 2.3 2.3 0 0 1-.08-.672q0-.416.08-.656.08-.256.272-.352.288-.144.816-.144m17.141 6.528q0 .975-.496 1.456-.48.465-1.072.464H62.19q0 .449.528.752a2.1 2.1 0 0 0 1.056.304q.928 0 1.456-.192l.176-.064q.385-.176.64-.176.513 0 .88.72.208.432.208.736 0 1.425-3.408 1.424-1.184 0-2.112-.4-.911-.416-1.424-1.088-1.008-1.296-1.008-2.896 0-2.016 1.296-3.216 1.313-1.215 3.264-1.216 2.224 0 3.264 1.568.544.832.544 1.824m-3.376.464q.609 0 .608-.512a.71.71 0 0 0-.288-.592q-.272-.224-.8-.224-.511 0-1.024.432-.512.416-.512.896zm9.108-3.68q1.6 0 2.656 1.232 1.072 1.216 1.072 2.976v2.816q0 .368-.032.56-.015.175-.128.4-.224.432-1.248.432-1.136 0-1.312-.592-.096-.271-.096-.816V25.26q0-.656-.384-1.024-.368-.368-1.008-.368-.624 0-1.024.384-.384.384-.384 1.008v2.832q0 .368-.032.56-.016.175-.144.4-.208.432-1.232.432-1.007 0-1.232-.432a1.8 1.8 0 0 1-.144-.416 7 7 0 0 1-.016-.56v-5.664q0-.352.016-.528.033-.192.16-.416.225-.4 1.232-.4.975 0 1.2.368.16.272.16.656.065-.112.288-.32.224-.208.432-.336a2.1 2.1 0 0 1 1.2-.368m5.08 7.68q-.305-.192-.305-.608t.608-1.264q.177-.272.56-.272.4 0 1.072.4.672.384 1.216.384.976 0 .976-.384 0-.304-1.072-.448-1.007-.144-2-.752-.464-.287-.768-.896-.303-.624-.304-1.472 0-2.528 3.472-2.528 1.136 0 2.336.544.56.256.56.64 0 .383-.352.944-.351.56-.72.56-.192 0-.72-.24a2.6 2.6 0 0 0-1.12-.24q-.944 0-.944.352 0 .48 1.088.624a6 6 0 0 1 2.048.608q.465.224.768.784.32.544.32 1.376 0 .833-.32 1.424-.303.576-.864.864-1.023.495-2.576.496-1.535 0-2.96-.896m7.523-3.456q0-1.92 1.344-3.168t3.072-1.248 3.056 1.248q1.329 1.232 1.328 3.152 0 1.328-.688 2.368-.687 1.025-1.68 1.52a4.55 4.55 0 0 1-2.032.48q-1.055 0-2.048-.512-.992-.528-1.68-1.536a4.1 4.1 0 0 1-.672-2.304m3.344 1.152q.512.384 1.04.384t1.056-.4.528-1.184-.496-1.168a1.72 1.72 0 0 0-1.072-.384q-.576 0-1.072.4t-.496 1.184q0 .768.512 1.168m12.218-5.28q.304.096.496.336.208.225.208.736 0 .512-.304 1.12t-.88.608a1.3 1.3 0 0 1-.56-.128q-.256-.128-.688-.128t-.816.304q-.368.304-.368.736v3.36q0 .368-.032.56-.015.176-.144.416-.24.416-1.248.416-.768 0-1.104-.272-.255-.225-.288-.688v-6.08q0-.368.016-.544.033-.192.144-.416.225-.432 1.248-.432.96 0 1.2.368a.92.92 0 0 1 .176.528q.08-.112.224-.272.16-.16.656-.432t.864-.272q.384 0 .64.048.256.032.56.128m9.345-3.392q.367 0 .544.032.192.016.416.144.24.128.336.432.096.305.096.816 0 .512-.096.816a.7.7 0 0 1-.336.432q-.24.113-.432.144-.177.016-.56.016h-4.896v1.616h3.152q.383 0 .56.032.192.016.432.144.416.24.416 1.264 0 1.12-.608 1.328-.257.08-.816.08h-3.136v3.024q0 .384-.032.56a1.2 1.2 0 0 1-.144.416q-.225.432-1.248.432-1.12 0-1.312-.608-.096-.256-.096-.816V19.18q0-.816.304-1.104.303-.304 1.152-.304zm2.427.736q0-.368.016-.544.032-.192.144-.432.224-.432 1.248-.432.976 0 1.216.432.127.24.144.432.032.192.032.56v7.408q0 .576.096.736.096.144.416.144.336 0 .448.032.112.015.272.128.32.208.32 1.136 0 1.008-.32 1.232-.416.288-1.984.096-1.232-.16-1.6-.816-.448-.785-.448-2.496zm4.995 6.784q0-1.92 1.344-3.168t3.072-1.248 3.056 1.248q1.328 1.232 1.328 3.152 0 1.328-.688 2.368-.688 1.025-1.68 1.52a4.55 4.55 0 0 1-2.032.48q-1.056 0-2.048-.512-.993-.528-1.68-1.536a4.1 4.1 0 0 1-.672-2.304m3.344 1.152q.512.384 1.04.384t1.056-.4.528-1.184-.496-1.168a1.72 1.72 0 0 0-1.072-.384q-.576 0-1.072.4t-.496 1.184q0 .768.512 1.168m16.961-5.312q1.023.448 1.024 1.104 0 .272-.256.88-.257.592-.432 1.04l-1.76 4.288q-.24.704-.8.992a1.4 1.4 0 0 1-.608.112q-.369 0-.72-.272-.337-.288-.448-.576l-.128-.272q-.129-.32-.944-2.496-.16.384-.48 1.264-.304.864-.4 1.088l-.112.288a1.4 1.4 0 0 1-.128.256q-.112.192-.256.336-.385.384-.88.384-.496 0-.832-.272-.337-.288-.448-.576l-2.416-5.888q-.16-.48-.16-.624 0-.64.912-1.008.511-.208.832-.208t.512.144a.8.8 0 0 1 .288.272q.08.128.128.272.272.64 1.136 3.008l.944-2.592q.096-.32.352-.56.464-.465.944-.464.48 0 .816.256.351.255.48.512l.128.272q.8 2.24.944 2.56l.976-2.656q.384-1.024 1.152-1.024.303 0 .64.16"/></g><defs><clipPath id="b"><path fill="#fff" d="M8 0h33v48H8z"/></clipPath><clipPath id="c"><path fill="#fff" d="M49 14.5h91v19H49z"/></clipPath></defs></svg>