<svg xmlns="http://www.w3.org/2000/svg" width="139" height="48" fill="none" viewBox="0 0 139 48"><mask id="a" fill="#fff"><path d="M0 24C0 10.745 10.745 0 24 0h91c13.255 0 24 10.745 24 24s-10.745 24-24 24H24C10.745 48 0 37.255 0 24"/></mask><path fill="#95CBF8" d="M0 24C0 10.745 10.745 0 24 0h91c13.255 0 24 10.745 24 24s-10.745 24-24 24H24C10.745 48 0 37.255 0 24"/><path fill="#4BA7F5" d="M24 0v2h91v-4H24zm91 48v-2H24v4h91zm-91 0v-2C11.85 46 2 36.15 2 24h-4c0 14.36 11.64 26 26 26zm115-24h-2c0 12.15-9.85 22-22 22v4c14.359 0 26-11.64 26-26zM115 0v2c12.15 0 22 9.85 22 22h4c0-14.36-11.641-26-26-26zM24 0v-2C9.64-2-2 9.64-2 24h4C2 11.85 11.85 2 24 2z" mask="url(#a)"/><g clip-path="url(#b)"><path fill="#4C97D7" stroke="#188BED" stroke-width="1.333" d="M33.443 11.625H18.65a6.526 6.526 0 0 0-6.526 6.526v14.792a6.526 6.526 0 0 0 6.526 6.526h14.792a6.526 6.526 0 0 0 6.526-6.526V18.15a6.526 6.526 0 0 0-6.526-6.526Z"/><path fill="#fff" d="m18.282 25.64-.008 1.14h3.624v10.297h2.563V26.78h3.624v-1.12c0-.619-.013-1.136-.03-1.149-.014-.017-2.22-.026-4.893-.022l-4.866.013zm16.31-1.169c.707.177 1.247.49 1.742 1.003.256.274.636.774.667.893.009.035-1.202.849-1.936 1.304-.026.018-.132-.097-.252-.274-.358-.522-.733-.747-1.308-.787-.844-.057-1.388.385-1.383 1.123 0 .216.03.344.12.521.185.385.53.614 1.612 1.083 1.993.858 2.846 1.423 3.377 2.227.592.898.725 2.33.322 3.395-.441 1.158-1.538 1.944-3.08 2.205-.477.084-1.609.07-2.121-.022-1.119-.199-2.18-.751-2.833-1.476-.257-.283-.756-1.021-.725-1.074a2 2 0 0 1 .256-.163c.124-.071.592-.34 1.034-.597l.8-.464.168.247c.234.358.747.849 1.056 1.012.889.469 2.109.402 2.71-.137.256-.234.362-.477.362-.835 0-.323-.04-.464-.208-.707-.216-.31-.658-.57-1.913-1.114-1.437-.619-2.055-1.003-2.621-1.613a3.7 3.7 0 0 1-.765-1.392c-.106-.394-.132-1.38-.048-1.777.296-1.388 1.343-2.356 2.855-2.643.49-.093 1.63-.057 2.112.062"/></g><g clip-path="url(#c)"><path fill="#317BBA" d="M50.408 17.756h8.896q.512 0 .752.128a.58.58 0 0 1 .32.368q.08.256.08.672t-.08.672a.55.55 0 0 1-.272.336q-.288.144-.816.144h-3.056v8.048q0 .368-.032.544a1.1 1.1 0 0 1-.144.416q-.112.224-.416.32-.305.096-.8.096t-.8-.096a.72.72 0 0 1-.416-.32 1.8 1.8 0 0 1-.144-.416 7 7 0 0 1-.016-.56v-8.032h-3.072q-.512 0-.752-.112a.64.64 0 0 1-.32-.384 2.3 2.3 0 0 1-.08-.672q0-.416.08-.656.08-.256.272-.352.288-.144.816-.144m16.54 3.408q.945.416.945 1.008a1.2 1.2 0 0 1-.128.544q-.129.255-.128.272l-4.192 9.376q-.129.304-.224.464a.9.9 0 0 1-.272.304.78.78 0 0 1-.48.144q-.288 0-.848-.24-.945-.416-.944-.992 0-.384 1.536-3.664l-3.184-5.36q-.32-.528-.32-.784 0-.512.864-1.024.543-.32.848-.32.303 0 .496.128a.8.8 0 0 1 .272.272q.096.127.88 1.488.8 1.344 1.52 2.512.08-.256.864-1.968.784-1.728.832-1.84.063-.112.192-.272a.68.68 0 0 1 .576-.272q.383 0 .896.224m1.817 10.624v-9.344q0-.368.016-.544.032-.175.144-.4.225-.432 1.072-.432t1.136.224q.304.209.352.624.608-.832 1.904-.832 1.312 0 2.48 1.232t1.168 2.864-1.168 2.864q-1.153 1.232-2.464 1.232-1.313 0-1.904-.736v3.232q0 .368-.032.544-.016.175-.144.4a.64.64 0 0 1-.4.336q-.288.096-.784.096-.495 0-.8-.096a.72.72 0 0 1-.416-.32 1.5 1.5 0 0 1-.144-.4 7 7 0 0 1-.016-.544m3.168-7.536q-.368.432-.368.944t.368.944q.384.416.96.416.592 0 .992-.416.416-.416.416-.944t-.384-.944q-.384-.432-1.008-.432-.607 0-.976.432m14.272.032q0 .975-.495 1.456-.48.465-1.072.464h-3.793q0 .449.529.752a2.1 2.1 0 0 0 1.056.304q.927 0 1.455-.192l.176-.064q.385-.176.64-.176.513 0 .88.72.21.432.209.736 0 1.425-3.409 1.424-1.183 0-2.112-.4-.911-.416-1.424-1.088-1.007-1.296-1.007-2.896 0-2.016 1.296-3.216 1.311-1.215 3.263-1.216 2.225 0 3.264 1.568.544.832.544 1.824m-3.376.464q.609 0 .609-.512a.71.71 0 0 0-.288-.592q-.273-.224-.8-.224-.513 0-1.024.432-.512.416-.512.896zm4.484 4q-.304-.192-.304-.608t.608-1.264q.176-.272.56-.272.4 0 1.072.4.672.384 1.216.384.976 0 .976-.384 0-.304-1.072-.448-1.007-.144-2-.752-.463-.287-.768-.896-.303-.624-.304-1.472 0-2.528 3.472-2.528 1.136 0 2.336.544.56.256.56.64 0 .383-.352.944-.351.56-.72.56-.192 0-.72-.24a2.6 2.6 0 0 0-1.12-.24q-.944 0-.944.352 0 .48 1.088.624a6 6 0 0 1 2.048.608q.465.224.768.784.32.544.32 1.376 0 .833-.32 1.424-.303.576-.864.864-1.023.495-2.576.496-1.535 0-2.96-.896m10.404-3.456q0 .672.448 1.056.45.368.944.368.513 0 .945-.288.447-.304.72-.304.48 0 1.168.848.368.465.368.832 0 .608-.88 1.136-.912.64-2.24.64-1.488 0-2.864-1.072-.657-.512-1.072-1.36a4.3 4.3 0 0 1-.416-1.888q0-1.04.416-1.872.415-.848 1.072-1.36 1.328-1.056 2.832-1.056.608 0 1.184.176.576.16.848.32l.256.16q.288.192.448.304.416.32.416.736 0 .4-.336.912-.576.88-1.104.88-.305 0-.864-.352-.288-.272-.832-.272-.529 0-.993.384t-.463 1.072m11.354-4.128q.304.096.496.336.208.225.208.736 0 .512-.304 1.12t-.88.608a1.3 1.3 0 0 1-.56-.128q-.256-.128-.688-.128t-.816.304q-.368.304-.368.736v3.36q0 .368-.032.56a1.2 1.2 0 0 1-.144.416q-.24.416-1.248.416-.768 0-1.104-.272-.257-.225-.288-.688v-6.08q0-.368.016-.544.032-.192.144-.416.224-.432 1.248-.432.96 0 1.2.368.176.256.176.528.08-.112.224-.272.16-.16.656-.432t.864-.272q.384 0 .64.048.256.032.56.128m1.585 1.312q0-.368.016-.544.032-.192.144-.432.224-.416 1.248-.416.767 0 1.088.272.272.225.288.688.016.16.016.464v5.6q0 .368-.032.56a1.2 1.2 0 0 1-.144.416q-.209.416-1.232.416-1.008 0-1.232-.432a1.7 1.7 0 0 1-.144-.416 7 7 0 0 1-.016-.56zm2.624-2.96q-.113.224-.416.32-.304.096-.816.096-.497 0-.8-.096a.7.7 0 0 1-.432-.336 1.7 1.7 0 0 1-.144-.416 7 7 0 0 1-.016-.56q0-.368.016-.544.032-.192.144-.416.224-.432 1.248-.432 1.008 0 1.216.432.127.24.144.432.032.176.032.544t-.032.56a1.2 1.2 0 0 1-.144.416m1.454 12.272v-9.344q0-.368.016-.544.031-.175.144-.4.223-.432 1.072-.432.848 0 1.136.224.303.209.352.624.608-.832 1.904-.832 1.311 0 2.48 1.232 1.168 1.232 1.168 2.864t-1.168 2.864q-1.153 1.232-2.464 1.232-1.313 0-1.904-.736v3.232q0 .368-.032.544-.016.175-.144.4a.64.64 0 0 1-.4.336q-.288.096-.784.096t-.8-.096a.72.72 0 0 1-.416-.32 1.5 1.5 0 0 1-.144-.4 7 7 0 0 1-.016-.544m3.168-7.536a1.42 1.42 0 0 0-.368.944q0 .512.368.944.384.416.96.416.591 0 .992-.416.416-.416.416-.944t-.384-.944q-.384-.432-1.008-.432-.609 0-.976.432m10.884-.352-1.04-.064v2.208q0 .432.128.624.144.192.512.192.384 0 .576.032.208.016.432.144.368.208.368 1.072 0 1.008-.448 1.232-.24.113-.432.144a6 6 0 0 1-.528.016q-1.664 0-2.528-.752t-.864-2.544v-2.368a4 4 0 0 1-.656.048.76.76 0 0 1-.592-.272q-.224-.271-.224-.928 0-.656.08-.944.08-.305.224-.432a.98.98 0 0 1 .64-.208l.528.064v-1.648q0-.368.016-.544.032-.176.16-.384.208-.4 1.232-.4 1.087 0 1.296.592.08.256.08.816v1.568q.704-.064 1.056-.064.368 0 .544.032.192.016.432.144.416.209.416 1.232 0 1.008-.432 1.232-.24.113-.432.144a7 7 0 0 1-.544.016"/></g><defs><clipPath id="b"><path fill="#fff" d="M8 0h33v48H8z"/></clipPath><clipPath id="c"><path fill="#fff" d="M49 14.5h82v19H49z"/></clipPath></defs></svg>