<svg xmlns="http://www.w3.org/2000/svg" width="107" height="48" fill="none" viewBox="0 0 107 48"><mask id="a" fill="#fff"><path d="M0 24C0 10.745 10.745 0 24 0h59c13.255 0 24 10.745 24 24S96.255 48 83 48H24C10.745 48 0 37.255 0 24"/></mask><path fill="#787C80" d="M0 24C0 10.745 10.745 0 24 0h59c13.255 0 24 10.745 24 24S96.255 48 83 48H24C10.745 48 0 37.255 0 24"/><path fill="#1F252C" d="M24 0v2h59v-4H24zm59 48v-2H24v4h59zm-59 0v-2C11.85 46 2 36.15 2 24h-4c0 14.36 11.64 26 26 26zm83-24h-2c0 12.15-9.85 22-22 22v4c14.36 0 26-11.64 26-26zM83 0v2c12.15 0 22 9.85 22 22h4C109 9.64 97.36-2 83-2zM24 0v-2C9.64-2-2 9.64-2 24h4C2 11.85 11.85 2 24 2z" mask="url(#a)"/><g clip-path="url(#b)"><path fill="#13181C" d="M39.423 33.43c.713 1.333-.252 2.945-1.763 2.945H13.403c-1.512 0-2.477-1.612-1.763-2.944l12.128-22.64c.754-1.408 2.772-1.408 3.526 0z"/></g><g clip-path="url(#c)"><path fill="#13181C" d="M60.344 17.948q.945.464.944 1.024 0 .256-.24.768l-4.416 8.96a1.4 1.4 0 0 1-.544.576q-.352.208-.736.208h-.16q-.4 0-.768-.208a1.44 1.44 0 0 1-.528-.576l-4.416-8.96q-.24-.512-.24-.768 0-.56.944-1.024.528-.272.8-.272.288 0 .432.064a.74.74 0 0 1 .272.224q.144.192.256.432.127.224.624 1.328l1.056 2.32q.576 1.232 1.072 2.336.512 1.087.576 1.216l3.2-7.008q.128-.304.224-.48.288-.432.704-.432t.944.272m8.362 6.336q0 .975-.496 1.456-.48.465-1.072.464h-3.793q0 .449.529.752a2.1 2.1 0 0 0 1.056.304q.927 0 1.455-.192l.176-.064q.385-.176.64-.176.513 0 .88.72.21.432.209.736 0 1.425-3.409 1.424-1.184 0-2.111-.4-.913-.416-1.425-1.088-1.008-1.296-1.008-2.896 0-2.016 1.296-3.216 1.313-1.215 3.264-1.216 2.225 0 3.264 1.568.544.832.544 1.824m-3.377.464q.609 0 .609-.512a.71.71 0 0 0-.288-.592q-.273-.224-.8-.224-.513 0-1.024.432-.513.416-.513.896zm10.148-3.584q.304.096.496.336.208.225.208.736 0 .512-.304 1.12-.303.608-.88.608-.287 0-.56-.128-.256-.128-.688-.128t-.816.304q-.368.304-.368.736v3.36q0 .368-.032.56a1.1 1.1 0 0 1-.144.416q-.24.416-1.248.416-.768 0-1.104-.272-.255-.225-.288-.688v-6.08q0-.368.016-.544.033-.192.144-.416.225-.432 1.248-.432.96 0 1.2.368.177.256.176.528.08-.112.224-.272.16-.16.656-.432t.864-.272q.385 0 .64.048.257.032.56.128m3.74 4.128q0 .672.448 1.056.45.368.944.368.513 0 .945-.288.447-.304.72-.304.48 0 1.168.848.368.465.368.832 0 .608-.88 1.136-.913.64-2.24.64-1.488 0-2.864-1.072-.657-.512-1.072-1.36a4.3 4.3 0 0 1-.416-1.888q0-1.04.416-1.872.415-.848 1.072-1.36 1.328-1.056 2.832-1.056.608 0 1.183.176.577.16.849.32l.255.16q.289.192.449.304.415.32.415.736 0 .4-.335.912-.576.88-1.105.88-.303 0-.864-.352-.287-.272-.831-.272-.529 0-.993.384t-.463 1.072m13.52-1.008q0 .975-.496 1.456-.48.465-1.072.464h-3.792q0 .449.528.752a2.1 2.1 0 0 0 1.056.304q.927 0 1.456-.192l.176-.064q.385-.176.64-.176.511 0 .88.72.208.432.208.736 0 1.425-3.408 1.424-1.185 0-2.112-.4-.912-.416-1.424-1.088-1.008-1.296-1.008-2.896 0-2.016 1.296-3.216 1.311-1.215 3.264-1.216 2.223 0 3.264 1.568.543.832.544 1.824m-3.376.464q.608 0 .608-.512a.71.71 0 0 0-.288-.592q-.273-.224-.8-.224-.513 0-1.024.432-.513.416-.512.896zm4.42-6.24q0-.368.016-.544a1.7 1.7 0 0 1 .144-.432q.223-.432 1.248-.432.975 0 1.216.432.127.24.144.432.032.192.032.56v7.408q0 .576.096.736.095.144.416.144.336 0 .448.032.111.015.272.128.32.208.32 1.136 0 1.008-.32 1.232-.417.288-1.984.096-1.233-.16-1.6-.816-.448-.785-.448-2.496z"/></g><defs><clipPath id="b"><rect width="33" height="48" x="8" fill="#fff" rx="2"/></clipPath><clipPath id="c"><path fill="#fff" d="M49 14.5h50v19H49z"/></clipPath></defs></svg>