<svg xmlns="http://www.w3.org/2000/svg" width="119" height="48" fill="none" viewBox="0 0 119 48"><mask id="a" fill="#fff"><path d="M0 24C0 10.745 10.745 0 24 0h71c13.255 0 24 10.745 24 24s-10.745 24-24 24H24C10.745 48 0 37.255 0 24"/></mask><path fill="#C6E6F5" d="M0 24C0 10.745 10.745 0 24 0h71c13.255 0 24 10.745 24 24s-10.745 24-24 24H24C10.745 48 0 37.255 0 24"/><path fill="#406C98" d="M24 0v2h71v-4H24zm71 48v-2H24v4h71zm-71 0v-2C11.85 46 2 36.15 2 24h-4c0 14.36 11.64 26 26 26zm95-24h-2c0 12.15-9.85 22-22 22v4c14.359 0 26-11.64 26-26zM95 0v2c12.15 0 22 9.85 22 22h4c0-14.36-11.641-26-26-26zM24 0v-2C9.64-2-2 9.64-2 24h4C2 11.85 11.85 2 24 2z" mask="url(#a)"/><g clip-path="url(#b)"><path fill="#6CB1EA" d="m30.45 39.469 9.519-4.76V13.291l-9.52-4.76z"/><path fill="#6CB1EA" d="M12.601 15.67 30.45 31.14v8.329L9.03 19.24v-1.19l2.38-2.38z"/><path stroke="#42658A" stroke-linecap="round" stroke-linejoin="round" stroke-width="1.333" d="M30.45 31.14 12.6 15.67h-1.19l-2.38 2.38v1.19l21.42 20.23 9.519-4.76V13.291l-9.52-4.76-12.375 11.685M30.45 39.47v-8.33m0-22.608v8.33m0-8.33V31.14m0-14.278V31.14m0-14.278-8.138 7.044m-8.449.285-4.83 4.57v1.19l2.332 2.617 1.237-.238 5.164-4.474"/></g><g clip-path="url(#c)"><path fill="#4076A8" d="M60.344 17.948q.945.464.944 1.024 0 .256-.24.768l-4.416 8.96a1.4 1.4 0 0 1-.544.576q-.352.208-.736.208h-.16q-.4 0-.768-.208a1.44 1.44 0 0 1-.528-.576l-4.416-8.96q-.24-.512-.24-.768 0-.56.944-1.024.528-.272.8-.272.288 0 .432.064a.74.74 0 0 1 .272.224q.144.192.256.432.127.224.624 1.328l1.056 2.32q.576 1.232 1.072 2.336.512 1.087.576 1.216l3.2-7.008q.128-.304.224-.48.288-.432.704-.432t.944.272m2.003 9.904q-.416-.511-.416-.912 0-.416.688-1.088.4-.384.848-.384.449 0 1.248.8.225.272.64.528.417.24.768.24 1.488 0 1.488-1.216 0-.368-.416-.608-.399-.255-1.008-.368a9 9 0 0 1-1.312-.352 9 9 0 0 1-1.312-.592q-.607-.336-1.024-1.056-.4-.735-.4-1.76 0-1.408 1.04-2.448 1.056-1.056 2.864-1.056.96 0 1.744.256.801.24 1.104.496l.4.304q.495.464.496.784 0 .32-.384.88-.543.8-1.12.8-.336 0-.832-.32a2 2 0 0 1-.192-.16 2 2 0 0 0-.24-.208q-.336-.208-.864-.208-.512 0-.864.256-.336.24-.336.688 0 .432.4.704.417.272 1.024.368.608.096 1.328.304.72.192 1.328.48t1.008 1.008q.417.704.416 1.744 0 1.04-.416 1.84-.416.784-1.088 1.216-1.296.848-2.768.848-.752 0-1.424-.176-.671-.192-1.088-.464-.848-.512-1.184-.992zm16.48-1.424.288-.208q.544-.32.768-.32.496 0 1.072.896.352.56.352.896a.76.76 0 0 1-.224.56q-.208.225-.496.4-.287.176-.56.336-.255.16-1.072.416a5.3 5.3 0 0 1-1.584.256 6.4 6.4 0 0 1-1.536-.192 7 7 0 0 1-1.6-.672 7 7 0 0 1-1.472-1.152q-.656-.688-1.088-1.744a6.4 6.4 0 0 1-.416-2.32q0-1.248.416-2.256.417-1.024 1.056-1.68a6.1 6.1 0 0 1 1.488-1.12q1.569-.864 3.152-.864.752 0 1.52.24.785.224 1.184.464l.384.224q.288.175.448.288.416.336.416.768 0 .415-.336.88-.624.864-1.12.864-.288 0-.816-.352-.672-.544-1.792-.544-1.04 0-2.048.72-.48.352-.8.992t-.32 1.456q0 .8.32 1.44.321.64.816 1.008.976.704 2.032.704.496 0 .928-.128.448-.127.64-.256m3.292-1.136q0-1.92 1.344-3.168t3.072-1.248 3.056 1.248q1.328 1.232 1.328 3.152 0 1.328-.688 2.368-.688 1.025-1.68 1.52a4.55 4.55 0 0 1-2.032.48q-1.056 0-2.048-.512-.993-.528-1.68-1.536a4.1 4.1 0 0 1-.672-2.304m3.344 1.152q.512.384 1.04.384t1.056-.4.528-1.184-.496-1.168a1.72 1.72 0 0 0-1.072-.384q-.576 0-1.072.4t-.496 1.184q0 .768.512 1.168m12.138-8.88a.7.7 0 0 1 .431-.336q.305-.096.8-.096.513 0 .817.096.302.096.416.336.127.24.144.432.032.176.032.544v9.552q0 .368-.032.56-.016.175-.144.4-.24.432-1.36.432-1.104 0-1.233-.784-.671.768-1.871.768-1.44 0-2.624-1.248-1.185-1.264-1.184-2.928 0-1.68 1.183-2.944 1.2-1.264 2.624-1.264 1.185 0 1.84.8v-3.36q0-.368.017-.544.03-.192.144-.416m-2.593 8.688q.417.432 1.008.432.592 0 .977-.432.4-.432.4-.944 0-.528-.385-.976-.367-.448-1.007-.448t-1.025.448a1.4 1.4 0 0 0-.383.96q0 .528.415.96m14.635-1.968q0 .975-.496 1.456-.48.465-1.072.464h-3.792q0 .449.528.752a2.1 2.1 0 0 0 1.056.304q.928 0 1.456-.192l.176-.064q.384-.176.64-.176.512 0 .88.72.208.432.208.736 0 1.425-3.408 1.424-1.183 0-2.112-.4-.912-.416-1.424-1.088-1.008-1.296-1.008-2.896 0-2.016 1.296-3.216 1.313-1.215 3.264-1.216 2.225 0 3.264 1.568.544.832.544 1.824m-3.376.464q.608 0 .608-.512a.71.71 0 0 0-.288-.592q-.272-.224-.8-.224-.512 0-1.024.432-.512.416-.512.896z"/></g><defs><clipPath id="b"><path fill="#fff" d="M8 0h33v48H8z"/></clipPath><clipPath id="c"><path fill="#fff" d="M49 14.5h62v19H49z"/></clipPath></defs></svg>