<svg xmlns="http://www.w3.org/2000/svg" width="88" height="48" fill="none" viewBox="0 0 88 48"><mask id="a" fill="#fff"><path d="M0 24C0 10.745 10.745 0 24 0h40c13.255 0 24 10.745 24 24S77.255 48 64 48H24C10.745 48 0 37.255 0 24"/></mask><path fill="#C0EBC6" d="M0 24C0 10.745 10.745 0 24 0h40c13.255 0 24 10.745 24 24S77.255 48 64 48H24C10.745 48 0 37.255 0 24"/><path fill="#87C08D" d="M24 0v2h40v-4H24zm40 48v-2H24v4h40zm-40 0v-2C11.85 46 2 36.15 2 24h-4c0 14.36 11.64 26 26 26zm64-24h-2c0 12.15-9.85 22-22 22v4c14.36 0 26-11.64 26-26zM64 0v2c12.15 0 22 9.85 22 22h4C90 9.64 78.36-2 64-2zM24 0v-2C9.64-2-2 9.64-2 24h4C2 11.85 11.85 2 24 2z" mask="url(#a)"/><g clip-path="url(#b)"><path fill="#829B9C" d="M38.326 10.465H28.245a1.59 1.59 0 0 0-1.353.789l-2.778 4.857-2.68-4.833c-.271-.493-.787-.813-1.328-.813H9.852c-.91 0-1.574 1.035-.984 2.022l14.016 24.68c.566.986 1.918 1.01 2.46.049l14.015-24.68c.59-1.011-.074-2.071-1.033-2.071"/><path fill="#ADEACB" d="M23.965 37.058 9.435 11.444a.14.14 0 0 1 .127-.206h.758a7.95 7.95 0 0 1 6.896 3.998c3.052 5.324 10.739 5.329 13.784 0a7.94 7.94 0 0 1 6.892-3.998h.782c.187 0 .081.289-.011.45L24.22 37.085c-.05.077-.178.103-.255-.026"/><path fill="#086941" d="m15.219 11.238 8.87 15.856 8.919-15.856h-4.596a.48.48 0 0 0-.42.255l-2.866 4.963c-.519.89-1.704.916-2.15 0l-2.742-4.938c-.099-.178-.222-.28-.42-.28z"/></g><g clip-path="url(#c)"><path fill="#36312E" d="M60.344 17.948q.945.464.944 1.024 0 .256-.24.768l-4.416 8.96a1.4 1.4 0 0 1-.544.576q-.352.208-.736.208h-.16q-.4 0-.768-.208a1.44 1.44 0 0 1-.528-.576l-4.416-8.96q-.24-.512-.24-.768 0-.56.944-1.024.528-.272.8-.272.288 0 .432.064a.74.74 0 0 1 .272.224q.144.192.256.432.127.224.624 1.328l1.056 2.32q.576 1.232 1.072 2.336.512 1.087.576 1.216l3.2-7.008q.128-.304.224-.48.288-.432.704-.432t.944.272m4.93 11.52q-1.616 0-2.687-1.216-1.056-1.232-1.056-2.992v-2.8q0-.384.016-.56.032-.176.144-.416.223-.432 1.248-.432 1.12 0 1.312.608.096.256.096.816v2.8q0 .656.368 1.024.384.368 1.008.368.64 0 1.024-.384.4-.384.4-1.008v-2.832q0-.368.016-.544.031-.192.16-.432.207-.416 1.232-.416 1.007 0 1.232.432.111.24.128.432.032.176.032.544v5.664q0 .352-.032.544-.016.175-.144.4-.24.416-1.232.416-.976 0-1.2-.384-.16-.272-.16-.656a1.6 1.6 0 0 1-.288.32q-.225.208-.432.352a2.14 2.14 0 0 1-1.184.352m14.088-5.184q0 .975-.496 1.456-.48.465-1.072.464h-3.792q0 .449.528.752a2.1 2.1 0 0 0 1.056.304q.927 0 1.456-.192l.176-.064q.385-.176.64-.176.511 0 .88.72.208.432.208.736 0 1.425-3.408 1.424-1.185 0-2.112-.4-.912-.416-1.424-1.088-1.008-1.296-1.008-2.896 0-2.016 1.296-3.216 1.311-1.215 3.264-1.216 2.223 0 3.264 1.568.543.832.544 1.824m-3.376.464q.608 0 .608-.512a.71.71 0 0 0-.288-.592q-.273-.224-.8-.224-.513 0-1.024.432-.513.416-.512.896z"/></g><defs><clipPath id="b"><path fill="#fff" d="M8 0h33v48H8z"/></clipPath><clipPath id="c"><path fill="#fff" d="M49 14.5h31v19H49z"/></clipPath></defs></svg>