<svg xmlns="http://www.w3.org/2000/svg" width="139" height="48" fill="none" viewBox="0 0 139 48"><mask id="a" fill="#fff"><path d="M0 24C0 10.745 10.745 0 24 0h91c13.255 0 24 10.745 24 24s-10.745 24-24 24H24C10.745 48 0 37.255 0 24"/></mask><path fill="#DEFFE0" d="M0 24C0 10.745 10.745 0 24 0h91c13.255 0 24 10.745 24 24s-10.745 24-24 24H24C10.745 48 0 37.255 0 24"/><path fill="#4CBD50" d="M24 0v2h91v-4H24zm91 48v-2H24v4h91zm-91 0v-2C11.85 46 2 36.15 2 24h-4c0 14.36 11.64 26 26 26zm115-24h-2c0 12.15-9.85 22-22 22v4c14.359 0 26-11.64 26-26zM115 0v2c12.15 0 22 9.85 22 22h4c0-14.36-11.641-26-26-26zM24 0v-2C9.64-2-2 9.64-2 24h4C2 11.85 11.85 2 24 2z" mask="url(#a)"/><g clip-path="url(#b)"><mask id="c" width="26" height="27" x="11" y="10" maskUnits="userSpaceOnUse" style="mask-type:luminance"><path fill="#fff" stroke="#fff" stroke-width="1.333" d="M12.125 11.625h23.719v23.719H12.125z"/></mask><g mask="url(#c)"><path fill="#36A83A" d="m26.219 11.8-.712-.1a11.4 11.4 0 0 0-11.135 4.993 11.36 11.36 0 0 0-.886 12.06A1.62 1.62 0 0 1 13.61 30c-.511 1.76-.986 3.533-1.485 5.393l.624-.188c1.685-.449 3.37-.898 5.056-1.31a1.8 1.8 0 0 1 1.061.1A11.798 11.798 0 1 0 26.22 11.8m3.146 16.378a3.45 3.45 0 0 1-3.396.7 11.5 11.5 0 0 1-6.404-4.632 10.6 10.6 0 0 1-1.386-2.597 3.11 3.11 0 0 1 .687-3.146 1.54 1.54 0 0 1 1.648-.524c.25.063.424.425.65.7q.273.773.636 1.51a1.174 1.174 0 0 1-.25 1.635c-.562.5-.474.911-.075 1.473a8.36 8.36 0 0 0 3.52 2.896c.4.175.7.212.962-.2.112-.162.262-.3.387-.449.724-.911.5-.899 1.648-.4q.55.232 1.06.538c.338.2.85.411.925.711a1.81 1.81 0 0 1-.612 1.785"/></g></g><g clip-path="url(#d)"><path fill="#36A83A" d="M63.672 17.836q1.072.384 1.072 1.024 0 .208-.192.784l-3.072 8.88a1.6 1.6 0 0 1-.112.272q-.08.16-.432.432-.336.256-.816.256a1.35 1.35 0 0 1-.816-.256q-.336-.272-.448-.528l-1.872-5.52-1.808 5.344a1.4 1.4 0 0 1-.144.272q-.112.176-.256.32a1.2 1.2 0 0 1-.88.368q-.512 0-.848-.24-.32-.24-.432-.48l-.112-.24-3.088-8.88q-.176-.528-.176-.784 0-.64 1.072-1.008.465-.16.832-.16.384 0 .576.256.208.256.368.784l1.76 5.344 1.744-5.264q.224-.672.816-.928.256-.112.656-.112.416 0 .768.272.352.255.448.512l1.84 5.552 1.76-5.376q.128-.368.208-.544a.9.9 0 0 1 .288-.336.85.85 0 0 1 .544-.176q.32 0 .752.16m6.624 3.264q1.6 0 2.656 1.216 1.072 1.216 1.072 2.976v2.816q0 .368-.032.56a1.1 1.1 0 0 1-.144.416q-.207.416-1.232.416-.976 0-1.216-.416a1.4 1.4 0 0 1-.16-.432 8 8 0 0 1-.016-.576v-2.8q0-.656-.368-1.024t-.944-.368q-.56 0-.992.352-.432.336-.496.768v3.104q0 .368-.032.56a1.1 1.1 0 0 1-.144.416q-.207.416-1.232.416-1.007 0-1.232-.432a1.8 1.8 0 0 1-.144-.416 7 7 0 0 1-.016-.56v-9.568q0-.368.016-.544.033-.192.144-.416.225-.432 1.248-.432 1.008 0 1.216.432.129.24.144.432.032.176.032.544v3.536q.801-.975 1.872-.976m10.488.864q.096-.896 1.264-.896.624 0 .928.096t.416.336q.127.24.144.432.032.176.032.544v5.6q0 .368-.032.56-.015.176-.128.416-.224.416-1.104.416-.864 0-1.168-.208-.288-.225-.336-.64-.592.848-1.984.848-1.376 0-2.56-1.264t-1.184-2.928q0-1.68 1.184-2.928 1.2-1.264 2.624-1.264.544 0 .992.192.449.192.624.368.175.16.288.32m-2.912 3.328q0 .528.416.96.415.416 1.008.416.591 0 .976-.432.4-.432.4-.944 0-.528-.384-.976-.367-.448-1.008-.448-.624 0-1.024.448-.384.448-.384.976M89.739 23.9l-1.04-.064v2.208q0 .432.128.624.144.192.512.192.384 0 .576.032.208.016.432.144.368.208.368 1.072 0 1.008-.448 1.232-.24.113-.432.144a6 6 0 0 1-.528.016q-1.664 0-2.528-.752t-.864-2.544v-2.368a4 4 0 0 1-.656.048.76.76 0 0 1-.592-.272q-.225-.271-.224-.928 0-.656.08-.944.08-.305.224-.432a.98.98 0 0 1 .64-.208l.528.064v-1.648q0-.368.016-.544.033-.176.16-.384.209-.4 1.232-.4 1.089 0 1.296.592.08.256.08.816v1.568q.705-.064 1.056-.064.369 0 .544.032.192.016.432.144.416.209.416 1.232 0 1.008-.432 1.232-.24.113-.432.144-.176.015-.544.016m2.356 4.848q-.304-.192-.304-.608t.608-1.264q.176-.272.56-.272.4 0 1.072.4.672.384 1.216.384.975 0 .976-.384 0-.304-1.072-.448-1.008-.144-2-.752-.465-.287-.768-.896-.304-.624-.304-1.472 0-2.528 3.472-2.528 1.136 0 2.336.544.56.256.56.64 0 .383-.352.944t-.72.56q-.192 0-.72-.24a2.6 2.6 0 0 0-1.12-.24q-.945 0-.944.352 0 .48 1.088.624a6 6 0 0 1 2.048.608q.463.224.768.784.32.544.32 1.376 0 .833-.32 1.424-.305.576-.864.864-1.025.495-2.576.496-1.536 0-2.96-.896m14.532-10.144 4.32 8.928q.272.545.272.816 0 .575-.928 1.04-.544.272-.864.272a.9.9 0 0 1-.512-.144 1.1 1.1 0 0 1-.288-.304l-.24-.48-.832-1.728h-4.432l-.832 1.728a5 5 0 0 1-.256.464q-.081.144-.288.304-.192.144-.512.144-.305 0-.848-.272-.928-.448-.928-1.024 0-.271.272-.816l4.32-8.944q.176-.368.528-.592.368-.224.768-.224.863 0 1.28.832m-1.296 3.84-1.056 2.192h2.128zm6.762 9.344v-9.344q0-.368.016-.544.032-.175.144-.4.224-.432 1.072-.432t1.136.224q.304.209.352.624.608-.832 1.904-.832 1.312 0 2.48 1.232t1.168 2.864-1.168 2.864q-1.152 1.232-2.464 1.232t-1.904-.736v3.232q0 .368-.032.544-.016.175-.144.4a.64.64 0 0 1-.4.336q-.288.096-.784.096t-.8-.096a.72.72 0 0 1-.416-.32 1.5 1.5 0 0 1-.144-.4 7 7 0 0 1-.016-.544m3.168-7.536q-.368.432-.368.944t.368.944q.384.416.96.416.592 0 .992-.416.416-.416.416-.944t-.384-.944q-.384-.432-1.008-.432-.608 0-.976.432m6.145 7.536v-9.344q0-.368.016-.544.032-.175.144-.4.223-.432 1.072-.432.848 0 1.136.224.303.209.352.624.608-.832 1.904-.832 1.311 0 2.48 1.232 1.167 1.232 1.168 2.864t-1.168 2.864q-1.152 1.232-2.464 1.232t-1.904-.736v3.232q0 .368-.032.544-.016.175-.144.4a.64.64 0 0 1-.4.336q-.288.096-.784.096t-.8-.096a.72.72 0 0 1-.416-.32 1.5 1.5 0 0 1-.144-.4 7 7 0 0 1-.016-.544m3.168-7.536a1.42 1.42 0 0 0-.368.944q0 .512.368.944.384.416.96.416.591 0 .992-.416.416-.416.416-.944t-.384-.944q-.384-.432-1.008-.432-.609 0-.976.432"/></g><defs><clipPath id="b"><path fill="#fff" d="M8 0h33v48H8z"/></clipPath><clipPath id="d"><path fill="#fff" d="M49 14.5h82v19H49z"/></clipPath></defs></svg>