<svg xmlns="http://www.w3.org/2000/svg" width="94" height="48" fill="none" viewBox="0 0 94 48"><mask id="a" fill="#fff"><path d="M0 24C0 10.745 10.745 0 24 0h46c13.255 0 24 10.745 24 24S83.255 48 70 48H24C10.745 48 0 37.255 0 24"/></mask><path fill="#EFF0F0" d="M0 24C0 10.745 10.745 0 24 0h46c13.255 0 24 10.745 24 24S83.255 48 70 48H24C10.745 48 0 37.255 0 24"/><path fill="#2C8EBB" d="M24 0v2h46v-4H24zm46 48v-2H24v4h46zm-46 0v-2C11.85 46 2 36.15 2 24h-4c0 14.36 11.64 26 26 26zm70-24h-2c0 12.15-9.85 22-22 22v4c14.36 0 26-11.64 26-26zM70 0v2c12.15 0 22 9.85 22 22h4C96 9.64 84.36-2 70-2zM24 0v-2C9.64-2-2 9.64-2 24h4C2 11.85 11.85 2 24 2z" mask="url(#a)"/><g clip-path="url(#b)"><path fill="#2C8EBB" d="M20.97 13.526s1.196-3.38 2.3-2.72c.34.205 1.564 2.737 1.564 2.737s1.306-.71 1.453-.445c1.703 4.828.134 8.232-2.116 10.949 2.993 2.598 3.514 5.261 2.935 8.63 2.815.006 4.264-2.546 7.855-2.703 1.61-.025 1.692 1.728.478 2.002-2.496.328-4.958 2.917-9.99 4.234-.648.919-4.526.816-7.578 1.07-3.23.031-2.396-2.308-1.233-2.704-.758-.384-.79-.767-.938-.727-.808 4.001-3.011 2.782-4.36 2.438-1.04-.513.074-1.72.074-1.72-1.012.404-1.81-1.374-1.693-3.121.11-1.395 1.785-2.746 1.785-2.746-.1-3.481.993-5.745 3.9-7.647-1.016-1.112-2.187-2.902-.642-4.987 2.01-.521 2.401-2.739 6.206-2.54"/><path stroke="#188BED" stroke-width="1.333" d="M20.97 13.526s1.196-3.38 2.3-2.72c.34.205 1.564 2.737 1.564 2.737s1.306-.71 1.453-.445c1.703 4.828.134 8.232-2.116 10.949 2.993 2.598 3.514 5.261 2.935 8.63 2.815.006 4.264-2.546 7.855-2.703 1.61-.025 1.692 1.728.478 2.002-2.496.328-4.958 2.917-9.99 4.234-.648.919-4.526.816-7.578 1.07-3.23.031-2.396-2.308-1.233-2.704-.758-.384-.79-.767-.938-.727-.808 4.001-3.011 2.782-4.36 2.438-1.04-.513.074-1.72.074-1.72-1.012.404-1.81-1.374-1.693-3.121.11-1.395 1.785-2.746 1.785-2.746-.1-3.481.993-5.745 3.9-7.647-1.016-1.112-2.187-2.902-.642-4.987 2.01-.521 2.401-2.739 6.206-2.54"/></g><g clip-path="url(#c)"><path fill="#2C8EBB" d="M57.48 21.164q.944.416.944 1.008a1.2 1.2 0 0 1-.128.544 3 3 0 0 0-.128.272l-4.192 9.376q-.128.304-.224.464a.9.9 0 0 1-.272.304.78.78 0 0 1-.48.144q-.288 0-.848-.24-.945-.416-.944-.992 0-.384 1.536-3.664l-3.184-5.36q-.32-.528-.32-.784 0-.512.864-1.024.544-.32.848-.32t.496.128a.8.8 0 0 1 .272.272q.096.127.88 1.488.8 1.344 1.52 2.512.08-.256.864-1.968.784-1.728.832-1.84.064-.112.192-.272a.69.69 0 0 1 .576-.272q.384 0 .896.224m7.288.8q.097-.896 1.264-.896.624 0 .928.096t.416.336q.129.24.144.432.032.176.032.544v5.6q0 .368-.032.56-.015.176-.128.416-.224.416-1.104.416-.864 0-1.168-.208-.288-.225-.336-.64-.591.848-1.984.848-1.375 0-2.56-1.264-1.184-1.264-1.184-2.928 0-1.68 1.184-2.928 1.2-1.264 2.624-1.264.545 0 .992.192.449.192.624.368.177.16.288.32m-2.912 3.328q0 .528.416.96.417.416 1.008.416.592 0 .976-.432.4-.432.4-.944 0-.528-.384-.976-.368-.448-1.008-.448-.624 0-1.024.448-.384.448-.384.976m12.7-4.128q.303.096.496.336.207.225.207.736 0 .512-.303 1.12-.304.608-.88.608-.289 0-.56-.128-.256-.128-.689-.128-.431 0-.816.304-.367.304-.367.736v3.36q0 .368-.032.56a1.1 1.1 0 0 1-.144.416q-.24.416-1.249.416-.767 0-1.103-.272-.257-.225-.288-.688v-6.08q0-.368.016-.544.03-.192.144-.416.223-.432 1.248-.432.96 0 1.2.368.175.256.175.528.081-.112.224-.272.16-.16.657-.432.495-.272.864-.272.384 0 .64.048.255.032.56.128m6.272-.096q1.6 0 2.656 1.232 1.072 1.216 1.072 2.976v2.816q0 .368-.032.56-.015.175-.128.4-.224.432-1.248.432-1.136 0-1.312-.592-.096-.271-.096-.816V25.26q0-.656-.384-1.024-.368-.368-1.008-.368-.624 0-1.024.384-.384.384-.384 1.008v2.832q0 .368-.032.56-.016.175-.144.4-.209.432-1.232.432-1.008 0-1.232-.432a1.8 1.8 0 0 1-.144-.416 7 7 0 0 1-.016-.56v-5.664q0-.352.016-.528.032-.192.16-.416.225-.4 1.232-.4.975 0 1.2.368.16.272.16.656.064-.112.288-.32t.432-.336a2.1 2.1 0 0 1 1.2-.368"/></g><defs><clipPath id="b"><path fill="#fff" d="M8 0h33v48H8z"/></clipPath><clipPath id="c"><path fill="#fff" d="M49 14.5h37v19H49z"/></clipPath></defs></svg>